<mxfile modified="2021-06-08T10:46:21.761Z" host="app.diagrams.net" agent="5.0 (Windows NT 10.0; Win64; x64) AppleWebKit/537.36 (KHTML, like Gecko) Chrome/91.0.4472.77 Safari/537.36" etag="YyxzLY7qf77nfrX-8JXw" version="14.7.6" type="github">
  <diagram id="C2fSY1v2SiZeoUbDoYyL" name="Page-1">
    <mxGraphModel dx="3245" dy="1094" grid="1" gridSize="10" guides="1" tooltips="1" connect="1" arrows="1" fold="1" page="1" pageScale="1" pageWidth="1169" pageHeight="827" math="0" shadow="0">
      <root>
        <mxCell id="0" />
        <mxCell id="1" parent="0" />
        <mxCell id="3ne1QswCM8ZiEu4GHsYG-31" value="Company Goods Delivery Procedure" style="text;html=1;strokeColor=none;fillColor=none;align=center;verticalAlign=middle;whiteSpace=wrap;rounded=0;fontStyle=1;fontSize=20;fontColor=#4D4D4D;" parent="1" vertex="1">
          <mxGeometry x="189.5" y="50" width="790" height="30" as="geometry" />
        </mxCell>
        <mxCell id="3ne1QswCM8ZiEu4GHsYG-32" value="" style="line;strokeWidth=2;html=1;fontSize=20;fontColor=#4D4D4D;" parent="1" vertex="1">
          <mxGeometry x="103.5" y="80" width="960" height="10" as="geometry" />
        </mxCell>
        <mxCell id="D9FhCrUlwlGwZ-h1Pyif-1" value="" style="shape=image;verticalLabelPosition=bottom;labelBackgroundColor=#ffffff;verticalAlign=top;aspect=fixed;imageAspect=0;image=data:image/jpeg,/9j/4AAQSkZJRgABAQEAeAB4AAD/4RDcRXhpZgAATU0AKgAAAAgABAE7AAIAAAAKAAAISodpAAQAAAABAAAIVJydAAEAAAAIAAAQzOocAAcAAAgMAAAAPgAAAAAc6gAAAAgAAAAAAAAAAAAAAAAAAAAAAAAAAAAAAAAAAAAAAAAAAAAAAAAAAAAAAAAAAAAAAAAAAAAAAAAAAAAAAAAAAAAAAAAAAAAAAAAAAAAAAAAAAAAAAAAAAAAAAAAAAAAAAAAAAAAAAAAAAAAAAAAAAAAAAAAAAAAAAAAAAAAAAAAAAAAAAAAAAAAAAAAAAAAAAAAAAAAAAAAAAAAAAAAAAAAAAAAAAAAAAAAAAAAAAAAAAAAAAAAAAAAAAAAAAAAAAAAAAAAAAAAAAAAAAAAAAAAAAAAAAAAAAAAAAAAAAAAAAAAAAAAAAAAAAAAAAAAAAAAAAAAAAAAAAAAAAAAAAAAAAAAAAAAAAAAAAAAAAAAAAAAAAAAAAAAAAAAAAAAAAAAAAAAAAAAAAAAAAAAAAAAAAAAAAAAAAAAAAAAAAAAAAAAAAAAAAAAAAAAAAAAAAAAAAAAAAAAAAAAAAAAAAAAAAAAAAAAAAAAAAAAAAAAAAAAAAAAAAAAAAAAAAAAAAAAAAAAAAAAAAAAAAAAAAAAAAAAAAAAAAAAAAAAAAAAAAAAAAAAAAAAAAAAAAAAAAAAAAAAAAAAAAAAAAAAAAAAAAAAAAAAAAAAAAAAAAAAAAAAAAAAAAAAAAAAAAAAAAAAAAAAAAAAAAAAAAAAAAAAAAAAAAAAAAAAAAAAAAAAAAAAAAAAAAAAAAAAAAAAAAAAAAAAAAAAAAAAAAAAAAAAAAAAAAAAAAAAAAAAAAAAAAAAAAAAAAAAAAAAAAAAAAAAAAAAAAAAAAAAAAAAAAAAAAAAAAAAAAAAAAAAAAAAAAAAAAAAAAAAAAAAAAAAAAAAAAAAAAAAAAAAAAAAAAAAAAAAAAAAAAAAAAAAAAAAAAAAAAAAAAAAAAAAAAAAAAAAAAAAAAAAAAAAAAAAAAAAAAAAAAAAAAAAAAAAAAAAAAAAAAAAAAAAAAAAAAAAAAAAAAAAAAAAAAAAAAAAAAAAAAAAAAAAAAAAAAAAAAAAAAAAAAAAAAAAAAAAAAAAAAAAAAAAAAAAAAAAAAAAAAAAAAAAAAAAAAAAAAAAAAAAAAAAAAAAAAAAAAAAAAAAAAAAAAAAAAAAAAAAAAAAAAAAAAAAAAAAAAAAAAAAAAAAAAAAAAAAAAAAAAAAAAAAAAAAAAAAAAAAAAAAAAAAAAAAAAAAAAAAAAAAAAAAAAAAAAAAAAAAAAAAAAAAAAAAAAAAAAAAAAAAAAAAAAAAAAAAAAAAAAAAAAAAAAAAAAAAAAAAAAAAAAAAAAAAAAAAAAAAAAAAAAAAAAAAAAAAAAAAAAAAAAAAAAAAAAAAAAAAAAAAAAAAAAAAAAAAAAAAAAAAAAAAAAAAAAAAAAAAAAAAAAAAAAAAAAAAAAAAAAAAAAAAAAAAAAAAAAAAAAAAAAAAAAAAAAAAAAAAAAAAAAAAAAAAAAAAAAAAAAAAAAAAAAAAAAAAAAAAAAAAAAAAAAAAAAAAAAAAAAAAAAAAAAAAAAAAAAAAAAAAAAAAAAAAAAAAAAAAAAAAAAAAAAAAAAAAAAAAAAAAAAAAAAAAAAAAAAAAAAAAAAAAAAAAAAAAAAAAAAAAAAAAAAAAAAAAAAAAAAAAAAAAAAAAAAAAAAAAAAAAAAAAAAAAAAAAAAAAAAAAAAAAAAAAAAAAAAAAAAAAAAAAAAAAAAAAAAAAAAAAAAAAAAAAAAAAAAAAAAAAAAAAAAAAAAAAAAAAAAAAAAAAAAAAAAAAAAAAAAAAAAAAAAAAAAAAAAAAAAAAAAAAAAAAAAAAAAAAAAAAAAAAAAAAAAAAAAAAAAAAAAAAAAAAAAAAAAAAAAAAAAAAAAAAAAAAAAAAAAAAAAAAAAAAAAAAAAAAAAAAAAAAAAAAAAAAAAAAAAAAAAAAAAAAAAAAAAAAAAAAAAAAAAAAAAAAAAAAAAAAAAAAAAAAAAAAAAAAAAAAAAAAAAAAAAAAAAAAAAAAAAAAAAAAAAAAAAAAAAAAAAAAAAAAAAAAAAAAAAAAAAAAAAAAAAAAAAAAAAAAAAAAAAAAAAAAAAAAAAAAAAAAAAAAAAAAAAAAAAAAAAAAAAAAAAAAAAAAAAAAAAAAAAAAAAAAAAAAAAAAAAAAAAAAAAAAAAAAAAAAAAAAAAAAAAAAAAAAAAAAAAAAAAAAAAAAAAAAAAAAAAAAAAAAAAAAAAAAAAAAAAAAAAAAAAAAAAAAAAAAAAAAAAAAAAAAAAAAAAAAAAAAAAAAAAAAAAAAAAAAAAAAAAAAAAAAAAAAAAAAAAAAAAAAAAAAAAAAAAAAAAAAAAAAAAAAAAAAAAAAAAAAAAAAAAAAAAAAAAAAAAAAAAAAAAAAAAAAAAAAAAAAAAAAAAAAAAAAAAAAAAAAAAAAAAAAAAAAAAAAAAAAAAAAAAAAAAAAAAAAAAAAAAAAAAAAAAAAAAAAAAAAAAAAAAAAAAAAAAAAAAAAAAAAAAAAAAAAAAAAAAAAAAAAAAAAAAAAAAAAAAAAAAAAAAAAAAAAAAAAAAAAAAAAAAAAAAAAAAAAAAAAAAAAAAAAAAAAAAAAAAAAAAAAAAAAAAAAAAAAAAAAAAAAAAAAAAAAAAAAAAAAAAAAAAAAAAAAAAAAAAAAAAAAAAAAAAAAAAAAAAAAAAAAAAAAAAAAAAAAAAAAAAAAAAAAAAAAAAAAAAAAAAAAAAAAAAAAAAAAAAAAAAAAAAAAAAAAAAAAAAAAAAAAAAAAAAAAAAAAAAAAAAAAAAAAAAOuFuO2VmOuejAAABZADAAIAAAAUAAAQopAEAAIAAAAUAAAQtpKRAAIAAAADNjUAAJKSAAIAAAADNjUAAOocAAcAAAgMAAAIlgAAAAAc6gAAAAgAAAAAAAAAAAAAAAAAAAAAAAAAAAAAAAAAAAAAAAAAAAAAAAAAAAAAAAAAAAAAAAAAAAAAAAAAAAAAAAAAAAAAAAAAAAAAAAAAAAAAAAAAAAAAAAAAAAAAAAAAAAAAAAAAAAAAAAAAAAAAAAAAAAAAAAAAAAAAAAAAAAAAAAAAAAAAAAAAAAAAAAAAAAAAAAAAAAAAAAAAAAAAAAAAAAAAAAAAAAAAAAAAAAAAAAAAAAAAAAAAAAAAAAAAAAAAAAAAAAAAAAAAAAAAAAAAAAAAAAAAAAAAAAAAAAAAAAAAAAAAAAAAAAAAAAAAAAAAAAAAAAAAAAAAAAAAAAAAAAAAAAAAAAAAAAAAAAAAAAAAAAAAAAAAAAAAAAAAAAAAAAAAAAAAAAAAAAAAAAAAAAAAAAAAAAAAAAAAAAAAAAAAAAAAAAAAAAAAAAAAAAAAAAAAAAAAAAAAAAAAAAAAAAAAAAAAAAAAAAAAAAAAAAAAAAAAAAAAAAAAAAAAAAAAAAAAAAAAAAAAAAAAAAAAAAAAAAAAAAAAAAAAAAAAAAAAAAAAAAAAAAAAAAAAAAAAAAAAAAAAAAAAAAAAAAAAAAAAAAAAAAAAAAAAAAAAAAAAAAAAAAAAAAAAAAAAAAAAAAAAAAAAAAAAAAAAAAAAAAAAAAAAAAAAAAAAAAAAAAAAAAAAAAAAAAAAAAAAAAAAAAAAAAAAAAAAAAAAAAAAAAAAAAAAAAAAAAAAAAAAAAAAAAAAAAAAAAAAAAAAAAAAAAAAAAAAAAAAAAAAAAAAAAAAAAAAAAAAAAAAAAAAAAAAAAAAAAAAAAAAAAAAAAAAAAAAAAAAAAAAAAAAAAAAAAAAAAAAAAAAAAAAAAAAAAAAAAAAAAAAAAAAAAAAAAAAAAAAAAAAAAAAAAAAAAAAAAAAAAAAAAAAAAAAAAAAAAAAAAAAAAAAAAAAAAAAAAAAAAAAAAAAAAAAAAAAAAAAAAAAAAAAAAAAAAAAAAAAAAAAAAAAAAAAAAAAAAAAAAAAAAAAAAAAAAAAAAAAAAAAAAAAAAAAAAAAAAAAAAAAAAAAAAAAAAAAAAAAAAAAAAAAAAAAAAAAAAAAAAAAAAAAAAAAAAAAAAAAAAAAAAAAAAAAAAAAAAAAAAAAAAAAAAAAAAAAAAAAAAAAAAAAAAAAAAAAAAAAAAAAAAAAAAAAAAAAAAAAAAAAAAAAAAAAAAAAAAAAAAAAAAAAAAAAAAAAAAAAAAAAAAAAAAAAAAAAAAAAAAAAAAAAAAAAAAAAAAAAAAAAAAAAAAAAAAAAAAAAAAAAAAAAAAAAAAAAAAAAAAAAAAAAAAAAAAAAAAAAAAAAAAAAAAAAAAAAAAAAAAAAAAAAAAAAAAAAAAAAAAAAAAAAAAAAAAAAAAAAAAAAAAAAAAAAAAAAAAAAAAAAAAAAAAAAAAAAAAAAAAAAAAAAAAAAAAAAAAAAAAAAAAAAAAAAAAAAAAAAAAAAAAAAAAAAAAAAAAAAAAAAAAAAAAAAAAAAAAAAAAAAAAAAAAAAAAAAAAAAAAAAAAAAAAAAAAAAAAAAAAAAAAAAAAAAAAAAAAAAAAAAAAAAAAAAAAAAAAAAAAAAAAAAAAAAAAAAAAAAAAAAAAAAAAAAAAAAAAAAAAAAAAAAAAAAAAAAAAAAAAAAAAAAAAAAAAAAAAAAAAAAAAAAAAAAAAAAAAAAAAAAAAAAAAAAAAAAAAAAAAAAAAAAAAAAAAAAAAAAAAAAAAAAAAAAAAAAAAAAAAAAAAAAAAAAAAAAAAAAAAAAAAAAAAAAAAAAAAAAAAAAAAAAAAAAAAAAAAAAAAAAAAAAAAAAAAAAAAAAAAAAAAAAAAAAAAAAAAAAAAAAAAAAAAAAAAAAAAAAAAAAAAAAAAAAAAAAAAAAAAAAAAAAAAAAAAAAAAAAAAAAAAAAAAAAAAAAAAAAAAAAAAAAAAAAAAAAAAAAAAAAAAAAAAAAAAAAAAAAAAAAAAAAAAAAAAAAAAAAAAAAAAAAAAAAAAAAAAAAAAAAAAAAAAAAAAAAAAAAAAAAAAAAAAAAAAAAAAAAAAAAAAAAAAAAAAAAAAAAAAAAAAAAAAAAAAAAAAAAAAAAAAAAAAAAAAAAAAAAAAAAAAAAAAAAAAAAAAAAAAAAAAAAAAAAAAAAAAAAAAAAAAAAAAAAAAAAAAAAAAAAAAAAAAAAAAAAAAAAAAAAAAAAAAAAAAAAAAAAAAAAAAAAAAAAAAAAAAAAAAAAAAAAAAAAAAAAAAAAAAAAAAAAAAAAAAAAAAAAAAAAAAAAAAAAAAAAAAAAAAAAAAAAAAAAAAAAAAAAAAAAAAAAAAAAAAAAAAAAAAAAAAAAAAAAAAAAAAAAAAAAAAAAAAAAAAAAAAAAAAAAAAAAAAAAAAAAAAAAAAAAAAAAAAAAAAAAAAAAAAAAAAAAAAAAAAAAAAAAAAAAAAAAAAAAAAAAAAAAAAAAAAAAAAAAAAAAAAAAAAAAAAAAAAAAAAAAAAAAAAAAAAAAAAAAAAAAAAAAAAAAAAAAAAAAAAAAAAAAAAAAAAAAAAAAAAAAAAAAAAAAAAAAAAAAAAAAAAAAAAAAAAAAAAAAAAAAAAAAAAAAAAAAAAAAAAAAAAAAAAAAAAAAAAAAAAAAAAAAAAAAAAAAAAAAAAAAAAAAAAAAAAAAAAAAAAAAAAAAAAAAAAAAAAAAAAAAAAAAAAAAAAAAAAAAAAAAAAAAAAAAAAAAAAAAAAAAAAAAADIwMjE6MDY6MDIgMTQ6NTE6NDgAMjAyMTowNjowMiAxNDo1MTo0OAAAAHixWNWMtwAA/+ELHGh0dHA6Ly9ucy5hZG9iZS5jb20veGFwLzEuMC8APD94cGFja2V0IGJlZ2luPSfvu78nIGlkPSdXNU0wTXBDZWhpSHpyZVN6TlRjemtjOWQnPz4NCjx4OnhtcG1ldGEgeG1sbnM6eD0iYWRvYmU6bnM6bWV0YS8iPjxyZGY6UkRGIHhtbG5zOnJkZj0iaHR0cDovL3d3dy53My5vcmcvMTk5OS8wMi8yMi1yZGYtc3ludGF4LW5zIyI+PHJkZjpEZXNjcmlwdGlvbiByZGY6YWJvdXQ9InV1aWQ6ZmFmNWJkZDUtYmEzZC0xMWRhLWFkMzEtZDMzZDc1MTgyZjFiIiB4bWxuczpkYz0iaHR0cDovL3B1cmwub3JnL2RjL2VsZW1lbnRzLzEuMS8iLz48cmRmOkRlc2NyaXB0aW9uIHJkZjphYm91dD0idXVpZDpmYWY1YmRkNS1iYTNkLTExZGEtYWQzMS1kMzNkNzUxODJmMWIiIHhtbG5zOnhtcD0iaHR0cDovL25zLmFkb2JlLmNvbS94YXAvMS4wLyI+PHhtcDpDcmVhdGVEYXRlPjIwMjEtMDYtMDJUMTQ6NTE6NDguNjQ4PC94bXA6Q3JlYXRlRGF0ZT48L3JkZjpEZXNjcmlwdGlvbj48cmRmOkRlc2NyaXB0aW9uIHJkZjphYm91dD0idXVpZDpmYWY1YmRkNS1iYTNkLTExZGEtYWQzMS1kMzNkNzUxODJmMWIiIHhtbG5zOmRjPSJodHRwOi8vcHVybC5vcmcvZGMvZWxlbWVudHMvMS4xLyI+PGRjOmNyZWF0b3I+PHJkZjpTZXEgeG1sbnM6cmRmPSJodHRwOi8vd3d3LnczLm9yZy8xOTk5LzAyLzIyLXJkZi1zeW50YXgtbnMjIj48cmRmOmxpPuuFuO2VmOuejDwvcmRmOmxpPjwvcmRmOlNlcT4NCgkJCTwvZGM6Y3JlYXRvcj48L3JkZjpEZXNjcmlwdGlvbj48L3JkZjpSREY+PC94OnhtcG1ldGE+DQogICAgICAgICAgICAgICAgICAgICAgICAgICAgICAgICAgICAgICAgICAgICAgICAgICAgICAgICAgICAgICAgICAgICAgICAgICAgICAgICAgICAgICAgICAgICAgICAgICAgCiAgICAgICAgICAgICAgICAgICAgICAgICAgICAgICAgICAgICAgICAgICAgICAgICAgICAgICAgICAgICAgICAgICAgICAgICAgICAgICAgICAgICAgICAgICAgICAgICAgICAKICAgICAgICAgICAgICAgICAgICAgICAgICAgICAgICAgICAgICAgICAgICAgICAgICAgICAgICAgICAgICAgICAgICAgICAgICAgICAgICAgICAgICAgICAgICAgICAgICAgIAogICAgICAgICAgICAgICAgICAgICAgICAgICAgICAgICAgICAgICAgICAgICAgICAgICAgICAgICAgICAgICAgICAgICAgICAgICAgICAgICAgICAgICAgICAgICAgICAgICAgCiAgICAgICAgICAgICAgICAgICAgICAgICAgICAgICAgICAgICAgICAgICAgICAgICAgICAgICAgICAgICAgICAgICAgICAgICAgICAgICAgICAgICAgICAgICAgICAgICAgICAKICAgICAgICAgICAgICAgICAgICAgICAgICAgICAgICAgICAgICAgICAgICAgICAgICAgICAgICAgICAgICAgICAgICAgICAgICAgICAgICAgICAgICAgICAgICAgICAgICAgIAogICAgICAgICAgICAgICAgICAgICAgICAgICAgICAgICAgICAgICAgICAgICAgICAgICAgICAgICAgICAgICAgICAgICAgICAgICAgICAgICAgICAgICAgICAgICAgICAgICAgCiAgICAgICAgICAgICAgICAgICAgICAgICAgICAgICAgICAgICAgICAgICAgICAgICAgICAgICAgICAgICAgICAgICAgICAgICAgICAgICAgICAgICAgICAgICAgICAgICAgICAKICAgICAgICAgICAgICAgICAgICAgICAgICAgICAgICAgICAgICAgICAgICAgICAgICAgICAgICAgICAgICAgICAgICAgICAgICAgICAgICAgICAgICAgICAgICAgICAgICAgIAogICAgICAgICAgICAgICAgICAgICAgICAgICAgICAgICAgICAgICAgICAgICAgICAgICAgICAgICAgICAgICAgICAgICAgICAgICAgICAgICAgICAgICAgICAgICAgICAgICAgCiAgICAgICAgICAgICAgICAgICAgICAgICAgICAgICAgICAgICAgICAgICAgICAgICAgICAgICAgICAgICAgICAgICAgICAgICAgICAgICAgICAgICAgICAgICAgICAgICAgICAKICAgICAgICAgICAgICAgICAgICAgICAgICAgICAgICAgICAgICAgICAgICAgICAgICAgICAgICAgICAgICAgICAgICAgICAgICAgICAgICAgICAgICAgICAgICAgICAgICAgIAogICAgICAgICAgICAgICAgICAgICAgICAgICAgICAgICAgICAgICAgICAgICAgICAgICAgICAgICAgICAgICAgICAgICAgICAgICAgICAgICAgICAgICAgICAgICAgICAgICAgCiAgICAgICAgICAgICAgICAgICAgICAgICAgICAgICAgICAgICAgICAgICAgICAgICAgICAgICAgICAgICAgICAgICAgICAgICAgICAgICAgICAgICAgICAgICAgICAgICAgICAKICAgICAgICAgICAgICAgICAgICAgICAgICAgICAgICAgICAgICAgICAgICAgICAgICAgICAgICAgICAgICAgICAgICAgICAgICAgICAgICAgICAgICAgICAgICAgICAgICAgIAogICAgICAgICAgICAgICAgICAgICAgICAgICAgICAgICAgICAgICAgICAgICAgICAgICAgICAgICAgICAgICAgICAgICAgICAgICAgICAgICAgICAgICAgICAgICAgICAgICAgCiAgICAgICAgICAgICAgICAgICAgICAgICAgICAgICAgICAgICAgICAgICAgICAgICAgICAgICAgICAgICAgICAgICAgICAgICAgICAgICAgICAgICAgICAgICAgICAgICAgICAKICAgICAgICAgICAgICAgICAgICAgICAgICAgICAgICAgICAgICAgICAgICAgICAgICAgICAgICAgICAgICAgICAgICAgICAgICAgICAgICAgICAgICAgICAgICAgICAgICAgIAogICAgICAgICAgICAgICAgICAgICAgICAgICAgICAgICAgICAgICAgICAgICAgICAgICAgICAgICAgICAgICAgICAgICAgICAgICAgICAgICAgICAgICAgICAgICAgICAgICAgCiAgICAgICAgICAgICAgICAgICAgICAgICAgICAgICAgICAgICAgICAgICAgICAgICAgICAgICAgICAgICAgICAgICAgICAgICAgICAgICAgICAgICAgICAgICAgICAgICAgICAKICAgICAgICAgICAgICAgICAgICAgICAgICAgIDw/eHBhY2tldCBlbmQ9J3cnPz7/2wBDAAcFBQYFBAcGBQYIBwcIChELCgkJChUPEAwRGBUaGRgVGBcbHichGx0lHRcYIi4iJSgpKywrGiAvMy8qMicqKyr/2wBDAQcICAoJChQLCxQqHBgcKioqKioqKioqKioqKioqKioqKioqKioqKioqKioqKioqKioqKioqKioqKioqKioqKir/wAARCAIaAYQDASIAAhEBAxEB/8QAHwAAAQUBAQEBAQEAAAAAAAAAAAECAwQFBgcICQoL/8QAtRAAAgEDAwIEAwUFBAQAAAF9AQIDAAQRBRIhMUEGE1FhByJxFDKBkaEII0KxwRVS0fAkM2JyggkKFhcYGRolJicoKSo0NTY3ODk6Q0RFRkdISUpTVFVWV1hZWmNkZWZnaGlqc3R1dnd4eXqDhIWGh4iJipKTlJWWl5iZmqKjpKWmp6ipqrKztLW2t7i5usLDxMXGx8jJytLT1NXW19jZ2uHi4+Tl5ufo6erx8vP09fb3+Pn6/8QAHwEAAwEBAQEBAQEBAQAAAAAAAAECAwQFBgcICQoL/8QAtREAAgECBAQDBAcFBAQAAQJ3AAECAxEEBSExBhJBUQdhcRMiMoEIFEKRobHBCSMzUvAVYnLRChYkNOEl8RcYGRomJygpKjU2Nzg5OkNERUZHSElKU1RVVldYWVpjZGVmZ2hpanN0dXZ3eHl6goOEhYaHiImKkpOUlZaXmJmaoqOkpaanqKmqsrO0tba3uLm6wsPExcbHyMnK0tPU1dbX2Nna4uPk5ebn6Onq8vP09fb3+Pn6/9oADAMBAAIRAxEAPwDi/hx4F/4WB4in0r+0f7P8m0a583yPNzh0Xbjcv9/Oc9q9M/4Zl/6m3/ym/wD22sH9nH/kot//ANgqT/0bFX0vVybTJSPBv+GZf+pt/wDKb/8AbaP+GZf+pt/8pv8A9tr3msnxDrL6NYRvbW4ubq4nS3t4WfYrO7BRlsHAGck4PHalzMdkeOf8My/9Tb/5Tf8A7bR/wzL/ANTb/wCU3/7bXsXh7WZdXtrhby2W1vLSdoLiJJN6hgeqtgZBHI4H0qe61/R7K4a3vNVsbeZMbopblFZcjIyCc9KOZhZHi3/DMv8A1Nv/AJTf/ttH/DMv/U2/+U3/AO217J/wlPh//oO6b/4GR/40f8JT4f8A+g7pv/gZH/jRzMLI8b/4Zl/6m3/ym/8A22j/AIZl/wCpt/8AKb/9tr2T/hKfD/8A0HdN/wDAyP8Axo/4Snw//wBB3Tf/AAMj/wAaOZhZHjf/AAzL/wBTb/5Tf/ttH/DMv/U2/wDlN/8Atteyf8JT4f8A+g7pv/gZH/jR/wAJT4f/AOg7pv8A4GR/40czCyPG/wDhmX/qbf8Aym//AG2j/hmX/qbf/Kb/APba9k/4Snw//wBB3Tf/AAMj/wAaP+Ep8P8A/Qd03/wMj/xo5mFkeN/8My/9Tb/5Tf8A7bR/wzL/ANTb/wCU3/7bXsn/AAlPh/8A6Dum/wDgZH/jR/wlPh//AKDum/8AgZH/AI0czCyPG/8AhmX/AKm3/wApv/22j/hmX/qbf/Kb/wDba9k/4Snw/wD9B3Tf/AyP/Gj/AISnw/8A9B3Tf/AyP/GjmYWR43/wzL/1Nv8A5Tf/ALbR/wAMy/8AU2/+U3/7bXsn/CU+H/8AoO6b/wCBkf8AjR/wlPh//oO6b/4GR/40czCyPG/+GZf+pt/8pv8A9to/4Zl/6m3/AMpv/wBtr2A+MPDIOD4i0kH/AK/o/wD4qj/hMfDP/Qx6T/4HRf8AxVHMwsjx/wD4Zl/6m3/ym/8A22j/AIZl/wCpt/8AKb/9tr2D/hMfDP8A0Mek/wDgdF/8VR/wmPhn/oYtJ/8AA6L/AOKo5mFkeP8A/DMv/U2/+U3/AO20f8My/wDU2/8AlN/+217B/wAJj4ZPTxFpP/gdF/8AFVIPFXh49Nd0w/8Ab5H/AI0czCyPG/8AhmX/AKm3/wApv/22j/hmX/qbf/Kb/wDba9k/4Snw/wD9B3Tf/AyP/Gj/AISnw/8A9B3Tf/AyP/GjmYWR43/wzL/1Nv8A5Tf/ALbR/wAMy/8AU2/+U3/7bXsn/CU+H/8AoO6b/wCBkf8AjR/wlPh//oO6b/4GR/40czCyPG/+GZf+pt/8pv8A9to/4Zl/6m3/AMpv/wBtr2T/AISnw/8A9B3Tf/AyP/Gj/hKfD/8A0HdN/wDAyP8Axo5mFkeN/wDDMv8A1Nv/AJTf/ttH/DMv/U2/+U3/AO217J/wlPh//oO6b/4GR/40f8JT4f8A+g7pv/gZH/jRzMLI8b/4Zl/6m3/ym/8A22j/AIZl/wCpt/8AKb/9tr2T/hKfD/8A0HdN/wDAyP8Axo/4Snw//wBB3Tf/AAMj/wAaOZhZHjf/AAzL/wBTb/5Tf/ttH/DMv/U2/wDlN/8Atteyf8JT4f8A+g7pv/gZH/jR/wAJT4f/AOg7pv8A4GR/40czCyPG/wDhmX/qbf8Aym//AG2j/hmX/qbf/Kb/APba9k/4Snw//wBB3Tf/AAMj/wAaP+Ep8P8A/Qd03/wMj/xo5mFkeN/8My/9Tb/5Tf8A7bR/wzL/ANTb/wCU3/7bXsn/AAlPh/8A6Dum/wDgZH/jR/wlPh//AKDum/8AgZH/AI0czCyPG/8AhmX/AKm3/wApv/22j/hmX/qbf/Kb/wDba9k/4Snw/wD9B3Tf/AyP/Gj/AISnw/8A9B3Tf/AyP/GjmYWR43/wzL/1Nv8A5Tf/ALbR/wAMy/8AU2/+U3/7bXsn/CU+H/8AoO6b/wCBkf8AjR/wlPh//oO6b/4GR/40czCyPG/+GZf+pt/8pv8A9tqhrv7PP9ieHdS1X/hJ/P8AsNpLc+V/Z+3fsQttz5hxnGM4Ne5/8JT4f/6Dum/+Bkf+NUvGdxDdfDLxDPayxzQyaTdMkkbBlYeU3II4NHMwsj4vooorUk9b/Zx/5KLf/wDYKk/9GxV9L180fs4/8lFv/wDsFSf+jYq+l6yluUgrG8S6Rc6rYwHT3iS8tLmO5h84kIxRgdrEAkA4xnBrZoqRmFoGhz2lnfNrBhkudQneadYGJRQeigkAnA4zgVj+HNB0q08ReJbeGwg8pLuHaHXfjNvGerZPU12tc3ov/I1+KP8Ar7g/9JoqBo0v7J07/nwtf+/K/wCFH9k6d/z4Wv8A35X/AAq3RSGVP7J07/nwtf8Avyv+FH9k6d/z4Wv/AH5X/CrdFAFT+ydO/wCfC1/78r/hR/ZOnf8APha/9+V/wq3RQBU/snTv+fC1/wC/K/4Uf2Tp3/Pha/8Aflf8Kt0UAVP7J07/AJ8LX/vyv+FH9k6d/wA+Fr/35X/CrdFAFT+ydO/58LX/AL8r/hR/ZOnf8+Fr/wB+V/wq3SZoAqf2Tp3/AD4Wue37lf8ACuf8bXOk+HfCl3eS2dqreWVX9yvUj6V1bdMg8189/HzxWbjUItDtycRjdJjpQB4xeSC4upJyi5kckgDpUQjQk4VcfSnEYHJxTPNjTq1AD/LUfwr+VKAh4KL+VRfa4h71G16meBSuFi2EjDAqq57cV2nhLx/c+HJ1+02kNza9GDRqSB+Irz9b9cnjpUq6mAfu5+tAH2H4Q1zw54v0wT2dtZ+YmN8ZhUMPwxXR/wBl6aBn7Ba4PA/cL/hXx14R8d3HhXWY7u33FOjoD1Fe76H8f/Dt/tj1BXtXxzkZ5oA9QGk6d/z4Wv8A35X/AAo/snTv+fC1/wC/K/4VV0jxJpOtwLJp17FKGHADDP5Vp7ucGmBW/snTv+fC1/78r/hR/ZOnf8+Fr/35X/CrWfWlzQBU/snTv+fC1/78r/hR/ZOnf8+Fr/35X/CrdFAFT+ydO/58LX/vyv8AhR/ZOnf8+Fr/AN+V/wAKt0UAVP7J07/nwtf+/K/4Uf2Tp3/Pha/9+V/wq3RQBU/snTv+fC1/78r/AIUf2Tp3/Pha/wDflf8ACrdFAFT+ydO/58LX/vyv+FH9k6d/z4Wv/flf8Kt0UAVP7J07/nwtf+/K/wCFH9k6d/z4Wv8A35X/AAq3RQBU/snTv+fC1/78r/hR/ZOnf8+Fr/35X/CrdFAFT+ydO/58LX/vyv8AhXJIAv7Pt6FGANDucAf9c3ruK4cf8m/X3/YDuf8A0W9NbiZ8mUUUVuZnrf7OP/JRb/8A7BUn/o2Kvpevmj9nH/kot/8A9gqT/wBGxV9L1lLcpBRRRUjCub0X/ka/FH/X3B/6TRV0lc3ov/I1+KP+vuD/ANJoqBo3aKKKQwooooAKKKKACiiigAoopozk/rQA41XvLy3sbdp7yRURBncTisPxh4wsfCOjSXl3Koc8IhPU18w+NvibrPiu4ZXuZIrRT8sSnANID17xh8eLDSZHttGQXMw43E8CvnzxF4muvEOtTahdN+9mPIXtWPJJubJOTUeWf5V5zSuOwsk7HqTUa+Y5woJrVs9HMw8yfKoOTmrg8mE7beEHtnFQ6iLUGYQtJzzsNMeGVBkrXTxWd/dD93GwHsKc/h6+aM70b8qj2sS/ZSOUwRyRRmuhn0kw2eJI/m9cVTl09BDkDBq1NEODRmDJ57CnKxPIwAKV7cx8rk00fkatO5DVjX0jxHqmi3Ky2F3LCV5GG617l8P/AI8C4mhsPEu1WchRMOOfevncU9TggjtVCPvi1uoryFZ4GV42GVYGp1r5o+DvxRn0zUYdF1a4LWsx2o0h+6e1fSySLNGro2VYZBFAx1FH8XHSigQUUUUAFFFFABRRRQAUUUUAFFFFABRRRQAVw4/5N+vv+wHc/wDot67iuHH/ACb9ff8AYDuf/Rb01uJnyZRRRW5met/s4/8AJRb/AP7BUn/o2Kvpevmj9nH/AJKLf/8AYKk/9GxV9L1lLcpBRRRUjCub0X/ka/FH/X3B/wCk0VdJXN6L/wAjX4o/6+4P/SaKgaN2iiikMKKKKACiiigAooooAKy/EWtW+g6LPf3jqqxKSM9zWpXgv7QfiV18jRYXKrjc+DSA8l8a+LbvxXrc13cysYgx8pCeAK5ZyTyTTmJJ56dqjbLNgCgY1Y/MbCiug0vSVBBdeRyQaraRZbpGZxwMV0FwRb6bJIOGxgVhUnY6acLleG3m1jUVtbcExqeAK9M0D4dKyLJdRg/UVifDLS1mlE0g565r2i0jESBR0rz5zbdj0IwSVzEi8I2cEIWOJQfpWXqOhiEsqoMY9K7pl+Xis68t92WIzkVm4sqMkeLa3pbMzrt4zXJ6hZGCM8V7Dq2kNNvYL1NcH4i05ooWH3cVpSm1oKrTurnnzgZORVK4gx8y1qyFRIY3HPqaguIcLxyK9BS0PNlHUyNxBpwbnmllTa1R55rVMx5bFmKUxsGU8qQwPvX1p8FPFv8AwkXhIQXEm+e2+UgnnFfIitXrv7P+tvY+NPsZchLlcYz6VVyT6oHUrRQTk4PGelFMQUUUUAFFFFABRRRQAUUUUAFFFFABRRRQAVw4/wCTfr7/ALAdz/6Leu4rhx/yb9ff9gO5/wDRb01uJnyZRRRW5met/s4/8lFv/wDsFSf+jYq+l6+aP2cf+Si3/wD2CpP/AEbFX0vWUtykFFRXFzBaQGa7mjgiXGXlcKozx1NQHV9NW3Sc6haiF22rIZ12sfQHOCakZcrm9F/5GvxR/wBfcH/pNFXSA5GRXN6L/wAjX4o/6+4P/SaKgaN2iiikMKKKKACiiigAooooAK+V/jwznx9IG5UKMflX1RXzl+0NozRa1bainSRMGkxniA+bGO1TwxqCG71Eq7WOO9TwozSAVEnYuKubunrmPpjJFWdXYNarEvXio7VRFGoPYZpjnz5d3X2rknqd1PQ9S+HFrtskwOcdRXqVvHti+bNeF+H9V12xtd1oI0hUfxCun0L4ganc34trjymXuVrldNp3OnnT0PVV24qhquo2OnwtJeSrGoHfvTYLz7Tb7wcHHavPfHJ+0BhIWZh0QHrUppuwWa1G6h4qn1i4aLQYMopx5r9K57V4NXeLN5FEynqVrH1CXX9It40jRYI5F3KAuDVjQLjV76+NrOxkQjLZ7Vq4RiroSnKWhyup2LeZ8ylW7Gs9OIzFKOexr0vxJoIS3DYwccEV51dJ5VwUboO9aUp8+hjVhbUybqDDYqiVw2GreljSVc9+1ZFzDsf3rrizjmivjBrvvg6+z4jWBHUk1wYHavSPghp5u/iLbN2jBJrRPUxZ9eD7qk+lLSdqWrJCiiigAooooAKKKKACiiigAooooAKKKKACuHH/ACb9ff8AYDuf/Rb13FcOP+Tfr7/sB3P/AKLemtxM+TKKKK3Mz1v9nH/kot//ANgqT/0bFX0vXzR+zj/yUW//AOwVJ/6Nir6XrKW5SOf8babBq3hs211qFvp6C4gmE90geMFJVcBgSAQduMZHWuDs9S06611k8Spp40q2tJ4YJ4YxHbzyh/vIvQMVz0J9ia9YmghuYjHcRJKh6rIoYH8DUbadZPCkLWdu0SHKoYl2r9BjipGZHhD+0E+H+j/a036gLCLzFmYrmTYM5ODjn2rP8KSX8uveJW1W3gt7n7ZDujt5jKg/0ePGGKqTx7V1/TpXN6L/AMjX4o/6+4P/AEmioGjdooopDCiiigAooooAKKKKACuE+LXhkeIvBc6pHunhG9SBzx2ru6bJGskTo/KkYbNID4LeKSOdkddu04we1aun2/mMGI+7Xo3xe+Hkui6z/alhATaXDfPtHCmuOtbbybdiRjpWFR2OmkrkEkmFf24FSWkOIRJjPPFQzD5lQclqtSTrBbrHkccVyt9TsjFXHIuqajdLbB5o7f0XIzXS+G/CskV+Xl8wcfKSTya6zwFpMN3ZxSSICcd679NGt4iGCAGsnU5lY0cOV3MvQo3tovLmyeOM1RvNNhutQdp03EH5fatgfJf7R90Cs3Up/JuTg4Ga572Z0Rs46la48MfbtpmXzAvC55xWhYeFrTS183ywHI64ra0qVZrNG3Z45pNSuQsLfTirlUurGMY2meeeMAqp8vbNeQ6xAZLhiq8jnivTvFVwXDY5JNcNPHAjSPcyBCUwMmqo6O6NK6XKckhIao7xNxB96ubVZn28gHrUFyuFzXdc8y1zNkhZX44Hc19B/s5+HSkd5rE0eNwCRkivKfCvhS48VatbWNvGXUsC7DoB3r678NaFB4f0S2sbdAoiXnHc10QOaW5rDJ60tHrmitCAooooAKKKKACiiigAooooAKKKKACiiigArhx/yb9ff9gO5/8ARb13FcOP+Tfr7/sB3P8A6LemtxM+TKKKK3Mz1v8AZx/5KLf/APYKk/8ARsVfS9fNH7OP/JRb/wD7BUn/AKNir6XrKW5SCiiipGFc3ov/ACNfij/r7g/9Joq6Sub0X/ka/FH/AF9wf+k0VA0btFFFIYUUUUAFFFFABRRRQAUnIHHIPWlo6UAUdX0u31fTpLS6VXjcdx0r5+8f+Eh4Xm4wYZskN6Y//XX0cRXhvx9ndW0+PkK28/yrCsro6KLszxvz1Rnlbp0Ws2+uG+zmQHknOKkkLTMQv3R1qvNESvPI6VhCOlmdM5Wd0e5/DLV4ptGh8thuAG4V6dHcKY+ec18vfDvxG+k64LGQ4SU4FfQun34mtQ4PGK4qsXTlZHZTkqkbsLm9isdQL3IOxvasfWtUgmul+xxM4I64rU1S6tXjX7QFwO9ZkmqWEcAFvF5jZxlRWVrm8YXNbQfMj0/Mvyk9BTr+XejAHtXK3PiuW0+VYGxngEVo2GoSX1q00qbBilLYpQszk9dQyTkGvO/GAAaLtt64r0jWZVLOx6CvJfFd4Z9Q2r0Fb4fc5cS9CGyIaFiOmafdR+YNi9T0qGwbEYQdT1rRsYhNrtnE/wB1pkU/QkV2s4uh9BfA/wALf2Xob6hOg82UALkcivWKzNAto7PQ7aKEAKEHA71p11Q2OGT94KKKKsQUUUUAFFFFABRRRQAUUUUAFFFFABRRRQAVw4/5N+vv+wHc/wDot67iuHH/ACb9ff8AYDuf/Rb01uJnyZRRRW5met/s4/8AJRb/AP7BUn/o2Kvpevmj9nH/AJKLf/8AYKk/9GxV9L1lLcpBRRRUjCub0X/ka/FH/X3B/wCk0VdJXN6L/wAjX4o/6+4P/SaKgaN2iiikMKKKKACiiigAooooAKKKKAA9K8b+Pdg1xpthcIP9WXBP1xXsZGa8k+OGswxabbaejAySMWYegH/66zq7GtLc+f7SHEcmRz1qGCRXZ43H0rVUKkDseMiueLkXwPYtXNvqdj0GXMbWt5Fdwkh0YHIr23wN4mj1PTFVn+YABua8el/eb4yM7RuFGianPo2oC5tJWUE/PHng/hU1YqaHSnySse667o8lwVljuJPLPVQaNOisbG0GS28HnmqXhnxfa6vbqrSL5oHzITXZ2thp1zGJJIY2PXJArgd46HqQqK2hyVz5moTbbeL5CeSRmrpBs7MoxwMV087WVvbsIlRNo7CuD1vUHuHaOE8Z7VMmmh87kYOrXBmLxx9+teea/YFJd3f1r0qOzGwswyaxNW0sXCsNua0oyszlqR5jz2wl8qYbvWtSUtBdR3CHBVgwNZd3GbK+aOQY54zWtEVu7TYT8wHFd7ucKXc+kfhX46j1vT0sbqQfaY1+XJ6ivTBjtXxVoWsXWharFcQSsjxsCGBr6q8B+LYvFOipMHDTxjEiit4TWxzVI2d0dXRSdelLWxiFFFFJAFFFFMAooooAKKKKACiiigAooooAK4cf8m/X3/YDuf8A0W9dxXDj/k36+/7Adz/6LemtxM+TKKKK3Mz1v9nH/kot/wD9gqT/ANGxV9L180fs4/8AJRb/AP7BUn/o2KvpespblIKKKKkYVzei/wDI1+KP+vuD/wBJoq6Sub0X/ka/FH/X3B/6TRUDRu0UUUhhRRRQAUUUUAFFFFABRRRSAqapqVrpGlz31/MsFvCm55HOAor5d8c+IrbXddl1BLtZIAdiHnFe+fFfH/Crdb3cjyBkf8CFeF6TLZ6nC4fUIG0iHTwWsh99JQ4y2PocZzUyjzG0Jcmpx1/dwiFSJAFZeCQQDWKRsmj3nbluMg816Bqz2+oaJq9zJqEF1YQvE9lCn3oQAcqfTP41XfUbTxCtpeWZkme1kJh82MJ85ACJ3yqtyT6VHs0W61+hyAP2q+C2zh5ccKppLvR71/nWBgw9KrSWmoaR4iRrp03yhnWSJsqwIPINW5NUvMkec351FkpWOiLpzheV/kS6LZ6la36OI5E55I4r1rTtR1OG1XaSRivIrLU7t76NPObrXs/hhfOs0E3zHHWuKvy3O+h7K3Ub9pvLj/WEjPUVG1t6DmupXSI87hTZNJHYVxvlOnmpLuc6luPL561E9irA5FdKdMAwMU46aoX7tOPKiG6L7nk/ijwi94PNt0+YdwK5rTNCvoVmEsTB1+6CPvc17w2lLcQlVGD2rl9S8Pz+cskLFWVs49a6addLRmLp0ZbXPM5dMuZP+WDKR7V1/wAONbv/AApryuyuLaT5ZB2rM8RafrUO6W3XHriuPk13UYZBHOZEbPNdUeWWqOeaoJWdz7Us/EOnXdqkqXCYcZIz0qx/a9l2nX86+U/CvxBbTgv2uSV1Uj5c8EV9EaB4h8N67YQy280KyMoyrnmuuLdjilHD36/gdJ/a9j/z8L+dH9r2P/PdaYmnadIMxxxsPapP7Jsv+eK1Wov9n8/wE/tex/57rR/a9j/z3Wl/smz/AOeK0f2TZ/8APFaNQ/2fz/Alt723umKwSByOuKnrD0lFj1i5RBhR0FblCIr04052iFFFFMwCiiigAooooAK4cf8AJv19/wBgO5/9FvXcVw4/5N+vv+wHc/8Aot6a3Ez5MooorczPW/2cf+Si3/8A2CpP/RsVfRup3NzaabNPY2q3c6DKQtL5Ybn+9g4/I185fs4/8lFv/wDsFSf+jYq+jdSN2NNn/s2CKe5K4jjmlMasfdgrY/I1lLcpHMxeOLq903TJNL0b7Te31o121q11sEUanB+facnOAOB1plz8Q0Fn9u03TWvLKGzW9u5TNsMMZGflXadzY5xkfWs3R/Dni3SLHTLiG10v+0bOzewaM3jmNkZgwfd5echgPlxz60S+A9WsNJk0nRpLWS2vtOSxuZp5CrQ4XbvVQp3cdiR9akZ6EJo/JEpdRHt3bicDFcz4euIbrxN4nltZo5ozdw4eNgwP+jR9xXSJbxrarblQ0YXZtYZBFc34dtYLPxL4mhtII4Ihdw4SJAqj/Ro+woGjoqKKKQwooooAKKKKACiiigAooooA5n4i6bPq/gDVbCzCmaeLam44GcivmnxDo/iDw1psdkdO0u2M8e2SeEuZJFBzhiTjB9h2r6u1n/kFTfSvnn4uSSHVLWGM8PF/Kom2tjrhTjKkpPueYahf6nfab/ZsFlYWULENL9mDAykdCxYn1PTHWq1te6vp7WSQLbqtm+9U5w577vXP4VdjQrK3OdvU1RaY/aWJORmsfaSCVOKJ7+fUdU1OO7vobeBIoyqR24IVB6DJJ/Ws+eTALdOcYrUnmxajccF+D7VjTtvbHalzXd2W0lHliXNDBfVou+TXv2gQeTbxZ44FeK+EtLmuL9JI0J2mvdNEsLyaNPMbYoHAxXn12mztopqJ00CboxipTGu35jVdIZogF3cCnrDK7fMTiuTQt3uQXDqjDA4pr3dv5WDwa1VsIjH84BPvVaTSLeRvu1SSFdmQl7DE3DDrRPcWsi5yM1pN4fswclf1qjqdtpGmWrzXcioqju1WouY+dRRjXKWkqssgJXqQK8p8fyaUriG0jUzDqwrQ8XfERSHstBRUU8NMeTivO3kkuJC8r7nPJY967qFFxd2cNaqpKyCKLLKW6+ladteXNoQ1rPJGw6bWrOUn8fWpkbA5Nd8TjbOz0n4keJtLZXj1F5FX+CQAg16N4e+P5YLHrVirdt8RK/zzXg3mbmHoKeJflxgYqxH2xoWs2+v6XHfWn+qkHHOcVodvevAPgp48+yT/ANh3zjypD+6LHofSvfgd2CD15oJMfTf+Q5dfjW1WLpv/ACHLr8a2qSOnFfGvRBRRRTOUKKKKACiiigArhx/yb9ff9gO5/wDRb13FcOP+Tfr7/sB3P/ot6a3Ez5MooorczPW/2cf+Si3/AP2CpP8A0bFX0vXzR+zj/wAlFv8A/sFSf+jYq+l6yluUgoooqRhXN6L/AMjX4o/6+4P/AEmirpK5vRf+Rr8Uf9fcH/pNFQNG7RRRSGFFFFABRRRQAUUUUAFFFFIDP1tgukTFjgAda+efipfW8+rafJakOUjZHYdjxXpnxQ8WfZUh0a0YebO37wg8gCvFtf2yQ+WvLI25j65rmrTsenRheh8/0OVZ/LtLl2+8zcVlCNjx3JBrWuo93yj64qKCMBlUjnPWs09NRTSuU9TiKpGecVHp9oJ7lQTgE960PEA8tox/DWM05JCpxjoRVKPMZyfLJHuHgnTraztw3yFj716HZyoAACB+NfLdrq+o2yARXUi/jV9fFetKuBfyD8awnhW2aLE2PqTzYx95k/Fqje7gTrPGo/3hXy43iXWH+9fyn/gRqtJrGoyfevJT/wACNL6oDxJ9Sza/p1umZr2Fcdy4rn9T+JegaeCBeCZvSM5r5xe5uJD+8nkb6saiJz1raOFijN4hnrWtfGm4k3RaREIwejsOa831bxHqmszM9/eSyZPQniswdPf1oGe/NdEaMYmEqkmAUdF79zTlXbTTkjGcUo4rRbmeo/dikL44FJmkAyaYlcfvwKcH4qDOZMVIWxwKCi3ZXstjeR3EDlJEcMpBr7J8Ea0uveEbK8zlmjAY+4r4r5xnuDxX0h+z9rQuPD8unSPloidoz2pk2PStN/5Dl1+NbVYmm/8AIcuvxrbpI6MV8a9EFFFFM5QooooAKKKKACuHH/Jv19/2A7n/ANFvXcVw4/5N+vv+wHc/+i3prcTPkyiiitzM9b/Zx/5KLf8A/YKk/wDRsVfS9fNH7OP/ACUW/wD+wVJ/6Nir6XrKW5SCiiipGFc3ov8AyNfij/r7g/8ASaKukrm9F/5GvxR/19wf+k0VA0btFFFIYUUUUAFFFFABRRRQAUmcKT3ApaRj8n4UAfOvjGWS++JF3JJ92FcLXHXsjvdSZHylsE13viiAJ4m1SXuWUD9a4W8uI/3kajlWyTXnVdWezR0w3zMG7jMUp71FFh+R1FXp4/OG8d6r2tuQ8inoMmpbIaKOvEyW6NWLEOa19WY/YgnvWZGMV10tjjrbko4FGaKK3MQoFIaKAFNNNBoxQACiiloASlFFFABSZ+c0E0xjgUACH5iaeOWpic1MooAX3r0/4Ga0NN8ZpA5+W4+UD3PFeYH7wrb8H6gdM8WafOvAW4Qn86APr3Tv+Q3dVtCsHRZfP1OWT++Aa36EbYr416IKKKKZyhRRRQAUUUUAFcOP+Tfr7/sB3P8A6Leu4rhx/wAm/X3/AGA7n/0W9NbiZ8mUUUVuZnrf7OP/ACUW/wD+wVJ/6Nir6Xr5o/Zx/wCSi3//AGCpP/RsVfS9ZS3KQUUUVIwrm9F/5GvxR/19wf8ApNFXSVzei/8AI1+KP+vuD/0mioGjdooopDCiiigAooooAKKKKACkP3T6UtJjk/WjoB4N8Rj9i8SGOPrM2TXm18ohM8h65r1b4j6YZPFpuZGwijgV5F4hnM1+YIOFB5x3rzp/Ee1T/wB207kNhIzwZfu3FXzGArlRzIABVa2t3DxIy8MMYrTlCW8M00mAkK/Lnuam13oSn7t2cdrrCOYQjt1qggwopbmY3d00jc80uMYrtpqyPOnLmeoUUtFakCUtFFACGkxTqKAG4opaKACmlsU6mk9qBDM56UxjTmXniiOKSW4jjiDM8jYCip5u47PoSooC9eakHTiu50L4U6rqQEt0wt4z7cmu3sPhbpOnqDcp57j+8a55YmETojQkzxJIHk6Ix+gqeKGa3lSby2Gwg5xXuzaBplqpWCzhUD/ZFc1rOnwvIIhEoDnHArFYtN2Rs8K1G57N4Fuxe2kcwOS0S4P4V2IOa47wLp66bbi2zwkYxXYDpXoI58V8fyQtFFFM5QooooAKKKKACuHH/Jv19/2A7n/0W9dxXDj/AJN+vv8AsB3P/ot6a3Ez5MooorczPW/2cf8Akot//wBgqT/0bFX0rJLHDGZJnWNF6sxwB+NfNX7OP/JRb/8A7BUn/o2KvorWIbK40e4j1RYXtSn7wT42HuM5464rKW5SJnv7SONHkuoUSQZRmkADfQ96c91bxFBJPEhk+5ucDd9PWvKLGwtL3wX4c1GG90Q/2fZOPs2oxCZH68Abhg/n9KXW7uy1Wz1C+1a2W1kfQxLp8LjDQsRz5fo4bpjmpGet1zei/wDI1+KP+vuD/wBJoq2bb7W2kRb2VbsxDJdcgNjuAR3rnPCqXya/4lXVZrea5+2Q7nt4mjQ/6PHjClmPT3oGjp6KKKQwooooAKKKKACiiigApCe3Q460tJ6+nagL2PD/AB3qv2rxk9jsYbEyGI4Nea39vHb3stxKMkHAr6K8Z+GbK60+XUIoQt0o+9XhWr6bIwkZxwpOfrXn1tGe1QlfDfMy9Fjad7m+m+7FhVH1/wD1Vh+JtRMuLWJsZOWxW7FP9m0eWNeO7e9cTcN5t07tySeKKMeaRy4iTgivGgVcU89aU0mK79tDjYUUUUAFFIelJQA6im0UALRSZpM0AKaSkJpM0CYh5q/4fcJ4gsyx6SCs8mn20pgv4ZB1Vx/OsZr3TWD95H1dpcm+2jPXK0+6HBNZ3haf7RpcLf7ArTux8prw5q71PXj5GBd98CubuF87V7WIclpVGPxrpLw4VvrWDpifaPGlknUecv8AOqpRXMi6jfKz2DQo9l9MnoldCP6ViaWNus3PtW2K+gWx5GK+P5IWiiimcgUUUUAFFFFABXDj/k36+/7Adz/6Leu4rhx/yb9ff9gO5/8ARb01uJnyZRRRW5met/s4/wDJRb//ALBUn/o2KvpO4toLuBoLqGOeJ+GjkQMrfUGvmz9nH/kot/8A9gqT/wBGxV9L1lLcpGaPDuiLGsa6Pp4RTlVFqmAfYYqzPp1ldPE9zZ28zQnMbSRKxT6ZHFWaKkYVzei/8jX4o/6+4P8A0mirpK5vRf8Aka/FH/X3B/6TRUDRu0UUUhhRRRQAUUUUAFFFFABRRRQBQ1sBtHnB/u14z4ns0gs5l24Z8EH869l1tgukTE+leS+Mna6WAxptUKQfeuHFfCephdKPz/Q8l1BXhj8kHLP1rmJ4fKnII5HFelHQHmk+0TqcDpkVymv6eqyvJEuMVlhpWFio82pzJptObhiDTa9Nu5wMKKKSkAtFJS0AJijFLRQAwikPFPIppHFICMmkFOIpMUCEqayt2vL2GGMZd2AH1qLFdn8KNH/tX4g2COu+OOTcwxWdrou9me0eDYpLbS47ecfvEUA1uXf3TUUUPk6zdIBj5uKlvD8pFePVXvM9Sm9Ec9fttUmszwjF5/ji3/2XBq/qX+rNR/D5N/jgE9gf5UYZe+bYh+4eqab/AMhy6rZrF04/8Ty6rar3UeTivjXogooopnKFFFFABRRRQAVw4/5N+vv+wHc/+i3ruK4cf8m/X3/YDuf/AEW9NbiZ8mUUUVuZnrf7OP8AyUW//wCwVJ/6Nir6Xr5o/Zx/5KLf/wDYKk/9GxV9L1lLcpBRRRUjCub0X/ka/FH/AF9wf+k0VdJXN6L/AMjX4o/6+4P/AEmioGjdooopDCiiigAooooAKKKKACiiikxozdfIGjzZ9K4m40o3MEc8wAjXgA12+ux79JlB+tYeroIvDEDLwdwFceJg3E9KjJKil5/ocjqlpGLUqigDHGK8q1q2+acHoM169djdZc+lea65bZaY9Bg1w0dGbtXizy2bBkbHrUeOOanuEVZ3weM1BXrx0R5VrNhjHSk+tLSVQgNJRRQAUUUUAFIaXtTTQAhxTSKdSUgEIr3H9nXRw95dajImdqkKfevEK+nf2f7LyfBbTY5dyc0LYT3NmUf8T+6/3jRdp8tOmGPEFz7tUl2pK149b4mepS2RyGrfKppvw4OfGh/3T/KrOsxfuycVX+G6/wDFan/dP8qWF1kbV/gPUNO/5Dl1W2KxNO/5Dl1W2K9tHmYr416IKKKKZyhRRRQAUUUUAFcOP+Tfr7/sB3P/AKLeu4rhx/yb9ff9gO5/9FvTW4mfJlFFFbmZ63+zj/yUW/8A+wVJ/wCjYq+l6+aP2cf+Si3/AP2CpP8A0bFX0vWUtykFFFFSMK5vRf8Aka/FH/X3B/6TRV0lc3ov/I1+KP8Ar7g/9JoqBo3aKKKQwooooAKK89+JnxA1LwZd6Zb6XZQ3T3zlP3pI2/lXD33xz8R2ixtDpWn3SyP5YMTtw3pWqpSauK6PeqK8Nl+NHiaHUYrWTS9OHmRmQyb3woHrVa5+OviW1e4Emj2O2BQ27e2Gz0xT9hNBzI97oryXwT8UPEni+xuLiPRoVEMmz92SewP9a6b/AISHxP8A9Ahf1raODqTjzJr70LnSZ02s/wDILl+lYurru8Kw+zisq+13xHLZus+lKiEctzxWdqes+IDoKx/2YvlAghuazq4Co1y3X3o7ac0qKfn+gTJvtuPSuF122+WVR1INbC6xrZhx/Z6/rXOapd6rJI2+yC150ctrKW8f/AkdXtY8p5bfxmG5kjIxzVXGKtasZTqEvmLht3IqkWb0r1VgKtt196PNlNXFIpDSFm9KQs3pT+oVe6+9E86CimkmkyaPqFXuvvQc6H0UzJoyaPqFXuvvQc6H9qaaTJoyaPqFXuvvQc6CikJNHNJ4Cr3X3oOdCkV9Z/BSAxfDu14++ua+TFJzjFfTfw81TX7DwTYRWelrJF5Q2sc8045fVtuvvRMpq50N+PL8RSj1yafOdy8VzGravr660JJNMVWYdOab/bWvHI/s1f1ryq2W1XJ6x/8AAkejTrJRRb1WLdCeKz/h2uzxs/8Aun+VQXup620Z3aaB+dQ/De/mn8csk8YjZcggVnTy+tSTm2ml2aZtVrRlGx6zp3/Icuq2hWLpv/Icuq2u9daOPFfGvRBRRRTOUKKKKACiiigArhx/yb9ff9gO5/8ARb13FcOP+Tfr7/sB3P8A6LemtxM+TKKKK3Mz1v8AZx/5KLf/APYKk/8ARsVfS9fNH7OP/JRb/wD7BUn/AKNir6SuvP8Assv2Py/P2ny/Mzt3ds47VlLcpEtFcI3i/XY9aOgGPTpdTknSKK4jRxAMxtI25d2chUPepIPF+s6k0Gn6bBZJqivOl0ZlcxKYiVbaAwPLDjmpGdvXN6L/AMjX4o/6+4P/AEmiq/oeuRav4Xs9ZkXyEuLdZnUnPl5GSPwrG8K6jaapr/iW60+dZ4GvIQrrnBxbxg9aBo6eiiikMKKKKAPDv2gp5rfVPDklsN0onO1T/F7Vwn2yx02wSO/tfscjOzqqfMytg4bn3r1T4x+FB4q1DRbc3Jg2y4yFz14rHH7OkZAP9ut/36rsblTpxlbfYjdnmutXcdvcWEumTNLK0ZUiVQQQfUVMI01MvBPid4wGkCttGT349Bx+Fei/8M6R/wDQdb/v1R/wzpH/ANB1v+/VZe211Q+U0/gDGkOj65FE25Evyqt6gKK9crj/AIeeA18B6bdWi3hu/tE3mbiuMcAY/SuwrF2ZaKOs/wDIKm+lZ14M+FR9BWjrP/IKl+lZt24HhlB68VjVfunXT/gr1/Q5CBsoVPasjUYdzNxWuYjHJ7Gq1/GNufavJvqd6TaPDNU0ee716eNcKSSRuqA+D9X27o4fMH+xzXa+L0SCxml2hZf4SOtcNpnibU9MmDW9xIVz9013xc3HQ4pxgpWYf8IhrjfdsJf++aP+EL8QYyNNmP8AwA16JoHxYChYtVgwB/GozXf6X410LUEHlXqKT2bg1nKtUh0H7Om+p88t4P15Rzp04/4AaifwtrUY+fTp/wDvg19TxXFtcKGikjkHqCKJAh6qh/AVl9ck91YfsI9GfKR0HVV62E4/4AaibSdQT71pKP8AgJr6xjhtyDuiX/vkGop7G2b/AJd4j9UFH123QPq9z5NNpcr96CQfVajZHXqpH1FfU1xpli4O+0g/74FZdz4b0eaNg9lEc/7IqljEH1VnzUefrR0HNe53vgbRzki1VfpWFdeCdKXOEx6cVSxkX0D6nLueWRLmZAOSWFfaXgSLyPA+lrjBFuvH4V82P4LhaeNbUHfvHGPevqHw9AbXw9ZwNwY4VH6V1U6yktDmq0XB6mP4pQR3dvIe5xWdnaevFavi4DyYSTyHFYPmZUc1wYnSR10U3EnnIkjbjIxXA+EpRbfEyQ5wGlA/Ou3lbEJC9xXnmlt5fj/d0Iuk/mK6sv8A4Vb0X5o0rRvY9u03/kOXVbI5rE0o51i4PqK3BXWtjjxXxr0QUUUUzlCiiigAooooAK4cf8m/X3/YDuf/AEW9dxXDj/k36+/7Adz/AOi3prcTPkyiiitzM9b/AGcf+Si3/wD2CpP/AEbFX0fqEd1NptxFp06W908bLDM6bxGxHDFcjODzivnD9nH/AJKLf/8AYKk/9GxV9L1lLcpHDWPgnWLSwtP+Jlp/9oWNwbmG5W0k/eOylXMoMhLZViOCMZqaPwVqFilvdaXqcEeqhpWuJ5rcvHKZSS2FDAj5jkc/nXZ0VIyhoWkxaFoNlpcDs8dpCsQdurYGMn3rK0X/AJGvxR/19wf+k0VdJXN6L/yNfij/AK+4P/SaKgaN2iiikMKKKKAOK8a/8hzSP+u6/wAxXaL90fSuL8a/8hzSP+u6/wAxXaL90fSu/Ef7vS9H+ZEfiYtFFFcBYUUUUdAK99bG7tHhDbd3euQ1iynhkjthdFgATj0rtXbZGWPYZriri4+06lLIeQOBXJXnaJ24apUi7R2MuSwmGCZiT2rnvEuq22gW2+6ucuw+VB1NdBrus2+j6bLc3L7Qv3R/er558S+IbjxDqslxMcR5xGgPQVhSi5bndUxk47fkaeseMYdRyjWxcD1NZC6tZn/lzX86yQOSfWlEPPBrtUeXRHDLF1JPW33I3E1Ozx/x6L+dWItRhHzx2gA7kNXPKMHBNWULquFyB3NOz6h9amv+GR1MHiqW1UGESIPrV6H4i6hH0JYD1bFce1wWjVWAwv60wyI/G3H40nTi9y1jKnT8kegQfFS6T/WW7EDuJP8A61Wl+LETf66GYfQ5rzgICQoZQD14qvcJsbAbIrN0Yj+vVV/wx6a3xU09j8wnH4Un/CztKI58/wD75ryZsZqM4zU/V4l/X6v9I9VuPiZpZXgTH/gNZdx8RrNv9VbyPj14rzxvqKZ905PI74qfYIP7Qq/0j1Xwh4jfX/FFta29v5ZdupOcV9Cpo16qqBesOPSvlT4camNL8YWkoGPnHXmvsSJ/MhRxzuUGuiEVFGFTGVZPp9yOL8T6XdwWaSPcmQBvyrAit5WUfvjXe+J036FMx/hGRXFWR3g59K48TKzO3D4ibj/wEI9nMI/9cTxXAC4WPxPINuHWdfn/ABr02XAj/CvJrxtviO7Ydpgf1rTAu9Oq32X5o1qYien+R9B6LprwKJ3l3+YoPStfHpVXTH36ZbMOhjH8qtYxXYjxKk5TleW4UUUUzMKKKKACiiigArhx/wAm/X3/AGA7n/0W9dxXDj/k36+/7Adz/wCi3prcTPkyiiitzM9b/Zx/5KLf/wDYKk/9GxV9L180fs4/8lFv/wDsFSf+jYq+l6yluUgoooqRhXN6L/yNfij/AK+4P/SaKukrm9F/5GvxR/19wf8ApNFQNG7RRRSGFFFFAHFeNf8AkOaR/wBd1/mK7Rfuj6VxfjX/AJDmkf8AXdf5iu0X7o+ld+I/3el6P8yI/ExaKKK4CwoooP3RQG5Q1i4+zaZK/fGK4iGYQQySythPvMTXSeLpyunrEDgs4OPavH/iP4mXS9ITTbV8Tz5LYP3QP/1/pXn1lzysd1H3I3OL+IfiuXXdZe2t5Ntpb8DB+8a4zHHHU9KUksSW6nk+9IOK6YRsrGEpXYAUucUo5p2BWpl1JIQgbLDNaUHluuNlZi1bhlxgUyizLaqV+UVnyRYbFaqyptG481TuSC2RQBSZWAyrcioHZyPmPNTSsVqtI3FQwGEGoyDUoBZaYevNAEbA0zb1zUhpuM0AWLK6eyuo54z8yEEV9f8Aw18Sf8JH4StpnYGVECvzXxxXuf7PmtbbufTpJOGBKrnvTQme1+KDt8P3P0/rXE6aMrmuy8XceHLgjsB/OuN0o5hBrzsXud+F2LNydqn6V5PfH/idX7ej5r1m7/1Zz6V5HenOr6h/v1rgf4Nb0X5o6KnxI+j9BbdolqT/AM81/lWkeTWT4d50C1z/AM8x/KtUV2x2PHl8QUCigUyeoUUUUwCiiigArhx/yb9ff9gO5/8ARb13FcOP+Tfr7/sB3P8A6LemtxM+TKKKK3Mz1v8AZx/5KLf/APYKk/8ARsVfS9fNH7OP/JRb/wD7BUn/AKNir6XrKW5SCiiipGFc3ov/ACNfij/r7g/9Joq6Sub0X/ka/FH/AF9wf+k0VA0btFFFIYUUUUAcV41/5Dmkf9d1/mK7Rfuj6VxfjX/kOaR/13X+YrtF+6PpXfiP93pej/MiPxMWiiiuAsKTPUUtMfA57gZo6AeefEPWo7AtJI+BAp/Ovm/WdQl1fUpbqZiQxwM9hXe/FjxEdQ1ma1tydiN857ZFeZqR8w5H1rnjD37nRKfuWGmkxT9oLfSmMMc1uzFLQci5kxTpBtxTrZcsTROKQwQ08HBqBDUjcLQMc8p3DB71blX5EPrWYrZlA962HXESGgDNvPlFZxfJxVzUn7VnxnLVLA0bJN6nNR3MOx81bsh8tPu49yZoAyDTKmkTBNV260MBwruPhTqR0rx5ZMThXkCmuHHK1r+H70WuqW03Ro5VP60ITPsXxT+98MXJXn5Af1rh9Ib93XbecNT8GmVDkSQZ/SuJ0YYjcHs1cGMXU78Hrct3z4Q/SvJbsZ1m+/369S1N8KfpXmBXzfEF0n96QCtMD/DrLyX5o3qdGfRegDboNt/1yH8q0h0qppaCPS7ZR2Qfyq53ruWiPHeruFAoopi6hRRRQAUUUUAFcOP+Tfr7/sB3P/ot67iuHH/Jv19/2A7n/wBFvTW4mfJlFFFbmZ63+zj/AMlFv/8AsFSf+jYq+l6+aP2cf+Si3/8A2CpP/RsVfSdxcRWtvJPcyLFFGpZ3Y4CgdSayluUiSisT/hM/Dn2A3v8AbVn9mEgjMvmjbuPQfWp7jxNolrpkWo3OqW0VnMcRztIAr/Q1IzUrm9F/5GvxR/19wf8ApNFXRRSpPEssLq8bgMrKcgj1rndF/wCRr8Uf9fcH/pNFQNG7RRRSGFFFFAHFeNf+Q5pH/Xdf5iu0X7o+lcX41/5Dmkf9d1/mK7Rfuj6V34j/AHel6P8AMiPxMWiiiuAsK474heIbzw7ozz20YMe0gt6GuxrxD41+KDJcJotvJ8ijMgHrSY0eU3WqeYLmeWMTPPkkn+EmudglSO48yVd4B5WtC4OIWUcY5PvWWylSrFeG7/SptYstyMskhdF2qTnHpSQyRxu3nKWBGBiowcLTD8xpgXLZMDJ4B6U25XavNaDQ2kekQyQtm4LfOuegqjOd0eaAKietEjfLxTgcLUEpBODwSeKAHREGZR05rbl4t1rISB4pEMmDnpWtcnbaCkBgX5yxqrBy1S3jZY1DbdalgbdrxGB3NWD8yYNEdzu0uO28pBg5EmOTTUZc8Yz3pgVLmDaM1nSrjpW7NHviJrGuEwTQwIY2pysYpAynBByKhBwaepzyPwoQmfW3wq1tdb+H6pnLxR7WH4VS05dlxKv+0a89+A2vyafrU+kXD/urqJig969ItQPt1yw6buK4sZ8KZ2YN+8ypquQ5X2zXnVkvneMGQfxXCj9a9E1c/Pn2rhfDkPnfEJUPT7Sv860y/WFb0X5o6a+kUfRNou23iX/YH8qlU5oACquOwpeldp44UUUUAFFFFABRRRQAVw4/5N+vv+wHc/8Aot67iuHH/Jv19/2A7n/0W9NbiZ8mUUUVuZnrf7OP/JRb/wD7BUn/AKNir6O1K8ttP0u5vL7/AI94Imkk+XPygZPHevnH9nH/AJKLf/8AYKk/9GxV9L1lLcpHk8NzpHiAzeIb3Xl0meW5ieIQorGAIDsDBlIJPfirsOty/atG1vxMf9EVbiFLlosKxwQshUdNy/zr0uipGc34Jtru0+H+mQMnkzrarsjmB/d8cKR7VV8Ki+Gv+JRqrW73P2yHcbZWVP8Aj3jxgMSelddXN6L/AMjX4o/6+4P/AEmioGjdooopDCiiigDivGv/ACHNI/67r/MV2i/dH0ri/Gv/ACHNI/67r/MV2g+4PpXfiP8Ad6Xo/wAyFuxaKKToa4C0UNb1OPSdJnu5WCrGpIJr5P1/WJNa1q5v5hgySHHuM8V7B8cPEwt7WHRoH/eSDc4B6CvElsp/sZuUUmBTgk9jSZaKNwxCEE8HmqLTSONhb5F+6Ks3T5JC8VWmWFYomQ5ck59qRQ5D8v6c0kfMgXpg9fWpbK6FuzNJH5gIxj0pqZe4D8bc9KBF6TATOOaglOUqe4OEAFQSRyfZvNKER5xuxxmgCoTUTmnk1E3JoAsW7F5F3Enmt/UrmJ9JihWALIvLOByawbMZmUe9al9kQ59qQHN3SsW2jkk8U22GGKnqDSTttkO3qOc0+yHmTIJDt3Nyx7CpYGxH/q1x+FOB3N9KfJFHDMYo5FdNuQw6U1WGBjrVATxklSDWZfRY5Aq+jc1FepuWkwMSWIogbPWgE5AOQaSYEP16dqPNaVstgVIG54Z1uTRPE9jfbyBFJgn2IxX0ho8wu7c3S/dkwRXy1ar5t9AmMkyD+dfUfh2NrfQYOPuqK4cW9EduFW5X1l9sg54xXKeCE874jMcZxMDXSawcnnrWP8OIt3xDn9iTXRlvw1vRfmjXEfAj3cCjvS0ldh5IUUUUAFFFFABRRRQAVw4/5N+vv+wHc/8Aot67iuHH/Jv19/2A7n/0W9NbiZ8mUUUVuZnrf7OP/JRb/wD7BUn/AKNir6Xr5o/Zx/5KLf8A/YKk/wDRsVfS9ZS3KQUUUVIwrm9F/wCRr8Uf9fcH/pNFXSVzei/8jX4o/wCvuD/0mioGjdooopDCiiigDivGv/Ic0j/ruv8AMV2g+4PpXF+Nf+Q5pH/Xdf5iu0X7o+ld+I/3el6P8yFuxar3tylnaS3EpARFJJNT55rifidqLw+G2tLaVUlnz1POK8+5aPAPGuuP4g8X3l4TmMPsT2A4rLtbS6vbWb7PKNkQ3OpOM1BNGbeZ43IZw3J96YryRxuI3K7h82D1qWzRFCU5YtjnvTLK1+23jRGVYhtLAt0pyvELlRcBigPOKhkUSXDtbBhGvT6Uhgy+XK0Qbdg4z61o6Y1qkcpu42ZjwhHY1QtxFJv85ypAyvHWrFsVMbYz7UxEly/y8jj1qWa8mbSVtMqYw24euarXDeYOe1Eh/cjPXHUUwKaJJIxEY3YHPtTBG0kmxOtOjmeFm8o43dajVmEmVyW68UAaFkpE4T+IHk1c1J/3OKracN0+7nJqTUz972pAc9OjMSVI4PenW56A1DOfmPPB9Ks6fEZrmKFcBnPBPQVIGtGB5Y+lKOtOkha3kMRIOOMikHHSqAepwakdQ8Jx1qENjBP41LG+c0MDFmhZ5WAHNUvuvitW9BSQlTisqQEMXPSoA2fC9q174nsYVGcyDNfU9rCIdOSMdlr58+Emn/bfFqzlcpCpavomQ4jwOmK87FO7sj0MMrI5vVIy6sw7Vn/DKPPj67J7Z/lWvcsCZEP8QNZfw1bPj68AHHP8q7Ms+Cs/Jfmh4nSMUe1CigUV1nlBRRRQAUUUUAFFFFABXDj/AJN+vv8AsB3P/ot67iuHH/Jv19/2A7n/ANFvTW4mfJlFFFbmZ63+zj/yUW//AOwVJ/6Nir6Xr5o/Zx/5KLf/APYKk/8ARsVfS9ZS3KQUUUVIwrm9F/5GvxR/19wf+k0VdJXN6L/yNfij/r7g/wDSaKgaN2iiikMKKKKAOK8a/wDIc0j/AK7r/MV2inCD6VxfjX/kOaR/13X+YrtAMoPpXfif93pej/MiPxMazrHCXbsMmvmP4p+K7jV/GkkVrOwhthsAU8V7p8RNeHh/whczlwksg2R89TXyzd3cN1IJVDeaxJlJHU5rzmaIhkbc2WOSxyTWncWlsuipLFKDKRzzTcWB0hcMPPwcj8ay2LrDwCVXgn0NSWihMx3HH0NRiRowQjfK3Bq/p0lvFqAe+UtBgg8d6qXbRy3srWqEx9gB0oGQoNzBQMnOBWmIZLf5ZF2nGRms+FZCd6I2F6nHStS3imvZFiTLytwKLiEeW1ewVFiIn3/O+e1V34gwOnrTpoXt7h4Zk2SJ1Bp5fyYxIo3FecGi4GSfvGpLZVe5jWRtqFsMw7Ci4ka4umdgAW6Y7U0p5TlDyfaqA6CKG3tNTljs5PNhX7rH6VR1RjtYDk5qTTlYKZFVvLxgtjjNVNSbBODR0AxrqJ4ZgjqQSMiprXIYbSRjrjrTTG9xvkeTlBxk0614I/nULcDWDFlBLE/Wn5AqOP7o6fgc1NBH586RLjMjBQScAEmrAIJBFNHIyhwjbtp7+1WLm5W5ujKkYjB/hHamXdlJZXJilKOR1KMCB+VQL1I/LnrQBHfpuXI9KyHh8wkZ5x0963plLQ8g+wx/WrfgbQTrfiqKMrmNG3PnpWTdkVTV2eo/Crw0dI0dbmZMTzgZyOgr0S4OI8L171BaxLDGiIAAo4xUkp5rx6knKTZ6cI8qsYF1JsuSP9k1H8J4hJ4s1OUjlWOKZqjbbh29BxT/AITShfFmppn7xyK9fK1+6rei/NGGMvaJ7FRRRXQeaFFFFABRRRQAUUUUAFcOP+Tfr7/sB3P/AKLeu4rhx/yb9ff9gO5/9FvTW4mfJlFFFbmZ63+zj/yUW/8A+wVJ/wCjYq+l6+aP2cf+Si3/AP2CpP8A0bFX0vWUtykFFFFSMK5vRf8Aka/FH/X3B/6TRV0lc3ov/I1+KP8Ar7g/9JoqBo3aKKKQwooooA4rxp/yHdI/67r/ADFdkG+QfSuM8af8h3SB389f510PiLVY9F8OXd9MQBFESPriu/E/7vS9H+ZC3Z4d8c/FK3+qwaTbvvS3O5wD3rypFZmAQZLcACtC61c3+rXl5dR+Y1wSFPpVSC3nmmC2ylnT5sL2rzdTVWW5HcQTWs3lXEbRyAA4YYPNS/2lJDpz2ihcO24560l7cS3NwWuSWlUbcn24qW5bT/7ERVVje5+Zu2KRZTtFmvA1jDs+b5yWIHT3pmnXy6VdXCyxrKWUp1HWibTbu0sI74kLFMSFIbmqTzq0caFR8jEsccnNAGraawqafNai3yZX3bsdKW2ka3KPC2GX+KqtqIJLxGUERDG4dzV7Ufs4vC1mGEQUfKR1NFhFC6mMt5vkyzMeTT52/cn0x0qCdGRh5iOpPIyKlkP+j4JHJ6+lLYDLY/NkGnofnHr1rTbTLW0vLb7TcK8Uq72K84qnOIBeyfZCWh3YQmncDa0+5lXTWthgoTuJrH1E4Yiupj0qO20FLoSgswyVrlrqJ7i8WGMfO54qugGM5OT6EVas/wCEHkUXmnTWsjrLgFSM1ZsLC4ngaWNMonWs01cDUupLZpFNopjQIA+e5qNHAKlDgg5qAZCgH6HNad1ewT2MEUVuIni+8/8AeqwKsh5bccnqeetJ/D060+BPPuEjJCiRgu49s1buNNNtefZo5Fl9GU0CGresdKFphdoYndjmvQfhRpXkWc18y481iAfavPL20lsTsmHJxXt/hWCOy8I2zgYBiBP1rnruysjpw8Lu51NsnyHPaoLg8Nin2FwJbQMvORUFzIBkdzXmS0R6KTbOb1ZsOGOcE1B8L5vK8dXSt1YkVd1ldtscjnGRXP8AgGdofHhY/wAUgBr1Mtb9lW9F+aMcUr2PoUUUnUZFKK6jyAooooAKKKKACiiigArhx/yb9ff9gO5/9FvXcVw4/wCTfr7/ALAdz/6LemtxM+TKKKK3Mz1v9nH/AJKLf/8AYKk/9GxV9Jz+b9nk+zbPO2ny/Mzt3Y4zjtmvmz9nH/kot/8A9gqT/wBGxV9JXQnNrILNo1n2nyzICVB7ZA7VlLcpHB2nj7Ur7Uf7JsU0y8vZLgQRXMDubbIRncHvkBD+NW4fGWran5FlpVla/wBphZWuknZvLTy22sARzy3Apsvg3Wp9cTxDJf2KavDIGhWOJxARsZDuGdxJVj34p8PgzVNOW3u9J1C2XU9sq3Mk8ZMcnmNuYgDkfNyKkZ0Wja5b6t4Zs9a/1EFzbLcHecbARnmsTwrqNnquv+JrvTbmK6t2vIQssTblOLeMHn61v6FpMWhaBY6VAxeOzgSFWbqwUYyaytF/5GvxR/19wf8ApNFQNG7RRRSGFFFFAHE+Nf8AkOaQf+my/wA60fG/hyXxP4Wm0+CUxl14NZ3jQY1zSMf891/mK7QYKD6V34j/AHel6P8AMmPxM+QfEHhe/wDC155GoRED+E461m2tzJaSGW3kMbNxx3r6V+IVla6kEtriFZMLuyRyK8N8XeHbbSXSaA/I/RfSvKlOzOuNJzVzl5YpGkLPzuOc/WjUdOuLO1ikmUbZRuUg9qmMc1uoeRWCMMjIqteTCaFTuJCj5VJqrpoz2diibp5NkU8jfZ1PAzwKgkTLF41PlE4B9amlKXDxRpGsZ6EgYzUQkaGUIW3CNsgUwLenjBYjtVuUsdrE9DkGm28/m3CyToNmRlQOoq1q09tNdh7OMRRlQNooEVdR1GTUpF8xVUqu35RjpVKf/U1bjs5JYJLlMbIuopRpk99Az26EhBkikwKc2m7dLiu/NDM77AuelQCJoZvLbrjNMkt54SFlRlUfNinor+YpkJyRkZ7ihDOoiguBo6TPkwkYHPeuXvpnivA8ZIYH5SPWugRpX0wRje0Y+baOgrnppzBeiRl3+Wc7T3pvYCjcXNxdTEuSzHrmtHTNRntoXhiOVk4IxVC5ug9wZY1CM/BUdqtaVcPa3CyphiDkgis0gNK1tzeXkMGdnmMFJPbNOuIGtbp7dyGKNtDDvUTys87SgYZjnI7U7+IEk7gc5NaiJnt5bbAnjKk8gGpEleKRZF4KnPPenX2oXGoFGnO8oMA+1Sym1axhWKLFwrfM/tSAS7uZ9UuIfOxuZgox6V7rIsWn+DFUnHlwDP5V4hpCg6/Z7/m3MMV6r8QLl7LwTL5bYZkxXJX1Z34f3UdF4Yn87QLeYHKsvWmzT+bqqRJ90cmsvwFdPJ8PlmmXCW6DJq5oUq3kl3dkfInCmuKotTqhK6K3iSYGaKJepPNc14RjP/CdEjotwv8AOujlgN5ezTPyIhWT4LVX8USvjn7Qv869LAK1Kt6L80ZV3ex76g4A9qWkTt9KUV0nkBRRRQIKKKKACiiigArhx/yb9ff9gO5/9FvXcVw4/wCTfr7/ALAdz/6LemtxM+TKKKK3Mz1v9nH/AJKLf/8AYKk/9GxV9L180fs4/wDJRb//ALBUn/o2KvpespblIKKKKkYVzei/8jX4o/6+4P8A0mirpK5vRf8Aka/FH/X3B/6TRUDRu0UUUhhRRRQBxXjX/kOaR/13X+YrtFHyj6VxfjX/AJDmkf8AXdf5iu0X7o+ld+J/3el6P8yY/EzjvGPyXEbf3lxmvNfEejRa1pxu7VzK0MvlsoOccZr2fXdIXVbNkGBIB8prj9I8I3umXjoEBhkbLjsa8WpT5melRrcsbHHWXgu41qxihjiyEUDpxVp/gVDeaYxZhFdc7QDgV7HZ2UNpCEijVOOgFWNoPWtYUrI5qtXmZ8f+LPhtr3hhma5tpHhB4lQZFcrHgr5Zj5zy+Oa+472zhvbV4LlFkRhghhXzn478B29jrs5s18tXGQoHFVOXIiYLmVjgvslvHpMc0coaYsQ6A9B2P86ppbzXc4itxvdhkLWxJoV3FGAIwyjrjvWfJZ3cMxkVHQjgEdhUKqmP2E0UEidJ2RiQwOCB61duZ77TrcoN8RYZx0yKjjWRLgEjGDnJFO1O7mvcmZixRcCn7rQuWa3My51S4vnTzJGOxdvJpIpHmkXcdxHAz2FIlwPLK7BnGKtaVcC2aTdEH3jGT2qkkiTobbUJtMt2Fvx5se1vcVyV1E9xeeXGMySHgVuzykRjeDt28H0rH1BoU8prIsJAfmY0WHozMliWCYx3Aw6nkVbi2FwY89Kq3EMoxLI2dx9ea07G0BsjcecoO4KE7mpSSBtl62htpLGaSa4WOZfuRk8tVywt7Ke0me5nEbqnyDPLH0rLS2kluUhHBdgMntmrz6e9q7RvhsdSOlVbzJ0G2awm+RLl9sOfmPpVyP7Gb4xhx5OeG9qrQadNdW00sa7liGW5qKOHLDII9RV28x3TOw8OWFk/iqOVWVreABiSeKt/EXxHb6/qUGjaW3mkuoKr061ySQXNjZmdTtimGAQa6D4eeHWW+/ti/AC5Jj3d65KiadztozT909Jlkj0zwp9jt8RIIwGVeOadoZFn4WdnPMjZNY100+ralHYWI372zIQeFAq3rN7baVax293MsKDrnvXHZzZ3e7BFm1nZdEuJDy0rYANcRp/ii38N+Im81gCZ1LD05qtrnim7v0Fl4bgmlUHl1U4Nc/pfw+8SeJdRkEVs4kDfvGf+GvawNG1Gr6L80efXrxbSR9e2N1HeWMVxCwZJFBBFWB79awPBmlXmjeFbay1Jg00agEg10HepOEKKKKACiiigAooooAK4cf8AJv19/wBgO5/9FvXcVw4/5N+vv+wHc/8Aot6a3Ez5MooorczPW/2cf+Si3/8A2CpP/RsVfS9fNH7OP/JRb/8A7BUn/o2KvpespblIKKKKkYVzei/8jX4o/wCvuD/0mirpK5vRf+Rr8Uf9fcH/AKTRUDRu0UUUhhRRRQBw/juTyNU0ydlZljkDHaM8A1cHxA00AD7Pc/8AfFdPNbQXGPPiSTHTcM1F/Ztl/wA+sX/fIr0Y4ihKlGFSDfL5kcrvdHPH4gaYf+Xe5H/AKT/hYGmg/wCpuf8Aviuj/s2y/wCfWL/vgUn9m2X/AD6xf98ip9pg/wDn2/vH7/c57/hYOmk5Fvc/98Uf8LB03/nhc/8AfFdEdNsv+fWL/vkUn9m2X/PrF/3yKPa4T/n2/vFaV9znv+Fg6Z/zwuf++K4Px34jsL2WGeGCcdQ25K9d/s2y72sX/fIrnPGejWkmjbktowVbghaxrTwbjf2b+/8A4BtR5ufc8dg1awdcNFL/AN81I9zpbrg28p/4BW9Y2duGKmFOv92tlLC2K/6iP/vmvIdfBp/w3/4F/wAA9nlqNbr7jzm5h0iVcC3lU+u2uf1LT7IA+SkvPXK17K+nW3/PCP8A75rMvdMtmjP7lPyqlisGv+Xb/wDAv+AT7Kct2vuPDZtNts8CQfhRFbQwZ2l2+or0q/0qAZxEo/CsaTT4w/8Aq1/Kto4vB/8APt/f/wAATwsmtH+BU0TSbfXYyk7yRlV42pmnX3w3EmTBdSH6xf8A169W+E2mW7GYyQI31WvUv7Nsv+fWL/vkV6MKuDav7N/eeTVjKErXPjnVPAV3YW/nNK0ig4x5ZH9aoQ6W8b7gCeMAYr7F1zw/Zaho89v9mjBK5BC968N/sxLTVJoHiX5WxgisK9bBwV/Zv7/+AbYeEqjtc8zGmXZk8xYXbHQgVMLe+ETL9nkJYdSK9t0+ztvLH7iP/vmtdLC0wD9mi/75Fcqx+D/59v7/APgHS8JLuj58givreBkEEy7+uB1p0cF2EOLWQ565FfQhsLM9baL/AL5FSpYWZAxbRf8AfIrRY7B/8+39/wDwDP6rLufPbWN1Mw3W8yoB93HFbf8AbWpW+lxWUNs0SRgAPjrXs76faj/l3j/75rNvNPtSrDyE/wC+aieMwbX8N/f/AMA2p0JR6nmUfix9MjL2ETpcEYaRhVrwtc2HijXZJfFvn3QiXMaIOOtbuoaRbFTiFMfSjwBFBa+No43iQrKpXBFFDEYFy/hv7/8AgDr06nLud9puteFtIhCWWlSqAOpjBqx4LmS78RancRRlI5TuUFcYrr106yI/49Yuf9kVLDaQW5zBEkZPXaMV60sRQjSlGlBrm8zx1FuWpLjkZOcUvOaAO9FecWFFFFABRRRQAUUUUAFcOP8Ak36+/wCwHc/+i3ruK4cf8m/X3/YDuf8A0W9NbiZ8mUUUVuZnrf7OP/JRb/8A7BUn/o2Kvpevmj9nH/kot/8A9gqT/wBGxV9L1lLcpBRRRUjCub0X/ka/FH/X3B/6TRV0lc3ov/I1+KP+vuD/ANJoqBo3aKKKQwooooAKKKKACiiigAoooNHQBDVDWoPP0iVSM8Zq/Uc6+ZDInqtTJXiVF8sjxyIGK9dPQ1txNlRWdqcBttcmUjGTmrkJwABXhVNJM96DvBMnbms+74WtAnis686Gs2aRMS7jDKawLlNshHoa6KbnNYl6mHJpxepo9Ino/wAKo8W8r44r0gVwnwwi26Q7epru692n8B87W+NiN8wxXlHjrSfseurcxLtWYc/hXrGfSsHxZpQ1PS22rmSPkUq9PmgOhU5Jnnunj5BWwrfKM1h2ilJvLY4KnBFbCHK4rxGrM9vdEjN6VNC1UnYhqsQN0zQnqS0WpORxWZd4Ga1Oq1nXYyTTlsC3MC9AKMB1rE06T7H4qspxxtk5Nb17gZrmb/MN3FIv98H9adGVplVI3ifRVtJ5ltG/95QalrM8PTi50G2kBzlAK0hXuxd0fPNWkxaKKKoQUUUUAFFFFABRRRQAVw4/5N+vv+wHc/8Aot67iuHH/Jv19/2A7n/0W9NbiZ8mUUUVuZnrf7OP/JRb/wD7BUn/AKNir6UmmitreSe4kWKKNS7yOcKqgZJJ7Cvmv9nH/kot/wD9gqT/ANGxV9I3dxBaWcs946xwRqWkdz8qr3J9qyluUjM/4TDw39h+2/2/pv2UP5fn/a02bv7u7OM+1Tz+I9FtdNh1C51ayis58eVcPcKI3z6MTg15h/xK7vXru/uPFdukMc8UkGq+XGIi4Vh5WPukgE+/FacWuxvc6PrHioww2LW00KTyLtjd+cMAeBuXp9akZ6arK6BkIZWGQQeDXOaL/wAjX4o/6+4P/SaKl8E213D8PNIt5y9vcrZRr865aM7RjIPcVU8KwXNtr/iaO+vDezC8hzMY1TP+jx9l4oGjp6KKKQwooooAKKKKACiiigAooooAPrQeRQRmjpQB5p4xt/J10MOjLVO3fIBroPHsHMEo68iuZtGHlAGvExMeWZ7mHlzQReLYWqF0cqatl/lqpOcqa53sdEdzIl4zWTfZIyK1rgdayrjkEUR3Lfwnq3w1wNB+prtK4P4Yyh9JZPQ13le9S1ifPVvjYU103qQehp1Fa7qxitHc8w8R6cdO1osOEc5BpkcmVyOldn4q0wXuntIoy8YyK4O3bqrfw9q8fEU+WWh7WGqc0dSwzZNTwPkiqZb5qs255rl66HVbTU0lOVqpcqOatK3y1XuBwat7GS3Ofvk61y+qjP4V1d+uVNcrqo/dtUQ0kdFrxPZfh7cfaPCNvnqpIrqOlcH8J7gyeGXQ/wDLOTFd2a96n8KPnKn8Ri0UUVoZhRRRQAUUUUAFFFFABXDj/k36+/7Adz/6Leu4rhx/yb9ff9gO5/8ARb01uJnyZRRRW5met/s4/wDJRb//ALBUn/o2Kvpevmj9nH/kot//ANgqT/0bFX0vWUtykJtHoPypcD0ooqRhXN6L/wAjX4o/6+4P/SaKukrkbvwdFfeOLy/ll1CG1ubWNn+zahNCrTKSucIwH3FQUAdPRWH/AMINpn/P5rX/AIObr/45R/wg2mf8/mtf+Dm6/wDjlIdzcorD/wCEG0z/AJ/Na/8ABzdf/HKP+EG0z/n81r/wc3X/AMcoC5uUVh/8INpn/P5rX/g5uv8A45R/wg2mf8/mtf8Ag5uv/jlAXNyisP8A4QbTP+fzWv8Awc3X/wAcrP17wPGPD96dGvNaF/5LfZ/+Jxcn5+3V6AudZRWH/wAINpn/AD+a1/4Obr/45R/wg2mf8/mtf+Dm6/8AjlAXNyisP/hBtM/5/Na/8HN1/wDHKP8AhBtM/wCfzWv/AAc3X/xygLlfxpbibR93dT1rgLM5A56V6HL4A0edCk9xq8inqr6vckf+jKrL8L/DK/dj1AfTU7j/AOLrjr4Z1Xozto4pU1Zo5E1TnPXmu8/4Vl4c/u6j/wCDS4/+Lpp+F/hk9Y9QP/cTuP8A4usPqMu50fX4/wAp5rN901k3DfMa9PsvhZox1fUxeRX5tN8f2T/iYz/d8sbv4/72aun4TeEz1tbw/wDcRn/+Lo+pSvuV/aEbW5Tn/hZP/rYs/hXptcxa/DLw5YsTZDUrcnqYtUuF/k9W/wDhBtM/5/Na/wDBzdf/AByvQpwcVZnmVKinK6NyisP/AIQbTP8An81r/wAHN1/8co/4QbTP+fzWv/Bzdf8AxyrM7m06CRGVuQRivLtZtP7P1R0XgMxIrt/+EG0z/n81r/wc3X/xyq03w28P3D7pzqcrer6rcE/+h1jWo+0VjejW9m7nDhs1btuWra1/4Y6UPDt+dGXURqH2d/s3/EynP7zHy9Xx1rRT4Z+HlUcakDjnGqXH/wAXXEsDJdTuePi+hjL0qC54Bro/+Fb6B/e1T/wa3P8A8XSH4beH2+8dTP11W4/+Lqvqcu5msZG+xwF+3ynFcvqPKtXsbfC7wy33o9QP11O4/wDi6jb4S+Em+9a3h+uoT/8AxdT9Rlfc2WYQX2TE+D0mdJu09JBXo54Fc1Z/DTw9p6sLD+0rYMckQ6pcJn8nq1/wg2mf8/mtf+Dm6/8AjlehTg4xszzKk1KfMjcorD/4QbTP+fzWv/Bzdf8Axys+y8Dx/wBs6l9qvNa+x5i+y/8AE4uemz5/4/WrM7nWUVh/8INpn/P5rX/g5uv/AI5R/wAINpn/AD+a1/4Obr/45QFzcorD/wCEG0z/AJ/Na/8ABzdf/HKP+EG0z/n81r/wc3X/AMcoC5uUVh/8INpn/P5rX/g5uv8A45R/wg2mf8/mtf8Ag5uv/jlAXNyuHH/Jv19/2A7n/wBFvW5/wg2mf8/mtf8Ag5uv/jlQ+J9NttH+E2uafYIyW1vo9ykas5cgeU3Ukkn8aaBnxtRRRW5met/s4/8AJRb/AP7BUn/o2Kvpevmj9nH/AJKLf/8AYKk/9GxV9L1lLcpBRRRUjEY4UkdhXm+jXNz/AGnpurG9uZLnUNTure4gadjGI1kZVUR52rsAAyACe+a9JrKtvDGj2msPqlvZ7Lt2Zi/mOVBb7xCE7QT3IAzQBq0UUUAFFFFABRRRQAV59riXWi+L7zXNTgup9OeWFbWSLUpEWBtgBzACFYbsk5r0Gsm58MaTeaoNQurd5Z1YOA9xIY8jofL3bP0oA47wjPcJeeGL03tzPLr1i9xfxyzs6o+wP8qk4TBYrgY6V6PWVp3hnSNJvpbzT7Typ5c5YyOwXJyQqkkKMnooFatABRRRQAUUUUAFec+Iri68O674kvdNubp5RoUt4kUk7yIsobgqhOF/AV6NWG/g7RJdck1eW1le9kUq7tdSlWU9V2btuPbGKAOI1OS40C4n0nTdTvJLW7tIJJLiW5aV4meTYzKzElfl544FdX4UDWes69pMc881pZXEYgM8zSsgaJHK72JY8sTyTV218H6FZ2NzZw2P7i6XbKskruWHQDLMSB7AjFXdK0aw0S2aDTYTEjtvctI0jOfUsxJP4mgC9RRRQAUUUUAFcr8SbYy+AtUuEubq3ls7aSeJ7ad4jvVCRkqQSM9uldVWdreg6d4j05rHWIXmtm+9Gszx7uMYJQgke1AHHa/Hc6drf/CQanDdXGkQW8RZodSli8kjGW8pSA/41Xvrq5OrXmsLe3K3NtrEVpFbidhH5W4LtMedp3DnJGeeDXWf8IVoRMO+2nkWEKESW8mdeOmVLkN+INWZfDGkTa0uqyWebxWVt/mOFLDoxTO0kepGaANWiiigAooooAKKKKAPNPF8s2kahe3nhe5vJL+ytLm7vd9y8kKqIXKJsYlQd+3AAFVdSmudAabTtN1O7eC9sIZZZ5bhpWiZ5VRnVmJ2/KxPHFdxB4M0K31Ke/htJBcXLl5s3UpWQkYOULbT9MU+18H6FZ2d1aQ2A8m7TZMskrybl9AWJIHsMUAUPCitZa5rmkxTzz2lpLEYfPmaVk3Rhiu9iSeSTya6mqGk6LYaJbvDpsJjV23OXkaRmPqWYkn8TV+gAooooAKKKKACsHx3/wAk68Sf9gq6/wDRTVvVg+O/+SdeJP8AsFXX/opqAPiuiiityDrfhx46/wCFf+Ip9V/s7+0POtGtvK8/ysZdG3Z2t/cxjHevTP8Ahpr/AKlL/wAqX/2qvBqKVkwue8/8NNf9Sl/5Uv8A7VR/w01/1KX/AJUv/tVeDUUuVBdnvP8Aw01/1KX/AJUv/tVH/DTX/Upf+VL/AO1V4NRRyoLs95/4aa/6lL/ypf8A2qj/AIaa/wCpS/8AKl/9qrwaijlQXZ7z/wANNf8AUpf+VL/7VR/w01/1KX/lS/8AtVeDUUcqC7Pef+Gmv+pS/wDKl/8AaqP+Gmv+pS/8qX/2qvBqKOVBdnvP/DTX/Upf+VL/AO1Uf8NNf9Sl/wCVL/7VXg1FHKguz3n/AIaa/wCpS/8AKl/9qo/4aa/6lL/ypf8A2qvBqKOVBdnvP/DTX/Upf+VL/wC1Uf8ADTX/AFKX/lS/+1V4NRRyoLs95/4aa/6lL/ypf/aqP+Gmv+pS/wDKl/8Aaq8Goo5UF2e8/wDDTX/Upf8AlS/+1Uf8NNf9Sl/5Uv8A7VXg1FHKguz3n/hpr/qUv/Kl/wDaqP8Ahpr/AKlL/wAqX/2qvBqKOVBdnvP/AA01/wBSl/5Uv/tVH/DTX/Upf+VL/wC1V4NRRyoLs95/4aa/6lL/AMqX/wBqo/4aa/6lL/ypf/aq8Goo5UF2e8/8NNf9Sl/5Uv8A7VR/w01/1KX/AJUv/tVeDUUcqC7Pef8Ahpr/AKlL/wAqX/2qj/hpr/qUv/Kl/wDaq8Goo5UF2e8/8NNf9Sl/5Uv/ALVR/wANNf8AUpf+VL/7VXg1FHKguz3n/hpr/qUv/Kl/9qo/4aa/6lL/AMqX/wBqrwaijlQXZ7z/AMNNf9Sl/wCVL/7VR/w01/1KX/lS/wDtVeDUUcqC7Pef+Gmv+pS/8qX/ANqo/wCGmv8AqUv/ACpf/aq8Goo5UF2e8/8ADTX/AFKX/lS/+1Uf8NNf9Sl/5Uv/ALVXg1FHKguz3n/hpr/qUv8Aypf/AGqj/hpr/qUv/Kl/9qrwaijlQXZ7z/w01/1KX/lS/wDtVH/DTX/Upf8AlS/+1V4NRRyoLs95/wCGmv8AqUv/ACpf/aqoa7+0P/bfh3UtK/4RjyPt1pLbeb/aG7ZvQrux5YzjOcZFeK0UcqC7CiiiqA//2Q==;" vertex="1" parent="1">
          <mxGeometry x="450.59" y="200" width="279.82" height="388" as="geometry" />
        </mxCell>
        <mxCell id="D9FhCrUlwlGwZ-h1Pyif-2" value="" style="shape=image;verticalLabelPosition=bottom;labelBackgroundColor=#ffffff;verticalAlign=top;aspect=fixed;imageAspect=0;image=data:image/jpeg,/9j/4AAQSkZJRgABAQAAAQABAAD/2wBDAAgGBgcGBQgHBwcJCQgKDBQNDAsLDBkSEw8UHRofHh0aHBwgJC4nICIsIxwcKDcpLDAxNDQ0Hyc5PTgyPC4zNDL/2wBDAQkJCQwLDBgNDRgyIRwhMjIyMjIyMjIyMjIyMjIyMjIyMjIyMjIyMjIyMjIyMjIyMjIyMjIyMjIyMjIyMjIyMjL/wAARCAEtAM0DASIAAhEBAxEB/8QAHwAAAQUBAQEBAQEAAAAAAAAAAAECAwQFBgcICQoL/8QAtRAAAgEDAwIEAwUFBAQAAAF9AQIDAAQRBRIhMUEGE1FhByJxFDKBkaEII0KxwRVS0fAkM2JyggkKFhcYGRolJicoKSo0NTY3ODk6Q0RFRkdISUpTVFVWV1hZWmNkZWZnaGlqc3R1dnd4eXqDhIWGh4iJipKTlJWWl5iZmqKjpKWmp6ipqrKztLW2t7i5usLDxMXGx8jJytLT1NXW19jZ2uHi4+Tl5ufo6erx8vP09fb3+Pn6/8QAHwEAAwEBAQEBAQEBAQAAAAAAAAECAwQFBgcICQoL/8QAtREAAgECBAQDBAcFBAQAAQJ3AAECAxEEBSExBhJBUQdhcRMiMoEIFEKRobHBCSMzUvAVYnLRChYkNOEl8RcYGRomJygpKjU2Nzg5OkNERUZHSElKU1RVVldYWVpjZGVmZ2hpanN0dXZ3eHl6goOEhYaHiImKkpOUlZaXmJmaoqOkpaanqKmqsrO0tba3uLm6wsPExcbHyMnK0tPU1dbX2Nna4uPk5ebn6Onq8vP09fb3+Pn6/9oADAMBAAIRAxEAPwD3miiikUFFFFABRRRQAUUVQ1fWtN0Gxa91S8itYF/ic8sfQDqT7CgCDxNrkXhzw3f6tLg/Z4iUU/xOeFH4kivkeeeW5uJJ5nLyysXdj1LE5Jr0H4nfFG18WWsWl6ZbzJZRTea8spwZiBgfKOgGSeTXlz3chOF49gKAL4B7Zpd2fvDJqh5V643eXJj3qFllVsMrAjmlcLHp/hD4ma34akiglnN/poIDW8zZZF/2GPI+nSvofSNWs9c0uDUdPl822mXKnuPUEdiPSvigOQepq/p2tanpMwl0+/ubWQc7oZSv8utAH2rRXz14U+Oeq2Msdv4ijF/a5wZ0ULMg9eOG/Q+9e8aTq9hrumxahplylxayj5XT17gjqCPQ0wLtFFFABRRRQAUUUUAFFFFABRRRQAUUUUAFFFFABRRRQBznjTxfZ+DNDa+uAJZ3Oy2t84Mr/wBAOpP+NfLniPxLqnibUnvtUuWmlPCr0SMf3VHYV1Pxg1ubVPHt5AXPkWGLaJewwMsfqST+QrgFjaVwiikMLe1lu5NqDjua37DR3kuTaWMRluBw8u3OD6D/ABqWxhWzsWlA+aNN+f8AaxxXo/wy06OPShcsP30jZz61y1attjrpUU9zAtfhlqE8Pm3kzc/wg1Q1LwbHpql1Zy20ryK93CEpwOa53XNLE0RyAAMksa53Umtbm8acHpY+frywEUaq6AEeorLlhMXI5X+Vd/4o03yVDRlXA7qQQfxrj3jEkTFQQR95fSuunUurnLVpcrsZgYV3fwz8czeEPEEazSE6VdOEuoyeFzwJB7j9Rn2rg3XYxFCtW6Zz2sfcgIIBBBB5BHeiuT+GeqS6v8OtGuZmLSrEYWY9TsYoD+QFdZTEFFFFABRRRQAUUUUAFFFFABRRRQAUUUUAFFFFAHyp8UrGSy+I2sK4wJZhOp9VdQf8a5i2VnlVAOCa90+OHhGS/sYPEdohMlonlXQA58rOQ34EnPsfavHNOgKwmUjkD5fxrObsjSmrsuStm38hT9/r9Old54Z8ULoWjwifSrkwjgS71UN9ASK4KBA8ruxGEUAH3/zz+NdRovgefXITeSyGRHA8vP8AAOeAM4rklyv4jtjzJaHrdlq6XtmLmJWXI3bX6ivOPFGs6nd30/mxz3en24DPbwfJGMnA8xup57ZrtdJ01dJUW6KE3ofkHQcdqjtNMtLxnhZRnq2B976+tZRlaWpo43jdHm2nwxa+JFj0eOzZFBLRcAgjIB561ymp2Rsb0o3B6bvUe9e/3VhZ6TYOIY1BI+Y9ya8Y8QwG8u5AgJ27jwM4wM1UJ+/5ClC9O5x15b8F1xjr9KogEn3rW2nymB6EdqdpGg3eu6vZ6fYoWnuZBGPRfVj7AZP4V2RfQ4JrqfSfwfgeD4YaVvGDIZZB9DI2K7mqml6dDpGk2em2/wDqbWFYU9woxn8etW62MgooooAKKKKACiiigAooooAKKKKACiiigAooooAbJGk0TxSorxupVlYZDA9QRXgnxE8JWnhGSM2Tf6LckmGInlCP4fcc9fSvfa8f+OsMn2fSLhMkKZUPoD8uKzqq8TWi7SPG7m6KwPHG3IUkn+8xr2n4bavBdeGbXYRkLtcdww6ivFGgQNHGTguuQfetvwFrLaH4hazlfFtdEFMngN6fj/SuWpC8brdHXTnaVnsz3S/uI7e7jnkilaEjYfLGSDWXpzyjWHlELwQ/NzIeWHbiq+q6lfxwxvaRxvGx/wBYz8L9RVC/eZ7cNNqDmdgMJAQe3YY/rXKlfU7Y07o29cmMtrJg5wK8f8UMba03LIyO0nJU4JHcV6EzyWmimOZ3Mh5ZpGya8v8AFxluXVwD5SngetVR+MyraQsjMiwbVWP93P617l8EvDC2OiS65cRg3FyxjgYjlYx1I+p/lXhVs3m2T45YY49q+lfhbrtnq3gyztISq3FjGIpY88+zfQ/zrvh8R51T4dDtqKKK3MAooooAKKKKACiiigAooooAKKKKACiiigAooooAK8i+MurpLNYaHEAXT9/KfTPCj+Z/KvXa8D8d20snijXZrqYK0N1E0UZ4Z0ZMAj2G0f8AfVZ1X7prRXvHmuqSDzownGwD+dQ3ahywPVG4wcHHXg+oNS3cZe4b6gf1NRTH55GHrWNzdq9zuPCHjz/V6dqO6TsspHJ9mHr716RHquhwxCSGODcw5KgZr5+0tcavb7fvF817dY6TDc28cqoFfHPHWuWvFRlodNGTlH3jM1SaTUbjnKxZ4X1rH1PSBdRmPZxiu2bR8OCBxR/ZmVJIrCMmnc0k0zwhY5dM1NrWdDknaP8AaBrc8Pa9eeFNbh1CyclVPKk8Op6qfY//AF+orv8AXPCcV/HHcRrtlQhkdeqsOQa4PXdB1DTv30Fm7x4G8I2ecckDrz1x9a7IVVLyZyyp2XkfT2jata67pFtqVk+6CdNw9VPdT7g8Ver5h8DfEu+8KtLbkZsnbc0LxZww9ORgn/Ir6F0bxXoev28cmn6nbSM6gmLzAJFPoVPNdsXdanFKNnobNFFFUSFFFFABRRRQAUUUUAFFFFABRRRQAUUUUAFeMfGy4WHVdOVIx5ptydwHLDcev0x+pr2evBPizrVnreq28mnHzY4IpbVpsfK7dfl9QORms6rXLqa0b82h5rNNhI8j5mJ5qK7KLAm37uM/Uf8A1zmku1Ms5VOiIFH5cn86iv4WW6WMk/cHGelYm7bVyx4ZiMuv2zN91XyxHpXv2knbAG8qQRnoSuM15d4HvvD+mgyXN5Ckx4PmAjH6V6TH428NRxAPrNoPYMT/ACFctZSlLY3puMY2ubgYyHbHGc+pqGS2vo1KII2B9c1iSfEbwtByNVVsdkic/wBKyL/4v6PCD9itru6fsSBGv5nJ/SojRm+gOpFdTqltdUXI8qHHpuNcf4p8TW2gq8MzQTXxHy20fzEe7H+EfrXIa18T9f1VGit3SwhbjEH3yP8AfPP5Yri2JdizsSzHJJOSTXTDC9ZmM8T0iTz3D3d5JdT4MkjbjgYH4VKrgYY8YqqDjpRv59hXalY5L3Ow0Lx/4j0EqtpqkpgBH+jzHzEx6fNnH4Yr6V0TWbTX9GttTsn3QzpnHdT3U+4PFfHiucZr2D4FeIHj1O+0GV8xTR/aIQT0dcBsfUEH/gNMTPc6KKKBBRRRQAUUUUAFFFFABRRRQAUUUUAcx8Qr+bT/AARqEluSJpQsCkdt7BT+hNeA3vJNsq8Q4VfTIGf1zX0B48jEnhaTcMqk8Lt7BXBP8q+eLi8/dzuMeUHL7vUnr/PFctf4kjqw+zZk7QZNv8X86p605e8VxwHjGa3Baq06Sg/KCc/TGf6Vg6kD9piQ9VTp6Z5pU3eRdVWiyugAWnZpKK6jkF6000uKTFABRRS0AHSmsflI98UpOKZyWAFAEgOSB2FdH4G1X+xfG+kXpbai3CpIf9hvlP6GueUYFOXcpDLwQcg0AfaZ4NFUdFvf7S0LT77OftFtHIT7lQTV6mSFFFFABRRRQAUUUUAFFFFABRRRQBg+NIDceD9SiDhC0YG49huGf0r5v1GHN4ljAhKIQXLDG7H8hX0x4l0ibXfD91psF39llmA2y4zjBBx9DivAPEenT211dxGMxssmyTjr0H65zXLX0kmdWHs4tGdCiR2ZnnYeV8zM2eCq+n1PFchLM13dSXL9XJNdB4juQI4bKHiIRoD7gD+p5rn8Y4FVRjpzMVad3y9hKKKK3MAopM0ZoAKKM0hNADWHccVreG/Dl74k1F7azaJNihnkkbAUE+3JrJJrtfhbdCHxNNAf+WsPH4H/AOvWVWTjFtGlKKlJJnUWvwrsLRA1/ezXL9SsY8tf6motS8MaPZ2rGCzQEDqSSf1r0W8H7r8K47XT+42Dq5C/nXmurUk9WejCnBLY9U8I2H9meEdKs/MMnl264J9D82Pwzj8K2qjgjENvFEOiIqj8BipK9g8hhRRRQAUUUUAFFFFABRRRQAUUUUAFeVfE6zjjumPC/aQsmR1G3g/yFeq1w3iPSYtQuxcSgeTuxknlz/hxXLin7h0YbSdz5+1WzmKi6ZCF3bRnsB0/rWK1eq+LdPRJBGigIVIx6V5Y4G846ZqsPO8bDrxtK/cjop2PxpMCtzASjFFFADSKYc1LTSBSAjruPhlpctzq1zqinEdiI1fj7xkbaB+hP4VxOK9z+F+lC1+F19fsv7y9vVOf9lGVR+u6omrxZcHaSOrvP9Rn2rkL9fP1Wxh7Pcxr+bCuxu0zAD7VyLn/AIqbSwf+fyL/ANCFeXFe+j00/cZ7SeppKD1or2TxwooooAKKKKACiiigAooooAKKKKACsLxOgFja7RgCcf8AoJrdrG8Tj/iVI392ZT/MVlWV6bNKT99HmfieDzCGI4Arxe4XE7jAB3HIA6V7zrkXmwjFeIauu3V7sZJxKw5+tYYbqjpxGyM8immnmmmuo5BtFFFAAabTqQ0AJX0v4RtxD8GNMUDGYRKfxl3f1r5pHBr6u0K0KfC/TrYDkaZGce+wNSavFjTtJFSZQ1uv0rkriLb4p0k9jeRf+hCutjIeJR6qKwdVi8rWNNmIwFuozn/gQryo6TTPST91o9SPWig9TRXsHlBRRRQAUUUUAFFFFABRRRQAUUUUAFZHiQbtK2d2kXH8616wNbnEl4kA6RJub6n/AOsP1rKvK0GaUleaOUuIy9t83VeK8r8SC20e/Mgs7e5+0SF3jnTOPoRyM16D408TweHbHYgSS+m/1MZ7Dux9v5mvF9R1G71S48+6kMjjgfSuejTe72OmtUSVludho974EvMLqejvaSHqwkdo/wBDkflXaWXg3wHqkYayt7ebI/5ZXTk/lurxaJsfwnNXYWVcsj7WAzkjnPoCK0lRb+GTRkqvdI9hm+GfhUnAsJU/3bh/8agm+FXhkrlI7tfpOf6ivNrfxBrVpgW+qXS+gExYD8DmtEfELxNAozfLIvbzIFOf0FZOjWW0i/aU+qOkuPhXomcRXd7H9XVv6VhXnwySEkxam5XtviH9DVI/ErxDnLG0b6w//XqtcfEPXZlwfsg+kJ/xpcmIXUrmodUMufBNzEGEV0krdl2EZPpX0/p9v5GgWlsy48u0SMg9sIBXzFoPiDUNR8T6XHeXnlwNdR7yihcDcM9Oa+qyA2QehrppKdvfZhVcLrkRwUEhFvGueQMZrK8RuVtN44MZDA+4Oa0YUMc0kJ5MblT+BxWZ4o402T/dNebLSR6EEj1NW3oreoBpaq6ZJ52k2Up5L28bfmoq1XsHkhRRRQAUUUUAFFFFABRRRQAUUUUAFeea1r1vp1rqGr3RzEGJVR1Y9FUfXiu51O4+y6Zcz90jOPr0H6182+OdfOp3qadbt/odmcHB4eTufw6D8fWuetHnkom9J8kXI5vVNSudY1Ka+u33TSnOOyjso9hVQDFGKegJz7VslYybuOiClgXBPtmtEQROmQNpx61nIc1YS5aJSR1pgNkjaJyMkYqvLJJjaXyB0q5LmQKx/iXNZcr4YrSYDWz61G2fWrRhLW4kFVmpALBK0EySqfmRgw+or648Ha+vibwrYapwJJE2ygdnXhv8fxr5Er3n4C6mZNI1TS3bmCZZkHswwf1UU0DOgT59TvW/6bv/AOhGsfxKc2bqfQ1rQfLqd+h7XMn/AKEaxvEzZt2x2BryJ/Ez1aeyPRfDT7/C+lMe9pH/AOgitSsnwwNvhXSR/wBOsf8A6DWtXsLY8mW7CiiimIKKKKACiiigAooooAKKKKAOH+Juvx6b4cezt50F/cyLGqbuUGM7j6YwP0r50aGQXc1vgM8ZbdhwR8uc85wenbrXe/E3WYtW8ZXH2dV8q0H2fco/1jD7xPrzx9Frzt0YPv2nYWIB7ZH/AOsVPW5XSw9YmkdY0GXY4A9TUkK/uSfU1C5zxV8rHFDCEkLsyZkBXGxsnj34wc+9AFBeGIpJW5wKccBm+tRBS5ZsjC4zk4P4etAGnIQlsjf7FYW7dOfrW1eNts4/UrWFGczmkwNuEAwBT3FZ88RUnitItHiPy0ZAEUNlt2WxyenAPp2plzHvh3DtQBjr1Ir0z4KasLTxstm5x9rgeL6kfMP5H868yf5ZK0NE1GfSdas9Tt/9baSrOATjIU5I/EZFCBn0hcR+T4i1NfWUOPxUH+tcx4gfMEpzwBXVXFzDe6xLe253QzwQyofUMgI/TFcjryl1ZB/E+38zXl1V+8a8z1KT9xPyPV9Hi8jRLCLGNltGv/joq7TUQRxqg6KoH5U6vXPJCiiigAooooAKKKKACiiigArn/G2vjw34UvL9WAuCvlW49ZG4H5cn8K6CvDvjDr/27xBBo0L5h09d8uOhlYf0XH5mgEebzu7BnlZmc8lnOSx9c96zHUgiQ42sSBzzx7fjWnePusrctdNIwDJ5LA/ulByMHpgkk4H9aztkYeQTmSM+XujAT7zcYznoCO9Tcsc6riIrIHLD5lAPy89D/Pj1q3KdrKM9qrWZQXCtLF5qAHKbiueOOR+f4VZSd4L6GVCu+Mh1JUMMjkZB4P0oEUZD8xqJOZKkcbpZMuq4Bb5uM+w96SBQWU7gSWxtx09/8+lAGhqk0jWUETuzJEuEUnhcnJx6c81h2y+ZcokYJdiBj1JPGP0rX1dv3YX0FY0GPNIB3DPXGKTA22RkYo42spKsD2I6ipEwQV9ag4wMVIhwaYGVdqEZxtyT0OelRArk7SSvYkYrQ1CIF1OQqnue1ZQO0sPSpA97+HM80/gy1luW3MimJDj+BSQo/pUl0hn1W3j7NcoPzYVf8I2J07wTp8DDD+QHb6nn+tMig/4ntiT903ETf+Pf/WrzHrV+Z6cdIfI9UPU0lFFeueUFFFFABRRRQAUUUUAFFFFAFHWNUg0XRrzU7g/uraJpCPXHQficD8a+XdU1e41m6a9ukiWeQlnKLjcSc5NesfGfxGbWCw0O3ZS8rC6nVhkbVPyKR3BOTj/Zrx6K6EUM0RijfzQBuI5Xr0/P9BUsaG6lCsKRBZUkDoGyh6E9qzHlL7i+XYgAMzElQO35cVeuI4iIF+1IBIMv8rfuuSOeOeADxnrUU7tqElzcyvb27xRKRGF278YGFHr3pFBbiZ0Ezb2jT92GPQd8fzqRhHmJkkZmIO8FcbTkjAOeeMHPHWnrax29wI/tCTR4UtJFyBnqB7imuIlvZUhLNErHYXADFe2QO9FxGfMf3rVZsYVZRMZowRKqeVk72BBO4dsDGPxFQXEpe4USs7onygZ6LnOB6dT+dT6YivcqHkEYAJ3bSeQMgcep4pgP1YNJIVjUseTgc8AZ/kKybFzHcRyBVYqwYB1yDj1Hce1XdVbMh7VSgKGYmNSq8YBOe3rSe4GvuySeBnnipITD5v78yCPDf6vGc4469s4z7U2SJ4JnhfbvjYq21gwyPQjg/hTpvJyvkq6jYobewOWxyRwMDPQUwIrhd9t7iovD+iTa74gtLGMfI75lI/hQYLE/y+pq5FGskcwaVUKpuAIJ3nIGBgdec88cV6F8K9IW30651J0/fXMpjQ+iLx+rZ/KsqsuWLZpSjzSsehsojslRRgBcAegrI08favEWmQ5PM5Y/8BO7+la9wdi89hXP6XP5PibT2/uzgc+/B/8AQv0rz6a99XO+V+R2PWKKKK9c8oKKKKACiiigAooooAKa7pHG0kjBUQFmJ7AdTTqQgMpVgCCMEHoaAPlnxJrh8R+INR1SSMnzpR5DFj+7iXhVx7jH61mz+ZHawQuYWU5mQptLDdxhiOf4funp+NerePvh9p6agkuihbSSRN0kA4jJJOMf3c46dK8qkiMbukyj5GKsy9FPp6VF1expytK/Qgnit7iaKKGTyB5OZXuH+UuAScYHAOAAPWqUlybmcS3W+V2bMj7vmYYAA9OMelWb8wvMWRVhTyxtWPcwJAHqcjJ5/GqoIaZBc784HzKQTt2/KAOnpQIvxLCmmq2HE+/JbI27MdMdc571HNbzWl55dxGY3KhipIPBAYdPYirCxxDThJ5w80OE8nac7cfez068YqsIJMK5RtjkrG2OGI6gfmKBEISx82OS5nlIZ3EkUSfMoA+Ugng5J/SrWhQQyzSGebytkZZeM7m9KpymW2D209moPmrIxdCG4H3c+h3D9Kt6QyxySl4g3yMACSNp7Hj0PahDKl5Cbi4mHmRxlIzJ87YzjsPeq1haPNLMI3jPlKXJJxkD0p955UlxL5rsh2/JgZBbjGfQYzzUOniA3UYl8wQ5G8pgt7kZpO9wNW2eJJH86HzQY2VRvK7WI4bjrg8471JbpHNKFll8lMH59pbBAJAwPU8fjUSSD7M8RijLM6v5pB3LgEYB9Dnn6CpyYCtuIlkR9uJmZsgtk8jHQYxx6g1Qh72rx6eb3K7NxTGec4zXs+gJFpuk6Naqu3zIRge+3cf1ya8ZNtGbvyBIskbTCLzVBAZS2MgHnn3r1nU9SNv4v8MacVOyQyZCjP8AAVUfmRXPX1sjqw6STbOjvG3P5YHzPwBXK3cn2fVlkXAEcqOfqD/hW8ZRLq1x82RZJhgOzEkY+vBrCa3a4mDynmXfOPoBgVxJe9c7NLWPZc55HeikX7o+gpa9c8cKKKKACiiigAooooAKKKKAOP8AG6zQIt3HA0qeXswpxlsnAz24JP4Vz+lfD+2v5Lwo+3TJ5mkQ5y2OykHnI6HNenuiyKVdQynqGGQaSONIkCRoqKOyjArJ0k5XZuq7UOVHmus/BXQ76wVbCeazvVXHm/eSQ/7S9vwx+NeMa34U1TwzqcljqMC/IQwlj+ZXB6EN6exr6zrgfiJpySy2l0VyGBjY/Tkfzp1JckboinHnlyvqeBXIge6OwNBbNJgAHzCi9/8AewPpmo7SFPNlP2gR7AzKzA5YjoMDoT+lent4RsLtdzQrkj0xWbeeA4BG/kySLkcgnOa51ioPc6HhJLZnm1xcXk+4S3LOkbMwDPzk7c8fgv5e1aOkvNa7bxJgs5IkjcMCysG6n0Oeeas3vheWOdyXKknn5cirug+GpNR1KDTFkRWuGCCRgcKc9cVrGpB6IzlQqR1aOT1BMzSS3BeMuhkjyn+sOcfgOvPtVe0IYgKirgk5Ga9ZvPgV4h80PbalpsmOm9nH81Ncg/g3WtJ1C6sZWj81XKTKj8Pggjt0zz+VVJqOrM4xctImZBLbiW3DW7sF/wBcPM/1nzZ44+Xjjv61KskSTyv9mLRsGCIXPyE9Dnvj9a2rfwp4hjjdUsN8UrBmClOcZx7jqaevhXxEsEsTaQ581w2dqEjGcYOcjr/L0oVSHf8AEfs5roU9Mu7JLuya6tmAim812HO8KCQuPqBXX+HtVl8ReLLrxPLbrDbWafZrRTyQxIJYehGO3rWGnhHxD5bxrpjRq+AxbyzwOeMnIOfT6VsJBqen2EGny2BtrOOLa4ikVmkbueOBnnPesa0o7pnTh4y2a0OhtbljpV/PGS0t9OTGc5yAMA/nk1z/AIn8X2mlyvFaP515DCIFUDiPjksf6VqeH4JvG+uf2beTvpVpa2+5ItP+RpQCF2lj0AH90Dqa9D0z4deEtJ2mDRbeSQf8tLjMrH3+bIopUU1zMK1dxfKkaXhnWE8QeGdO1VF2i5hDMvow4YfmDWtTURY0CIqqqjAVRgCnV1nCFFFFABRRRQAUUUUAFFFFABRRRQAVgeMLfz9Bd8ZMThv6f1rfqrqVv9q0y5gx9+MgfWpmrxaKg+WSZ57YMGgFTzKCp4qnYHamO4OKuSn92a8Y9nqczqdssm4gUzwdbr/wmGn4HSXP6VbuuWYVL4JiB8ZW/wDshj+hrWh8aQq2lNnr1ed+PdJEWr22qRr8sw8uTH94dD+I/lXolZ+t6cuq6TNakDeRujPow6f4fjXpVYc8GjyaM+SaZw1gf3Yz6Vd34IrNsWKhlbIZTgg9qtFsOADXk7HrNXLxwUzWPqCBgQcVrxHKVm368McU5bCjuY/hZxZePbFhwsweE/ipx+oFew14e8/2PWbC7Bx5VwjH6BhXuHfiu/CSvCxw4yNpphRRRXUcgUUUUAFFFFABRRRQAUUUUAFFFFABR9aKKAPMpovsurXUHQJIwH50+RgVqfxEoj8UXGB94Kx+uKpynCHivHqK02j2ab5opmXeDBbFT+DHCeMLbtvVl/SoLno1ReHJGTxXpzDr5wH506Ok0Osr02e0UUUV654pw/iOy+w6x56DEVz83sG7/wCNZhb5sV2XiiBJdDldh80RDqfQ5x/WuHjJOK8zEw5Z6dT1MNPmhr0Na3I2VWvh8pqxbf6sVWvzhTisXsar4ji9ayEY9xXuNhN9o021m/56Qo/5qDXh+r8rIPavZfDjF/DGlseptI//AEEV14N7o5scvhZp0UUV3HnhRRRQAUUUUAf/2Q==;" vertex="1" parent="1">
          <mxGeometry x="170" y="230" width="205" height="301" as="geometry" />
        </mxCell>
        <mxCell id="D9FhCrUlwlGwZ-h1Pyif-3" value="" style="shape=image;verticalLabelPosition=bottom;labelBackgroundColor=#ffffff;verticalAlign=top;aspect=fixed;imageAspect=0;image=data:image/jpeg,/9j/4AAQSkZJRgABAQAAAQABAAD/2wBDAAIBAQEBAQIBAQECAgICAgQDAgICAgUEBAMEBgUGBgYFBgYGBwkIBgcJBwYGCAsICQoKCgoKBggLDAsKDAkKCgr/2wBDAQICAgICAgUDAwUKBwYHCgoKCgoKCgoKCgoKCgoKCgoKCgoKCgoKCgoKCgoKCgoKCgoKCgoKCgoKCgoKCgoKCgr/wAARCABpAGwDASIAAhEBAxEB/8QAHwAAAQUBAQEBAQEAAAAAAAAAAAECAwQFBgcICQoL/8QAtRAAAgEDAwIEAwUFBAQAAAF9AQIDAAQRBRIhMUEGE1FhByJxFDKBkaEII0KxwRVS0fAkM2JyggkKFhcYGRolJicoKSo0NTY3ODk6Q0RFRkdISUpTVFVWV1hZWmNkZWZnaGlqc3R1dnd4eXqDhIWGh4iJipKTlJWWl5iZmqKjpKWmp6ipqrKztLW2t7i5usLDxMXGx8jJytLT1NXW19jZ2uHi4+Tl5ufo6erx8vP09fb3+Pn6/8QAHwEAAwEBAQEBAQEBAQAAAAAAAAECAwQFBgcICQoL/8QAtREAAgECBAQDBAcFBAQAAQJ3AAECAxEEBSExBhJBUQdhcRMiMoEIFEKRobHBCSMzUvAVYnLRChYkNOEl8RcYGRomJygpKjU2Nzg5OkNERUZHSElKU1RVVldYWVpjZGVmZ2hpanN0dXZ3eHl6goOEhYaHiImKkpOUlZaXmJmaoqOkpaanqKmqsrO0tba3uLm6wsPExcbHyMnK0tPU1dbX2Nna4uPk5ebn6Onq8vP09fb3+Pn6/9oADAMBAAIRAxEAPwDxf/goF8SNf/aB/an8cftDahZ3slrd+KtZ0oPdcR2kVhI1tBbxE9WEAhkYZ/5bAjGTn4i1mK4vPiRDc3ALldYiRs8glE+f8O1fpP8A8FqvDXh39mD9onxF8EPCHiFpfCmp65J4wt9JaJf+JfqWoW8a3MIOASuI7dgDkhXj5yrE/nlrMNra3cF7buJZ7lHmij773fOf0x9K+Nqc/wBYn6n6DGKeDpW20OS8QKl9ZXdlqbGSGe5kZ1P8UhPL56qx77cV3/8AwT18S+MfCv7Qmn2mneKLyzfUIzHJLBMQTzhCw6Pt4I3A1xPj/Tl8OQx2bzCRsNJLKOVymQ5H+yzqyr+HJrvv+CZ+kXHj/wDaq0y1WEyB7R5EEfG0Kc9+/FY43TLanMv6sa0KajnEbStofq//AMIt8fteFtb+I/Hd1qFlLAhikjgABU/wsQO/Sqlv8F9QtdW2yWRCplmAHDH1PvX0j8E9GgufCsFhKikxRhSGO0DH1J5rpdf8OeHbK2kuJFheXymwkXJzjvivzOonOXU+2qYpx91WPkXXf2ebfXrScXWlqyzgq25eMEY9K+Dv2jf+Cc+vfBL4wSfEjwnaXU2hSSXEl9a2PDwPLCwimjG05VJSpYYJIBAwea/X3XfEPw7tNAe2u7w2tzgghoXwOOv3K5rxJ4k+DHjXSPs+s6jB5tujrHKqSDAJ3Y4TPBHHevSweOxmBfPCWi+z3PPq4eGMfLPbufhx4/t1+HXjqTRfEeo2lpqljcMsF1pd2vl3Ajxtlh5yV2uGXJUruwWwgx+/H/BHz/gtD8Kf2qPhFoPwh+Nniy7i+JOliLS7u/uNLnNvrGAEhuWmVWWJ5G2g79u5h8uc4r4W/bk/Zq/Yf1z4bap8Q/izY2+lWWnsxTVNPtPs0jS8tHFHMmC0mSwRF3Al8MemPys8GSXXg/xMuoeANe1HS7e1vC+l3K3LRXHlxSeZC4YY2MrAMNoUkjkmv0HIsXHFp1YxcXfXTfQ+JzzDwotUnZ9mn+Z/aQ8iCZoEO90fEgUr+7BGRkZzz64pa/nI/Z7/AODiv/gpV8G7S10HxH4+8PePNMtYlWNfGmiqZQijAU3Fs0Mh4/icsR1Oa/Qr9h7/AIOU/wBn79pHxp4d+EHxu+EWseBvEviPVodM0/U7W6S60iW5lkWNN0kwhmhBZhz5bqByXPWvrrtnynsuVaH6W0UgLYw0ZVioIBPT+8p9xxz3yKWkQfzzf8HHVrZyf8FFvFF5cXomm/4RLQZ7G1jbcY5JCtvJvCnCuBGQT/trxxX50eOrie18ey6Zpkpxp0q6fHMh+/IHVZGB/wBksCPpX0n+0rfyeJdTi17VdauNUv7FJ4dT1e8uWmnv7lmSZriRicktPlQPur0AFeIeHfD9lH4oguNQUSxTahHLNI/OzLgv+Ld6+N+uLETnU6X0PungnQwtOnfXQ4H4larq2r+Jrjw9DYiMQPFEi+ZlioUY69t3z/7xPbiv0A/4JG/sH25Vvip421yexlnULbxwOiM0Z+8M84yM9xXwJ8ZtUbRvi3rlvZrmf7Sgt3XjYhXqCMEEdjmu1+Fn7Zn7W/wo0qKx8CftBeJNPgiGEiW8DqB6YdTkexqsVleKzDC2pytcxo5lh8BjJupHmat+R/RT4S+GngnR9BtbPQbfyNkYDSC4ZvMPqeWya6fw3oug6Jeec1gznqJJQ2N35cV/PFd/8FRP+ChF3EIG/a78ZRRhcbLa+WEY/wCAIK5PxP8Atu/tl+LYmh1/9qv4g3KNncp8VXKgj0+VxXiw4LxLac6n4ndV4ow89VTP6MPit8X/AICfCexbxN8ZPF/hvw9aAEiXxBq8ForYGePOdS/0VST2Br4g/au/4L2fsdfCvTbvQP2cfBB8f64wZba9+wmz0uBgD8/muRLOAecIiqcf6xeo/GHWde1zXdRfVNc1m7vbuU5kvLy5eWVj6lmJJNVfk4URJsH8BQMM+vOTmvbwfCeDozUqsr2PKxPEWJnBxpRtc9H/AGl/2rvjz+1z47HjT4xeKmufIkb+zNE08CLT9IjJ4WCFMKpPdm3MfWuGtvKiOANmSDsBJBPrzk/lVLfIWX5ztX+AAAE+pxUqyPjn73Y19NSo0qUeWMbJHz1WpXqy5pO5qPrHmL9mV8RquXA7+30q5Z+KLuyP263vJUdGMiGJ9pBxxjHQjsRyPWuYnfZAohbLSyAc/XmraXDl1trI4ZUzuIzhq35kJrQ/qE/4IV/t9aj+3n+xZbXPxA1kXfjjwDfjQfFcjyZe9CoHtrw8/wDLWMjJ7vbycAcD7Sr+e/8A4NUv2hW+Hn7cviP4AXV6V074j+EJHsrfsbuwd7mJvr5MtyPfI6Yr+g5mKsRxVJ3OaUXF6n8qmqtoc2leXHMG1G9e4i1JB9yKeSbzVjUHoEJZRkk7tvPUHzq28Kaja6zfRTRssB0ya4Vm6KU37j+GE/Ouj+J1kfDHiHTvh0uost/FqBvdYnjwzKEzIFZxwZHY9AOoFddY6Xb6h4XOo6wFitJLK4mupQ43CwUq8zg4wCWTyxnu/evzekprDwt1/wAz9QajVlOP8tn8rHyn8XyL/wCKNxOYyjNbW7TepkK4fH+z09/eqC5VBGDwKl13V28V+NtU8SBV8qadzBgcKpbgD8BTNg9TX3WCTWGjc+BxdSNXFTnHZsaenFHmyqpAUdKeEAOaU8jFdRzlU72YEinDk4qZkGDyelMCAHNAAEAOR2pJJQh3jGRyAemadyeAQPc1SuZnSbbPjbn7wOAPqeeKTajuG7sN81TPFbgklMlfqa1LG1CL5m5gzd6reC9F1nxNryaPomgXupahOyRw2FlZSSXDOyk4WOISM/bHTNfTXw0/4JV/tufEXS4dXuvhI/hmxmTet54qu1scr6iJ/wB4T7bcmuevjMJhr+0mlbzOjD4TE4q3s4N3ML/gmj8aX/Z8/b8+EPxeN48MFh46sE1AxHAFrNOsE6H/AGTDI4/L6H+uC7E32l0jKjYcHcPxH6EV/Kv44/4Jn/F/4O2Ka9ceNtFuNSt3WS0ttMR2JmXlRubHO4DtX9RPwn1fxh4m+FXhfxF4m0H7Fql/4dsrjVLO4B329y8CNLE3PVHLL/wGjBY7DY6MpUZXSdmZ5hgcTgpxVaNrrQ/l6+Ing5/h94uvp/DdqL7W9W1CS2067EZeGIeYVEihieXAYqWJxtrC/bX8a2/gHRpPgH4J1ACR0TTr+7gAzLa25VpGz286Zg3HB219of8ABR/9mTR/gJ49u9D8H2hSay8ZXf2dS2Db2q+dJA+f7qrOpH0r83fjxdXGv/Ei78TyRlLe9kZrVTkkxKCqgH0Do/4Yr4zJ6ca2YqjN/Dp+p9jnlarTyyOJpfba+6x55b20dlarbKCMIFPvg5pamuAI3JAznjmoa+9knGTj0Wx8XL42g6Um9fWlIyMHvTDAuOCaQhxZSMZpuE9TTTCQM4qKRmTnAxSbSAkkdR8vY1WuiXTZGdpxxgd/xpkt3k4AqKSYgF2BOBnC9azqNOKT7hG6nddj9RP+Dcm58NC2+IEkelWP9sf2xbv9rNqgnWJoQpUOBuCkl+M9q/Sb4tGSK2mmV2UsoBKOVOMeoIP51+Tv/BvNb+IdN+PPiy9FpOdHvLW3he7ER8pblDIyxE/3mTcw9ozX60fF6MNYsrnAYAZHvX5LxNSl/aM3Nux+m8PzhLCUuTR/qfKfxW0q48W/E3wf4JlzNLq3jDTbWJGO4nfcxqw5yehr9rre0ikDo93KpjkKkqwG49Sx46kk9OK/HH4c2J8Wft//AAg0LBYL44t7mRR/0zJlb8B5Q/Wv2MaEMxO9h24PWvr+CKcYZfUlFaOS/I+e45qSljqUZPVRf/pR+VX/AAUa+BPjv9pT9oi/LXFrFEttHBfNbAiKGNNwAJJO6R0CBiDj2Ffml+3P+zvo3gWFvDOkWKwy6HZ5jlVfmkQn5sn04J7dTX7v/td+HbXwDr3hXQNHRRDeW1892Sgy7J5IBJABOdxzn8MV+V//AAUg8Fx3t7r96kpRP7GnSScqCUXy2OR9K8KjLEYPPZqW7Z6VFUsdk6j0UXb5H5Q3ETmUxuOQWzj2qPyCRkHb7NV26t3gl2+YzMdxDCMjI3YzyagkDDhlB9z1r9LU7rXc+Cs0ve31K5ikAycU0cHNSSsVO0Go6fMhClyRio5IlcH6U8cnFJKSnAqW7gUp7NhklRUBjCAu2cDk4NXWJfqaY6qqFiRgDJ3dPxrOWrj6jWifoft//wAEXf2bh8LP+CV3gP4uajZCO+8ffGe+1eKRvvSWUVncafAD32g28zgesrHoQB9TfGSGZtNKMuECA5HXpXQfD/4Z2/wp/wCCYH7NPga0tBH/AGdofh+SdQMYlm0qaSUnHcyyOfxqP4raXJd6UIwowYRkj6V+dcXRhHGSfkfccLVJOhC/c+bP2SUivv8Agpz8MkbkRajqUo+osbjFfrq0rK5AA61+R/7I2my2n/BUz4dQMGG251Ruf+vC5r9bpPvn619LwfHlylPu/wBDyeNJc2ar0/U+ef274ANb8GX+0YZr+In/AHhCw/lX56ftx+BbXXbW5sGtHdL23eOURkBirKQQCRx171+hv/BQHdb+FvC19ECXt9TkJB64EBB/UCvj347eH18SaYLxFJR4SFYjoxFeJnKjTzxtd0z0shk5ZQl5NH4HazC8Wq3Mcsbr5cjLH5j5IG48cY9Kz5gM4r3zXP2UPC2i+Kx4T+LHx90rwPrV7dzm1j8QaVKbOeLedkouI2YKGzjDL1717F4L/wCCD/7THxN0KHxV4F+OHwx1DTLkBrbULXWLmWKRT05SA4P+zya+tea4GnFOcuXTqrHzssrxs5vkjfXofC86AHNRV+gt3/wbkftsjcLX4ofDO4IxxFq18CoPdg1oMfnWFq//AAb1ft7adL5Njqvw+vucbofE0yD/AMetsfmRWaz3J5O0a8X6Pb1IllWYR+Km0fC44OaRwH619k65/wAEHf8AgorooJj8EeF73jj7J4vt/m9hv21w3ij/AIJJf8FB/ChZL39ne8uigJP9l6raXOcegWTLH2HJrVZrlstqsfvMngMav+Xb+4+apECnC0R2f25GtP4pFKqB6nivQ/Ef7J37TnhS5eLxR8AfFtj5T4kM2iyHHqflBH61X+HPwk8bzfFTwx4e13wZqlj/AGh4msbOQ31g6KpluEQKcjvmt6eLwlWpHlqRfzMpYXFxhK9OW3Zn9UP7Q3hQ+Gv2QvB2jwoUPh4aDE+f4QkYhx/4/ivNvENq+rWBhLfdwny/3dvWvoz9qfSoLz4A+KLVUBFrpzXMMeMkmKRZVx9CmPpXzRaa5BHDDOpL+fChKHsSMGvjeMYQeKU1s4v8z6LhipNYRaaqX6HivwP8PjQ/+Cnvwz1I4IefUEOPV7K4Ffp+VDMSfWvza1rUbHwp+2b8JvGUUaqU8Z2lncmLp/pKmHn/AIFJX6VrDDucFzw3HNerwbJvLZRfRr8jn4uTeNhN9Yv8z54/a31C38TeNrbwgCkq6XatNMA2P3s+5gCTkDCKD7eYK+Pf2v8A4s/Cn9m34Oy+NPib4nFvaidrWwtQu24vbkoWVI1Pdl5x/wAswMkmvqH4u/8AJYfFP/Xe3/8ASa1r8m/+DiP/AJCPwt/676r/AOjVry3h4ZjndSFTa6/I9HB4ieX5LCpT3sz4T/a0+O+k/H34wS+MPDVlPaaQsPkafFJIUIjU52nZjIB5HvUPwT+MXxa+C2pf2/8ACT4oax4au3wGl0bUDCJPZ0+5IPUOCCODxXmOof8AHlb/APXV6u2X/IPf/rmf5V9bKFOEFQ5U4rurnysKlWtWlWc2m30dkfoV8Jf+C2X7anw7sUs/iSNC8WpAqhotd0Z4ZkH8JM9swUk/7h+h6V7B4Q/4OAvC008Vx8R/2cb+2YuoeTw94khkOc/eVJliYD6n8RX56eFf+Sda7/18238xWfpX/Ixxf7oriqcOZNiYuTopPy0PQhmWLwytCT+bufrAf+C8X7Emu2WNa0jxzpzJGS7XOhJdqDjoWjmfH61zt5/wWj/YN1B5W/4WDrtsrKQUfwlPjp7Lj9K/Jr4jdW/671xU/wDr1/3h/OvLnwdlLu4pr5nXQ4kzBJvTQ/U74p/8Faf2H7yMvofjDWZjgkrB4YuYy59PugZ/EfUVS/YF/aS+Ef7Y37fXw4+COjeAtb1O21DxB9pvrjVAsGwWqPc+bjMhIXygcEDIyMjqPy51n/j1b/cP8q+0f+Dav/lLt4M/68NW/wDTdc1pgeG8BhsSpRv95VfiXH4mhOErLQ/pR+ONjd3/AMF/Fdtp8QaU6DebVA5OInIA+p4r4t8H3zalFbTK4HHAPdeoz+Rr7t8Wf8ipq3/YPn/9FtXwL8Mf+PC3+if+gvWHGMYKnDlVrJ/mXwjKXsJ8zvqvyPOP2jdaTwd8RfA/iPIAsfGukXMhbvtvYmOfwFfqfNHdrIRbhcDj5uvHA/QCvyV/bl+9ov8A2GrD/wBKEr9dH/18n+//AEFa8EybwVX/ABL/ANJDjN3xND/C/wD0o//Z;" vertex="1" parent="1">
          <mxGeometry x="814.5" y="250" width="108" height="105" as="geometry" />
        </mxCell>
        <mxCell id="D9FhCrUlwlGwZ-h1Pyif-19" value="" style="edgeStyle=orthogonalEdgeStyle;rounded=0;orthogonalLoop=1;jettySize=auto;html=1;entryX=0;entryY=0.5;entryDx=0;entryDy=0;" edge="1" parent="1" source="D9FhCrUlwlGwZ-h1Pyif-4" target="D9FhCrUlwlGwZ-h1Pyif-16">
          <mxGeometry relative="1" as="geometry">
            <mxPoint x="866.5" y="612" as="targetPoint" />
            <Array as="points">
              <mxPoint x="867" y="630" />
              <mxPoint x="190" y="630" />
              <mxPoint x="190" y="844" />
            </Array>
          </mxGeometry>
        </mxCell>
        <mxCell id="D9FhCrUlwlGwZ-h1Pyif-4" value="" style="shape=image;verticalLabelPosition=bottom;labelBackgroundColor=#ffffff;verticalAlign=top;aspect=fixed;imageAspect=0;image=data:image/jpeg,/9j/4AAQSkZJRgABAQAAAQABAAD/2wBDAAIBAQEBAQIBAQECAgICAgQDAgICAgUEBAMEBgUGBgYFBgYGBwkIBgcJBwYGCAsICQoKCgoKBggLDAsKDAkKCgr/2wBDAQICAgICAgUDAwUKBwYHCgoKCgoKCgoKCgoKCgoKCgoKCgoKCgoKCgoKCgoKCgoKCgoKCgoKCgoKCgoKCgoKCgr/wAARCABsAHADASIAAhEBAxEB/8QAHwAAAQUBAQEBAQEAAAAAAAAAAAECAwQFBgcICQoL/8QAtRAAAgEDAwIEAwUFBAQAAAF9AQIDAAQRBRIhMUEGE1FhByJxFDKBkaEII0KxwRVS0fAkM2JyggkKFhcYGRolJicoKSo0NTY3ODk6Q0RFRkdISUpTVFVWV1hZWmNkZWZnaGlqc3R1dnd4eXqDhIWGh4iJipKTlJWWl5iZmqKjpKWmp6ipqrKztLW2t7i5usLDxMXGx8jJytLT1NXW19jZ2uHi4+Tl5ufo6erx8vP09fb3+Pn6/8QAHwEAAwEBAQEBAQEBAQAAAAAAAAECAwQFBgcICQoL/8QAtREAAgECBAQDBAcFBAQAAQJ3AAECAxEEBSExBhJBUQdhcRMiMoEIFEKRobHBCSMzUvAVYnLRChYkNOEl8RcYGRomJygpKjU2Nzg5OkNERUZHSElKU1RVVldYWVpjZGVmZ2hpanN0dXZ3eHl6goOEhYaHiImKkpOUlZaXmJmaoqOkpaanqKmqsrO0tba3uLm6wsPExcbHyMnK0tPU1dbX2Nna4uPk5ebn6Onq8vP09fb3+Pn6/9oADAMBAAIRAxEAPwD95KKKKhbm7dtSK+vLbTrG41K9nWOG2t2lmdjwqIQzH8lJ/CvivxjZxeKtSuPGt8hSS8vXu3C9t+G299oCkZJzyhXqwI+iv2uPGf8AwivwfudPgc+frVxHYRoh+YxuSZSP+2av+dfnR/wVG/b0s/2Mvg7Bp3g+6gu/HHimB4PC1qBkWyKx3alIuQfLRmGAeGOOuMV8Vn05YzHU8JHdXv227n1mQRWGoVMXPZ7d/uPD/wDgpt+2p8FPgxq+qfCW31ZtW8Wx27JKliq7NPmdR5fmA5w7KxO3OVB5PNfk7bXEuoX8k9wdsjzMTHJIWVCSTgBiQBk59Rk1d13Vda8U6zc+IfEmr3F/qGoXD3V7e3bbpZ5XYlpHY9SW3H2BA6AVGmmWTvuNuGlbkHzMEmvby7L6eBoctKzvvdX/AA6nnZnmNbH4lSk2rbWdmfQf7Pn7dX7ZHwHS3074T/HLXFsbRcnSLyZL21ij7lYpslR6hCM8Z6CvqrwZ/wAF8vjroNpFY/Er4P8AhfxCSo8y8s2uNMnlXs2GEqD/AMdH17fn/wCFvAt/qVr5qXNrE5X7gk+Zh6E9QPpitLXv+Er0uRJdQlabbCEDyESYQdFG4HAGaK+SZZinetSi33SsxUMfXoP3ZS+cr/gfqF4D/wCC/wD8AI9yeO/gv4u0tsL5r6VqdrdRHrxxLGT/AN8nr277Wvf8Fxv2ENRgE1xfeLLCSXPyXnhJiR0/iUvn8x+NfkgviSwsY0/tPTbkxYbzFjnZVJOMEgHH6Vx+vahay3TPDA5yxOX5OO1eNV4RyWc9ItHfT4hzCnLpY/XjWv8AgsZ+wRqVmEuPiRrD8NiKXwlcnHT/AGTj9K8M+KP/AAVS/ZN1J5U8Nap4m1AFstFa6HLFlOmD5jIMHI9enavzfnuxk7Y2H+6cfyrOluR5xkFvvKDdiX5wRkZBDZH/AOqsf9UMthK8ZM61xXmPw8qsf0df8G6eueFPjT8MviD+0hpHge406eXxBDoVve3UwL3EMMazldoHy7WlH8TZB7YyfpP9vgXum674O1GOIeTIt5AhxwG/cEZ+oDflX56f8Gmv7T/h5fD3xB/ZH1zxCsV+12mveHLCRsK8Sp5VwVXgbsCBjtAyEb0GP0a/4KKkW3w18O3K585fFSohY9Abec4/ILXs47D0MPks6cI9Fr80eXgsTVr5+q03v0+TPoOlA3ZA64+X65A/rSUyfzRGGjlRSHUDe2Mk/LjPvk499p6Ag/QLc8B2PlH/AIKPfGTwh8OL7TNa8ceIY9P0Twtol3rmszN1SP5UjIH8TExyIF6sZQB1zX85P7Wn7Rfi39q/476/8afFyyRf2lN9n03THn3jTbGMDyrQHp8vLFhgOW3YAIUfeX/Bxh+19N4y/aO1r9nrwnqYOnaRcWw8RMsrKrSQIBHattVioVxNIx2kAtHnBGT+at7bOZ/LjQIFZgqlMbVHb2Oc/KeQPYgDw8Lg1PG1cRU+R7OJxXJhKVCl8ynHIc/vySSclj1J/wAgVbjghjkV2B3c4JxxVeFGuLxLPby0i8EcgVo+J4fsdxH5a4CZHP4V6qtHRHnpSbuza8L6t/ZUwb5ctgBiO3euq1jX9G1rTpbBSZZ1iDHdj5QPTFeex3DeR5vGEAINaPw0nfVfEV4wAJWycEdv88U+ZFmb4lupbOPdgCKRQcH2rmY2bU71reEliR8uOprd+L13HpmnW9rGw3FAGz2rI+FkCXOsx3LkkqDgdj9a55Nc4GTeRSwSyQTKVZeoNUJBiTqeGz9fau8+JXhxYLz7dbrgSLnjpXBXzNbTbeDzzxRLRDW59C/8Epv2ibj9lv8A4KD/AAs+LbanJb2UPiq1sdZZTw9jcyC3mQ+2yU/kPSv6R/8AgpO8tp8O/BwlkZlbxmkcrN3/ANFuPm+uQR9AK/lE8NSRR61boLkwSGQSW1wDjZIoJU59mwfopr+n74zfEZP2gf8Agml8KPj7Zzmc3qaBqE75ziSWBreUHvw8jDr94fhXHma58sqpdr/dqdOXO2Z0vW33n2bXlX7cHxdk+Af7Jvjv4yWnjWPw9deH9BkubPUntfOLTBlEduqd3mkKQqf4TID2r1UBTwXx0HT1OM/mR+dfkl/wcpftl2wTw3+w54TuZDcFYvEvi9oLsDyQpYWds8eMvu+ebAIwRET6H2JX5dDzIR5pH5HftEfF3xz8SdM1LWvGt1b3up+IPEU+ua1fS2sb3VxeuJ/NZbgjcsbmSTMYIB8uMnIArg7fVo77TbS1bTLC3WwhMMTWdsqNMgllYNKw/wBY+WYbjzgKO1afjvWF0+SG++wWs4t7hZo7e4DeU5AxHHJgg4wu0gYJHfPNc5ocRu7ZoNNtw0bKxhEAZkVQD82QGOB99uOgbkcYwUeXY6Wm9X0Oh8GWOs+LNQh0LRvDsl3JpsV3fSTWduXmaFY/MkaXnHlxrGW3ADaN2c5GF8c28TxJLbPuDycnOQAewPf60vwxvL6ze+v7G5uLSb7KYX8qVklEboVlRivBSRGZCuTlWIIBwag8RzI+mpsJHzbj6E5/T/61AGNqdzJaWMkSIz4QkbFyRjHOO45roPgbtuNXu5YpEcG3dUkjfIbA5zxwRmuM1q5Msf7w5wwYYYjkHPY/pXpfwC1jSb/xbda/45sbq5tRpsguIdKlitZP9WyxlWZGQYkMZYFSWUNgg4IAPMfjdeq+oGMSE7AOM8da1vgdo1xq0eoXtvd2UQ03SnvZheXyQtKiuiskIc/vZjvBWIcsFY5G3nlPihDe3mtyWMZR5QzM6ltrKFTc4Oe/ysQe4ZfQ56H4SMn9myMjEuYlwOhUKRkjPQhgfmHODwRk5w3qAd5PYQa1Z/Zrj5tqnYwZTvHZlIJ4PT6qwryrxxpZsbiSPy9pVj2r1DTLy4S5MkbfL5uSrMxXJOSVyeAeOB71zvxi0Xen9owooEnB5wB05qpp8o1uedJc+fZj90WdclAvBztOB+PT8a/eT/gi/wDtJ2Px+/4Iq+MfgrquqxTa18IvE8NvMhk3O1hLewX1tNz/AAnNxHkcZiIr8FTYXFleTrFi4S2VN9xb/MIy+cd+oK989K+1/wDgi5+09qPwv/aU1P4E3kZbTPir4Lbw4IbaI4F5Bcpe2sr4OMjZPGSc/LMQMHmuXFzprA1VL+WX5M2wcZvH0nH+aP5o/p68d+OfDXwx8Fax8RvGWprZaRoOlXGo6rdOPljtoYzJIxPsikj1IFfy+/HT4663+15+034w+Ovjnwhq+u6h421W9uNM0bTpwlxbgK0WnwodkjMsKrEGiUZkVGAZCVI/ZX/g4P8A2ofAfw+/ZaT9lfV/iW/h/WviWjvtt7cyvNp9oUeaNtpGwSylIuc7lWUehH4S+FdS16w1mLxF4Uu76xvtIh+0w3enM8U9ouzaZRIh3IdrFeD0x3Ga9GpUVrLc46Kd7nDeIdentNZTxGkkcxs2SaIXEJKyBSAwZcYUkCQjPOApPWqNrbeOvh9qVvcXUepaTeahpcc9m6hY3ubS5TgqEb/VyRs65wM4al1fVdPs4tSGpaWL2Wa2A027OptGLeffv89kAPm5VXX5s/fHtijbPp9jqsmn393PqaW1qsFjdWV3/q5NitFh5FJEalgpUHA+fG3PGScrnQ9jtfDOlRaB4Fg12PXdNkXWIJHS3tLt5ZbdkYoDNHtGwybdygZ3Dqfl5o+JovD0fw80/UbabU21efVLhLmCS0X7Ktpti8ho5g2XkLefvBVdgWPruNXPD9hrus6THpfhvRLq6upNOd5rfT4nmkSCNPOdwEDOI441OXH3VTk5Oa5zX4o08HIhths+eIttK7hvYlOB82AVO7cWOecd7IOcupGufLWKCaZnPyxRxHc55+VQfXGAehJ9q9K+D1nFDo+oyXLkjydjjy8beGBU5zz3+hFeb3fiHW729srq41k+dZwxQWk7gL5KqT5Y+Rct8xCjgnLAngEH1L4f2k0Hw91G/kiaNpr3y2SZikiy9XVldQysqggggYIA7GjcDw74oGW8125Xy5mieQCR40J25wMk5z0XA7YzXffCzV2/4RZ9GTSrCRl1NLz+0ijfaWAj2eQSG2+UcZI25z/F2rzTx7dyTa1KiyyqhceZtBxxt5IB+f7zAKME4PPFei/DiDQ4PB322HXCNR+3yRzaeLU7I4AF8uTzc4Zmy+U6ptGc7qxjrU0A6S1uJtqxF+IxtX2GSf6/oKseJdPOreGJRuyIVJYYGTn6/SqkRRHARCwaRRtzguCe3YenPr7VuLo3iLSNK0rUtY0ow2mvWEk+mTvIh+0xJK8LOFViU/eRuu1uflz0YY0mm4sD571W3ewuPMVXELOQcZVJMfQ84/rX1n/wRS8C3PxE/wCCiHg+CCMtHo9jfajIccRhYCgOf96QEe4FfM3xKtZba7fTLq6ZIIptyDbnbkgELj8Dzn7uOpFfpJ/wbOfCHUL3xP46/aJ1XRylsltb6HpcjjO6UqZrjafbMKn0ywPI48PN60aOW1JS6pper0PTyilKpj6bWyd/u1OP/wCCtv7XGh/tl/tt+K/iv4d8UT3el6HeTeHfClqsLNBHploAI7xJM7Wa5uGuHKgDaJEznNeM6prDfC/xFqunfCjx2da0vUdJkivbm3tP9dH8zynDZI2xRmTrwpxzXOad4Z8N+H/Glr4L8Y+Jpf7Ii1WOw1DVPDcIvCLUY3SW0TNGJ2UbkVAwZyhOTxUngmw8fte67qHw88QPZ3Ol6BqF9fX1vra6ex00RmO42yb1LO8Lsot1yW3EZ6V7UtZHmQg4pHGCx8GXGieJNZ8T+I7vTdStYUbw7axWJeO/kMyLLE0nARUUo+MZOevFYWiaXqEOqxzv4eu50sPLuLmG5tpFiWLIYNJyMRlmzuyMhlx0Na0Oq6Truhz+DfEF3qRuJr6AeHppNR26fYySzKLy4miCsz70VRmIZDIA5JAz0fhPx38cPiNrEelv4xW6HjWytfD1xEzQKLq2tSsUMM2VQwxjeDvZUOMctjhO9tC3sWdU8OeJ5/DkvxJ0/wAPyWehx6r9gubmxTbb21xcJKBakNIH2NGZEJyQVbnsawNZi0lPDhudYtri68+OSKL7NcxxMtx5bLEXkZGBjVwuVGMrkKVPNanxCj1XSI77wffgR3NpqElvPB56PGJocozplyjr8m0SDOcjp3xNYs9b8UeHrLSPD+kT6hf3kkcFlp1rAZJZ32giNUUEHJyMgcAn2pJyi7sg5HTft9tJaa5aTtExlzaMh/erMnlupwOVwZEUHox3ccCvYdS8TeK9f8G6l458W6hc3eoeItQn1OfVLyEqdReSVmknGVUcy+cpxxwenFeUzeCPFfhfRtF8XarpbW2na49y+lXjyLumW1m8uU7c71IfYeQv3hjODj1Xx5ovi/wx8HNHt/Fttf26tpu/RrbUJnKR2zuzgR7idqlmdj7t9MbQaY+Vnz94oQ6tN/aFtpun2/8AZMZV2E7rLcmSdnDbSx3su9hkYwAvXv23w6IisRZrIVcgjY7BSxyeSuc7sDqqnPfGBXm3iCGSbUSXikZJCCrmMhdpYEHOMj7h5Bw34V6n8O/E09l4NvPDkUFo9veX1reS3MloouF8rzVRUmI82GNmnJfY2HCKD0BGFO3OwszqtE8O6j4ktNRu9LntDFpWmtf3X2/UYLZfs6SRxkr5ki+c+6UDykG5t38OOa1pvtLtYvnD5HyuI1YuDtZMbgu/gHAO0exJJvatoU2gaTpV5J4j0e9OraCl+kOlXxk+xuZZUSC5Xaqxzq8e8oQxCSISckGmnQtZit4rmXTLiO11Jmawne2YR3sIdkJRioMoEodGyT8wPqANyW7K5zvi3wL4h8XfEDQ/C3hSwaXVte1S0stOgaInzpZpo1iXBAJyxjl4GNu3DNzX7/8A7F/7OXhD9kn4D+H/AIL+DrePZomnMLu7TBN3eOxNxcEgDJeXc344HFflx/wTJ+HWt/H79tjwr4g8WazcX7eAdCGoK9/cvLJD9nhWxs0XzCdqxO6MFA48uv2M8LXFg/gt7yyMeGJCKp4GPlKj23Kzf8CFfD8TzlOUcOumrPr+HMPy4b2slq9j8BZLTxZ8KNbvfDuteG5NDvJ9Lm0e40/VdLSUQwSRmOVlEyv5DLj5XUM6nJWTk1h3Pg8v4Y1fW5vFGkWq2tkJ7S3maVTfs06RhbcpGy5QyCQhwvyqQM87f0v/AOCgnwG1D43aJot/4Hj0+S00vxZY2+sGKVf7Rtre/MzwIQV3RwMlrIwLyDBlXGckV5va/wDBCP8Aa6+L2oXE/wAArKPT9AvrOWfSm8WXG20mCkYQyIpYu3zooMb4+c5AOR9JhcxjXqSptO/oeVjsneXU1UjJOL31177H5yeKfEviXXNK0zwd43l1H7NpumNbeFLW8xDDapPcGaQu0ibjEZDcPkFmJ28qAAbnwy8J65Dqdtqa6QZ01FpYdPeGMSx3syzLCFjUZLkuAApQZJX0NdF+0/8Asi/tK/sdeOm+GX7Tnwg1Pwzdz26WttdarALmJoVdW82zmRjFLyo+VJMkSEEZ4Wp8K/DOr6RoV58UNE8RQWzaNqFsLV/tbQX43tI6SxxKN6iNomZ2A/ds8WWO8V6fI7HizqxjCMuj/rUva9rbeD7bxBouqeCdMupb2AWk39pad+/0p4LhJn8nO0QSF4tkilTlSQMHBHI3mo6t4Sl0qaw8TXek3On30ctvqlmZBLbFJCPPj8sg8bgOCBzkg4ro9X13xdca8nxJ8Q+Em1q1udfIu7nW0kls7+8AEjwySxyBnlIcO0YbcNxJIBAEk+sfCzwp4TsrX4tfDHUdQt7y+tZ11W21J7WS3sFlDOYHZNrI6o6CQqw++cfLzhVlyR1THBxls0efatomgaf4kvbbw740i1ywi1q4sNPvZI5Fe5tlb93cEOchZGYkL94ndzxXrnx41nUr/wCFeiJrPjO11aSXw7F9lQXTP9igLlDbyblAjZSjkgZxlPx8W0S50mWOBLfSJYrgNF5cr3QkCoIyroA2DlpT5uc5Taw5r1747QeErT4RWmmW6audftLgtc3M0qGw+y7IWiKqV3rNvWbezEoyyxYXKkm4tctmVzqzfY8P+IniL4o62+mab42RreK08O2c1nFcQxwu9gFLwMNo/eNiY4bjODxXpMuoeM/FvhXQPEPibRre3tZoBpmk3sFukZuRbNH5uURmYuFnXJO0cggcceQappOsx6pY6X4qvZ7COVY7m2g1VZNz28oJidMliIyqqVGduOijnPo/wu0OTxGqeH7PVdNtjJFczvc3+qLY27bInc/vHKKJG2BVAOXYqoGTmuekqcJOTdkE2ox1O5074fy+I/Hmq+Dfh94r03XLbShqF3Ya88v2OHUbG1SSVrhFmJId4Yyyx8vIU27s7a0vDfjLxhos+j63Z+few6Be+XpltfPNcW0DNI8/2cK2EhDvvkKlwSGOM4+XFXwvcP4Fg+I663pTQyakLcadJfJ9tibyUlM3kkMyRBmUeZwu9Cg3DdXV+E9CurrTdL+HEPxO06DTfES2+py2A1Nza2lwPPSP7UjcCaJWkwGyQJAe9dSqUpfDJP7/APIm143a0Ps7/gibpset/GT4q/HPxNJbov8AZcOnq1mm2Dz3eW4uAmediAIMZOPU19hfsj/FnTPGH7IFp8V4rmSbT7vUNd+yyv8AfZYNTu4V56YxGOcfdA+tfF/7IXxA8D/sc/sHfGP40/Ezx1plrca5rd5YeF9Mkmx9sMcRsw0TDJKtMHIAHTuOtep/s4eBdZ+B3/BL74Y/s92uoXS+JvGWs2V3qryMYJLIamEEmnhH3Y2GaSRmzknnA6V8Rm69rWqVG/JH6Rlcp0sLSpRjddbeh+nvhn/gn98MPCfxovvid4d1aeG11h1Or+H7qzWW3vIo8+VBIrDa8ceRsyCybRtYZfd71FaWcFqtnFaxrEibBDsXbtHbaBtx7YxUrMXG1icem4/40h5G0cAdAO1feUqNOhdxifmVfFVsQl7STsjyb9t39m7wD+1R+zH4t+Efj/wdY63Dd6PcPp8WowCUw3SpvjkRmyyOGTAZSDgkZ6Y/A3Wf+Cdiarf3w8AXTQJ9pEgtLmEXCMU+UKWYF8ZU5BY549K/pKeJWtpNxJCgHaeh5HX/AD3r8qLnw7pXh/8AaB8VeHtOgItrbX7qGFS33VE8gHTA7V8xxViMXglGtR2PqOEsNhMdUq0ayulsfmZ4o/4JwftJaPGTpwTUUSU3JAvGXa5zubY5K72UhdwAYBAM15f8ePhX8fNPgtLbxNoOoSTaTDbQaNBf/vgkMTlzEqn5AgbadoAzk5zk1+4F5oemS2m2W1RsLgEqM/yrxH9pH4d+Etd0uR9R0tXZRw44PFfM0eLcfSt7SKsfUVOFcqrt8vu+aPxq8Had8QtF8bQ+IpPDckFzbWTQbr7SUaIp5JiYfMrJuKn723ORkHJOfQPiD8PfiFN4d/4SKP4Z3HiPSms3jtb8addSQxSG3RMiSNcSPHkMAx2KQvykEivpDxv4O0LS9VNnZQSLGZwNnmnHPHT6Gv2N/wCCHNjBY/sIafDbghJPEF8WQng4ZV/kor6zJ83nmk3CS2Pms/yCGSUY1oT5k+h/Kzqegapc3llBdSavJqgmitmS/wDljRQNkSbmckfwgLwAFOB1r0MweHrvSbSbwtHqNtbSRQpbQahLFNMcxDe5IZFUPIHZFPIQqCSy7q/p/wD+CuXwr8BeLf2Ldc1nWvDVnJdaLqVleafcC0j3xyecIz823OCrsDj+lfnP+zX8FvhH4206G98XfDTRNSd4RuF9pscy5IwW2uCM8Z6cdsVOb5w8lrQ5k7S7Wv8Aic2T5JDOqU5qVnE/MrXdM8CWc/k+BLq+msp9RMWmx6ikf2ry+SGkCOFwcAdQDkuQdprQ1zwX4StfFuqWPhbUmvtNiuXGnXGpWBtZblXyih0LthycEkt0zyPLOf2dsP2HP2Ob+AC8/Zm8GyqV3BJNFQopOc4U8DjI6dCav6R+wX+xdaws0f7MXg5t7ZcSaSrBud2MHjG7k+pzngkHmp8Z05L4JP1cbfgjrnwpWpysqh+SPwb+E3wj+Ivxw0Wz+JnjS8t/AngaObVZIvEqR2Z1CWJ1kawUGZ1AaeWQhkDF41U7QWBr7q079pj4G6v4uj+P/wAXPi1D4X8L2Gnte+DbO509521i8dQPtQht1eVIoYQcARBnZss6AAH33xT+yl+zJoujtbaR+z74MtUVSqCDwzarsHJyuI/kbcxO9cN0GcACvkX9pz4MfDzTbPUHsNDWECJyyRNtV+QoBA6jDfjtGc85+fx+bYfFYqPuWTZ9XlWW1MBgpRjUbZ//2Q==;" vertex="1" parent="1">
          <mxGeometry x="810.5" y="400" width="112" height="108" as="geometry" />
        </mxCell>
        <mxCell id="D9FhCrUlwlGwZ-h1Pyif-11" value="" style="shape=flexArrow;endArrow=classic;html=1;width=4;endSize=5.09;" edge="1" parent="1" target="D9FhCrUlwlGwZ-h1Pyif-4">
          <mxGeometry width="50" height="50" relative="1" as="geometry">
            <mxPoint x="740" y="470" as="sourcePoint" />
            <mxPoint x="660" y="530" as="targetPoint" />
          </mxGeometry>
        </mxCell>
        <mxCell id="D9FhCrUlwlGwZ-h1Pyif-12" value="" style="shape=flexArrow;endArrow=classic;html=1;width=4;endSize=5.09;" edge="1" parent="1">
          <mxGeometry width="50" height="50" relative="1" as="geometry">
            <mxPoint x="740" y="310" as="sourcePoint" />
            <mxPoint x="810" y="310" as="targetPoint" />
          </mxGeometry>
        </mxCell>
        <mxCell id="D9FhCrUlwlGwZ-h1Pyif-13" value="" style="shape=flexArrow;endArrow=classic;html=1;width=4;endSize=5.09;" edge="1" parent="1">
          <mxGeometry width="50" height="50" relative="1" as="geometry">
            <mxPoint x="373.5" y="410" as="sourcePoint" />
            <mxPoint x="443.5" y="410" as="targetPoint" />
          </mxGeometry>
        </mxCell>
        <mxCell id="D9FhCrUlwlGwZ-h1Pyif-14" value="" style="shape=image;verticalLabelPosition=bottom;labelBackgroundColor=#ffffff;verticalAlign=top;aspect=fixed;imageAspect=0;image=data:image/png,iVBORw0KGgoAAAANSUhEUgAAAgAAAAIACAYAAAD0eNT6AAAABHNCSVQICAgIfAhkiAAAAAlwSFlzAAALEwAACxMBAJqcGAAAIABJREFUeJzt3VmQXOd5n/H/952e6dlXkNgGy2AjSEEAN0k0STQl0rKkC5clVsl3dq7i5CZRpSLJVnIhslIRRYmyo4qdKqssq+RyXBUzlrWUE9rawgZJ0RYpbpItiZSIbWZ6BrNi0Ps558tFdw8BiiCAwUyf7v6eX1UXCj3gzIspYt7nnD7dLQEAAAAAAAAAAAAAAAAAAAAAAAAAAAAAAAAAAAAAAAAAAAAAAAAAAAAAAAAAAAAAAAAAAAAAAAAAAAAAAAAAAAAAAAAAAAAAAAAAAAAAAAAAAAAAAAAAAAAAAAAAAAAAAAAAAAAAAAAAAAAAAAAAAAAAAAAAAAAAAAAAAAAAAAAAAAAAAAAAAAAAAAAAAAAAAAAAAAAAAAAAAAAAAAAAAAAAAAAAAAAAAAAAAAAAAAAAAAAAAAAAAAAAAAAAAAAAAAAAAAAAAAAAAAAAAAAAAAAAAAAAgE72+L23Hf35Bz+YTnoOAM1lkh4AQDI+f9vBjBQ+NBB09X5gYtcuY/SZarHry4eeeKKc9GwANh8BAHimsfiN7PskqT8Inv3Q7l13SVIca4oQAPxAAACeePPib7g4ABoIAaDzEQBAh7vc4m94qwBoIASAzkUAAB3qSou/4e0CoIEQADoPAQB0mKtd/A1XEwANhADQOQgAoEM8evvkcev08NUu/oZrCYCGONaUNe4RNxR9efKrT5aubVIArYAAANrcehd/w3oCoIEQANoXAQC0qetd/A3XEwANhADQfggAoM1s1OJv2IgAaCAEgPZBAABtYqMXf8NGBkADIQC0PgIAaHGbtfgbNiMAGggBoHURAECL2uzF37CZAdBACACthwAAWkyzFn9DMwKggRAAWgcBALSIR2+fPB7E9iEZ3d/Mr9vMAGggBIDkEQBAwpJa/A1JBEADIQAkhwAAEpL04m9IMgAaCAGg+QgAoMlaZfE3tEIANBACQPMQAECTtNrib2ilAGggBIDNRwAAm6xVF39DKwZAAyEAbB4CANgkj92x715F5uFWXfwNrRwADbHiaSvziBuM/owQADYGAQBssHZZ/A3tEAANhACwcQgAYIO02+JvaKcAaCAEgOtHAADXqV0Xf0M7BkADIQCsHwEArFO7L/6Gdg6ABkIAuHYEAHCNOmXxN3RCADQQAsDVIwCAq9Rpi7+hkwKggRAArowAAK7g80eP9hub/2anLf6GTgyAhljxtDXB7+79m+98N+lZgFZjkx4AaHUuvTLYqcu/01nZHc7pXUnPAbQiAgAAAA8RAAAAeIgAAADAQwQAAAAeIgAAAPAQAQAAgIcIAAAAPEQAAADgIQIAAAAPEQAAAHiIAAAAwEMEAAAAHiIAAADwEAEAAICHCAAAADxEAAAA4CECAAAADxEAAAB4iAAAAMBDBAAAAB4iAAAA8BABAACAhwgAAAA8RAAAAOAhAgAAAA8RAAAAeIgAAADAQwQAAAAeIgAAAPAQAQAAgIcIAAAAPEQAAADgIQIAAAAPEQAAAHgolfQASN7/PH7s3feOj0W7l+KXzJNPhknPA6A5PvvOAxP7R/pvuXPfSHbyq0+Wkp4HzUUAeOzztx3MSOFD8/n8uLthy9FT43b15IPve9rJZo1stlIInjv0xBPlpOcEsDEevXXfQSubkYkyks0Yub2DQeqEW7X7Tz54/yNuMPozQsAfBICHGovfKH6fZOWcXql/aFCyHzTSB6VY3T1x6eRH3vesk80aa7LpXvPs9r/8dj7R4QFcFSeZP7x98oiTzSh2mdiZ49Zou+T05kd/rewOSf/drdpPEQL+IAA88ujtk8et08ONxX9FVj2Sfa+R3ivnVCy48OSD9z/nnMkaKevi8OnJbzy5vOmDA7iiv/6oglOvTt4u2YxzLvN5a+61TmOSJGNkzZU/ByHgFwLAA2uL39n3Xc/nsVJKMncZo7skfdIFKXfywftfclLWyGRDZ08c+Ntvz23Q2ADexhcPHEiXhqJ3B85mJJc5/Zr7NWPsoCQZcxXb/m2shcBK6g9OfuT+R9xQ9GVCoPMQAB1soxb/5VjJSOZWI90q6d+nTKyTH77/p87UgqAaB9mD3/iHM5vxtQHffP7o0X5jV++WbEbOZapy7w6c7al91NRvG8ta7ZTMH7uV1KcIgc5DAHSgzV78b8uaw0Y6LOn3uoJIJx984KSTyxopG8hmJ772nddM7UFIAG/jj47tGQlt13EpzkgmY+LV22Vs7Wf2dR7hXytCoDMRAB3k0dsnjwexfUhO9yc9y0X2Gpm9kn43ktOpDz+Qe924rGSeDGSzu47e/c/m4YfjZEcEkvffjkxujVJBxinOyJlMZHXEyNm1I3ub/Mu2EAKdhQDoAJcs/uYeGFw7q21G5rcl/XasWK+/lF08+eD9J5xM1hqT3T1ffZHXIoAPPnvHvt1BbO5zchnJZELpUO3kmNmMs/kbihDoDARAG3vsjn33KjIPt8Xivwxr7Zik3zLSbznndHI0deHkh+9/2hllrbPZcin1Q16LAJ3g0XfuvcnYIGOMyxhnMoq1W5JMu/7jFSHQ7giANrS2+OP2XfyXY6wGJPMBI33AGafuvnL55IP3P+ukrJXJdvfZH/BaBGh1TjJ/eOveo84EGcllYpnjVtpa+2jrH+Ffq4tD4PWPPPCZarHry4R76yMA2kgnL/7Ls2lJ9xnpPiepWIjDkx954HknlzXOZE21/PSev3tqKekp4bdP33dfamB1+g5FUUbGZL5gdI+k0dpHjTdvulILAf1Jqqf6nwiB1kcAtIHHbt1/t6T/4tfif2tWSsnoPUbmPTL6RJROu5MPPvByLQiUjUKd2P+t780mPSc626fv29MztNL1Hqc4I2MyOn/m1yTTf1WvtuOBN4dAPjX2Z0cef7yS9Fy4FAHQBmKj/2GlY0nP0Yrql0gfMzLHZPTvgi7p5Ece+JkzLmuMspG12f2Pf+d00nOivf3xLbcMFLoqdxsTZ4xMJj4fv9sZl37jXD6L/600QmAoXM5K+nHS8+BSBAA6j9FNRuYmOf3rIHI6+eEHTjkpa4zLRs5k9339u6/yWgR4O4+8c/doV6rruOpX6Jfi4m3W2lRj0VtvTuqjkxEA6HxWe4z0O5L5ncBIpx58YPZ1KWvkspFRdt+R4z/mtQj89rl37dlmolRGscs4mYyMjujiq/Va4Dn4wEYjAOCjrUb6qGQ+Gjjp1CtPLb/+kQdOGMXZyJns0o0rL9z5peerSQ+JzfNHx/bsjU0q40ztCF+hDkqSTDs/KQ+4NgQAII0Yo9+U7G8GRho7N5R//cEHnjFSNlac/d5S7tTyMtcvtbPH7thzWC6ViZ0yNtbxyNaeg89j9/AZAQC8iTW2X9L7Jb3fyuqegRuqf7c8lfRYWKefLC/9Z8WpR6T6m2BzNh+QxD8F4IqMtV1Jz4D1c04DSc8AtCICAAAADxEAAAB4iAAAAMBDBAAAAB4iAAAA8BABAACAhwgAAAA8RAAAAOAhAgAAAA8RAIDHypFW5qvVlVyhfJr3Rwb8wnsBAF6JK/mqmVoolxeWy9VBGXtI0gdeXX5NcmZ2vLf79E2DfQO3jI7u3DXYO8Rb5QCdiwAAOlhgjIwCFaJI86Wq5kvlbkmTkiZl3nQC0LitC6Xy1mdKZT1zbkld1mpLT7f2Dvbp8PCg9g4O8N55QAchAIAOYo2VkVExijVfqmi+tP63Ma7GsWYKJc0USvrB7KJSxmhLb7f29Pfp5pEhTQ72yxiSAGhXBADQxgJjJRkVwljnShUtlte/8K8kdE65Qlm5Qln/eG5JKWs0nu7W7v5e3Tw6rP0EAdBWCACgjdQWvlU+jHSuVNHSJi78Kwljp9liWbPFsn44v6yUkcZ60to10KvDQ0M6ODwgSxAALYsAAFpYYK3kjC6EseaKZa1UqkmPdFmhk+aKZc0Vy3r+3LICYzSW7tKugdo1BAeHBmp/HwAtgQAAWoSTlDJWTkb5aqS5UqWlF/6VRM7pXKmic6WKfjS/LNsIgr5eHR4d1KHhwfoZDQBJIACAhDhJXcYoklW+Gmm2WNZqNUx6rE0TO7d2YeILiyuyxmi0O6WJ/l7dNDKkm0aG1MVDBkDTEABAkzhJKRvIxUarYajZYkUXqu17hH+9Yue0UK5qoVzVS4vnZY000t2tif5eHRwe0DtGhpWyBAGwWQgAYJPUTukHip10oRopVywrH3buEf71ip20WK49k+HlxRX9rZnScFeXdvb36qbhQd08MqTugIcMgI1CAAAbKLBWsTNardRO6bPw1y920lKlqqVKVT9eOi+jKQ2nU9rZ16tDQwO6eXRYPUGQ9JhA2yIAgOsQWKs4NjpfDZUrllUMo6RH6lhO0nI51HJ5VT9ZWtXXT+U01B1oZ1+vDgwP6JaRIfWl+JEGXC3+tQBXzShlrCInrVQi5UollVj4iXFyWqmEWqms6p+XV/Wt0zkNpgLt6O/RgaEBHRkdUV+KMwTA5RAAwBUE1mjPwJBeXbmgV/N5jvJblHNO56uhzi9f0M+W8/ru9Jwm+nt0Y7o76dGAlkQAAFfQZazedcOY3nXDmJyk85VQs8WSZotFzRTKmi2WNF+uyDneUDcJXcYoHVj1pqx6AqvewCqdMjL1ty5aDf19pgXwdggA4BoYScPdKQ13D+jQ8MDa/dXYaa5YUq5Y0myxrFyhpFyxqFIUJzdshzEySgdmbdH3BFY9KctrBwDrRAAAG6DLGu3s79XO/t61+5yk1WpVM4WScoWyZotF5YolLZQq4lzB20uZSxd9b8oqHVjejhjYQAQAsEmMpKGuLg0Nd+mm4cG1+6txrLlS4yxBSbPFkmYKZZUj/64tMKZ2VN9jjXpTQW3pW8sLAAFNQAAATdZlrXb29Wpn36VnC1YqVeUKtSDIFUvKFctaLJU75mxBypq1x+g5qgeSRwAALcBIGunu0kh3lw6PvHG2oBL96tmCXLG1zxYYI6Xtpafve4LaUT3LHmgdBADQwroDq4n+Xk286dqC5XJFs6WSZvLltTMGi+VK0+cLrFk7ou9JvXF0z6IHWh8BALQZI2k03a3RdLcOD79xfzmKNVeqnSFoPJQwWyypvAHPRLjkqL6+6HsDo8Cy7IF2RQAAHSIdWO3q79Ou/r61+5xzWq5Ua1FQLNYfSihr6W3OFgRG6g2CS47oewIrnm0HdBYCAOhgxpi1swU3X3RtQTmqvVnRbLGk185fyC1XStvSQaBeHqsHvEEAAB5KB4F2D/Rp90CfDg8NnPz76eltSc8EoLl4c20AADxEAAAA4CECAAAADxEAAAB4iAAAAMBDBAAAAB4iAAAA8BABAACAhwgAAAA8RAAAAOAhAgAAAA8RAAAAeIgAAADAQwQAAAAeIgAAAPAQAQAAgIcIAAAAPEQAAADgIQIAAAAPpZIeAEDzOTkVw0iFMFS+Whnf1terQhiqEIYKY5f0eACagAAAOpBzTsUoUiGMlA+ryldryz0f1X4tVkPF9T+7Jd27/b07tq79t5UoUj4MdaEeBPkwUqFaVT4MVQwjhS5+6y8KoK0QAEAbcs6pFEe6UA1VCCMVwuoli7oQhXLrPJDvDgJ1B4FG0+m3/Hg5impfK6zWIqEa1r5m/b5ovV8YQFMRAECLKoaR8lFVhWrtKP7io/FCFClOaNGmg0DpINBYuvstP94IhHxYVaFa1YX6Qw2FqBYLBALQGggAICHFKFK+Wq0/9t5Y8m/8mtSCv15XCoRS1Lj2oHHmIFQ+qipfjVQMCQSgWQgAYJOUotoRe23J15fe2uPqYdsu+OvVEwTqCQKNXeYhhsb3rVC99Pvl+/cN2GgEALBOHMlujp4gpZ4gpfHLBEIxasRBtaPOnADNRgAAVxA5p9dWVngsu0X0BoF6g0DjukwghG9cM1EII03l81qqVJo8JdD6CADgCqpxrFeWlpMeA1epNxWoNxWs/b7qHAEAvAVeCRAAAA8RAAAAeIgAAADAQwQAAAAeIgAAAPAQAQAAgIcIAAAAPEQAAADgIQIAAAAPEQAAAHiIAAAAwEMEAAAAHiIAAADwEAEAAICHCAAAADxEAAAA4CECAAAADxEAAAB4iAAAAMBDBAAAAB4iAAAA8BABAACAhwgAAAA8RAAAAOAhAgAAAA8RAAAAeIgAAADAQwQAAAAeIgAAAPAQAQAAgIcIAAAAPEQAAADgIQIAAAAPEQAAAHiIAAAAwEMEAAAAHiIAAADwEAEAAICHCAAAADxEAAAA4CECAAAADxEAAAB4iAAAAMBDBAAAAB4iAAAA8BABAACAhwgAAAA8RAAAAOAhAgAAAA8RAAAAeIgAAADAQwQAAAAeIgAAAPAQAQAAgIcIAAAAPEQAAADgIQIAAAAPEQAAAHiIAAAAwEMEAAAAHiIAAADwEAEAAICHCAAAADxEAAAA4CECAAAADxEAAAB4iAAAAMBDBAAAAB4iAAAA8BABAACAhwgAAAA8RAAAAOAhAgAAAA8RAAAAeIgAAADAQwQAAAAeIgAAAPBQKukBgFaXMlYHh4aUj0Llq6HyYagwjpMeC5cRSyqGofLVqvJhpIVSMemRgJZEAABXkLJGx8bHLrmvEsfKh6EKYVX5aqR8tapCFCkfVlWoRgodgbBZnHMqRpEKYVRf8mE9zqoqhJGKYSQnl/SYQMsjAIB16LZW3d3dGu3ufsuPl6NI+bARBLUj0XxUi4N8GCp2LKi3U4rC2vesvtTzYe17WKiHFt8/4PoRAMAmSAeB0kGgsfRbB0KxHgT5alQ/ixCuPcTgwxFsOY7fCKNqVfnojWVfCKuKWPDApiMAgAT0pgL1pgJtSf/qx2JJpbBxvUH1jTMJ9V+LYdT0ea9VWH+IpBE2hcbfpVoLnzBmwQNJIwCAFmMl9aVS6kuldIN6fuXjsXMqhGHt7EFU1YWLHgsvhKHK0eYHQuji+sMZ9VPz4UVnM8JQFS6SBFoeAQC0GWuMBrq6NNDVJb1FIIRxPRAuPntQbVyDcHXLOXauFhRvioxC/XM2IzIAbC4CAOgwKWs01N2loe6ut/x4tfEMhvrp+TCKln+ytDxwcSiUoliOx+GBjkYAAJ7pslYj3d0aqT+DYbVcOfv309MTCY8FoMl4JUAAADxEAAAA4CECAAAADxEAAAB4iAAAAMBDBAAAAB4iAAAA8BABAACAhwgAAAA8RAAAAOAhAgAAAA8RAAAAeIgAAADAQwQAAAAeIgAAAPAQAQAAgIcIAAAAPEQAAADgIQIAAAAPpZIeAEDz2f5BBWPjSo2OqWfkhoO/NnNG87MzWszltDw/pyiKkh4RwCYjAIAOZoJAdmRUqdEtSo2Ny46OKTU6JtOdvviPjb9z756138RxrKVzc1qcndFCbkaLsznN52ZUKuSbPj+AzUMAAB3C9vUpGB1XanRcdnRcqbFxBUPDkjHX9nms1fjWbRrfuk0Hj962dn/hwqoWZ3NamJ3RQi6nhdlprczPK47jjf6rAGgCAgBoM8ZaBcOjsmNjSo2OKxjbotTImExPz6Z+3b6BQfUNDGpi/8G1+8Iw1PK5uVoUzOa0mJvWwmxO5WJxU2cBcP0IAKCF2XSPgrHx2pH92Jjs6BYFIyMypjWu302lUtqyfYe2bN9xyf0Xzq+sPYTQOGNwfnFBzrmEJgXwZgQA0AqsVTA0XF/0tYUfjI7J9vYlPdm6DAwNa2BoWLsPHl67L6xWtDg3p4XZaS3mamcMFmZzqpbLCU4K+IsAAJrMpNNKjYzJjm1RarR2Gt+OjMoEQdKjbapUV7du3DmhG3dOvHGnc1pdWdJ8/WLDxVztgsPVlSWJswXApiIAgE0UDA3XT+GPKTW6RXZ0XEF/f9JjtQ5jNDgypsGRMU0efsfa3dVyee0MQe1swbQW5+YUVisJDgt0FgIA2ACmq1vB6Gj9orz6Y/YjY1KKf2Lr0ZVOa9vuPdq2+42nJzrndH5xof4MhMZTFGd04fxKgpMC7YufTsA1sgODFy36sdrz6/sHr/npdrg2xhgNj2/R8PgW7XvHkbX7y8WCFmZn156BsDA7o6Vzc4rCMMFpgdZHAABXEMZOhfEt2nbsdqW3T8h0dSU9Ei6S7u3Tjr2T2rF3cu2+OI61ODurM6/8SL945UUtXuBFjIA3IwCAK6jEsf7hR89LL/xIe3ZMaPLAAW3dPanBHROym/zce1y9KIq0PDOt/PQZ6dysepYWtSeOdD7VpcWkhwNaEAEAXC3ndGrqjE5NnZH0fckY7d6+U5MHDmrb7r0anJiQTfcmPaU3agt/SvnpKWluRj0ri0pFsQaSHgxoEwQAsF7O6fT0WZ2ePlv7vTHatWO79u0/pK2792poYhdBsIGiKNLSzJQK02dl5mbVu7woG0csfGCdCABgozinM1PTOjM1vXbXxI4d2rfvoLbt2aehiQnZHoLgakVhWFv4M2dl5+ZY+MAGIwCATXR2elpnp6elp56UJO3ctl379x/S1slJDe3YpaCXIGhoLPzi9JTM3Ix6V5ZkY07pA5uFAACaaCo3o6ncjPR0LQi2b9uuA/sPatveehD0tedL/65HY+GXps9Kc7PqW1mSjSPxMklAcxAAQIJmcjOayc1IT2clSdu2bqsHwT4NT0wo6O2cdRiGVS1PTak0MyU7n1N6ZVk2iuRP8gCthQAAWkhuNqfcbE565oQkaduNN2r/gZu0Y++khnbuUtDXPkEQhlUtT0+pND0lM5+rP4bvWPhAiyAAgBaWm5tTbm5uLQhuvOFGHTh4SDv2TGpo526lWuh9BaJqRYvTUyrnpmTn5tSzvCDrWPhAqyIAgDYyd25Oc+fmpGeekiRtueFGHdp/UDv27tPQxC6l+pt3yVxYqWp5+oxKM9MK5mfVs7ykwMUsfKBNEABAG5s/N6f5c3PSs09LksZvuFEH9x/UzslJDe/cvaFBUFv4Z1XKnVVwbk49y0uyFy183rwXaC8EANBBFs7NaeGiINgyvkUHDhzSjr2TGtm155qCIKxUtDx9VuXctIJzOXWvLMvGLHygUxAAQAebX5jX/MK89I/PSJIGRsdW99185Bf7b3lHOLZ120SQ6tq29odddCG+UPhlefpMufr6z7eH8/MTNo7FKxUAnYkAADxyYWlx8OVnsre+/EztaYcDI6Orh48e+9H+cuFAND+/U3F8NOERATSJTXoAAMm5sLw0+C9Pn0hHc3M7FcdJjwOgiQgAAAA8RAAAAOAhAgAAAA8RAAAAeIgAAADAQwQAAAAeIgAAAPAQAQAAgIcIAAAAPEQAAJfhpHnJfa0Qhg8lPQvWb6y7+385pz91sfuXpGcBWgnvBQDUxbGmrNyTsVHWOJvd+/Xv/NRI7rPvPDCRSumhpOfD+uzo73/xEy/+4rOS9MVbD9xQtvG9NjYZKc7Ezh6zVkHSMwJJIADgLef0mpHLxtZkrbHZya99+6ThXW472sdefO2cpL+t3/TFdx8YqlTie2RMxinOWOlOyXYnOyXQHAQAvOHkfmykbCyTDUJzYu83vzOd9ExI1sf+6bXzkv5v/aYv3DXRq2L6LmdcRjIZOd0lq75kpwQ2BwGAjhTHcWRkXjDGZWNns93SUxNf/95C0nOhtf3HZ88WJX2/ftOf3nFH10q8fKdRLQhMrHtkNZzslMDGIADagI3dy7LmWNJztLQ4rjhj/9FI2djG2XJc/sHN33xmNemx0N7+zfPPVyX9oH579NOSHTx64JhsnHHOHDdWxyXdmOyUrc1JZ40qy0nPgV9FALSBj7/0y9997I59X4pD85C1eiDpeVpB7OK8MfaZ2in9OGuG43+a/Or3S0nPhc72sBTr5ddekPSCpC9K0mN37Dksl8rEThm5OGON3ZXslK3BSWclfaZa6PrzySe+W056HvwqAqBNfPz5Xz4l6dcfu2PfvZ6GwLJzOmEUZyNnsks3nn/hzi89X016KODjz5/6qaSfSvqSJP3RsT17Y5PKrF1HIB1MdMAmu3jxH3riCRZ/CyMA2kwjBD53bN891pqHJP16wiNtllknZY1cNjLK7jty/Mfm4YfjpIcCruQ/vHTqpKSTkv5Ckj73rj3bTJTKKHYZJ5OR0RErmSRn3Aws/vZDALSpT770y6clvb+DQuCkk8saKRvF5sS+r3/31Uuekvc330twNGD9PvnDUzlJf12/6ZF37h61qa7jql9YqDi+Tda27c9iFn/7atv/6VDTtiEQu586o6yRyUYpc2L/4985nfRIQDN86pXTS5K+Wb/p80eP9hu3erdkM3IuE1v3HiubTnbKK2Pxtz8CoEO0cgjEkrNyL9VO6ZtsVHVP7f/W92aTngtoBZ94+eW8pG/Xb/rigQPp0lD07sDZjOQysdzdVnYg2SkvFp9xsflMtdT9FRZ/eyMAOkwrhEAshVbuOedM1khZE4dP7/3GkzwNCLgKH3vttbKkE/Xbf/30ffelBlZO3ybZjHMuI2vutdJY8ydrLP40i79DEAAdqqkhEKskEz/rZLPGmmxvr3l2+19+O79pXw/wyMNPPhlK+mH99gUnmT+8ffKIk80odpnYmePWavvmTcDi71QEQIdrhMBjt+6/OzZ6yErv34BPuyrpKSedMLLZSil4jh8MQHMYyelHr78i6RVJfyJJj96676CVzchEGclmjLT3+r8Si7/TEQCe+PiLv3hG0m+sJwRixQtWNutc7Sr9PYvRy6Z2VAKgBfz+i798VdKrkr4sSY/duX9XHMbHTf3CQmPNzVf/2Vj8viAAPHM1IRArnrbOPumcy5qUspPvyPyU5+AD7ePjz/3ijKS/qt/0xVsP3FAx8XGn2tsgW9ljkuyl/xWL3zcEgKcuDoF0l/1Xkp5zclkrk5382vdfv+Q5+P+b5+AD7az+Nshfq9/02Tv2DXdFusfJZKqKx13s/orF7x8CwHP1EHhGP/x50qMAaJI/eP6XK5L+T/0GT9kr/xEAANBpCAAAADxEAAAA4CECAAAADxEAAAB4iAAAAMBDBAAAAB4iAAAA8BCv3iHrAAADcElEQVQBAACAhwgAAAA8RAAAAOAhAgAAAA8RAAAAeIgAAADAQwQAAAAeIgAAAPAQAQAAgIcIAAAAPEQAAADgIQIAAAAPEQAAAHiIAAAAwEMEAAAAHiIAAADwEAEAAICHCAAAADxEAAAA4CECAAAADxEAAAB4iAAAAMBDBAAAAB4iAAAA8BABAACAhwgAAAA8RAAAAOAhAgC4AlMJVmLp20nPgXWI49My7tmkxwBaEQEAXMHv/+xnq5984Re/EcfuXkKgTcTx6di5f3uha8vByb/57v9LehygFZmkBwDazeeO7btH1nzaSu9PepaN0B8Ez35o9667kp5jQ8Tx6diYzxRS41858vjjlaTHAVoZAQCsU6eEQEcEAIsfuGYEAHCd2j0E2joAWPzAuhEAwAZp1xBoywBg8QPXjQAANli7hUBbBQCLH9gwBACwSdolBNoiAFj8wIYjAIBN1uoh0NIBUF/8izes/PmdX3q+mvQ4QCchAIAmadUQaMkAYPEDm44AAJqs1UKgpQKAxQ80DQEAJKRVQqAlAoDFDzQdAQAkLOkQSDQAWPxAYggAoEUkFQKJBACLH0gcAQC0mGaHQFMDINYpY/WZc1uWv8LiB5JFAAAtqlkh0JQAYPEDLYcAAFrcZofApgYAix9oWQQA0CY2KwQ2JQBY/EDLIwCANrPRIbChAcDiB9oGAQC0qY0KgQ0JABY/0HYIAKDNXW8IXFcAsPiBtkUAAB1ivSGwrgBg8QNtjwAAOsy1hsA1BQCLH+gYBADQoa42BK4qAFj8QMchAIAOd6UQeNsAYPEDHYsAADxxuRB4ywBg8QMdjwAAPPPmELgkAFj8gDcIAMBTjRAYDILBD03s2s7iBwDAI1+/99Zbnvu9O7qSngMAAAAAAAAAAAAAAAAAAAAAAAAAAAAAAAAAAAAAAAAAAAAAAAAAAAAAAAAAAAAAAAAAAAAAAAAAAAAAAAAAAAAAAAAAAAAAAAAAAAAAAAAAAAAAAAAAAAAAAAAAAAAAAAAAAAAAAAAAAAAAAAAAAAAAAAAAAAAAAAAAAAAAAAAAAAAAAAAAAAAAAAAAAAAAAAAAAAAAAAAAAAAAAAAAAAAAAAAAAAAAAAAAAAAAAAAAAAAAAAAAAAAAAAAAAAAAAAAAAAAAAAAAAAAAAAAAAAAAAAAAAGyo/w9QRIUacRbo/wAAAABJRU5ErkJggg==;" vertex="1" parent="1">
          <mxGeometry x="-20" y="320" width="130" height="130" as="geometry" />
        </mxCell>
        <mxCell id="D9FhCrUlwlGwZ-h1Pyif-15" value="" style="shape=image;verticalLabelPosition=bottom;labelBackgroundColor=#ffffff;verticalAlign=top;aspect=fixed;imageAspect=0;image=data:image/png,iVBORw0KGgoAAAANSUhEUgAACWAAAAqVCAYAAAB4+p5ZAAAABHNCSVQICAgIfAhkiAAAAAlwSFlzAAAP/wAAD/8BYJF3zgAAABl0RVh0U29mdHdhcmUAd3d3Lmlua3NjYXBlLm9yZ5vuPBoAACAASURBVHic7N1plOR1fe/x7696FkHAFXAGGEAwxsAsMMQtnhyIKBq9uTfHjJcZxBiNEBlmGAYVUJZmkcVc0aNsg8BBj+ai4wxcEJBcEn1CYnazGo0xu7lGBRVF6Jmu330gDQPM0tNdVb////d/vR72Od31edJVdc73fapSAAAAtMThK27ed+v8ibP2eNZ+J8+Zv+fC0nsAAIDB2nuvZ/zbgv2efVueu/WKzace85+l9wAAAExHKj0AAABgVw47+br9JnNan3OsiYg999jneTF3j71LzwIAAAbs2c/aM/Z93t4RET9OkW4SYgEAAG0gwAIAABprm/BqbUTsMfVzARYAANRpmwBrysMp0o1CLAAAoMkEWAAAQOPsKLyaIsACAIA6bSfAmvJwinTjlty/8o41R39r1LsAAAB2RoAFAAA0xq7CqykCLAAAqNNOAqwpj0bEJ7bmfJEQCwAAaAoBFgAAUNyhKz++fx6bPHNX4dUUARYAANRpGgHWFCEWAADQGAIsAACgmN0Nr6YIsAAAoE67EWBNmYiIW8bG0sUb37XsP4Y0CwAAYKcEWAAAwMgdduI1B02O9d6dI50SEc/Y3d8XYAEAQJ1mEGBNEWIBAADFCLAAAICRmW14NUWABQAAdZpFgDVFiAUAAIycAAsAABi6F751w6L+ZP+s2YZXUwRYAABQpwEEWFMmIuKW6Pcu2bx26b8P4g8CAADsiAALAAAYmkGHV1MEWAAAUKcBBlhThFgAAMDQCbAAAICBG1Z4NUWABQAAdRpCgDVFiAUAAAyNAAsAABiYQ1ddfXBOY+tzTqdGivnDehwBFgAA1GmIAdaUiYj0mdTrjW86bck3h/lAAABAdwiwAACAWRtVeDVFgAUAAHUaQYA1ZSIifabf33rR7WuP+cdRPCAAAFAvARYAADBjow6vpgiwAACgTiMMsKZsiUi3CrEAAIDZEGABAAC77ZATrzskxuLMUYdXUwRYAABQpwIB1pQtEenWsTR58cbVy79RYgAAANBeAiwAAGDaDjnxukNiTjo353h7RMwptUOABQAAdSoYYE0RYgEAALtNgAUAAOxSU8KrKQIsAACoUwMCrClCLAAAYNoEWAAAwA4dfPLHD0158pymhFdTBFgAAFCnBgVYU7ZEpFvTZL5k0xlH/UPpMQAAQDMJsAAAgKdpang1RYAFAAB1amCANUWIBQAA7JAACwAAeFzTw6spAiwAAKhTgwOsKVsi0q054tLbTl/29dJjAACAZhBgAQAAsWjVtS/s9XpnNz28miLAAgCAOrUgwJrSTyk29XM6T4gFAAAIsAAAoMPaFl5NEWABAECdWhRgTRFiAQAAAiwAAOiibcKrd0TEWOk9u0uABQAAdWphgDWln1Js6qXe+RtPW/q10mMAAIDREmABAECHHHzyNS+J/pxzI/KqaGF4NUWABQAAdWpxgDVFiAUAAB0kwAIAgA5YdNL1P5cindP28GqKAAsAAOpUQYA1pZ9SbIr+5AWb1hzz96XHAAAAwyXAAgCAitUWXk0RYAEAQJ0qCrCmCLEAAKADBFgAAFChRStvOCL18tm1hVdTBFgAAFCnCgOsKUIsAAComAALAAAqcuBJGxbPSfn8nONNEdErvWdYBFgAAFCnigOsKf2UYlM/+hfetnr5V0uPAQAABkOABQAAFaj9E6+eSoAFAAB16kCANaWfIu6eTHH+7auP+krpMQAAwOwIsAAAoMUOOvm6I3v93nu7El5NEWABAECdOhRgTemniLujny7YtHbZX5QeAwAAzIwACwAAWmib8OqkqPirBndEgAUAAHXqYIA1RYgFAAAtJsACAIAWOfCkDYvHIt7T1fBqigALAADq1OEAa0pOEXfl6F24+fSlf156DAAAMD0CLAAAaIEDT9qweE7K5+ccvxbexwuwAACgUgKsxwmxAACgRTp/uAEAgCYTXm2fAAsAAOokwHqafkRsTr3+JZtOW/5XpccAAADb54ADAAANdOjKa5fksd55wqvtE2ABAECdBFg7lFPEXZO9/vjtpy3/s9JjAACAJ3PIAQCABhFeTY8ACwAA6iTA2iUhFgAANJCDDgAANMChb7l+aY54v/BqegRYAABQJwHWtOUUcVfkfNGmNUf/aekxAADQdQ47AABQkPBqZgRYAABQJwHWDKS4L/XzuUIsAAAox4EHAAAKEF7NjgALAADqJMCahRT3RcT7Nq8+6k9KTwEAgK5x6AEAgBE6ZNUNy6LXf5/wanYEWAAAUCcB1gAIsQAAYOQcfAAAYAQOOenal+fovT8i3hDeh8+aAAsAAOokwBqgFPf1J9P7b1+77I9LTwEAgNo5/AAAwBAdvPL6V0Qv3hcRbyy9pSYCLAAAqJMAawiEWAAAMHQCLAAAGALh1XAJsAAAoE4CrCFKcV/KvfM2nb70j0pPAQCA2giwAABggA5+yw2vjNw/N4RXQyXAAgCAOgmwRkCIBQAAAyfAAgCAARBejZYACwAA6iTAGqEU98Vk//zNa5d/ufQUAABoOwEWAADMwqKTrvuFFOmcEF6NlAALAADqJMAq4v5ejvM+t+aoL5UeAgAAbSXAAgCAGRBelSXAAgCAOgmwiro/Ujp/8+plXyw9BAAA2kaABQAAu2HRyg2vSr18dgivihJgAQBAnQRYjSDEAgCA3STAAgCAaRBeNYsACwAA6iTAapT7c+5dcNuapb9feggAADSdAAsAAHbisfBqPCJeXXoLTxBgAQBAnQRYjSTEAgCAXRBgAQDAdgivmk2ABQAAdRJgNdr9vcgXfu70o3+v9BAAAGgaARYAAGxj0coNr0opXxQpfqn0FnZMgAUAAHUSYLWCEAsAAJ5CgAUAACG8ahsBFgAA1EmA1Sr3p34e37T26PtKDwEAgNIEWAAAdNpjXzV4cUQcV3oL0yfAAgCAOgmwWun+lHpXblq99M7SQwAAoBQBFgAAnSS8ajcBFgAA1EmA1WpCLAAAOkuABQBApzwWXl0SEceW3sLMCbAAAKBOAqwqCLEAAOgcARYAAJ0gvKqLAAsAAOokwKrKH6TUu0KIBQBAFwiwAACo2qJVNxyfUv/SiHhZ6S0MjgALAADqJMCqkhALAIDqCbAAAKiS8KpuAiwAAKiTAKtqf5hS73IhFgAANRJgAQBQlUWrbjg+Uv8DKeKlpbcwPAIsAACokwCrE4RYAABUR4AFAEAVhFfdIsACAIA6CbA6JKcvp166TIgFAEANBFgAALTaolU3HN9Lk5flSD9fegujI8ACAIA6CbA6aCrEOm3J5yOlXHoOAADMhAALAIBWEl51mwALAADqJMDqrhTxlX6Oy247fdnnhFgAALSNAAsAgFYRXhEhwAIAgFoJsIiIv8w5PiDEAgCgTQRYAAC0wqJVNxyfon95pDim9BbKE2ABAECdBFhsQ4gFAEBrCLAAAGiwnBat3PDGlOIC4RXbEmABAECdBFhsx1/lHJcKsQAAaDIBFgAADfRYeNVLF0bk5aXX0DwCLAAAqJMAi50QYgEA0FgCLAAAGkR4xfQIsAAAoE4CLKZBiAUAQOMIsAAAaICp8CrGI+Lo0mtoPgEWAADUSYDFdKXIf93P6RIhFgAATSDAAgCgIOEVMyPAAgCAOgmw2F1CLAAAmkCABQDA6I2P9xZ97QVvSGNxUeQ4qvQc2keABQAAdRJgMWM5/ib38m8v/c5RnxofT/3ScwAA6BYBFgAAoyO8YkAEWAAAUCcBFrMmxAIAoAABFgAAwzcVXvXi4ohYVnoO7SfAAgCAOgmwGJjHQqw5+37j0xvf/ObJ0nMAAKibAAsAgOERXjEkAiwAAKiTAIsh+Nuc8geFWAAADJMACwCAwRsf7y36+oI3pRQXReSXlJ5DfQRYAABQJwEWQyTEAgBgaARYAAAMzuPhVb44In629BzqJcACAIA6CbAYthzxd5HylUIsAAAGSYAFAMDsCa8YMQEWAADUSYDFqAixAAAYJAEWAAAz90R4dUlEvLj0HLpDgAUAAHUSYDFqQiwAAAZBgAUAwO4TXlGYAAsAAOokwKKgr+aUrxBiAQAwEwIsAACmT3hFQwiwAACgTgIsGuCbKdKV3/vugzd/afy4raXHAADQDgIsAAB2bSq8inxppPiZ0nNAgAUAAHUSYNEgQiwAAKZNgAUAwI4Jr2goARYAANRJgEUD/VOKdIUQCwCAnRFgAQDwNMtP2TD3Ow/nlZHjvBTxotJ74KkEWAAAUCcBFg0mxAIAYIcEWAAAPE54RVsIsAAAoE4CLFpAiAUAwNMIsAAAEF7ROgIsAACokwCLFvnnFOlyIRYAABECLACATpsKr1JO50fkw0vvgekSYAEAQJ0EWLSQEAsAAAEWAEAXCa9oOwEWAADUSYBFiwmxAAA6TIAFANAhj4dXERdEjsNK74GZEmABAECdBFhU4F9Sjg8/nPe6/p61L3q09BgAAEZDgAUA0AHCK2ojwAIAgDoJsKiIEAsAoEMEWAAAFTtixWfnPTT/gROFV9RGgAUAAHUSYFEhIRYAQAcIsAAAKvR4eJXjwoh4Yek9MGgCLAAAqJMAi4r9a8pxlRALAKBOAiwAgIocseKz8x6a++DbUsrnR8SBpffAsAiwAACgTgIsOuBfU46r9t7r+xtu+Y3jHik9BgCAwRBgAQBUQHhF1wiwAACgTgIsOkSIBQBQEQEWAECLCa/oKgEWAADUSYBF9+R/Szl9SIgFANBuAiwAgBbaJry6ICIOKL0HRk2ABQAAdRJg0V1CLACANhNgAQC0iPAKfkqABQAAdRJggRALAKCNBFgAAC1w+Os/On/iOfN/XXgFPyXAAgCAOgmw4HHfzpE+PGfi4Y9uXP/Kn5QeAwDAzgmwAAAa7Inwqn9hRFpYeg80hQALAADqJMCCp/mvHOkqIRYAQLMJsAAAGkh4BTsnwAIAgDoJsGCHhFgAAA0mwAIAaJCFp2zYc87D+Z0p5/cKr2DHBFgAAFAnARbskhALAKCBBFgAAA2w/8mffOb8/PBvphxnR8SC0nug6QRYAABQJwEWTJsQCwCgQQRYAAAFCa9gZgRYAABQJwEW7Lbv5Egf2jp368fuPPWYh0uPAQDoKgEWAEABwiuYHQEWAADUSYAFMybEAgAoSIAFADBC24RX50TEC0rvgbYSYAEAQJ0EWDBrQiwAgAIEWAAAIyC8gsESYAEAQJ0EWDAw34kc1/4kP3rVPWtf/sPSYwAAaifAAgAYon1XXLPXHvPH3iG8gsESYAEAQJ0EWDBw340c1wixAACGS4AFADAE24RX50bE/qX3QG0EWAAAUCcBFgyNEAsAYIgEWAAAAyS8gtEQYAEAQJ0EWDB0QiwAgCEQYAEADMC+K67Za4+5Y6tTivdGxHNL74HaCbAAAKBOAiwYme9GjmvG5k1+eOOpx/yg9BgAgLYTYAEAzILwCsoQYAEAQJ0EWDBy34scVwuxAABmR4AFADADL377TXv/5JEtpwmvoAwBFgAA1EmABcUIsQAAZkGABQCwG7YJr86OiOeU3gNdJcACAIA6CbCguO9Fjqv7W+Mjt5951PdLjwEAaAsBFgDANAivoFkEWAAAUCcBFjTGA5HjY0IsAIDpEWABAOyE8AqaSYAFAAB1EmBBs+SIH/YiXze5JV0hxAIA2DEBFgDAdmwTXp0TEc8uvQd4MgEWAADUSYAFjfVQinytEAsAYPsEWAAA2zj8pI/uM5HnvUt4Bc0mwAIAgDoJsKDxHkqRr32kN+fKu05b8mDpMQAATSHAAgCIiANX3PjcOfO3rM05nRHCK2g8ARYAANRJgAWtIcQCANiGAAsA6LQD3nr18+b2x9YIr6BdBFgAAFAnARa0jhALACAEWABAR20TXq2LiGeV3gPsHgEWAADUSYAFrSXEAgA6TYAFAHSK8ArqIMACAIA6CbCg9X6UIl/Tm5j/wY3rj3ig9BgAgFERYAEAnSC8groIsAAAoE4CLKiGEAsA6BQBFgBQtYUrNzx/3lj/dOEV1EWABQAAdRJgQXV+lCLdvGXr2GV3rFv87dJjAACGRYAFAFRpm/DqzIjYp/QeYLAEWAAAUCcBFlRLiAUAVE2ABQBURXgF3SDAAgCAOgmwoHpCLACgSgIsAKAKwivoFgEWAADUSYAFnfHjFOmmXpq4fOPql/6/0mMAAGZLgAUAtNrhK27ed+v8ibNyjjURsWfpPcBoCLAAAKBOAizoHCEWAFAFARYA0ErCK+g2ARYAANRJgAWdJcQCAFpNgAUAtIrwCogQYAEAQK0EWNB5P06Rbspzt16x+dRj/rP0GACA6RJgAQCtcNjJ1+03mdN64RUQIcACAIBaCbCAxwixAIBWEWABAI22TXi1NiL2KL0HaAYBFgAA1EmABTzFwynSjUIsAKDpBFgAQCMJr4CdEWABAECdBFjADjwaEZ/YmvNFd6w5+lulxwAAPJUACwBoFOEVMB0CLAAAqJMAC9gFIRYA0EgCLACgEQ5d+fH989jkmcIrYDoEWAAAUCcBFjBNQiwAoFEEWABAUYedeM1Bk2O9d+dI7wzhFTBNAiwAAKiTAAvYTRMRccvYWLp447uW/UfpMQBAdwmwAIAitgmvTomIZ5TeA7SLAAsAAOokwAJmSIgFABQlwAIARkp4BQyCAAsAAOokwAJmSYgFABQhwAIARuKFb92wqD/ZP0t4BQyCAAsAAOokwAIGZCIibol+75LNa5f+e+kxAED9BFgAwFAJr4BhEGABAECdBFjAgAmxAICREGABAEPxeHiV06mRYn7pPUBdBFgAAFAnARYwJBMR6TOp1xvfdNqSb5YeAwDUR4AFAAzUoauuPjinsfXCK2CYBFgAAFAnARYwZBMR6TP9/taLbl97zD+WHgMA1EOABQAMhPAKGCUBFgAA1EmABYzIloh0qxALABgUARYAMCvCK6AEARYAANRJgAWMmBALABgIARYAMCOHnHjdITEnnZtzvD0i5pTeA3SLAAsAAOokwAIK2RKRbh1LkxdvXL38G6XHAADtI8ACAHaL8ApoAgEWAADUSYAFFCbEAgBmRIAFAEyL8ApoEgEWAADUSYAFNMSWiHRrmsyXbDrjqH8oPQYAaD4BFgCwUwef/PFDU548R3gFNIkACwAA6iTAAhpGiAUATIsACwDYLuEV0GQCLAAAqJMAC2goIRYAsFMCLADgSYRXQBsIsAAAoE4CLKDh+inFpn5O5912+rKvlx4DADSHAAsAiIiIRauufWGv1ztbeAW0gQALAADqJMACWkKIBQA8iQALADpOeAW0kQALAADqJMACWqafUmzqpd75G09b+rXSYwCAcgRYANBRB598zUuiP+fciLwqIsZK7wHYHQIsAACokwALaCkhFgB0nAALADpm0UnX/1yKdI7wCmgzARYAANRJgAW0nBALADpKgAUAHSG8AmoiwAIAgDoJsIBK9FOKTdGfvGDTmmP+vvQYAGD4BFgAUDnhFVAjARYAANRJgAVURogFAB0hwAKASi1aecMRqZfPFl4BNRJgAQBAnQRYQKX6KcWmfvQvvG318q+WHgMADJ4ACwAqI7wCukCABQAAdRJgAZXrp4i7J1Ocf/vqo75SegwAMDgCLACoxEEnX3dkr997r/AK6AIBFgAA1EmABXSEEAsAKiPAAoCW2ya8OikieqX3AIyCAAsAAOokwAI6pp8i7o5+umDT2mV/UXoMADBzAiwAaCnhFdBlAiwAAKiTAAvoKCEWALScAAsAWubAkzYsnpPy+TnHr4XXcqCjBFgAAFAnARbQcTlF3JWjd+Hm05f+eekxAMD0OdoCQEsIrwCeIMACAIA6CbAAIkKIBQCt43gLAA136Mprl+Sx3nnCK4AnCLAAAKBOAiyAJ8kp4q7JXn/89tOW/1npMQDAjjniAkBDCa8AdkyABQAAdRJgAWyXEAsAGs4xFwAaRngFsGsCLAAAqJMAC2Cncoq4K3K+aNOao/+09BgA4AmOugDQEIe+5fqlOeL9wiuAXRNgAQBAnQRYANOU4r7Uz+cKsQCgGRx3AaAw4RXA7hNgAQBAnQRYALspxX0R8b7Nq4/6k9JTAKDLHHkBoJBDVt2wLHr99wmvAHafAAsAAOokwAKYISEWABTl2AsAI3bISde+PEfv/RHxhvBaDDAjAiwAAKiTAAtgloRYAFCEoy8AjMg24dUbS28BaDsBFgAA1EmABTAgKe7rT6b337522R+XngIAXSDAAoAhO3jl9a+IXrwvhFcAAyPAAgCAOgmwAAZMiAUAIyHAAoAhEV4BDI8ACwAA6iTAAhiSFPel3Dtv0+lL/6j0FACokQALAAbs4Lfc8MrI/XNDeAUwNAIsAACokwALYMiEWAAwFAIsABgQ4RXA6AiwAACgTgIsgJG5v5fjvM+tOepLpYcAQA0EWAAwS4tOuu4XUqRzQngFMDICLAAAqJMAC2DkhFgAMAACLACYIeEVQDkCLAAAqJMAC6CY+yOl8zevXvbF0kMAoI0EWACwmxat3PCq1Mtnh/AKoBgBFgAA1EmABVCcEAsAZkCABQDT9NPwqn9hRDq+9BaArhNgAQBAnQRYAI1xf869C25bs/T3Sw8BgDYQYAHALjz2iVfjEfHq0lsA+CkBFgAA1EmABdA4QiwAmAYBFgDsgPAKoLkEWAAAUCcBFkBj3d+LfOHnTj/690oPAYAmEmABwFMsWrnhVSnliyLFL5XeAsD2CbAAAKBOAiyAxhNiAcB2CLAA4DHCK4D2EGABAECdBFgArXF/Sr0rN61eemfpIQDQBAIsADrvsa8avDgijiu9BYDpEWABAECdBFgArSPEAoAQYAHQYcIrgPYSYAEAQJ0EWACtJcQCoNMEWAB0zmPh1SURcWzpLQDMjAALAADqJMACaD0hFgCdJMACoDMWrbrh+JT6l0TEy0tvAWB2BFgAAFAnARZANf4gpd4VQiwAukKABUD1HguvLo2Il5XeAsBgCLAAAKBOAiyA6gixAOgEARYA1RJeAdRLgAUAAHUSYAFU6w9T6l0uxAKgVgIsAKqzaNUNx0fqfyBFvLT0FgCGQ4AFAAB1EmABVE+IBUCVBFgAVEN4BdAdAiwAAKiTAAugI3L6cuqlyzadtuTzkVIuPQcAZkuABUDrLVp1w/G9NHlZjvTzpbcAMBoCLAAAqJMAC6BbUsRX+jkuu+30ZZ8TYgHQZgIsAFpLeAXQXQIsAACokwALoLP+Muf4gBALgLYSYAHQOotW3XB8iv7lkeKY0lsAKEOABQAAdRJgAXSeEAuAVhJgAdASOS1aueGNKcUFwisABFgAAFAnARYAjxFiAdAqAiwAGu6x8KqXLozIy0uvAaAZBFgAAFAnARYAT/FXOcelQiwAmk6ABUBDCa8A2DEBFgAA1EmABcAOCLEAaDQBFgANMxVexXhEHF16DQDNJMACAIA6CbAA2JkU+a/7OV0ixAKgaQRYADSE8AqA6RNgAQBAnQRYAEyHEAuAphFgAVCY8AqA3SfAAgCAOgmwANgdKfJf91P8r6XfOepT4+OpX3oPAN0lwAKgjPHx3qKvveANaSwuihxHlZ4DQLsIsAAAoE4CLABmJMff5F7+bSEWAKUIsAAYLeEVAAMgwAIAgDoJsACYlcdCrDn7fuPTG9/85snScwDoDgEWAKMxFV714uKIWFZ6DgDtJsACAIA6CbAAGJC/zSl/UIgFwKgIsAAYrvHx3qKvL3hTSnFRRH5J6TkA1EGABQAAdRJgATBgQiwARkKABcBwPB5e5Ysj4mdLzwGgLgIsAACokwALgCERYgEwVAIsAAZLeAXACAiwAACgTgIsAIYpR/xdpHylEAuAQRNgATAYwisARkiABQAAdRJgATAKQiwABk2ABcDsPBFeXRIRLy49B4BuEGABAECdBFgAjNhXc8pXCLEAmC0BFgAzI7wCoCABFgAA1EmABUAh30yRruzt9/WbhFgAzIQAC4DdMxVeRb40UvxM6TkAdJMACwAA6iTAAqCwb6ZIV37vuw/e/KXx47aWHgNAewiwAJge4RUADSLAAgCAOgmwAGgIIRYAu0WABcDOCa8AaCABFgAA1EmABUDD/FOKdIUQC4BdEWABsF3LT9kw9zsP55WR47wU8aLSewBgWwIsAACokwALgIYSYgGwUwIsAJ5EeAVAGwiwAACgTgIsABpOiAXAdgmwAIiIJ8KrlNP5Efnw0nsAYGcEWAAAUCcBFgAt8c8p0uVCLACmCLAAOk54BUAbCbAAAKBOAiwAWkaIBUBECLAAOkt4BUCbCbAAAKBOAiwAWuqfU46PPJz3uv6etS96tPQYAEZPgAXQMY+HVxEXRI7DSu8BgJkQYAEAQJ0EWAC03L+kHB8WYgF0jwALoCOOWPHZeQ/Nf+BE4RUANRBgAQBAnQRYAFRCiAXQMQIsgMo9Hl7luDAiXlh6DwAMggALAADqJMACoDJCLICOEGABVEp4BUDNBFgAAFAnARYAlfrXlOOqvff6/oZbfuO4R0qPAWDwBFgAlTlixWfnPTT3wbellM+PiANL7wGAYRBgAQBAnQRYAFROiAVQKQEWQCWEVwB0iQALAADqJMACoCOEWACVEWABtNw24dUFEXFA6T0AMAoCLAAAqJMAC4Buyf+WcvqQEAug/QRYAC0lvAKgywRYAABQJwEWAN0kxAJoOwEWQMsIrwBAgAUAALUSYAHQbT8NsXpbfnLDxvWv/EnpNQBMnwALoCUOf/1H5088Z/6vp9S/MCItLL0HAEoSYAEAQJ0EWAAQERHfzpE+PGfi4Y8KsQDaQYAF0HDCKwB4OgEWAADUSYAFAE/yXznSVUIsgOYTYAE0lPAKAHZMgAUAAHUSYAHAdgmxABpOgAXQMAtP2bDnnIfzO1OOsyNiQek9ANBEAiwAAKiTAAsAdkqIBdBQAiyAhtj/5E8+c35++DeFVwCwawIsAACokwALAKblv3Kkq7bO3fqxO0895uHSYwAQYAEUJ7wCgN0nwAIA8dEyAwAAIABJREFUgDoJsABgt3wnR/qQEAugPAEWQCHbhFfnRMQLSu8BgDYRYAEAQJ0EWAAwI0IsgMIEWAAjJrwCgNkTYAEAQJ0EWAAwK0IsgEIEWAAjIrwCgMERYAEAQJ0EWAAwEN+NHNf8JD961T1rX/7D0mMAukCABTBk+664Zq895o+9I+U4NyL2L70HAGogwAIAgDoJsABgoIRYACMiwAIYEuEVAAyPAAsAAOokwAKAoRBiAQyZAAtgwIRXADB8AiwAAKiTAAsAhuq7keOasXmTH9546jE/KD0GoCYCLIAB2XfFNXvtMXdsdUrx3oh4buk9AFAzARYAANRJgAUAI/G9yHG1EAtgcARYALMkvAKA0RNgAQBAnQRYADBSQiyAARFgAczQi99+094/eWTLaSnF2RHxnNJ7AKBLBFgAAFAnARYAFCHEApglARbAbhJeAUB5AiwAAKiTAAsAivpe5Li6vzU+cvuZR32/9BiANhFgAUyT8AoAmkOABQAAdRJgAUAjPBA5PibEApg+ARbALgivAKB5BFgAAFAnARYANEeO+GEv8nWTW9IVQiyAnRNgAezANuHVORHx7NJ7AIAnCLAAAKBOAiwAaKSHUuRrhVgAOybAAniKw0/66D4Ted67hFcA0FwCLAAAqJMACwAa7aEU+dpHenOuvOu0JQ+WHgPQJAIsgMccuOLG586Zv2VtzumMEF4BQKMJsAAAoE4CLABoBSEWwFMIsIDOO+CtVz9vbn9sjfAKANpDgAUAAHUSYAFAqwixAB4jwAI6a5vwal1EPKv0HgBg+gRYAABQJwEWALTSQynytb2J+R/cuP6IB0qPAShBgAV0jvAKANpPgAUAAHUSYAFAq/0oRb5GiAV0kQAL6IyFKzc8f95Y/3ThFQC0nwALAADqJMACgCoIsYDOEWAB1dsmvDozIvYpvQcAmD0BFgAA1EmABQBV+VGKdPOWrWOX3bFu8bdLjwEYJgEWUC3hFQDUS4AFAAB1EmABQJWEWED1BFhAdYRXAFA/ARYAANRJgAUAVftRinRzL01cvnH1S/9f6TEAgyTAAqpx+Iqb9906/9HVwisAqJ8ACwAA6iTAAoBO+HGKdJMQC6iJAAtovZ+GVxNn5RxrImLP0nsAgOETYAEAQJ0EWADQKUIsoBoCLKC1hFcA0F0CLAAAqJMACwA66ccp0k157tYrNp96zH+WHgMwEwIsoHWEVwCAAAsAAOokwAKAThNiAa0lwAJa47CTr9tvMqf1OcfaiNij9B4AoBwBFgAA1EmABQCEEAtoIQEW0HjCKwDgqQRYAABQJwEWALCNh1OkG7fk/pV3rDn6W6XHAOyMAAtoLOEVALAjAiwAAKiTAAsA2I5HI+ITW3O+SIgFNJUAC2gc4RUAsCsCLAAAqJMACwDYCSEW0FgCLKAxDl358f3z2OSZwisAYFcEWAAAUCcBFgAwDY9GxCfGxtLFG9+17D9KjwGIEGABDXDYidccNDnWe3eOdEpEPKP0HgCg+QRYAABQJwEWALAbJiLiFiEW0AQCLKAY4RUAMFMCLAAAqJMACwCYASEWUJwACxg54RUAMFsCLAAAqJMACwCYhYmIuCX6vUs2r13676XHAN0iwAJG5oVv3bCoP9k/S3gFAMyWAAsAAOokwAIABkCIBYycAAsYOuEVADBoAiwAAKiTAAsAGCAhFjAyvdIDgLodfNL1l0xO5m/kSGtDfAUAAAAAAACMxryIOCV6/W+86WN/8f7SY4C6CbCAoTnghDVLc3/yLRExt/QWAAAAAAAAoJPmPzIxcdaR77n7sNJDgHoJsIChOPiEdQty9O6IyYlDSm8BAAAAAAAAuquf4zlpsvf5xed8/jmltwB1EmABA3fgijP32BL5tohYFKn0GgAAAAAAAID42ZiYc/sR45+dV3oIUB8BFjBY4+O9/g/6n46Il5WeAgAAAAAAALCNX+w9tM/1pUcA9RFgAQO18A8f/GCk+NXSOwAAAAAAAACeJsdvLD7r3nNKzwDqIsACBmbh6854R0ScVXoHAAAAAAAAwA7lfNmSs+5ZWXoGUA8BFjAQB75u3bGR49rSOwAAAAAAAAB2IeWcbl6y/u6Xlx4C1EGABczaguPXvaSf820RMa/0FgAAAAAAAIBpeEY/ence+Z67Dys9BGg/ARYwKwv/21nPT2P5zoh4duktAAAAAAAAANOVIp6fJnt3LFv3RbdOYFYEWMCMHXLs254RE1vviAhVOAAAAAAAANBGPzfZe+Qzx45/cU7pIUB7CbCAmUoT8591U0S8ovQQAAAAAAAAgJlLr33goUc/VnoF0F4CLGBGDnjt2g9ExKrSOwAAAAAAAABmK+f4rcXr71lfegfQTgIsYLcd8Lp1b8spnVt6BwAAAAAAAMDgpN9efNa9/6P0CqB9BFjAblnw2jN+Med8fekdAAAAAAAAAAPWixy/s/TML7y09BCgXQRYwLQd9Po1h6UUmyJifuktAAAAAAAAAIOX9+inuP3I9fceVHoJ0B4CLGBaDnj16udN9nv3RMTzS28BAAAAAAAAGKIFKfI9y8/+v88qPQRoBwEWsEtHrBifl+fM2RgRLyq9BQAAAAAAAGAEjpiYmPzfx45/cU7pIUDzCbCAXUnf/+H3b4yI40oPAQAAAAAAABiZFK9/4IcTHyo9A2g+ARawUwtft+7CHPnk0jsAAAAAAAAARi1HXrv4zC+cXnoH0GwCLGCHDjhh7Zsj5wtK7wAAAAAAAAAoJsVHlqy/51dKzwCaS4AFbNfC16z7hRzpkxGRSm8BAAAAAAAAKGgsR/rUEeu/sLT0EKCZBFjA0+z/2tMPjV7eHBHzS28BAAAAAAAAaIC9exF3L3nv3QeWHgI0jwALeJLnvn7NPmNp7M6I2K/0FgAAAAAAAIAGWZi39v7Pknff+8zSQ4BmEWABj1u+/JS5z+j3NkfEEaW3AAAAAAAAADTQ0Xkyf2bFis+OlR4CNIcAC3jct563x8ci4tWldwAAAAAAAAA0Voo3fO2gva8oPQNoDgEWEBERC1637tyU4tTSOwAAAAAAAACaLkd695L1976r9A6gGQRYQCw44Yw3pZwvLb0DAAAAAAAAoC1y5I8eeda9rym9AyhPgAUdt+A1Zx6TIj4Zng8AAAAAAAAAdseclPPnFp951+LSQ4CyBBfQYQt+efXBqdf/fETsWXoLAAAAAAAAQAvtE2nsjiPPuG//0kOAcgRY0FHP/5X37p0m59wREd4IAAAAAAAAAMzcIWlsy+eXn3KnD76AjhJgQRetWDE279FHfycilpSeAgAAAAAAANB+6ZiJZ875RIyP6zCgg/zjQwct+OHCqyPijaV3AAAAAAAAAFQjpV878gcvv6T0DGD0BFjQMQeccMZZKeK3Su8AAAAAAAAAqE1K8b7FZ917SukdwGgJsKBDDjhh3RtyxJWldwAAAAAAAABUK+erl6y/59WlZwCjI8CCjlj4+jVH5cifiYix0lsAAAAAAAAAKjY3R/rskjPueXHpIcBoCLCgAw56zekLo9+7IyKeWXoLAAAAAAAAQAc8N4+le5a8+979Sg8Bhk+ABZXb99jT9prsjd0VEQeW3gIAAAAAAADQIYf2+3nT4Wvunl96CDBcAiyo2fh4b+78eZ+KiGWlpwAAAAAAAAB0TYp41Z5ze5+IyKn0FmB4BFhQsYV/8OCHI/J/L70DAAAAAAAAoKtyxP88cv3vXlB6BzA8Aiyo1IITznhnpFhbegcAAAAAAABA16XIFx551hdOLr0DGA4BFlRowQlrX5ciri29AwAAAAAAAICIiEgpx41HrP/CcaWHAIMnwILKvOCEM49IkW6NiDmltwAAAAAAAADwuHm9FBuXved3X1R6CDBYAiyoyL6/fNoLetG/OyKeVXoLAAAAAAAAAE+R43mT/f6di8/5/HNKTwEGR4AFlThwxZl7zJ2ce3tELCq9BQAAAAAAAIAdyPHimJhz++Fr7p5fegowGAIsqMH4eK//g/6nI+JlpacAAAAAAAAAsEu/uMfc3vWlRwCDIcCCCiz88vevjBS/WnoHAAAAAAAAANP2tiPX33Nu6RHA7AmwoOUWvnbd2yPnd5feAQAAAAAAAMDuSZE+sPjML6wqvQOYHQEWtNiBr1t3bKR8XekdAAAAAAAAAMxIihQ3LV53zytKDwFmToAFLbXg+HUv6ed8W0TMK70FAAAAAAAAgBn7/+zd65cddH3v8e9v75ncgIAhkMyeBFDwOhfA8QK12ChkZoKAtXZarbWl1UYLmczsmRCoWh1brfXSqtgKXQe6wFUoRC5hQuYCrpVnx/4Hx/MPePqgrRKfmCGzf+fBOW1FuSSZy29fXq9nk9n793tnsudRPmvvTbmSZvvvmruydAhwbgywoAXVbp3enqp5NiIuKt0CAAAAAAAAwMqkiO1puXLsmskT/g8YWpABFrSYK/bcvimWTs9GxFWlWwAAAAAAAABYNW9dTqee7ps54lOQoMUYYEFrSUubtj4QET7/FwAAAAAAAKDdpNhTPXnhd0tnAGfHAAtaSM/Iwb+MnD5WugMAAAAAAACAtZEjf6K/vjBdugM4cwZY0CJ6hw/+YYr02dIdAAAAAAAAAKytlOJr/fX5D5XuAM6MARa0gJ6R+g05pX8o3QEAAAAAAADAuqikVHlk8NDiu0uHAK/NAAua3O5941emaDwZERtLtwAAAAAAAACwXvLm3MhP9008f1npEuDVGWBBE9s1Ut+23EhzEXFJ6RYAAAAAAAAA1l1Ppbo8N3T38xeWDgFemQEWNKmhof3djWg8EZHeVLoFAAAAAAAAgGL6ll5cfmzPzImu0iHAyzPAguaU/nX7lgcj4n2lQwAAAAAAAAAobvTfX/j535eOAF6eARY0odrIxJ/nyB8v3QEAAAAAAABAk0hpf//04njpDOBXGWBBk+kdnRiLiJnSHQAAAAAAAAA0l5TzNwen5m8r3QG8lAEWNJHa3sn35Bzfi4hUugUAAAAAAACAplPNkR7pm3zumtIhwH8zwIImsWP4wOujkp+KiE2lWwAAAAAAAABoWudXKo3jg4fndpUOAf4fAyxoAtv2jW/tStXZiLi0dAsAAAAAAAAATa+WT1eeGTy0eF7pEMAAC4obGtrfvamRnswR/aVbAAAAAAAAAGgZb8/L+fGxsSPV0iHQ6QywoLAfb998b0S6qXQHAAAAAAAAAC0mxQf+92Vbv1o6AzqdARYUVBueuCdFfLp0BwAAAAAAAACtKeeYHqzP31G6AzqZARYU0jMy8eFI8eXSHQAAAAAAAAC0tpzSvf1Ti7eU7oBOZYAFBfQMHxxKEQ+H30EAAAAAAAAAVq6aIj86UD8+UDoEOpHxB6yzXbfUe1OkZyLivNItAAAAAAAAALSNCyJVZ/snfrCjdAh0GgMsWEfbbzt8QePFxlyk6C3dAgAAAAAAAEDbuSJVX3x2aP+xLaVDoJMYYMF6GRurbjh16tGIGCydAgAAAAAAAEC7Su84dX7392JmxiYE1olfNlgntZM9346IW0p3AAAAAAAAANDeUsSHB09e/6XSHdApDLBgHfQOT9Qj0p2lOwAAAAAAAADoDDnynw1MzX+qdAd0AgMsWGO7Rg/enFN8vXQHAAAAAAAAAJ0mfWdwav7G0hXQ7gywYA3V9o1f28jp8Yiolm4BAAAAAAAAoON050hPXV1f6CsdAu3MAAvWyO69B2rRqDwTEeeXbgEAAAAAAACgY21tpDg2eGjx0tIh0K4MsGAN1G7dv6VRqR6NiN2lWwAAAAAAAADoeK+PRuOpK2ZObCodAu3IAAtW28xMJZa2PJoj3lk6BQAAAAAAAAAiInKk91zws1MPR+RUugXajQEWrLLeH/70byPyB0t3AAAAAAAAAMBL5PidwamFL5TOgHZjgAWrqDYy+ckceaJ0BwAAAAAAAAC8nBzp8/3TCx8v3QHtxAALVknP6MRIRL6vdAcAAAAAAAAAvIqUcjzQN7XwvtIh0C4MsGAV7Nw3/raU4/GI6CrdAgAAAAAAAACvYUMlxfevueu5N5YOgXZggAUrdMnNd+ysNKpzEXFh6RYAAAAAAAAAOCM5Ll5ebswPTR/bXjoFWp0BFqzArrH65u7T3U9H5MtLtwAAAAAAAADAWbpyKXc/ddX43MbSIdDKDLDg3KXGC41/jBTXlQ4BAAAAAAAAgHN0w+YN6R9KR0ArM8CCc1QbmfzrSPGR0h0AAAAAAAAAsCI5/eHg9MJnSmdAqzLAgnNQG57844h8uHQHAAAAAAAAAKyGnONLA/WF3yvdAa3IAAvO0s59478RKd9XugMAAAAAAAAAVlGKFA8OTM5fXzoEWo0BFpyF2vCBt1QalacjYkPpFgAAAAAAAABYZZtyJc321ReuKh0CrcQAC85Q7413XhypeiwiXle6BQAAAAAAAADWQorYXkkxe83kiYtKt0CrMMCCM3DFnts35a6u2Yiw8gUAAAAAAACg3b11OZ16um/miE+HgjNggAWvLS1t2vpARPxa6RAAAAAAAAAAWBcp9lRPXvjd0hnQCgyw4DX0DE/8ReT0sdIdAAAAAAAAALCecuRP9E8tHirdAc3OAAteRW344EdSis+W7gAAAAAAAACAElLkr/bX5z9UugOamQEWvIKekfoNkdJDEZFKtwAAAAAAAABAIZWUKo8MHlp8d+kQaFYGWPAydtxUf0OKxpMRsbF0CwAAAAAAAACUlTfnRj7aN/H8ZaVLoBkZYMEv2TVS31atLs9HxCWlWwAAAAAAAACgSeysVJfnhu5+/sLSIdBsDLDgFwwN7e9upMb3I9KbSrcAAAAAAAAAQJPpW3px+bE9Mye6SodAMzHAgv+Wfrx98wOR4/2lQwAAAAAAAACgSY3++8lT3y0dAc3EAAv+v96Rg59LEX9QugMAAAAAAAAAmtyf9E/NHywdAc3CAAsiond0YixH+mLpDgAAAAAAAABoBSnSNwfqCx8s3QHNwACLjrdzdOKdOcdDEZFKtwAAAAAAAABAi6hEin/qm3zumtIhUJoBFh1t5+jkFZUcxyJiS+kWAAAAAAAAAGgx51cqjeODh+d2lQ6Bkgyw6Fjb9o1vreZ8LCJ2lG4BAAAAAAAAgBZVy6crs313nDi/dAiUYoBFRxoa2t+9qVF5Ikf0l24BAAAAAAAAgBZ3bWXT0uNjY0eqpUOgBAMsOtKPt2++NyL2lu4AAAAAAAAAgPaQb/7R7q1fK10BJRhg0XFqIwcPp4hPl+4AAAAAAAAAgDYzNTC1cGfpCFhvBlh0lJ7Ryd+KSF8p3QEAAAAAAAAAberb/VOLt5SOgPVkgEXH6Bk+OJRy/l543QMAAAAAAADAWqmmyI/2H5ofLB0C68UQhY6w65Z6b4r0TEScV7oFAAAAAAAAANrcBZVGmu2f+MGO0iGwHgywaHvbbzt8QePFfDxS9JZuAQAAAAAAAIBOkCMuT9XTxwcPLXqjFNqeARbtbWysumHp549E5KtLpwAAAAAAAABAhxlqNPLDMTNjn0Jb8wKnrdVO1r4VOd1augMAAAAAAAAAOlGK+PDAC+/+cukOWEsGWLStnpHJyYg4ULoDAAAAAAAAADpaSvcMTM1/qnQGrBUDLNrSzuHJfSnyN0p3AAAAAAAAAAAREek7A/WFm0pXwFowwKLt1PaNX1tJ+UhEVEu3AAAAAAAAAAAREdEdKZ4cPLTYXzoEVpsBFm3l8pHJnmhUnomI80u3AAAAAAAAAAAvsTU38uzgocVLS4fAajLAom3Ubt2/ZSkaRyNid+kWAAAAAAAAAOBlvT4ajaeumDmxqXQIrBYDLNrDzEwllrY8miK9q3QKAAAAAAAAAPDKcqT3XHBy6XsROZVugdVggEVb6P3hT/4mIn+wdAcAAAAAAAAAcCby2MD04kzpClgNBli0vNrI5CdzxGTpDgAAAAAAAADgLOT48/7phY+XzoCVMsCipfWMToxE5PtKdwAAAAAAAAAAZy2lHA/2TS28r3QIrIQBFi1r577xt6Ucj0VEV+kWAAAAAAAAAOCcdFcinrh66vibSofAuTLAoiVdcvMdOyuN6lxEXFS6BQAAAAAAAABYkW2NqMxfOz53SekQOBcGWLScXWP1zd2nu5+OyJeXbgEAAAAAAAAAVkN6w+nuypNXjc9tLF0CZ8sAi1aTGicbD0aK60qHAAAAAAAAAACr6oZNG9JDETmVDoGzYYBFS6mNTHwlIj5augMAAAAAAAAAWH0pp48MTj33mdIdcDYMsGgZtZGDfxQRd5fuAAAAAAAAAADWTo78lwPTix8r3QFnygCLltAzPPHeiHR/6Q4AAAAAAAAAYM2lyPmB/qnFXysdAmfCAIumVxs+8JaU4mhEbCjdAgAAAAAAAACsi00R+Zm++sJVpUPgtRhg0dR6b7zz4kjVYxHxutItAAAAAAAAAMD6SRHbKymODdzzrM0ATc0Ai6bVNzazodHV9UREWLMCAAAAAAAAQGd6Syx1P903c8SnZtG0DLBoVumnL/zkwRSxp3QIAAAAAAAAAFBS/o3Kya33la6AV2KARVOqjUx+Maf4/dIdAAAAAAAAAEBT+OPB+vxdpSPg5Rhg0XRqwxO/G5E/V7oDAAAAAAAAAGgeOaWvDtbnP1K6A36ZARZNpTY68euR4uGISKVbAAAAAAAAAICmknKq/OPg1Nx1pUPgFxlg0TR23FR/Q+R4KiI2lm4BAAAAAAAAAJpR3pyj8nTfxPOXlS6B/2SARVPYNVLfVq025iLiktItAAAAAAAAAEBT21mpLs8P3f38haVDIMIAiyYwNLS/u5Ea34+IN5duAQAAAAAAAABawttOvbj8+J6ZE12lQ8AAi+L+9ZItfxc53l+6AwAAAAAAAABoHSli5N9OnrqvdAcYYFFU7+jE53LO+0t3AAAAAAAAAACtJ0V8cnB6YaJ0B53NAItiekcnxnKOL5buAAAAAAAAAABaV87xtwP1hQ+W7qBzGWBRRM/e+jtyjofCaxAAAAAAAAAAWJlKpHi0b3r+naVD6EzGL6y7naOTV6RK49mI2FK6BQAAAAAAAABoC1sqOR3tn1rcXTqEzmOAxbratm98a6WRZyNiR+kWAAAAAAAAAKCt1FLkZ/ruOHF+6RA6iwEW62ZoaH/3pkbliUgxULoFAAAAAAAAAGhL11Y2LT0+NnakWjqEzmGAxbr5P9s3fzsi9pbuAAAAAAAAAADaWb75R7su+HrpCjqHARbrojY6cVdE/GnpDgAAAAAAAACgA6RUH5hauLN0Bp3BAIs11zsy+YHI8ZXSHQAAAAAAAABAR/l2/9TiLaUjaH8GWKyp2sjk23PkxyPCZ6sCAAAAAAAAAOupmiI/2n9ofrB0CO3NAIs1s3vvgVpEfiYizivdAgAAAAAAAAB0pAtSozJ3df1Yb+kQ2pcBFmti+22HL1iudM1FxK7SLQAAAAAAAABAJ8u9jdT9zOChRW8gw5owwGL1jY1VNyz9/JGIfHXpFAAAAAAAAACAiBiK5fy9mJmxlWHVeVGx6mona9+KnG4t3QEAAAAAAAAA8J9yit8aOHndX5XuoP0YYLGqekYOTkTEgdIdAAAAAAAAAAAv4+7++sKnS0fQXgywWDU7hyf3pUjfKN0BAAAAAAAAAPBKUop7B+oLN5XuoH0YYLEqdo7U+yop/3NEdJVuAQAAAAAAAAB4Fd2R4snBQ4v9pUNoDwZYrNjlI5M9lWjMR8SFpVsAAAAAAAAAAM7A1tzIxwYPLV5aOoTWZ4DFiuwaq29eisbRiNhdugUAAAAAAAAA4CxckRv52aH9x7aUDqG1GWBx7mZmKo2TjUdTpHeVTgEAAAAAAAAAOAfvXDp/w0MROZUOoXUZYHHOen74H1+PiN8s3QEAAAAAAAAAcO7y2MDU4hdLV9C6DLA4J7XRiU+kSFOlOwAAAAAAAAAAVsHnBqcW/qB0BK3JAIuzVts7Phw57i/dAQAAAAAAAACwSlKOeGDw0OL7S4fQegywOCs7942/LSqVxyOiq3QLAAAAAAAAAMAq6s6N/P2rp46/qXQIrcUAizNWu3V6e6VRmY2Ii0q3AAAAAAAAAACsgW2NqMxfOz53SekQWocBFmdk11h9cyydno2IK0u3AAAAAAAAAACsnfSG092VJ68an9tYuoTWYIDFmUiNk40HI+L60iEAAAAAAAAAAOvghk0b0kMROZUOofkZYPGaaqMTfxURHy3dAQAAAAAAAACwXlJOHxmoL3y2dAfNzwCLV9U7Onl75LindAcAAAAAAAAAwLpL6S/6p+Z/v3QGzc0Ai1fUMzzx3pzz/aU7AAAAAAAAAAAKSSnS/+ifWvy10iE0LwMsXlZtdOLNKcXRiNhYugUAAAAAAAAAoKBNKeXZvvrCVaVDaE4GWPyK3hvvvDhyHIuI15VuAQAAAAAAAAAoLsfFlRTHBu551paCX2GAxUv0jc1saHR1PRERbyzdAgAAAAAAAADQRN4SS91P980c2VA6hOZigMUvSj89+dMHUsSe0iEAAAAAAAAAAM0n/0blZ1vvL11BczHA4r/URie/kCN/vHQHAAAAAAAAAEDTyvFHA9MLh0tn0DwMsIiIiNrwxO9Gzp8v3QEAAAAAAAAA0PRy/PXg9PxHS2fQHAywiNroxK9HiocjIpVuAQAAAAAAAABoASnnyoODU3PXlQ6hPAOsDrdj+MDrI8eTEbGxdAsAAAAAAAAAQOvIm3NUnn7r9PHLS5dQlgFWB9s1Ut9WTdX5iLi0dAsAAAAAAAAAQAva2ZWrc9dMnriodAjlGGB1qKGh/d2NaByJiDeXbgEAAAAAAAAAaGFvO1059diemRNdpUMowwCrQ/3rJVv+LiJuLN0BAAAAAAAAANDqUsTIv508dV/pDsowwOpAPSMTn8k57y/dAQAAAAAAAADQLlLEJwenFiZLd7D+DLA6TO/w5G+niL8s3QEAAAAAAAAA0G5yxN8M1Bc+WLolX4VPAAAgAElEQVSD9WWA1UF69tbfkVN+OPy7AwAAAAAAAACshUqkePTq+sK7SoewfgxxOsTO0ckrUqXxbERsKd0CAAAAAAAAANDGtjRSHO2fWtxdOoT1YYDVAbbtG99aaeTZiNhRugUAAAAAAAAAoAP0VFKe7bvjxPmlQ1h7Bljtbs9M16ZG5YlIMVA6BQAAAAAAAACgU+Qc11Q2njoyNnakWrqFtWWA1eZqG37y7YjYW7oDAAAAAAAAAKDjpNj3o91bv1E6g7VlgNXGasMHD0WKO0p3AAAAAAAAAAB0sMmB+sKB0hGsHQOsNtU7MvmBSOmvS3cAAAAAAAAAAHS8FN8arC/eWjqDtWGA1YZqI5Nvz5EfjwifIQoAAAAAAAAAUF41p/xI39TC1aVDWH0GWG1m994DtYj8TEScV7oFAAAAAAAAAID/ckEl0vHBw3O7Soewugyw2sgle+44f7nSNRcRflEBAAAAAAAAAJpO7s2nK88MHlr0xjptxACrXYyNVbs3dj8Skb1VHQAAAAAAAABA83p7NPJjY2NHqqVDWB0GWG2i9rPeb0bEbaU7AAAAAAAAAAB4dTnilh/t3vpXpTtYHQZYbaBn+OD+yHm8dAcAAAAAAAAAAGfs8ODU4p+WjmDlDLBaXM/IwdGU0t+X7gAAAAAAAAAA4OzkyN/un17cW7qDlTHAamE7R+p9KdJjEdFVugUAAAAAAAAAgLPWnXJ+YqB+fKB0COfOAKtFXT4y2VOJxlxEXFi6BQAAAAAAAACAc7Y1UnW2f+IHO0qHcG4MsFrQrrH65hcjPx0Rl5VuAQAAAAAAAABgxa5I1RefHdp/bEvpEM6eAVarmZmpNF5oPBIR7y6dAgAAAAAAAADAaknvWDp/w0MxM2PP02L8g7WY2g9/8rVI8aHSHQAAAAAAAAAArLY8NvCz679YuoKzY4DVQmqjE5+IiOnSHQAAAAAAAAAArJGcPzcwvbi/dAZnzgCrRewandwTOb5bugMAAAAAAAAAgDWW898NHlp8f+kMzowBVgvouWnyrY2cn46IDaVbAAAAAAAAAABYc925kb8/ODH/5tIhvDYDrCZXu3V6e6rm2Yi4qHQLAAAAAAAAAADrZluuxty143OXlA7h1RlgNbEr9ty+KZZOz0bEVaVbAAAAAAAAAABYb+kNL3ZXnrpqfG5j6RJemQFW80pLGy98MCKuLx0CAAAAAAAAAEAZKeLXt3RXHo7IqXQLL88Aq0n1jkx8KSJ+r3QHAAAAAAAAAABl5YjfHagv/nnpDl6eAVYT6h2dvD1HfKZ0BwAAAAAAAAAATSLFTP/U/O+XzuBXGWA1mZ6R+g055/tLdwAAAAAAAAAA0FRSivRg/6H5PaVDeCkDrCaye9/4lSkaT0XExtItAAAAAAAAAAA0nQ0ppyeuueu5N5YO4b8ZYDWJ3hvvvHi5UZmPiO2lWwAAAAAAAAAAaFI5Ll5ebswO3PPs60qn8P8YYDWBvrGZDbmr6/sRYZ0IAAAAAAAAAMBreUssdR3tmzmyoXQIBljNIP305E8fiIj3lQ4BAAAAAAAAAKBlvLfys633l47AAKu42vDBz+fIHy/dAQAAAAAAAABAi8nxRwPTi/eUzuh0BlgF9Y4c/J1I6QulOwAAAAAAAAAAaFE5/9Xg9PxHS2d0MgOsQmp7J9+TIz0cEal0CwAAAAAAAAAALSvlnP5xcGruutIhncoAq4AdwwdeH5X8VERsKt0CAAAAAAAAAEDL29SIyrH+u+auLB3SiQyw1tm2feNbu1J1NiIuLd0CAAAAAAAAAEB7SBHb03Jl9prJExeVbuk0BljraGhof/emRuWpHNFfugUAAAAAAAAAgLbzttOVU4/tmTnRVTqkkxhgraMfX7z5OxFxY+kOAAAAAAAAAADaU4oY+Y+TS/eX7ugkBljrpGd08s9Sik+V7gAAAAAAAAAAoL3lyJ8YmJqfKt3RKQyw1kHPyMSHU85fKt0BAAAAAAAAAECnSF8fmF78zdIVncAAa431DB8cShHfCz9rAAAAAAAAAADWTyVyPHp1feFdpUPanVHQGuq5+c7LU0rHI2JL6RYAAAAAAAAAADpN3txIcbR/anF36ZJ2ZoC1RrbfdviCtNw1GxE7SrcAAAAAAAAAANCxelLk+aG7n7+wdEi7MsBaC2Nj1Q2nTj0aEYOlUwAAAAAAAAAA6Hh9S0vL/7xn5kRX6ZB2ZIC1Bmov1O6NiFtKdwAAAAAAAAAAQEREpNj3by+c+kbpjHZkgLXKekcmpiPFHaU7AAAAAAAAAADgF6UUEwP1hQOlO9qNAdYq6h2Z/ECO+GrpDgAAAAAAAAAAeFkpvjU4NX9b6Yx2YoC1Smr7xq/NkR+PiGrpFgAAAAAAAAAAeAXVHOmf+qYWri4d0i4MsFbB7r0HatGozEbEeaVbAAAAAAAAAADgNVxQiZgbPDy3q3RIOzDAWqFL9txx/nKlejwivCABAAAAAAAAAGgVtXy68szgoUVvOLRCBlgrMTNT6d644Z8i4prSKQAAAAAAAAAAcJbenpfz42NjR6qlQ1qZAdYK1P7nT74ZkT9YugMAAAAAAAAAAM5Jig/8r8su/ErpjFZmgHWOekYm/iRSHCzdAQAAAAAAAAAAK5FyvmtwavFPS3e0KgOsc9AzcnA0RXy3dAcAAAAAAAAAAKyGHPne/unFvaU7WpEB1lnaOVLvS5Eei4iu0i0AAAAAAAAAALBKulLOTwzUjw+UDmk1Blhn4ZKb79hZicZcRFxYugUAAAAAAAAAAFbZ1kjV2f6JH+woHdJKDLDO0K6x+ubu5e6jEXFZ6RYAAAAAAAAAAFgjV6Tqi88O7T+2pXRIqzDAOhMzM5XGC41HIuLdpVMAAAAAAAAAAGBtpXcsndf1cMzM2BadAT+kM1D7l59+NVJ8qHQHAAAAAAAAAACsi5R+u//kdX9ROqMVGGC9htrw5B9HzodKdwAAAAAAAAAAwHpKEZ8dmF7cX7qj2RlgvYpdo5N7IuX7SncAAAAAAAAAAEAROf/d4NT8jaUzmpkB1ivouWnyrY2cn46IDaVbAAAAAAAAAACgkO4c6cjgxPybS4c0KwOsl1G7dXp7qubZiLiodAsAAAAAAAAAABS2LVfT/OChxUtLhzQjA6xfcsWe2zfF0unZiLiqdAsAAAAAAAAAADSJ1zca+cmrxuc2lg5pNgZYL5WWNm19ICKuLx0CAAAAAAAAAADNJEX8+pbuysMROZVuaSYGWL+gZ+TgX0ZOHyvdAQAAAAAAAAAAzShH/G7/1HOfL93RTAyw/r/e4YN/mCJ9tnQHAAAAAAAAAAA0sxT5C/3TCx8v3dEsDLAiomekfkNO6R9KdwAAAAAAAAAAQAtIKccD/Yfm95QOaQYdP8DavW/8yhSNJyNiY+kWAAAAAAAAAABoERtSTk9cc9dzbywdUlpHD7B2jdS3LTfSXERcUroFAAAAAAAAAABaSo6LlxuNYwP3PPu60ikldewAa2hof3cjGk9EpDeVbgEAAAAAAAAAgJaU482x1HX0qvG5jv30uU4dYKV/3b7lwYh4X+kQAAAAAAAAAABoce/d3F25v3REKR05wKqNTPx5jvzx0h0AAAAAAAAAANAmbu+fmv+z0hEldNwAq3d0YiwiZkp3AAAAAAAAAABAO0mRvjxQX/i90h3rraMGWDtHJ96ZczwUEal0CwAAAAAAAAAAtJkUKR4cmJy/vnTIeuqYAdaO4QOvr+R4NiK2lG4BAAAAAAAAAIA2tSlX0mz/XXNXlg5ZLx0xwNq2b3xrV6rORsSlpVsAAAAAAAAAAKCdpYjtably7JrJExeVblkPbT/AGhra372pkZ7MEf2lWwAAAAAAAAAAoEO8dbny88f3zJzoKh2y1tp+gPXj7ZvvjUg3le4AAAAAAAAAAIDOkob/4+TS/aUr1lpbD7BqwxP3pIhPl+4AAAAAAAAAAIBOlCN/or++MF26Yy217QCrZ2Tiw5Hiy6U7AAAAAAAAAACgk6UUX+uvz3+odMdaacsBVs/wwaEU8XC06d8PAAAAAAAAAABaSCWlyiNX1xfeVTpkLbTdQGnXLfXeFOmZiDivdAsAAAAAAAAAABARkTc3Uhztm3j+stIlq62tBljbbzt8QePFxlyk6C3dAgAAAAAAAAAAvERPpbo8N3T38xeWDllN7TPAGhurbjh16tGIGCydAgAAAAAAAAAAvKy+pReXH9szc6KrdMhqaZsBVu1kz7cj4pbSHQAAAAAAAAAAwKsa/fcXfv73pSNWS1sMsHqHJ+oR6c7SHQAAAAAAAAAAwBlIaX//9OJ46YzV0PIDrF2jB2/OKb5eugMAAAAAAAAAADhzKedvDk7N31a6Y6VaeoBV2zd+bSOnxyOiWroFAAAAAAAAAAA4K9Uc6ZG+qYWrS4esRMsOsHbvPVCLRuWZiDi/dAsAAAAAAAAAAHBOzq9EzA0enttVOuRcteQAq3br/i2NSvVoROwu3QIAAAAAAAAAAKxILZ+uPDN4aPG80iHnovUGWDMzlVja8miOeGfpFAAAAAAAAAAAYFW8PS/nx8fGjlRLh5ytlhtg9f7wp38bkT9YugMAAAAAAAAAAFhFKT7wvy/b+tXSGWerpQZYtZHJT+bIE6U7AAAAAAAAAACA1ZdzTA/W5+8o3XE2WmaA1TM6MRKR7yvdAQAAAAAAAAAArJ2c0r39U4u3lO44Uy0xwNq5b/xtKcfjEdFVugUAAAAAAAAAAFhT1RT50YH68YHSIWei6QdYl9x8x85KozoXEReWbgEAAAAAAAAAANbFBZGqs/0TP9hROuS1NPUAa9dYfXP36e6nI/LlpVsAAAAAAAAAAIB1dUWqvvjs0P5jW0qHvJpmHmClxguNf4wU15UOAQAAAAAAAAAASkjvWDqv6+GYmWnanVPThtVGJv86UnykdAcAAAAAAAAAAFBQSr89ePL6L5XOeCVNOcCqDU/+cUQ+XLoDAAAAAAAAAAAoL0f+s4Gp+U+V7ng5TTfA2rlv/Dci5ftKdwAAAAAAAAAAAM0kfWdwav7G0hW/rKkGWLXhA2+pNCpPR8SG0i0AAAAAAAAAAEBT6c6Rnrq6vtBXOuQXNc0Aq/fGOy+OVD0WEa8r3QIAAAAAAAAAADSlrY0UxwYPLV5aOuQ/NcUA64o9t2/KXV2zEXFV6RYAAAAAAAAAAKCpvT4ajaeuGp/bWDokojkGWGlp09YHIuLXSocAAAAAAAAAAADNL0d6z+YNle9F5FS6pfgAq2d44i8ip4+V7gAAAAAAAAAAAFpIjt8ZnFr4QumMogOs2vDBj6QUny3ZAAAAAAAAAAAAtKYc6fP90wsfL9lQbIDVM1K/IVJ6KCKKvw0YAAAAAAAAAADQklLK8UDf1ML7SgUUGWDtuKn+hhSNJyNiY4n7AQAAAAAAAACAtrGhkuL719z13BtLXL7uA6xdI/Vt1eryfERcst53AwAAAAAAAAAAbSjHxcvLjfmh6WPb1/vqdR1gDQ3t726kxvcj0pvW814AAAAAAAAAAKDtXbmUu5+6anxuXT+Vbz0HWOnH2zc/EDnev453AgAAAAAAAAAAneOGzd2V+9fzwnUbYPWOHPxciviD9boPAAAAAAAAAADoSLcPTi98Zr0uW5cBVu/oxFiO9MX1uAsAAAAAAAAAAOhsOceXBuoLv7ced635AGvn6MQ7c46HIiKt9V0AAAAAAAAAAAARkSLFgwOT89ev9UVrOsDaOTp5RSXHsYjYspb3AAAAAAAAAAAA/JJNuZJm++oLV63lJWs2wNq2b3xrNedjEbFjre4AAAAAAAAAAAB4JSlieyXF7DWTJy5aqzvWZIA1NLS/e1Oj8kSO6F+L8wEAAAAAAAAAAM7QW5fTqaf7Zo5sWIvD12SA9ePtm++NiL1rcTYAAAAAAAAAAMBZSbGnevLC767F0as+wKqNHDycIj692ucCAAAAAAAAAACcqxz5E/1Ti4dW+9xVHWD1jE7+VkT6ymqeCQAAAAAAAAAAsBpS5K/21+c/tJpnrtoAq2f44FDK+XureSYAAAAAAAAAAMAqqqRUeWTw0OK7V+3A1Thk1y313hTpmYg4bzXOAwAAAAAAAAAAWBt5c27ko30Tz1+2GqeteIC1/bbDFzRezMcjRe9qBAEAAAAAAAAAAKyxnZXq8tzQ3c9fuNKDVjbAGhurblj6+SMR+eqVhgAAAAAAAAAAAKyjvqUXlx/bM3OiayWHrGiAVTtZ+1bkdOtKzgAAAAAAAAAAAChk9N9PnvruSg445wFWz8jkZEQcWMnlAAAAAAAAAAAAhf1J/9T8wXN98jkNsHYOT+5Lkb9xrpcCAAAAAAAAAAA0ixTpmwP1hQ+ey3PPeoDVu3fymkrKRyKiei4XAgAAAAAAAAAANJlKpPinvsnnrjn7J56Fy0cme3Ilz0bE+Wd7EQAAAAAAAAAAQBM7v1JpHB88PLfrbJ50xgOsXWP1zUvROBoRu886DQAAAAAAAAAAoPnV8unKbN8dJ874DarObIA1M1NpnGw8miK965zTAAAAAAAAAAAAmt+1lU1Lj4+NHameyYPPaIDV8y8/+UZE/OaKsgAAAAAAAAAAAFpCvvlHu7d+7Uwe+ZoDrNrI5CdTjvrKowAAAAAAAAAAAFrG1GB9/o7XetCrDrB6RidGIvJ9q9cEAAAAAAAAAADQGnJK9/ZPLd7yao95xQHWzn3jb0s5HouIrlUvAwAAAAAAAAAAaH7VFPnR/kPzg6/0gJcdYNVund5eaVRmI+KiNUsDAAAAAAAAAABofhdUGmm2f+IHO17um78ywNo1Vt8cp04fi4gr1zwNAAAAAAAAAACgyeWIy1P19PHBQ4vn/fL3fnmAlRonGw9GiuvWqQ0AAAAAAAAAAKAVDDUa+eGYmXnJ5uolX9RGJr4SER9d1ywAAAAAAAAAAIAWkCI+PPDCu7/8i3/2XwOs2sjBP4qIu9e9CgAAAAAAAAAAoFWkdM/A1Pyn/vPLSkREz/DEeyPS/eWqAAAAAAAAAAAAWkX6zkB94aaIiEpt+MBbUoqjEbGhcBUAAAAAAAAAAEAr6I4UTw4eWuyvRKp+MyJeV7oIAAAAAAAAAACghWzNjfz1SkRsLF0CAAAAAAAAAADQalLExkrpCOD/smvHNAAAAAyD/Lueh35LQAcAAAAAAAAAALwSsAAAAAAAAAAAACIBCwAAAAAAAAAAIBKwAAAAAAAAAAAAIgELAAAAAAAAAAAgErAAAAAAAAAAAAAiAQsAAAAAAAAAACASsAAAAAAAAAAAACIBCwAAAAAAAAAAIBKwAAAAAAAAAAAAIgELAAAAAAAAAAAgErAAAAAAAAAAAAAiAQsAAAAAAAAAACASsAAAAAAAAAAAACIBCwAAAAAAAAAAIBKwAAAAAAAAAAAAIgELAAAAAAAAAAAgErAAAAAAAAAAAAAiAQsAAAAAAAAAACASsAAAAAAAAAAAACIBCwAAAAAAAAAAIBKwAAAAAAAAAAAAIgELAAAAAAAAAAAgErAAAAAAAAAAAAAiAQsAAAAAAAAAACASsAAAAAAAAAAAACIBCwAAAAAAAAAAIBKwAAAAAAAAAAAAIgELAAAAAAAAAAAgErAAAAAAAAAAAAAiAQsAAAAAAAAAACASsAAAAAAAAAAAACIBCwAAAAAAAAAAIBKwAAAAAAAAAAAAIgELAAAAAAAAAAAgErAAAAAAAAAAAAAiAQsAAAAAAAAAACASsAAAAAAAAAAAACIBCwAAAAAAAAAAIBKwAAAAAAAAAAAAIgELAAAAAAAAAAAgErAAAAAAAAAAAAAiAQsAAAAAAAAAACASsAAAAAAAAAAAACIBCwAAAAAAAAAAIBKwAAAAAAAAAAAAIgELAAAAAAAAAAAgErAAAAAAAAAAAAAiAQsAAAAAAAAAACASsAAAAAAAAAAAACIBCwAAAAAAAAAAIBKwAAAAAAAAAAAAIgELAAAAAAAAAAAgErAAAAAAAAAAAAAiAQsAAAAAAAAAACASsAAAAAAAAAAAACIBCwAAAAAAAAAAIBKwAAAAAAAAAAAAIgELAAAAAAAAAAAgErAAAAAAAAAAAAAiAQsAAAAAAAAAACASsAAAAAAAAAAAACIBCwAAAAAAAAAAIBKwAAAAAAAAAAAAIgELAAAAAAAAAAAgErAAAAAAAAAAAAAiAQsAAAAAAAAAACASsAAAAAAAAAAAACIBCwAAAAAAAAAAIBKwAAAAAAAAAAAAIgELAAAAAAAAAAAgErAAAAAAAAAAAAAiAQsAAAAAAAAAACASsAAAAAAAAAAAACIBCwAAAAAAAAAAIBKwAAAAAAAAAAAAIgELAAAAAAAAAAAgErAAAAAAAAAAAAAiAQsAAAAAAAAAACASsAAAAAAAAAAAACIBCwAAAAAAAAAAIBKwAAAAAAAAAAAAIgELAAAAAAAAAAAgErAAAAAAAAAAAAAiAQsAAAAAAAAAACASsAAAAAAAAAAAACIBCwAAAAAAAAAAIBKwAAAAAAAAAAAAIgELAAAAAAAAAAAgErAAAAAAAAAAAAAiAQsAAAAAAAAAACASsAAAAAAAAAAAACIBCwAAAAAAAAAAIBKwAAAAAAAAAAAAIgELAAAAAAAAAAAgErAAAAAAAAAAAAAiAQsAAAAAAAAAACASsAAAAAAAAAAAACIBCwAAAAAAAAAAIBKwAAAAAAAAAAAAIgELAAAAAAAAAAAgErAAAAAAAAAAAAAiAQsAAAAAAAAAACASsAAAAAAAAAAAACIBCwAAAAAAAAAAIBKwAAAAAAAAAAAAIgELAAAAAAAAAAAgErAAAAAAAAAAAAAiAQsAAAAAAAAAACASsAAAAAAAAAAAACIBCwAAAAAAAAAAIBKwAAAAAAAAAAAAIgELAAAAAAAAAAAgErAAAAAAAAAAAAAiAQsAAAAAAAAAACASsAAAAAAAAAAAACIBCwAAAAAAAAAAIBKwAAAAAAAAAAAAIgELAAAAAAAAAAAgErAAAAAAAAAAAAAiAQsAAAAAAAAAACASsAAAAAAAAAAAACIBCwAAAAAAAAAAIBKwAAAAAAAAAAAAIgELAAAAAAAAAAAgErAAAAAAAAAAAAAiAQsAAAAAAAAAACASsAAAAAAAAAAAACIBCwAAAAAAAAAAIBKwAAAAAAAAAAAAIgELAAAAAAAAAAAgErAAAAAAAAAAAAAiAQsAAAAAAAAAACASsAAAAAAAAAAAACIBCwAAAAAAAAAAIBKwAAAAAAAAAAAAIgELAAAAAAAAAAAgErAAAAAAAAAAAAAiAQsAAAAAAAAAACASsAAAAAAAAAAAACIBCwAAAAAAAAAAIBKwAAAAAAAAAAAAIgELAAAAAAAAAAAgErAAAAAAAAAAAAAiAQsAAAAAAAAAACASsAAAAAAAAAAAACIBCwAAAAAAAAAAIBKwAAAAAAAAAAAAIgELAAAAAAAAAAAgErAAAAAAAAAAAAAiAQsAAAAAAAAAACASsAAAAAAAAAAAACIBCwAAAAAAAAAAIBKwAAAAAAAAAAAAIgELAAAAAAAAAAAgErAAAAAAAAAAAAAiAQsAAAAAAAAAACASsAAAAAAAAAAAACIBCwAAAAAAAAAAIBKwAAAAAAAAAAAAIgELAAAAAAAAAAAgErAAAAAAAAAAAAAiAQsAAAAAAAAAACASsAAAAAAAAAAAACIBCwAAAAAAAAAAIBKwAAAAAAAAAAAAIgELAAAAAAAAAAAgErAAAAAAAAAAAAAiAQsAAAAAAAAAACASsAAAAAAAAAAAACIBCwAAAAAAAAAAIBKwAAAAAAAAAAAAIgELAAAAAAAAAAAgErAAAAAAAAAAAAAiAQsAAAAAAAAAACASsAAAAAAAAAAAACIBCwAAAAAAAAAAIBKwAAAAAAAAAAAAIgELAAAAAAAAAAAgErAAAAAAAAAAAAAiAQsAAAAAAAAAACASsAAAAAAAAAAAACIBCwAAAAAAAAAAIBKwAAAAAAAAAAAAIgELAAAAAAAAAAAgErAAAAAAAAAAAAAiAQsAAAAAAAAAACASsAAAAAAAAAAAACIBCwAAAAAAAAAAIBKwAAAAAAAAAAAAIgELAAAAAAAAAAAgErAAAAAAAAAAAAAiAQsAAAAAAAAAACASsAAAAAAAAAAAACIBCwAAAAAAAAAAIBKwAAAAAAAAAAAAIgELAAAAAAAAAAAgErAAAAAAAAAAAAAiAQsAAAAAAAAAACASsAAAAAAAAAAAACIBCwAAAAAAAAAAIBKwAAAAAAAAAAAAIgELAAAAAAAAAAAgErAAAAAAAAAAAAAiAQsAAAAAAAAAACASsAAAAAAAAAAAACIBCwAAAAAAAAAAIBKwAAAAAAAAAAAAIgELAAAAAAAAAAAgErAAAAAAAAAAAAAiAQsAAAAAAAAAACASsAAAAAAAAAAAACIBCwAAAAAAAAAAIBKwAAAAAAAAAAAAIgELAAAAAAAAAAAgErAAAAAAAAAAAAAiAQsAAAAAAAAAACASsAAAAAAAAAAAACIBCwAAAAAAAAAAIBKwAAAAAAAAAAAAIgELAAAAAAAAAAAgErAAAAAAAAAAAAAiAQsAAAAAAAAAACASsAAAAAAAAAAAACIBCwAAAAAAAAAAIBKwAAAAAAAAAAAAIgELAAAAAAAAAAAgErAAAAAAAAAAAAAiAQsAAAAAAAAAACASsAAAAAAAAAAAACIBCwAAAAAAAAAAIBKwAAAAAAAAAAAAIgELAAAAAAAAAAAgErAAAAAAAAAAAAAiAQsAAAAAAAAAACASsAAAAAAAAAAAACIBCwAAAAAAAAAAIBKwAAAAAAAAAAAAIgELAAAAAAAAAAAgErAAAAAAAAAAAAAiAQsAAAAAAAAAACASsAAAAAAAAAAAACIBCwAAAAAAAAAAIBKwAAAAAAAAAAAAIgELAAAAAAAAAAAgErAAAAAAAAAAAAAiAQsAAAAAAAAAACASsAAAAAAAAN7fgAsAACAASURBVAAAACIBCwAAAAAAAAAAIBKwAAAAAAAAAAAAIgELAAAAAAAAAAAgErAAAAAAAAAAAAAiAQsAAAAAAAAAACASsAAAAAAAAAAAACIBCwAAAAAAAAAAIBKwAAAAAAAAAAAAIgELAAAAAAAAAAAgErAAAAAAAAAAAAAiAQsAAAAAAAAAACASsAAAAAAAAAAAACIBCwAAAAAAAAAAIBKwAAAAAAAAAAAAIgELAAAAAAAAAAAgErAAAAAAAAAAAAAiAQsAAAAAAAAAACASsAAAAAAAAAAAACIBCwAAAAAAAAAAIBKwAAAAAAAAAAAAIgELAAAAAAAAAAAgErAAAAAAAAAAAAAiAQsAAAAAAAAAACASsAAAAAAAAAAAACIBCwAAAAAAAAAAIBKwAAAAAAAAAAAAIgELAAAAAAAAAAAgErAAAAAAAAAAAAAiAQsAAAAAAAAAACASsAAAAAAAAAAAACIBCwAAAAAAAAAAIBKwAAAAAAAAAAAAIgELAAAAAAAAAAAgErAAAAAAAAAAAAAiAQsAAAAAAAAAACASsAAAAAAAAAAAACIBCwAAAAAAAAAAIBKwAAAAAAAAAAAAIgELAAAAAAAAAAAgErAAAAAAAAAAAAAiAQsAAAAAAAAAACASsAAAAAAAAAAAACIBCwAAAAAAAAAAIBKwAAAAAAAAAAAAIgELAAAAAAAAAAAgErAAAAAAAAAAAAAiAQsAAAAAAAAAACASsAAAAAAAAAAAACIBCwAAAAAAAAAAIBKwAAAAAAAAAAAAIgELAAAAAAAAAAAgErAAAAAAAAAAAAAiAQsAAAAAAAAAACASsAAAAAAAAAAAACIBCwAAAAAAAAAAIBKwAAAAAAAAAAAAIgELAAAAAAAAAAAgErAAAAAAAAAAAAAiAQsAAAAAAAAAACASsAAAAAAAAAAAACIBCwAAAAAAAAAAIBKwAAAAAAAAAAAAIgELAAAAAAAAAAAgErAAAAAAAAAAAAAiAQsAAAAAAAAAACASsAAAAAAAAAAAACIBCwAAAAAAAAAAIBKwAAAAAAAAAAAAIgELAAAAAAAAAAAgErAAAAAAAAAAAAAiAQsAAAAAAAAAACASsAAAAAAAAAAAACIBCwAAAAAAAAAAIBKwAAAAAAAAAAAAIgELAAAAAAAAAAAgErAAAAAAAAAAAAAiAQsAAAAAAAAAACASsAAAAAAAAAAAACIBCwAAAAAAAAAAIBKwAAAAAAAAAAAAIgELAAAAAAAAAAAgErAAAAAAAAAAAAAiAQsAAAAAAAAAACASsAAAAAAAAAAAACIBCwAAAAAAAAAAIBKwAAAAAAAAAAAAIgELAAAAAAAAAAAgErAAAAAAAAAAAAAiAQsAAAAAAAAAACASsAAAAAAAAAAAACIBCwAAAAAAAAAAIBKwAAAAAAAAAAAAIgELAAAAAAAAAAAgErAAAAAAAAAAAAAiAQsAAAAAAAAAACASsAAAAAAAAAAAACIBCwAAAAAAAAAAIBKwAAAAAAAAAAAAIgELAAAAAAAAAAAgErAAAAAAAAAAAAAiAQsAAAAAAAAAACASsAAAAAAAAAAAACIBCwAAAAAAAAAAIBKwAAAAAAAAAAAAIgELAAAAAAAAAAAgErAAAAAAAAAAAAAiAQsAAAAAAAAAACASsAAAAAAAAAAAACIBCwAAAAAAAAAAIBKwAAAAAAAAAAAAIgELAAAAAAAAAAAgErAAAAAAAAAAAAAiAQsAAAAAAAAAACASsAAAAAAAAAAAACIBCwAAAAAAAAAAIBKwAAAAAAAAAAAAIgELAAAAAAAAAAAgErAAAAAAAAAAAAAiAQsAAAAAAAAAACASsAAAAAAAAAAAACIBCwAAAAAAAAAAIBKwAAAAAAAAAAAAIgELAAAAAAAAAAAgErAAAAAAAAAAAAAiAQsAAAAAAAAAACASsAAAAAAAAAAAACIBCwAAAAAAAAAAIBKwAAAAAAAAAAAAIgELAAAAAAAAAAAgErAAAAAAAAAAAAAiAQsAAAAAAAAAACASsAAAAAAAAAAAACIBCwAAAAAAAAAAIBKwAAAAAAAAAAAAIgELAAAAAAAAAAAgErAAAAAAAAAAAAAiAQsAAAAAAAAAACASsAAAAAAAAAAAACIBCwAAAAAAAAAAIBKwAAAAAAAAAAAAIgELAAAAAAAAAAAgErAAAAAAAAAAAAAiAQsAAAAAAAAAACASsAAAAAAAAAAAACIBCwAAAAAAAAAAIBKwAAAAAAAAAAAAIgELAAAAAAAAAAAgErAAAAAAAAAAAAAiAQsAAAAAAAAAACASsAAAAAAAAAAAACIBCwAAAAAAAAAAIBKwAAAAAAAAAAAAIgELAAAAAAAAAAAgErAAAAAAAAAAAAAiAQsAAAAAAAAAACASsAAAAAAAAAAAACIBCwAAAAAAAAAAIBKwAAAAAAAAAAAAIgELAAAAAAAAAAAgErAAAAAAAAAAAAAiAQsAAAAAAAAAACASsAAAAAAAAAAAACIBCwAAAAAAAAAAIBKwAAAAAAAAAAAAIgELAAAAAAAAAAAgErAAAAAAAAAAAAAiAQsAAAAAAAAAACASsAAAAAAAAAAAACIBCwAAAAAAAAAAIBKwAAAAAAAAAAAAIgELAAAAAAAAAAAgErAAAAAAAAAAAAAiAQsAAAAAAAAAACASsAAAAAAAAAAAACIBCwAAAAAAAAAAIBKwAAAAAAAAAAAAIgELAAAAAAAAAAAgErAAAAAAAAAAAAAiAQsAAAAAAAAAACASsAAAAAAAAAAAACIBCwAAAAAAAAAAIBKwAAAAAAAAAAAAIgELAAAAAAAAAAAgErAAAMauHQsAAAAADPK3nsPu4ggAAAAAAABgErAAAAAAAAAAAAAmAQsAAAAAAAAAAGASsAAAAAAAAAAAACYBCwAAAAAAAAAAYBKwAAAAAAAAAAAAJgELAAAAAAAAAABgErAAAAAAAAAAAAAmAQsAAAAAAAAAAGASsAAAAAAAAAAAACYBCwAAAAAAAAAAYBKwAAAAAAAAAAAAJgELAAAAAAAAAABgErAAAAAAAAAAAAAmAQsAAAAAAAAAAGASsAAAAAAAAAAAACYBCwAAAAAAAAAAYBKwAAAAAAAAAAAAJgELAAAAAAAAAABgErAAAAAAAAAAAAAmAQsAAAAAAAAAAGASsAAAAAAAAAAAACYBCwAAAAAAAAAAYBKwAAAAAAAAAAAAJgELAAAAAAAAAABgErAAAAAAAAAAAAAmAQsAAAAAAAAAAGASsAAAAAAAAAAAACYBCwAAAAAAAAAAYBKwAAAAAAAAAAAAJgELAAAAAAAAAABgErAAAAAAAAAAAAAmAQsAAAAAAAAAAGASsAAAAAAAAAAAACYBCwAAAAAAAAAAYBKwAAAAAAAAAAAAJgELAAAAAAAAAABgErAAAAAAAAAAAAAmAQsAAAAAAAAAAGASsAAAAAAAAAAAACYBCwAAAAAAAAAAYBKwAAAAAAAAAAAAJgELAAAAAAAAAABgErAAAAAAAAAAAAAmAQsAAAAAAAAAAGASsAAAAAAAAAAAACYBCwAAAAAAAAAAYBKwAAAAAAAAAAAAJgELAAAAAAAAAABgErAAAAAAAAAAAAAmAQsAAAAAAAAAAGASsAAAAAAAAAAAACYBCwAAAAAAAAAAYBKwAAAAAAAAAAAAJgELAAAAAAAAAABgErAAAAAAAAAAAAAmAQsAAAAAAAAAAGASsAAAAAAAAAAAACYBCwAAAAAAAAAAYBKwAAAAAAAAAAAAJgELAAAAAAAAAABgErAAAAAAAAAAAAAmAQsAAAAAAAAAAGASsAAAAAAAAAAAACYBCwAAAAAAAAAAYBKwAAAAAAAAAAAAJgELAAAAAAAAAABgErAAAAAAAAAAAAAmAQsAAAAAAAAAAGASsAAAAAAAAAAAACYBCwAAAAAAAAAAYBKwAAAAAAAAAAAAJgELAAAAAAAAAABgErAAAAAAAAAAAAAmAQsAAAAAAAAAAGASsAAAAAAAAAAAACYBCwAAAAAAAAAAYBKwAAAAAAAAAAAAJgELAAAAAAAAAABgErAAAAAAAAAAAAAmAQsAAAAAAAAAAGASsAAAAAAAAAAAACYBCwAAAAAAAAAAYBKwAAAAAAAAAAAAJgELAAAAAAAAAABgErAAAAAAAAAAAAAmAQsAAAAAAAAAAGASsAAAAAAAAAAAACYBCwAAAAAAAAAAYBKwAAAAAAAAAAAAJgELAAAAAAAAAABgErAAAAAAAAAAAAAmAQsAAAAAAAAAAGASsAAAAAAAAAAAACYBCwAAAAAAAAAAYBKwAAAAAAAAAAAAJgELAAAAAAAAAABgErAAAAAAAAAAAAAmAQsAAAAAAAAAAGASsAAAAAAAAAAAACYBCwAAAAAAAAAAYBKwAAAAAAAAAAAAJgELAAAAAAAAAABgErAAAAAAAAAAAAAmAQsAAAAAAAAAAGASsAAAAAAAAAAAACYBCwAAAAAAAAAAYBKwAAAAAAAAAAAAJgELAAAAAAAAAABgErAAAAAAAAAAAAAmAQsAAAAAAAAAAGASsAAAAAAAAAAAACYBCwAAAAAAAAAAYBKwAAAAAAAAAAAAJgELAAAAAAAAAABgErAAAAAAAAAAAAAmAQsAAAAAAAAAAGASsAAAAAAAAAAAACYBCwAAAAAAAAAAYBKwAAAAAAAAAAAAJgELAAAAAAAAAABgErAAAAAAAAAAAAAmAQsAAAAAAAAAAGASsAAAAAAAAAAAACYBCwAAAAAAAAAAYBKwAAAAAAAAAAAAJgELAAAAAAAAAABgErAAAAAAAAAAAAAmAQsAAAAAAAAAAGASsAAAAAAAAAAAACYBCwAAAAAAAAAAYBKwAAAAAAAAAAAAJgELAAAAAAAAAABgErAAAAAAAAAAAAAmAQsAAAAAAAAAAGASsAAAAAAAAAAAACYBCwAAAAAAAAAAYBKwAAAAAAAAAAAAJgELAAAAAAAAAABgErAAAAAAAAAAAAAmAQsAAAAAAAAAAGASsAAAAAAAAAAAACYBCwAAAAAAAAAAYBKwAAAAAAAAAAAAJgELAAAAAAAAAABgErAAAAAAAAAAAAAmAQsAAAAAAAAAAGASsAAAAAAAAAAAACYBCwAAAAAAAAAAYBKwAAAAAAAAAAAAJgELAAAAAAAAAABgErAAAAAAAAAAAAAmAQsAAAAAAAAAAGASsAAAAAAAAAAAACYBCwAAAAAAAAAAYBKwAAAAAAAAAAAAJgELAAAAAAAAAABgErAAAAAAAAAAAAAmAQsAAAAAAAAAAGASsAAAAAAAAAAAACYBCwAAAAAAAAAAYBKwAAAAAAAAAAAAJgELAAAAAAAAAABgErAAAAAAAAAAAAAmAQsAAAAAAAAAAGASsAAAAAAAAAAAACYBCwAAAAAAAAAAYBKwAAAAAAAAAAAAJgELAAAAAAAAAABgErAAAAAAAAAAAAAmAQsAAAAAAAAAAGASsAAAAAAAAAAAACYBCwAAAAAAAAAAYBKwAAAAAAAAAAAAJgELAAAAAAAAAABgErAAAAAAAAAAAAAmAQsAAAAAAAAAAGASsAAAAAAAAAAAACYBCwAAAAAAAAAAYBKwAAAAAAAAAAAAJgELAAAAAAAAAABgErAAAAAAAAAAAAAmAQsAAAAAAAAAAGASsAAAAAAAAAAAACYBCwAAAAAAAAAAYBKwAAAAAAAAAAAAJgELAAAAAAAAAABgErAAAAAAAAAAAAAmAQsAAAAAAAAAAGASsAAAAAAAAAAAACYBCwAAAAAAAAAAYBKwAAAAAAAAAAAAJgELAAAAAAAAAABgErAAAAAAAAAAAAAmAQsAAAAAAAAAAGASsAAAAAAAAAAAACYBCwAAAAAAAAAAYBKwAAAAAAAAAAAAJgELAAAAAAAAAABgErAAAAAAAAAAAAAmAQsAAAAAAAAAAGASsAAAAAAAAAAAACYBCwAAAAAAAAAAYBKwAAAAAAAAAAAAJgELAAAAAAAAAABgErAAAAAAAAAAAAAmAQsAAAAAAAAAAGASsAAAAAAAAAAAACYBCwAAAAAAAAAAYBKwAAAAAAAAAAAAJgELAAAAAAAAAABgErAAAAAAAAAAAAAmAQsAAAAAAAAAAGASsAAAAAAAAAAAACYBCwAAAAAAAAAAYBKwAAAAAAAAAAAAJgELAAAAAAAAAABgErAAAAAAAAAAAAAmAQsAAAAAAAAAAGASsAAAAAAAAAAAACYBCwAAAAAAAAAAYBKwAAAAAAAAAAAAJgELAAAAAAAAAABgErAAAAAAAAAAAAAmAQsAAAAAAAAAAGASsAAAAAAAAAAAACYBCwAAAAAAAAAAYBKwAAAAAAAAAAAAJgELAAAAAAAAAABgErAAAAAAAAAAAAAmAQsAAAAAAAAAAGASsAAAAAAAAAAAACYBCwAAAAAAAAAAYBKwAAAAAAAAAAAAJgELAAAAAAAAAABgErAAAAAAAAAAAAAmAQsAAAAAAAAAAGASsAAAAAAAAAAAACYBCwAAAAAAAAAAYBKwAAAAAAAAAAAAJgELAAAAAAAAAABgErAAAAAAAAAAAAAmAQsAAAAAAAAAAGASsAAAAAAAAAAAACYBCwAAAAAAAAAAYBKwAAAAAAAAAAAAJgELAAAAAAAAAABgErAAAAAAAAAAAAAmAQsAAAAAAAAAAGASsAAAAAAAAAAAACYBCwAAAAAAAAAAYBKwAAAAAAAAAAAAJgELAAAAAAAAAABgErAAAAAAAAAAAAAmAQsAAAAAAAAAAGASsAAAAAAAAAAAACYBCwAAAAAAAAAAYBKwAAAAAAAAAAAAJgELAAAAAAAAAABgErAAAAAAAAAAAAAmAQsAAAAAAAAAAGASsAAAAAAAAAAAACYBCwAAAAAAAAAAYBKwAAAAAAAAAAAAJgELAAAAAAAAAABgErAAAAAAAAAAAAAmAQsAAAAAAAAAAGASsAAAAAAAAAAAACYBCwAAAAAAAAAAYBKwAAAAAAAAAAAAJgELAAAAAAAAAABgErAAAAAAAAAAAAAmAQsAAAAAAAAAAGASsAAAAAAAAAAAACYBCwAAAAAAAAAAYBKwAAAAAAAAAAAAJgELAAAAAAAAAABgErAAAAAAAAAAAAAmAQsAAAAAAAAAAGASsAAAAAAAAAAAACYBCwAAAAAAAAAAYBKwAAAAAAAAAAAAJgELAAAAAAAAAABgErAAAAAAAAAAAAAmAQsAAAAAAAAAAGASsAAAAAAAAAAAACYBCwAAAAAAAAAAYBKwAAAAAAAAAAAAJgELAAAAAAAAAABgErAAAAAAAAAAAAAmAQsAAAAAAAAAAGASsAAAAAAAAAAAACYBCwAAAAAAAAAAYBKwAAAAAAAAAAAAJgELAAAAAAAAAABgErAAAAAAAAAAAAAmAQsAAAAAAAAAAGASsAAAAAAAAAAAACYBCwAAAAAAAAAAYBKwAAAAAAAAAAAAJgELAAAAAAAAAABgErAAAAAAAAAAAAAmAQsAAAAAAAAAAGASsAAAAAAAAAAAACYBCwAAAAAAAAAAYBKwAAAAAAAAAAAAJgELAAAAAAAAAABgErAAAAAAAAAAAAAmAQsAAAAAAAAAAGASsAAAAAAAAAAAACYBCwAAAAAAAAAAYBKwAAAAAAAAAAAAJgELAAAAAAAAAABgErAAAAAAAAAAAAAmAQsAAAAAAAAAAGASsAAAAAAAAAAAACYBCwAAAAAAAAAAYBKwAAAAAAAAAAAAJgELAAAAAAAAAABgErAAAAAAAAAAAAAmAQsAAAAAAAAAAGASsAAAAAAAAAAAACYBCwAAAAAAAAAAYBKwAAAAAAAAAAAAJgELAAAAAAAAAABgErAAAAAAAAAAAAAmAQsAAAAAAAAAAGASsAAAAAAAAAAAACYBCwAAAAAAAAAAYBKwAAAAAAAAAAAAJgELAAAAAAAAAABgErAAAAAAAAAAAAAmAQsAAAAAAAAAAGASsAAAAAAAAAAAACYBCwAAAAAAAAAAYBKwAAAAAAAAAAAAJgELAAAAAAAAAABgErAAAAAAAAAAAAAmAQsAAAAAAAAAAGASsAAAAAAAAAAAACYBCwAAAAAAAAAAYBKwAAAAAAAAAAAAJgELAAAAAAAAAABgErAAAAAAAAAAAAAmAQsAAAAAAAAAAGASsAAAAAAAAAAAACYBCwAAAAAAAAAAYBKwAAAAAAAAAAAAJgELAAAAAAAAAABgErAAAAAAAAAAAAAmAQsAAAAAAAAAAGASsAAAAAAAAAAAACYBCwAAAAAAAAAAYBKwAAAAAAAAAAAAJgELAAAAAAAAAABgErAAAAAAAAAAAAAmAQsAAAAAAAAAAGASsAAAAAAAAAAAACYBCwAAAAAAAAAAYBKwAAAAAAAAAAAAJgELAAAAAAAAAABgErAAAAAAAAAAAAAmAQsAAAAAAAAAAGASsAAAAAAAAAAAACYBCwAAAAAAAAAAYBKwAAAAAAAAAAAAJgELAAAAAAAAAABgErAAAAAAAAAAAAAmAQsAAAAAAAAAAGASsAAAAAAAAAAAACYBCwAAAAAAAAAAYBKwAAAAAAAAAAAAJgELAAAAAAAAAABgErAAAAAAAAAAAAAmAQsAAAAAAAAAAGASsAAAAAAAAAAAACYBCwAAAAAAAAAAYBKwAAAAAAAAAAAAJgELAAAAAAAAAABgErAAAAAAAAAAAAAmAQsAAAAAAAAAAGASsAAAAAAAAAAAACYBCwAAAAAAAAAAYBKwAAAAAAAAAAAAJgELAAAAAAAAAABgErAAAAAAAAAAAAAmAQsAAAAAAAAAAGASsAAAAAAAAAAAACYBCwAAAAAAAAAAYBKwAAAAAAAAAAAAJgELAAAAAAAAAABgErAAAAAAAAAAAAAmAQsAAAAAAAAAAGASsAAAAAAAAAAAACYBCwAAAAAAAAAAYBKwAAAAAAAAAAAAJgELAAAAAAAAAABgErAAAAAAAAAAAAAmAQsAAAAAAAAAAGASsAAAAAAAAAAAACYBCwAAAAAAAAAAYBKwAAAAAAAAAAAAJgELAAAAAAAAAABgErAAAAAAAAAAAAAmAQsAAAAAAAAAAGASsAAAAAAAAAAAACYBCwAAAAAAAAAAYBKwAAAAAAAAAAAAJgELAAAAAAAAAABgErAAAAAAAAAAAAAmAQsAAAAAAAAAAGASsAAAAAAAAAAAACYBCwAAAAAAAAAAYBKwAAAAAAAAAAAAJgELAAAAAAAAAABgErAAAAAAAAAAAAAmAQsAAAAAAAAAAGASsAAAAAAAAAAAACYBCwAAAAAAAAAAYBKwAAAAAAAAAAAAJgELAAAAAAAAAABgErAAAAAAAAAAAAAmAQsAAAAAAAAAAGASsAAAAAAAAAAAACYBCwAAAAAAAAAAYBKwAAAAAAAAAAAAJgELAAAAAAAAAABgErAAAAAAAAAAAAAmAQsAAAAAAAAAAGASsAAAAAAAAAAAACYBCwAAAAAAAAAAYBKwAAAAiF07FgAAAAAY5G89h93FEQAAAAAAMAlYAAAAAAAAAAAAk4AFAAAAAAAAAAAwCVgAAAAAAAAAAACTgAUAAAAAAAAAADAJWAAAAAAAAAAAAJOABQAAAAAAAAAAMAlYAAAAAAAAAAAAk4AFAAAAAAAAAAAwCVgAAAAAAAAAAACTgAUAAAAAAAAAADAJWAAAAAAAAAAAAJOABQAAAAAAAAAAMAlYAAAAAAAAAAAAk4AFAAAAAAAAAAAwCVgAAAAAAAAAAACTgAUAAAAAAAAAADAJWAAAAAAAAAAAAJOABQAAAAAAAAAAMAlYAAAAAAAAAAAAk4AFAAAAAAAAAAAwCVgAAAAAAAAAAACTgAUAAAAAAAAAADAJWAAAAAAAAAAAAJOABQAAAAAAAAAAMAlYAAAAAAAAAAAAk4AFAAAAAAAAAAAwCVgAAAAAAAAAAACTgAUAAAAAAAAAADAJWAAAAAAAAAAAAJOABQAAAAAAAAAAMAlYAAAAAAAAAAAAk4AFAAAAAAAAAAAwCVgAAAAAAAAAAACTgAUAAAAAAAAAADAJWAAAAAAAAAAAAJOABQAAAAAAAAAAMAlYAAAAAAAAAAAAk4AFAAAAAAAAAAAwCVgAAAAAAAAAAACTgAUAAAAAAAAAADAJWAAAAAAAAAAAAJOABQAAAAAAAAAAMAlYAAAAAAAAAAAAk4AFAAAAAAAAAAAwCVgAAAAAAAAAAACTgAUAAAAAAAAAADAJWAAAAAAAAAAAAJOABQAAAAAAAAAAMAlYAAAAAAAAAAAAk4AFAAAAAAAAAAAwCVgAAAAAAAAAAACTgAUAAAAAAAAAADAJWAAAAAAAAAAAAJOABQAAAAAAAAAAMAlYAAAAAAAAAAAAk4AFAAAAAAAAAAAwCVgAAAAAAAAAAACTgAUAAAAAAAAAADAJWAAAAAAAAAAAAJOABQAAAAAAAAAAMAlYAAAAAAAAAAAAk4AFAAAAAAAAAAAwCVgAAAAAAAAAAACTgAUAAAAAAAAAADAJWAAAAAAAAAAAAJOABQAAAAAAAAAAMAlYAAAAAAAAAAAAk4AFAAAAAAAAAAAwCVgAAAAAAAAAAACTgAUAAAAAAAAAADAJWAAAAAAAAAAAAJOABQAAAAAAAAAAMAlYAAAAAAAAAAAAk4AFAAAAAAAAAAAwCVgAAAAAAAAAAACTgAUAAAAAAAAAADAJWAAAAAAAAAAAAJOABQAAAAAAAAAAMAlYAAAAAAAAAAAAk4AFAAAAAAAAAAAwCVgAAAAAAAAAAACTgAUAAAAAAAAAADAJWAAAAAAAAAAAAJOABQAAAAAAAAAAMAlYAAAAAAAAAAAAk4AFAAAAAAAAAAAwCVgAAAAAAAAAAACTgAUAAAAAAAAAADAJWAAAAAAAAAAAAJOABQAAAAAAAAAAMAlYAAAAAAAAAAAAk4AFAAAAAAAAAAAwCVgAAAAAAAAAAACTgAUAAAAAAAAAADAJWAAA8oV7CwAAIABJREFUAAAAAAAAAJOABQAAAAAAAAAAMAlYAAAAAAAAAAAAk4AFAAAAAAAAAAAwCVgAAAAAAAAAAACTgAUAAAAAAAAAADAJWAAAAAAAAAAAAJOABQAAAAAAAAAAMAlYAAAAAAAAAAAAk4AFAAAAAAAAAAAwCVgAAAAAAAAAAACTgAUAAAAAAAAAADAJWAAAAAAAAAAAAJOABQAAAAAAAAAAMAlYAAAAAAAAAAAAk4AFAAAAAAAAAAAwCVgAAAAAAAAAAACTgAUAAAAAAAAAADAJWAAAAAAAAAAAAJOABQAAAAAAAAAAMAlYAAAAAAAAAAAAk4AFAAAAAAAAAAAwCVgAAAAAAAAAAACTgAUAAAAAAAAAADAJWAAAAAAAAAAAAJOABQAAAAAAAAAAMAlYAAAAAAAAAAAAk4AFAAAAAAAAAAAwCVgAAAAAAAAAAACTgAUAAAAAAAAAADAJWAAAAAAAAAAAAJOABQAAAAAAAAAAMAlYAAAAAAAAAAAAk4AFAAAAAAAAAAAwCVgAAAAAAAAAAACTgAUAAAAAAAAAADAJWAAAAAAAAAAAAJOABQAAAAAAAAAAMAlYAAAAAAAAAAAAk4AFAAAAAAAAAAAwCVgAAAAAAAAAAACTgAUAAAAAAAAAADAJWAAAAAAAAAAAAJOABQAAAAAAAAAAMAlYAAAAAAAAAAAAk4AFAAAAAAAAAAAwCVgAAAAAAAAAAACTgAUAAAAAAAAAADAJWAAAAAAAAAAAAJOABQAAAAAAAAAAMAlYAAAAAAAAAAAAk4AFAAAAAAAAAAAwCVgAAAAAAAAAAACTgAUAAAAAAAAAADAJWAAAAAAAAAAAAJOABQAAAAAAAAAAMAlYAAAAAAAAAAAAk4AFAAAAAAAAAAAwCVgAAAAAAAAAAACTgAUAAAAAAAAAADAJWAAAAAAAAAAAAJOABQAAAAAAAAAAMAlYAAAAAAAAAAAAk4AFAAAAAAAAAAAwCVgAAAAAAAAAAACTgAUAAAAAAAAAADAJWAAAAAAAAAAAAJOABQAAAAAAAAAAMAlYAAAAAAAAAAAAk4AFAAAAAAAAAAAwCVgAAAAAAAAAAACTgAUAAAAAAAAAADAJWAAAAAAAAAAAAJOABQAAAAAAAAAAMAlYAAAAAAAAAAAAk4AFAAAAAAAAAAAwCVgAAAAAAAAAAACTgAUAAAAAAAAAADAJWAAAAAAAAAAAAJOABQAAAAAAAAAAMAlYAAAAAAAAAAAAk4AFAAAAAAAAAAAwCVgAAAAAAAAAAACTgAUAAAAAAAAAADAJWAAAAAAAAAAAAJOABQAAAAAAAAAAMAlYAAAAAAAAAAAAk4AFAAAAAAAAAAAwCVgAAAAAAAAAAACTgAUAAAAAAAAAADAJWAAAAAAAAAAAAJOABQAAAAAAAAAAMAlYAAAAAAAAAAAAk4AFAAAAAAAAAAAwCVgAAAAAAAAAAACTgAUAAAAAAAAAADAJWAAAAAAAAAAAAJOABQAAAAAAAAAAMAlYAAAAAAAAAAAAk4AFAAAAAAAAAAAwCVgAAAAAAAAAAACTgAUAAAAAAAAAADAJWAAAAAAAAAAAAJOABQAAAAAAAAAAMAlYAAAAAAAAAAAAk4AFAAAAAAAAAAAwCVgAAAAAAAAAAACTgAUAAAAAAAAAADAJWAAAAAAAAAAAAJOABQAAAAAAAAAAMAlYAAAAAAAAAAAAk4AFAAAAAAAAAAAwCVgAAAAAAAAAAACTgAUAAAAAAAAAADAJWAAAAAAAAAAAAJOABQAAAAAAAAAAMAlYAAAAAAAAAAAAk4AFAAAAAAAAAAAwCVgAAAAAAAAAAACTgAUAAAAAAAAAADAJWAAAAAAAAAAAAJOABQAAAAAAAAAAMAlYAAAAAAAAAAAAk4AFAAAAAAAAAAAwCVgAAAAAAAAAAACTgAUAAAAAAAAAADAJWAAAAAAAAAAAAJOABQAAAAAAAAAAMAlYAAAAAAAAAAAAk4AFAAAAAAAAAAAwCVgAAAAAAAAAAACTgAUAAAAAAAAAADAJWAAAAAAAAAAAAJOABQAAAAAAAAAAMAlYAAAAAAAAAAAAk4AFAAAAAAAAAAAwCVgAAAAAAAAAAACTgAUAAAAAAAAAADAJWAAAAAAAAAAAAJOABQAAAAAAAAAAMAlYAAAAAAAAAAAAk4AFAAAAAAAAAAAwCVgAAAAAAAAAAACTgAUAAAAAAAAAADAJWAAAAAAAAAAAAJOABQAAAAAAAAAAMAlYAAAAAAAAAAAAk4AFAAAAAAAAAAAwCVgAAAAAAAAAAACTgAUAAAAAAAAAADAJWAAAAAAAAAAAAJOABQAAAAAAAAAAMAlYAAAAAAAAAAAAk4AFAAAAAAAAAAAwCVgAAAAAAAAAAACTgAUAAAAAAAAAADAJWAAAAAAAAAAAAJOABQAAAAAAAAAAMAlYAAAAAAAAAAAAk4AFAAAAAAAAAAAwCVgAAAAAAAAAAACTgAUAAAAAAAAAADAJWAAAAAAAAAAAAJOABQAAAAAAAAAAMAlYAAAAAAAAAAAAk4AFAAAAAAAAAAAwCVgAAAAAAAAAAACTgAUAAAAAAAAAADAJWAAAAAAAAAAAAJOABQAAAAAAAAAAMAlYAAAAAAAAAAAAk4AFAAAAAAAAAAAwCVgAAAAAAAAAAACTgAUAAAAAAAAAADAJWAAAAAAAAAAAAJOABQAAAAAAAAAAMAlYAAAAAAAAAAAAk4AFAAAAAAAAAAAwCVgAAAAAAAAAAACTgAUAAAAAAAAAADAJWAAAAAAAAAAAAJOABQAAAAAAAAAAMAlYAAAAAAAAAAAAk4AFAAAAAAAAAAAwCVgAAAAAAAAAAACTgAUAAAAAAAAAADAJWAAAAAAAAAAAAJOABQAAAAAAAAAAMAlYAAAAAAAAAAAAk4AFAAAAAAAAAAAwCVgAAAAAAAAAAACTgAUAAAAAAAAAADAJWAAAAAAAAAAAAJOABQAAAAAAAAAAMAlYAAAAAAAAAAAAk4AFAAAAAAAAAAAwCVgAAAAAAAAAAACTgAUAAAAAAAAAADAJWAAAAAAAAAAAAJOABQAAAAAAAAAAMAlYAAAAAAAAAAAAk4AFAAAAAAAAAAAwCVgAAAAAAAAAAACTgAUAAAAAAAAAADAJWAAAAAAAAAAAAJOABQAAAAAAAAAAMAlYAAAAAAAAAAAAk4AFAAAAAAAAAAAwCVgAAAAAAAAAAACTgAUAAAAAAAAAADAJWAAAAAAAAAAAAJOABQAAAAAAAAAAMAlYAAAAAAAAAAAAk4AFAAAAAAAAAAAwCVgAAAAAAAAAAACTgAUAAAAAAAAAADAJWAAAAAAAAAAAAJOABQAAAAAAAAAAMAlYAAAAAAAAAAAAk4AFAAAAAAAAAAAwCVgAAAAAAAAAAACTgAUAAAAAAAAAADAJWAAAAAAAAAAAAJOABQAAAAAAAAAAMAlYAAAAAAAAAAAAk4AFAAAAAAAAAAAwCVgAAAAAAAAAAACTgAUAAAAAAAAAADAJWAAAAAAAAAAAAJOABQAAAAAAAAAAMAlYAAAAAAAAAAAAk4AFAAAAAAAAAAAwCVgAAAAAAAAAAACTgAUAAAAAAAAAADAJWAAAAAAAAAAAAJOABQAAAAAAAAAAMAlYAAAAAAAAAAAAk4AFAAAAAAAAAAAwCVgAAAAAAAAAAACTgAUAAAAAAAAAADAJWAAAAAAAAAAAAJOABQAAAAAAAAAAMAlYAAAAAAAAAAAAk4AFAAAAAAAAAAAwCVgAAAAAAAAAAACTgAUAAAAAAAAAADAJWAAAAAAAAAAAAJOABQAAAAAAAAAAMAlYAAAAAAAAAAAAk4AFAAAAAAAAAAAwCVgAAAAAAAAAAACTgAUAAAAAAAAAADAJWAAAAAAAAAAAAJOABQAAAAAAAAAAMAlYAAAAAAAAAAAAk4AFAAAAAAAAAAAwCVgAAAAAAAAAAACTgAUAAAAAAAAAADAJWAAAAAAAAAAAAJOABQAAAAAAAAAAMAlYAAAAAAAAAAAAk4AFAAAAAAAAAAAwCVgAAAAAAAAAAACTgAUAAAAAAAAAADAJWAAAAAAAAAAAAJOABQAAAAAAAAAAMAlYAAAAAAAAAAAAk4AFAAAAAAAAAAAwCVgAAAAAAAAAAACTgAUAAAAAAAAAADAJWAAAAAAAAAAAAJOABQAAAAAAAAAAMAlYAAAAAAAAAAAAk4AFAAAAAAAAAAAwCVgAAAAAAAAAAACTgAUAAAAAAAAAADAJWAAAAAAAAAAAAJOABQAAAAAAAAAAMAlYAAAAAAAAAAAAk4AFAAAAAAAAAAAwCVgAAAAAAAAAAACTgAUAAAAAAAAAADAJWAAAAAAAAAAAAJOABQAAAAAAAAAAMAlYAAAAAAAAAAAAk4AFAAAAAAAAAAAwCVgAAAAAAAAAAACTgAUAAAAAAAAAADAJWAAAAAAAAAAAAJOABQAAAAAAAAAAMAlYAAAAAAAAAAAAk4AFAAAAAAAAAAAwCVgAAAAAAAAAAACTgAUAAAAAAAAAADAJWAAAAAAAAAAAAJOABQAAAAAAAAAAMAlYAAAAAAAAAAAAk4AFAAAAAAAAAAAwCVgAAAAAAAAAAACTgAUAAAAAAAAAADAJWAAAAAAAAAAAAJOABQAAAAAAAAAAMAlYAAAAAAAAAAAAk4AFAAAAAAAAAAAwCVgAAAAAAAAAAACTgAUAAAAAAAAAADAJWAAAAAAAAAAAAJOABQAAAAAAAAAAMAlYAAAAAAAAAAAAk4AFAAAAAAAAAAAwCVgAAAAAAAAAAACTgAUAAAAAAAAAADAJWAAAAAAAAAAAAJOABQAAAAAAAAAAMAlYAAAAAAAAAAAAk4AFAAAAAAAAAAAwCVgAAAAAAAAAAACTgAUAAAAAAAAAADAJWAAAAAAAAAAAAJOABQAAAAAAAAAAMAlYAAAAAAAAAAAAk4AFAAAAAAAAAAAwCVgAAAAAAAAAAACTgAUAAAAAAAAAADAJWAAAAAAAAAAAAJOABQAAAAAAAAAAMAlYAAAAAAAAAAAAk4AFAAAAAAAAAAAwCVgAAAAAAAAAAACTgAUAAAAAAAAAADAJWAAAAAAAAAAAAJOABQAAAAAAAAAAMAlYAAAAAAAAAAAAk4AFAAAAAAAAAAAwCVgAAAAAAAAAAACTgAUAAAAAAAAAADAJWAAAAAAQe/f2nedV2Hn8t984NjeYdKYXXfwF/AntZdYqSHZiJyGQsAIrZJV0TWgHGDq0w1AKgkIhGVsHO6HgQsuUdqBoYAphYskJEA7llLohkhwODZA0luSQE3GC7VjW+8zFDGsg5GBvS9qvpM/nzq+eZ+/f0vLld70CAAAAgEoCLAAAAAAAAAAAgEoCLAAAAAAAAAAAgEoCLAAAAAAAAAAAgEoCLAAAAAAAAAAAgEoCLAAAAAAAAAAAgEoCLAAAAAAAAAAAgEoCLAAAAAAAAAAAgEoCLAAAAAAAAAAAgEoCLAAAAAAAAAAAgEoCLAAAAAAAAAAAgEoCLAAAAAAAAAAAgEoCLAAAAAAAAAAAgEoCLAAAAAAAAAAAgEoCLAAAAAAAAAAAgEoCLAAAAAAAAAAAgEoCLAAAAAAAAAAAgEoCLAAAAAAAAAAAgEoCLAAAAAAAAAAAgEoCLAAAAAAAAAAAgEoCLAAAAAAAAAAAgEoCLAAAAAAAAAAAgEoCLAAAAAAAAAAAgEoCLAAAAAAAAAAAgEoCLAAAAAAAAAAAgEoCLAAAAAAAAAAAgEoCLAAAAAAAAAAAgEoCLAAAAAAAAAAAgEoCLAAAAAAAAAAAgEoCLAAAAAAAAAAAgEoCLAAAAAAAAAAAgEoCLAAAAAAAAAAAgEoCLAAAAAAAAAAAgEoCLAAAAAAAAAAAgEoCLAAAAAAAAAAAgEoCLAAAAAAAAAAAgEoCLAAAAAAAAAAAgEoCLAAAAAAAAAAAgEoCLAAAAAAAAAAAgEoCLAAAAAAAAAAAgEoCLAAAAAAAAAAAgEoCLAAAAAAAAAAAgEoCLAAAAAAAAAAAgEoCLAAAAAAAAAAAgEoCLAAAAAAAAAAAgEoCLAAAAAAAAAAAgEoCLAAAAAAAAAAAgEoCLAAAAAAAAAAAgEoCLAAAAAAAAAAAgEoCLAAAAAAAAAAAgEoCLAAAAAAAAAAAgEoCLAAAAAAAAAAAgEoCLAAAAAAAAAAAgEoCLAAAAAAAAAAAgEoCLAAAAAAAAAAAgEoCLAAAAAAAAAAAgEoCLAAAAAAAAAAAgEoCLAAAAAAAAAAAgEoCLAAAAAAAAAAAgEoCLAAAAAAAAAAAgEoCLAAAAAAAAAAAgEoCLAAAAAAAAAAAgEoCLAAAAAAAAAAAgEoCLAAAAAAAAAAAgEoCLAAAAAAAAAAAgEoCLAAAAAAAAAAAgEoCLAAAAAAAAAAAgEoCLAAAAAAAAAAAgEoCLAAAAAAAAAAAgEoCLAAAAAAAAAAAgEoCLAAAAAAAAAAAgEoCLAAAAAAAAAAAgEoCLAAAAAAAAAAAgEoCLAAAAAAAAAAAgEoCLAAAAAAAAAAAgEoCLAAAAAAAAAAAgEoCLAAAAAAAAAAAgEoCLAAAAAAAAAAAgEoCLAAAAAAAAAAAgEoCLAAAAAAAAAAAgEoCLAAAAAAAAAAAgEoCLAAAAAAAAAAAgEoCLAAAAAAAAAAAgEoCLAAAAAAAAAAAgEoCLAAAAAAAAAAAgEoCLAAAAAAAAAAAgEoCLAAAAAAAAAAAgEoCLAAAAAAAAAAAgEoCLAAAAAAAAAAAgEoCLAAAAAAAAAAAgEoCLAAAAAAAAAAAgEoCLAAAAAAAAAAAgEoCLAAAAAAAAAAAgEoCLAAAAAAAAAAAgEoCLAAAAAAAAAAAgEoCLAAAAAAAAAAAgEoCLAAAAAAAAAAAgEoCLAAAAAAAAAAAgEoCLAAAAAAAAAAAgEoCLAAAAAAAAAAAgEoCLAAAAAAAAAAAgEoCLAAAAAAAAAAAgEoCLAAAAAAAAAAAgEoCLAAAAAAAAAAAgEoCLAAAAAAAAAAAgEoCLAAAAAAAAAAAgEoCLAAAAAAAAAAAgEoCLAAAAAAAAAAAgEoCLAAAAAAAAAAAgEoCLAAAAAAAAAAAgEoCLAAAAAAAAAAAgEoCLAAAAAAAAAAAgEoCLAAAAAAAAAAAgEoCLAAAAAAAAAAAgEoCLAAAAAAAAAAAgEoCLAAAAAAAAAAAgEoCLAAAAAAAAAAAgEoCLAAAAAAAAAAAgEoCLAAAAAAAAAAAgEoCLAAAAAAAAAAAgEoCLAAAAAAAAAAAgEoCLAAAAAAAAAAAgEoCLAAAAAAAAAAAgEoCLAAAAAAAAAAAgEoCLAAAAAAAAAAAgEoCLAAAAAAAAAAAgEoCLAAAAAAAAAAAgEoCLAAAAAAAAAAAgEoCLAAAAAAAAAAAgEoCLAAAAAAAAAAAgEoCLAAAAAAAAAAAgEoCLAAAAAAAAAAAgEoCLAAAAAAAAAAAgEoCLAAAAAAAAAAAgEoCLAAAAAAAAAAAgEoCLAAAAAAAAAAAgEoCLAAAAAAAAAAAgEoCLAAAAAAAAAAAgEoCLAAAAAAAAAAAgEoCLAAAAAAAAAAAgEoCLAAAAAAAAAAAgEoCLAAAAAAAAAAAgEoCLAAAAAAAAAAAgEoCLAAAAAAAAAAAgEoCLAAAAAAAAAAAgEoCLAAAAAAAAAAAgEoCLAAAAAAAAAAAgEoCLAAAAAAAAAAAgEoCLAAAAAAAAAAAgEoCLAAAAAAAAAAAgEoCLAAAAAAAAAAAgEoCLAAAAAAAAAAAgEoCLAAAAAAAAAAAgEoCLAAAAAAAAAAAgEoCLAAAAAAAAAAAgEoCLAAAAAAAAAAAgEoCLAAAAAAAAAAAgEoCLAAAAAAAAAAAgEoCLAAAAAAAAAAAgEoCLAAAAAAAAAAAgEoCLAAAAAAAAAAAgEoCLAAAAAAAAAAAgEoCLAAAAAAAAAAAgEoCLAAAAAAAAAAAgEoCLAAAAAAAAAAAgEoCLAAAAAAAAAAAgEoCLAAAAAAAAAAAgEoCLAAAAAAAAAAAgEoCLAAAAAAAAAAAgEoCLAAAAAAAAAAAgEoCLAAAAAAAAAAAgEoCLAAAAAAAAAAAgEoCLAAAAAAAAAAAgEoCLAAAAAAAAAAAgEoCLAAAAAAAAAAAgEoCLAAAAAAAAAAAgEoCLAAAAAAAAAAAgEoCLAAAAAAAAAAAgEoCLAAAAAAAAAAAgEoCLAAAAAAAAAAAgEoCLAAAAAAAAAAAgEoCLAAAAAAAAAAAgEoCLAAAAAAAAAAAgEoCLAAAAAAAAAAAgEoCLAAAAAAAAAAAgEoCLAAAAAAAAAAAgEoCLAAAAAAAAAAAgEoCLAAAAAAAAAAAgEoCLAAAAAAAAAAAgEoCLAAAAAAAAAAAgEoCLAAAAAAAAAAAgEoCLAAAAAAAAAAAgEoCLAAAAAAAAAAAgEoCLAAAAAAAAAAAgEoCLAAAAAAAAAAAgEoCLAAAAAAAAAAAgEoCLAAAAAAAAAAAgEoCLAAAAAAAAAAAgEoCLAAAAAAAAAAAgEoCLAAAAAAAAAAAgEoCLAAAAAAAAAAAgEoCLAAAAAAAAAAAgEoCLAAAAAAAAAAAgEoCLAAAAAAAAAAAgEoCLAAAAAAAAAAAgEoCLAAAAAAAAAAAgEoCLAAAAAAAAAAAgEoCLAAAAAAAAAAAgEoCLAAAAAAAAAAAgEoCLAAAAAAAAAAAgEoCLAAAAAAAAAAAgEoCLAAAAAAAAAAAgEoCLAAAAAAAAAAAgEoCLAAAAAAAAAAAgEq9lO6p1iMAAAAAAAAAAADWmy7lZK/rLb8pyUOtxwAAAAAAAAAAAKwbJY/2cuatvcXbbnmg6/cuTXKi9SYAAAAAAAAAAIB1YKnf5dX3jF7yw16SLN4+9s9dcm2SfuNhAAAAAAAAAAAAg6zrSt5wZHT4y0nS+8Wni9MTn+lKeWe7XQAAAAAAAAAAAIOtpHvv3N7hT/zi371f/uHi1PgHui4fWftZAAAAAAAAAAAAA67k0zOjw+/55Y96z3zmpY+efFOSL67ZKAAAAAAAAAAAgAFX0v3Tky/e9vqkdL/8+a8FWIcPH1h60fKLrkxyZM3WAQAAAAAAAAAADK6fpNd75f0jF5965g9+LcBKkh/fceMTy93yriQ/XfVpAAAAAAAAAAAAg+t46ZXdM3uGnrWletYAK0keOnTzT1JyZZKnV20aAAAAAAAAAADA4FpKlytn9gzNPdcDzxlgJcnC1MTXS7prk3TP9xwAAAAAAAAAAMDG071pdmz4jud74nkDrCSZn9736ZTy3pUbBQAAAAAAAAAAMNhKygdmR3d85IWee8EAK0kWpsbfU1I+cf6zAAAAAAAAAAAABluXfGZm+zffeTbPnlWAlaS7aPtF13fJnfWzAAAAAAAAAAAABt7hbU8tXZuRkf7ZPHy2AVaOTI6c7p0586ok/1o9DQAAAAAAAAAAYECV5IFuecslhw/sOnG275x1gJUk81+85dGU7Ery+DmvAwAAAAAAAAAAGFxP9nvd7rmJ333oXF46pwArSRamJn7Qdbk8ydPn+i4AAAAAAAAAAMAAWu5Srpnbs2PmXF885wArSRYPTXy1lHJDzbsAAAAAAAAAAACDpHTdm+dGh75Q825VgJUk81PjH0/JB2vfBwAAAAAAAAAAGACjM2M7PlT7cnWAlSQLUxPvSPLJ8zkDAAAAAAAAAACgjXLbyx48/ifnc8J5BVhJut723hvS5VvneQ4AAAAAAAAAAMBaurt/auvVk5NXLZ/PIecbYOXo5NjJbNuyK8mPzvcsAAAAAAAAAACANbBQtvR3H/nQxU+d70HnHWAlycKtex/p9/q7k/xsJc4DAAAAAAAAAABYJU/1+71LZm7aeXQlDluRACtJjh3cf29X8pokZ1bqTAAAAAAAAAAAgBXUT5fXHRl/xXdX6sAVC7CSZHFqYjolN6zkmQAAAAAAAAAAACuhS/fW2bHhz63kmSsaYCXJwtTEx7qSsZU+FwAAAAAAAAAA4Dz81dzojn0rfeiKB1hJsvjbv/G2JP+4GmcDAAAAAAAAAACco6l/v33bH6zGwasSYGVkpN/b3rumS/edVTkfAAAAAAAAAADg7Ny79cILXnPnyMVnVuPw1QmwkhydHDu5Nb3Lkzy4WncAAAAAAAAAAAA8j2P95Qt2HL7x5U+s1gWrFmAlyQPT44ulX3YneWo17wEAAAAAAAAAAPhV5WTplcuPTLz831bzllUNsJJk/vbx7/a7clWS5dW+CwAAAAAAAAAAIEm/K/3XzewZ+vZqX7TqAVaSHDs0frBLedta3AUAAAAAAAAAAGxupevePrd3x2fX4q41CbCSZHF6fDzJzWt1HwAAAAAAAAAAsCn99czYjv+2VpetWYCVJAvbF/5TSnfrWt4JAAAAAAAAAABsFuUr/e3H37iWN65pgJXJyeXTW1/02iQza3ovAAAAAAAAAACw0X0vW5euODJy1em1vHRtA6wkj3z+pid7F/Z2psv8Wt8NAAAAAAAAAABsPF3ySL/L7tkPXvr4Wt+95gFWkhz9wth8l+6yJD9vcT8AAAAAAAAAALBhnErKZUfGhu9rcXmTACtJFg/tO9yVcm2SfqsNAAAAAAAAAADAutallOvnRoe+0WpAswArSRanxj+b5B0tNwAAAAAAAAAAAOtTSfmz2b1Df99yQ9MAK0kWpidu7JIPt94BAAAAAAAAAACsH13pPjUz+oq/aL2jeYCVJC995OSbk+6O1jsAAAAAAAAAAIB14WunTnfXJaVrPWQgAqzDhw8snep1V5ZkrvUWAAAAAAAAAABgkHU/3rLUv/K+/Tufbr0kGZAAK0keO7j/+JlueXeSn7beAgAAAAAAAAAADKTHeunvuHv/zodbD/mFgQmwkuShQzf/pF9yaZITrbcAAAAAAAAAAAADZamfvOqe0Ut+2HrILxuoACtJjk1N3FVKrkvS/O8zAgAAAAAAAACXUGqEAAAgAElEQVQAA6EryfVHRoe/3HrIMw1cgJUk81MTk0lGWu8AAAAAAAAAAAAGQMmfz4wO/23rGc9mIAOsJFmYnvjzLhnIXxoAAAAAAAAAALBWyuTs3qGR1iuey8AGWEm6lz5y8vokA/e1YQAAAAAAAAAAwJq4a+tTp69LStd6yHMZ5AArhw8fWOql96qk+2HrLQAAAAAAAAAAwJr6SemVSw8f2HWi9ZDnM9ABVpIcnR577IJetzPJw623AAAAAAAAAAAAa+J46ZXdM3uGftp6yAsZ+AArSR48uP9HXXpXJnm69RYAAAAAAAAAAGBVLaXLlTN7huZaDzkb6yLASpLF6bGvla77D613AAAAAAAAAAAAq6fr8ubZseE7Wu84W+smwEqS+UP7/nuX7v2tdwAAAAAAAAAAAKug6z44Nzb84dYzzsW6CrCSZHF6358l+R+tdwAAAAAAAAAAACunSz4z+5Jv/2nrHedq3QVYSbqtTz/xhiTfbD0EAAAAAAAAAABYEYd7vfL6jIz0Ww85V+sxwMr9d378VLZu2Z3kvtZbAAAAAAAAAACA81Hme93SZTN7hn7eekmNdRlgJcnCrXsf6ZbL7iQ/a70FAAAAAAAAAACo8mTX6++8Z2zXfOshtdZtgJUki3eMf69XyhVJTrfeAgAAAAAAAAAAnJPlLuWauT07ZloPOR/rOsBKkqNT43em5A9a7wAAAAAAAAAAAM7JW+ZGh77QesT5WvcBVpIsTE18LKXsab0DAAAAAAAAAAA4C103Njs6fEvrGSthQwRYSbLw2xf9l3T5X613AAAAAAAAAAAAz6fc9rKjT/5x6xUrZcMEWBkZ6fde0nttkm+3ngIAAAAAAAAAADyru/untl49OXnVcushK2XjBFhJjk6Onbww5Yok/9Z6CwAAAAAAAAAA8CsWupTLjnzo4qdaD1lJGyrASpIHpscX++ntTPJE6y0AAAAAAAAAAECS5ES/dJfPjQ492HrISttwAVaSHJseO9Kle02SM623AAAAAAAAAADAJtdPl2uO7N1xV+shq2FDBlhJsji9b6rruj9svQMAAAAAAAAAADazUvJHs2PDn2u9Y7Vs2AArSRYP7TuQUva33gEAAAAAAAAAAJtRl3x0Zu/wROsdq2lDB1hJsvDi+bcm+XzrHQAAAAAAAAAAsJl0yfRvbt/2xtY7VtuGD7AyObl8etu21yXlntZTAAAAAAAAAABgk7h324UXXH3nyMVnWg9ZbRs/wEryyOdvevKC/pmdSY623gIAAAAAAAAAABvcsTNleefhG1/+ROsha2FTBFhJ8uDtNy8k5bIkP2+9BQAAAAAAAAAANqZysqR/xff2XvJA6yVrZdMEWEmyMD3+LyXl6iTLrbcAAAAAAAAAAMAG05Wu/3szozu/1XrIWtpUAVaSzE+P/+903dtb7wAAAAAAAAAAgA2l5O0zYzs+1XrGWtt0AVaSLBzatyfJX7beAQAAAAAAAAAAG8Rfz+4dvqn1iBY2ZYCVJAtP/8abk9zeegcAAAAAAAAAAKxv5Sv97cff2HpFK5s2wMqdI2dO9fqvSpfZ1lMAAAAAAAAAAGCd+n62Ll1xZOSq062HtLJ5A6wkjx3cf7zfK7uTPNR6CwAAAAAAAAAArCslj/a77Jr94KWPt57S0qYOsJLk2NT4/V2/d2mSE623AAAAAAAAAADAOnGq68ruI2PD97Ue0tqmD7CSZPH2sX8uXXl9kn7rLQAAAAAAAAAAMOC6lHL93OjQN1oPGQQCrP9n/tD4/yxdeVfrHQAAAAAAAAAAMNC67l2ze4f+vvWMQSHA+iXzh8bfX0o50HoHAAAAAAAAAAAMoq50n5odG35/6x2DRID1DL/18In/mJIvtd4BAAAAAAAAAAAD5munTnfXJaVrPWSQCLCe4fDhA0u9rvfqJD9ovQUAAAAAAAAAAAZD9+MtS/0r79u/8+nWSwaNAOtZHJ0ee2x5ubczycOttwAAAAAAAAAAQGOP9dLfcff+nVqaZyHAeg4P3TH245S8MolqDwAAAAAAAACAzWqp9Mqr7xm95IethwwqAdbzWJia+Hq6vD6Jv1sJAAAAAAAAAMBm05Xk+pk9Q19qPWSQCbBewMKhiX9Iyvta7wAAAAAAAAAAgDX2vpnR4b9tPWLQCbDOwsL0+LtLl79rvQMAAAAAAAAAANZGmZwdHXp36xXrgQDr7HQXnn7i95N8o/UQAAAAAAAAAABYZXdtfer0dUnpWg9ZDwRYZ+n+Oz9+qpw5szvJfa23AAAAAAAAAADAKrm/9Mqlhw/sOtF6yHohwDoH81+85dF0y7uSPN56CwAAAAAAAAAArLDjpVd2zewZ+mnrIeuJAOscLRy6+fv9Xv+KJKdbbwEAAAAAAAAAgBWylC5XzuwZmms9ZL0RYFU4dnD/V5LuhtY7AAAAAAAAAABgJXRd3jw7NnxH6x3rkQCr0sL0vr9Jyk2tdwAAAAAAAAAAwHm6cW5s+MOtR6xXAqzzsDA9/vZ0+VTrHQAAAAAAAAAAUKN0+ezs9m+9o/WO9UyAdX663kt6v5cu32o9BAAAAAAAAAAAztHhXFCuzchIv/WQ9UyAdZ6OTo6dXNqydEVSHmi9BQAAAAAAAAAAzk6Z73VLl83sGfp56yXrnQBrBTx824eO9XvLO5M80XoLAAAAAAAAAAC8gCe7Xn/nPWO75lsP2QgEWCvk2MH993YlVyc503oLAAAAAAAAAAA8h+XSldfO7dkx03rIRiHAWkGLUxPTSXlj6x0AAAAAAAAAAPAc3jIzNnRr6xEbiQBrhS1Mj3+0pEy03gEAAAAAAAAAAM8wPjs6fEvrERuNAGsVzP/ORX+UlM+13gEAAAAAAAAAAEmSLgdf9uDxt7WesREJsFbDyEg/W09cU5K7Wk8BAAAAAAAAAGDTu7v/9LarJievWm49ZCMSYK2ShVsPnOj1ly9P8mDrLQAAAAAAAAAAbFqLXcplRz508VOth2xUAqxV9ODtNy+k178sif/AAAAAAAAAAACstRO9LpfPjQ75AqFVJMBaZQsH99/dK93VSXyFGwAAAAAAAAAAa6WfLtfcMzb8ndZDNjoB1ho4OrXvtlLKn7TeAQAAAAAAAADA5lCS/zw7Nvy51js2AwHWGpmfGh9Nulta7wAAAAAAAAAAYGPrko/OjA6Pt96xWQiw1tDC9sW3JPlC6x0AAAAAAAAAAGxMXTL9m9u3vbH1js1EgLWWJieXT2/bdk2SmdZTAAAAAAAAAADYcO7d0t/2mjtHLj7TeshmIsBaY498/qYnuwvO7E7yUOstAAAAAAAAAABsGMfOlOWd3x2/+Geth2w2AqwGFm+75YGu6y5JcqL1FgAAAAAAAAAA1rtysqR/xff2XvJA6yWbkQCrkcVD+w53ybVJ+q23AAAAAAAAAACwbnWl9N8wM7rzW62HbFYCrIYWpyc+05XyztY7AAAAAAAAAABYt/7rzN4dn2w9YjMTYDW2ODX+ga7LR1rvAAAAAAAAAABgnSn5m9nR4Rtbz9jsBFgD4KWPnnxTki+23gEAAAAAAAAAwLrx1f6Lj9/QegQCrIFw+PCBpVO9/iuTHGm9BQAAAAAAAACAgff9bD1z+ZGRq063HoIAa2A8dnD/8eVueVeSn7beAgAAAAAAAADAgCp5tN9l1+wHL3289RT+LwHWAHno0M0/Sb+8MsnTrbcAAAAAAAAAADBwTnVd2X1kbPi+1kP4/wRYA2bh9vF/KumuTdK13gIAAAAAAAAAwMDounS/Pzc69I3WQ/hVAqwBND+979Mp5b2tdwAAAAAAAAAAMDDePTe64+9aj+DXCbAG1MLU+HtKyida7wAAAAAAAAAAoK2S/MPs6ND7Wu/g2QmwBld30faLrk/y5dZDAAAAAAAAAABoo0u+fmKp//qkdK238OwEWAPsyOTI6XLmzKuT/GvrLQAAAAAAAAAArLXuxxcu9V953/6dT7dewnMTYA24+S/e8mhKdiV5vPUWAAAAAAAAAADWzGO99HfcvX/nw62H8PwEWOvAwtTED7oulydRMwIAAAAAAAAAbHxLpVdefc/oJT9sPYQXJsBaJxYPTXy1lHJD6x0AAAAAAAAAAKy6P5zZM/Sl1iM4OwKsdWR+avzjpes+0HoHAAAAAAAAAACrpJT3zY4O/1XrGZw9AdY6M39o358m+WTrHQAAAAAAAAAArLQyObv3Fe9qvYJzI8Baf7re9t4bknyz9RAAAAAAAAAAAFbMXVufOn1dUrrWQzg3Aqx16Ojk2Mls3bI7yY9abwEAAAAAAAAA4Lzd3y1v2XX4wK4TrYdw7gRY69TCrXsf6ff6u5P8rPUWAAAAAAAAAACqHU+3vHtu4ncfaj2EOgKsdezYwf33pt+/OsmZ1lsAAAAAAAAAADhnS10pr5odu2S29RDqCbDWuYXb9x9KyQ2tdwAAAAAAAAAAcG5Kylvm9g7d3noH50eAtQEsTE18rEs32noHAAAAAAAAAABn7aaZ0aG/bD2C8yfA2iAWf+ff/XGSf2y9AwAAAAAAAACA51eSL7zswePvaL2DlSHA2ihGRvq97b1runTfaT0FAAAAAAAAAIDn9C/plddMTl613HoIK0OAtYEcnRw7uTW9y5M82HoLAAAAAAAAAADPVObLlv5lM3uGft56CStHgLXBPDA9vrjcdTuTPNF6C/B/2Lu3J0vr+t7j32c1NCa7HFArVXt7vauyc72rUknuqBJ7uoHhKCCkgrWhaqOJh5QxxhiTVhMVmOnDDJKdMRp3zEHT5oQo0w1sJ2ricRS6eyQqKspM9yADwnCYYXp6/fZFlIDMMH1Ya/2e5/e8Xn/B5+pZ6+Jd3x8AAAAAAAAAPOuJbqTz528aO5B7CL0lwCrQQ3M7F7upem1EOFUHAAAAAAAAAJDfapWqa/ZPbL039xB6T4BVqENzU3ekSG/NvQMAAAAAAAAAoPVSvGV+cuRTuWfQHwKsgi3P7pyOiFty7wAAAAAAAAAAaKuUYnphcqt+o2ACrMItbVl6S1RJQQkAAAAAAAAAMGgp7vilA0e8YFY4AVbpZmZWjw+/5JqIyhuiAAAAAAAAAACDszg8PPTamZkrVnMPob8EWC1w+LabnuicWZ0fKQ7m3gIAAAAAAAAA0ALLKaqxfTee93juIfSfAKslDtw+eTBFuiginsq9BQAAAAAAAACgXNXRToqLFydGHsy9hMEQYLXI8tzOfamqfiMiurm3AAAAAAAAAAAUqBtVXH3v5Nav5B7C4AiwWmZ5z9Q/RKR35N4BAAAAAAAAAFCcqvqdhR0j/5R7BoMlwGqhpdmdN6WI/5N7BwAAAAAAAABAKaqoPrywY2Qy9w4GT4DVUq88fPRNEemu3DsAAAAAAAAAAJouRcy+fMvwDbl3kIcAq6X27du9cqyTLqsiFnNvAQAAAAAAAABosG+e0T3rqr3j557IPYQ8BFgt9ugdu46sVtWFEfGj3FsAAAAAAAAAAJomRRxOQ91t90yd+1juLeQjwGq5Q3umHuhWcUFEPJ17CwAAAAAAAABAgxzrRPfCxZvHvpt7CHkJsIhDe6a/WlXxuohIubcAAAAAAAAAADRAqqr0v+Ynxr6Uewj5CbCIiIiDe6Znqkh/lHsHAAAAAAAAAEDtVdXvz+8Y/dvcM6gHARbPOji7849TxF/m3gEAAAAAAAAAUFtV/MXCjpEP5J5BfQiweK70ysNHr4+Iz+YeAgAAAAAAAABQQ5/rvvTIDblHUC8CLJ5n377dK53oXB6Rvp17CwAAAAAAAABAjfx7DJ+4eP/4FcdzD6FeBFi8wIHZyUdXV4dGI+Lh3FsAAAAAAAAAALKr4pGhoc62hQ9c8OPcU6gfARYn9dBdk99L0bksIp7JvQUAAAAAAAAAIKPjqUqX33Pzq7+Tewj1JMDilJZnJz8fKb0uIlLuLQAAAAAAAAAAGaQU6brF7aN7cw+hvgRYvKiluZ0fT5Hel3sHAAAAAAAAAMDApRhfnBj9q9wzqDcBFqe1PLvzXVGlv869AwAAAAAAAABgUKqITyxMjrw39w7qT4DFWqThY0euj4gv5h4CAAAAAAAAANBvKeILT690r42oUu4t1J8AizV5YO9Hj8XwGdsi4v7cWwAAAAAAAAAA+id978yV7qX37xp7JvcSmkGAxZotfWrH4bRabYuIx3JvAQAAAAAAAADog0er1Rj7xq6xh3MPoTkEWKzL8l1T93Wq6pKIOJ57CwAAAAAAAABAD61Uka6Ynx79Vu4hNIsAi3U7sGdqb6Tq9bl3AAAAAAAAAAD0TFX91vzE6N25Z9A8Aiw2ZGlu6iNRVdtz7wAAAAAAAAAA2KwU8ScLO0Z2595BMwmw2LClXznn7ZHiH3PvAAAAAAAAAADYsJQ+ubjlS3+YewbNJcBi48bHu52zO9dExJdzTwEAAAAAAAAAWL/0teGnTlwb4+Pd3EtoLgEWm3JgZvLomVFdEhE/zL0FAAAAAAAAAGAdHkirZ16wb/eFT+ceQrMJsNi0H8xOLXejMxYRj+feAgAAAAAAAACwBkcirW5bnH7VQ7mH0HwCLHri0Ozk/hTpqog4kXsLAAAAAAAAAMCLOJGq6vKFyfMXcg+hDAIsemZ5dueeFPGG3DsAAAAAAAAAAE6liupNiztG7sy9g3IIsOip5dnpD0VV7cq9AwAAAAAAAADgZ6Wqunl+YuRPc++gLAIsem7pV855S0TclnsHAAAAAAAAAMCzUnz6l374+Dtyz6A8Aix6b3y8u/LMyjUR1b25pwAAAAAAAAAARMTXq6HqypmZK1ZzD6E8Aiz64uG9tz451D0xFhEHcm8BAAAAAAAAAFptqTqje9H89pGncg+hTAIs+ubBO29ZiqguiggfMAAAAAAAAAAghye6EWPzN405IEPfCLDoq6XZqa9XUV0ZEU74AQAAAAAAAACDtFpF+vX9E1vvzT2Esgmw6LuDs1OfjpR+L/cOAAAAAAAAAKBFUrxlfmL0ttwzKJ8Ai4FYmtu5PVLcmnsHAAAAAAAAAFC+KqqdC5Nbb8m9g3YQYDEwS8df9uaIuDP3DgAAAAAAAACgYCnuePmW4bfmnkF7CLAYnL3jJ451updHioXcUwAAAAAAAACAIu0fHh567d7xc0/kHkJ7CLAYqEfv2HWk26m2RcRDubcAAAAAAAAAAEVZTlGN7rvxvMdzD6FdBFgM3KE9Uw+kbueCiHg69xYAAAAAAAAAoATV0U6KixcnRh7MvYT2EWCRxfKdk1+rUnVtRHRzbwEAAAAAAAAAGq0bVVx97+TWr+QeQjsJsMjm4NzUJ6tU/WHuHQAAAAAAAABAk6W3LewY+afcK2gvARZZHZyb+pOqqnbn3gEAAAAAAAAANE8V1YcXJkYncu+g3QRYZPdfH376tyLi7tw7AAAAAAAAAIAmSXMv3zJ8Q+4VIMAiu337dq90onNFRHwr9xYAAAAAAAAAoBHuG+q+5Mq94+eeyD0EBFjUwoHZyUdXVztjEfFw7i0AAAAAAAAAQH2liMNpqHvhPVPnPpZ7C0QIsKiRh+6a/F5UcWlEPJN7CwAAAAAAAABQS8eqbtq2ePPYd3MPgZ8SYFErS3umvxApro2IlHsLAAAAAAAAAFArKVJctzA1+sXcQ+C5BFjUztLc9Cci4r25dwAAAAAAAAAA9ZEivXNhcuvf5N4BP0uARS0tzU6PVyn+KvcOAAAAAAAAAKAWPro4Mfr+3CPgZARY1FU65+yXXZci9uYeAgAAAAAAAABk9bmjK90bco+AUxFgUVv7Z8aPd06cuDwi7s+9BQAAAAAAAADIoIpvxfCJi+/fNfZM7ilwKgIsau3g3R98JNLqhRHx49xbAAAAAAAAAIABquKRoU7nwoUPXKAZoNYEWNTe0twt/55SXBwRx3NvAQAAAAAAAAAG4niq0uX33Pzq7+QeAqcjwKIRluemPxeRvOcKAAAAAAAAAOVLqYrrF7eP7s09BNZCgEVjLM3u/IuIuDH3DgAAAAAAAACgf1JU717csfVjuXfAWgmwaJSl2el3RMTf5t4BAAAAAAAAAPReFfGJxYlXvyf3DlgPARZNkzpbOtdFii/lHgIAAAAAAAAA9E6K+MLTK91rI6qUewushwCLxjkwM3l05YyVSyKqH+TeAgAAAAAAAAD0xPc7neqy+3eNPZN7CKyXAItGevgztx7qdlbHIuKx3FsAAAAAAAAAgE15tFpNo/PbR36UewhshACLxjp0x65vpiquiogTubcAAAAAAAAAABuyUkW6Yn569Fu5h8BGCbBotOU907MR1etz7wAAAAAAAAAANqCqfmt+YvTu3DNgMwRYNN7S7NSfVxFTuXcAAAAAAAAAAGuXUrxvYcfI7tw7YLMEWBTh4K++7K0R1T/n3gEAAAAAAAAArEFKn1w8+0vvyj0DekGARRnGx7sx/PTVVcRXc08BAAAAAAAAAF5M+trwUyeujfHxbu4l0AsCLIqx9KndT3e6qxdHxIO5twAAAAAAAAAAJ/VAWj3zgn27L3w69xDoFQEWRXnwzluWotO9KCKezL0FAAAAAAAAAHieI5FWty1Ov+qh3EOglwRYFGfpjl3f6FTpyohYzb0FAAAAAAAAAIiIiBOpqi5fmDx/IfcQ6DUBFkU6sGfnZ6oUb8u9AwAAAAAAAACIqFJ68+KOkTtz74B+EGBRrINz05MR6YO5dwAAAAAAAABAm1WRts9Pjt6aewf0iwCLoi1tWX5zRNyeewcAAAAAAAAAtFKKT//ig0/8Xu4Z0E8CLMo2M7N6/Kyzro6I+dxTAAAAAAAAAKBlvl4NVVfOzFyxmnsI9JMAi+Idvu2mJ9LQiW0R8VDuLQAAAAAAAADQEkvVGd2L5rePPJV7CPSbAItWWP7MB3+QUjo/InzYAQAAAAAAAKC/nuxGjM3fNHYg9xAYBAEWrbE8t3Nfirg2Irq5twAAAAAAAABAoVarSNfsn9h6b+4hMCgCLFpleXb67yPFO3PvAAAAAAAAAIASpar67fmJ0dty74BBEmDROktz0x9IKf4s9w4AAAAAAAAAKEpKuxd3jOzKPQMGTYBFK73ykaNvjIi7c+8AAAAAAAAAgELsecXZL/nN3CMgBwEWrbRv3+6VY53upVXEYu4tAAAAAAAAANBw+4fPHLpq7/i5J3IPgRwEWLTWo3fsOnIirW6LiB/l3gIAAAAAAAAADbXcXR0a23fjeY/nHgK5CLBotYfmbvl+dKtLI+JY7i0AAAAAAAAA0CzV0apTXbJ/+rwf5l4COQmwaL2lO6f+tYp0bUSk3FsAAAAAAAAAoCG6KXWvmd8+8uXcQyA3ARZExMHZnX8XKb079w4AAAAAAAAAaIKU4ncXJ0f/MfcOqAMBFvzE0tzO91RRfSz3DgAAAAAAAACosyqqDy9Obt2RewfUhQAL/lM6Z8s510fEZ3MPAQAAAAAAAIBaSrF3dcvjb8g9A+pEgAXPsX9m/Hh14sRrIuI7ubcAAAAAAAAAQM3cN5TOumT/+BXHcw+BOhFgwc84ePcHHxnqdEcj4nDuLQAAAAAAAABQBynicDfFtnumzn0s9xaoGwEWnMSDd+z6bkpxWUQ8k3sLAAAAAAAAAGR2rOqmbfsnt96fewjUkQALTmF5bvpzVVXdkHsHAAAAAAAAAGSUIsV1C1OjX8w9BOpKgAUv4uCeqY9WKb0/9w4AAAAAAAAAyCFFeufC5Na/yb0D6kyABadxcG7nOyPCjwkAAAAAAAAAbfPRxYlRR0vgNARYcHpp+JnHr4sI5xQBAAAAAAAAaIvPHV3p3pB7BDSBAAvW4IG9Hz0Ww2dsi4jv5t4CAAAAAAAAAH323eFq5bL7d409k3sINIEAC9Zo6VM7DqfV6sKIeCz3FgAAAAAAAADoiyoeGRrqjO7bceHh3FOgKQRYsA7Ld03dF93ulRFxIvcWAAAAAAAAAOix490Ur7nn5ld/J/cQaBIBFqzT0p275qIK79wCAAAAAAAAUJKUqrh+/8TWz+YeAk0jwIINWNoz/eEUaSL3DgAAAAAAAADohSrSexZ3bP1Y7h3QRAIs2KDlX3352yLin3LvAAAAAAAAAIBNqeLv5ie2vjv3DGgqARZs1Ph4t7Olc3WK9JXcUwAAAAAAAABgI6pI/3r0ePc3IqqUews0lQALNuHAzOTR4ehcHBEP5t4CAAAAAAAAAOv0/eh0Lr1/19gzuYdAkwmwYJN+MDu13I3OaEQ8nnsLAAAAAAAAAKzRkU6KC+e3j/wo9xBoOgEW9MCh2cn93VS9NiJO5N4CAAAAAAAAAKexUkW69N7JrftzD4ESCLCgRw7NTd2RIv1O7h0AAAAAAAAA8OLSG+cnRu/OvQJKIcCCHlqe3TkdEbfk3gEAAAAAAAAAJ1NF9f6FidE/y70DSiLAgh5b2rL0lqjSp3LvAAAAAAAAAIDnShF/P7/li3+QeweURoAFvTYzs3p8+CXXRFT35p4CAAAAAAAAAP8hfe2sJ1d+I8bHu7mXQGkEWNAHh2+76YnOmdX5EXEg9xYAAAAAAAAA2q2K+EFaPfOCfbsvfDr3FiiRAAv65MDtkwcjqosi4qncWwAAAAAAAABorSe6nbRtcfpVD+UeAqUSYEEfLc1Ofb1KcVVErObeAgAAAAAAAEDrrKaorl7cPjqfewiUTIAFfXZwbvr2iPT7uXcAAAAAAAAA0C5VSm9anBi5PfcOKJ0ACwZgaXbnTRHxp7l3AAAAAAAAANAOVRU75idHb829A9pAgAUD8t8OH31zRNyZewcAAAAAAAAAhUvx6V/84ZG3554BbSHAggHZt2/3yrFO9/IqYjH3FgAAAAAAAACK9Y1qqLpyZuaK1dxDoC0EWDBAj96x68hqVV0YEQ/l3gIAAAAAAABAcZaqM7rb5rePPJV7CLSJAAsG7NCeqQe6VVwYEU/n3gIAAAAAAABAMZ7sdjvnz980diD3EGgbARZkcGjP9FerKl4XEVV4YfcAACAASURBVCn3FgAAAAAAAAAarxspfn3/1KvvyT0E2kiABZkc3DM9U0X6o9w7AAAAAAAAAGi2FOm3Fya3/nPuHdBWAizI6ODszj9OEX+ZewcAAAAAAAAAjfWhxYnRnblHQJsJsCCv9MrDR6+PKv5f7iEAAAAAAAAANM6eV2w56w25R0DbCbAgs337dq90Uuc1EenbubcAAAAAAAAA0Bj7h88cumrv+Lkncg+BthNgQQ0cmJ18dHV1aDQiHs69BQAAAAAAAIDaO9RdHRrbd+N5j+ceAgiwoDYeumvyeyk6l0XEM7m3AAAAAAAAAFBX1dGqU128f/q8H+ZeAvwHARbUyPLs5OcjpddFRMq9BQAAAAAAAIDa6abUvWZ++8iXcw8B/pMAC2pmaW7nx1OKP8m9AwAAAAAAAIB6SVG9fXFy9B9z7wCeT4AFNbQ8N/2HUaW/zr0DAAAAAAAAgHqoovrw4sTI9tw7gBcSYEE9peFjR66PiH/LPQQAAAAAAACAzFLsXd3y+BtyzwBOToAFNfXA3o8ei+EzLoqI+3NvAQAAAAAAACCb+4bSWZfsH7/ieO4hwMkJsKDGlj6143BarbZFxI9zbwEAAAAAAABgsFLE4W6KbfdMnftY7i3AqQmwoOaW75q6r9vpXhIRamYAAAAAAACA9jhWddO2/ZNbvZoENSfAggY4dMeuf4lUvT73DgAAAAAAAAAGIkWK6xamRr+YewhwegIsaIiluamPRIqbc+8AAAAAAAAAoL+qKv5gYXLr3+TeAayNAAsaZOnXXvZ7VcQ/5N4BAAAAAAAAQJ9U6f/O79j6vtwzgLUTYEGTjI93qy2dX4+IL+eeAgAAAAAAAEDPff7o8fS/c48A1keABQ1zYGby6MrQysUR8cPcWwAAAAAAAADome8OVyuX3r9r7JncQ4D1EWBBAz38mVsPdaMzFhGP594CAAAAAAAAwCZV8UgnVsf27bjwcO4pwPoJsKChDs1O7k+RroqIE7m3AAAAAAAAALBhK90Ur7l34vxv5x4CbIwACxpseXbnnhTxhtw7AAAAAAAAANiQlKq4bv/E1s/mHgJsnAALGm55dvpDkWJn7h0AAAAAAAAArE8V6T2LO7Z+LPcOYHMEWFCApV972W9HxG25dwAAAAAAAACwRlX83fzE1nfnngFsngALSjA+3l15ZuWaiLgn9xQAAAAAAAAAXlwV6V+feOlZ10ZUKfcWYPMEWFCIh/fe+uRQd/X8iDiQewsAAAAAAAAAp/T96HQufWD83GO5hwC9IcCCgjx45y1LEdVFEfFU7i0AAAAAAAAAvMCRqlNtm98+8qPcQ4DeEWBBYZZmp75eRXVlRKzm3gIAAAAAAADAs1YixWXz20cWcw8BekuABQU6ODv16Sri7bl3AAAAAAAAAPBT6Y0Lk1vvyr0C6D0BFhTq4Oz0jkhxa+4dAAAAAAAAAK2X0gcWJkb/LPcMoD8EWFCwpbOX3hQRn869AwAAAAAAAKCtUsTfL5z95Xfm3gH0jwALSjYzs3qs0706UizkngIAAAAAAADQQvs6neraGB/v5h4C9I8ACwr36B27jnQ71baIeCj3FgAAAAAAAIC2qCJ+kFbPOH9++8hTubcA/SXAghY4tGfqgdTtXBART+feAgAAAAAAANACT3Q7advi9KscyoAWEGBBSyzfOfm1KlXXRoTTlgAAAAAAAAD9s5qiunpx++h87iHAYAiwoEUOzk19MkW8K/cOAAAAAAAAgIK9eXFi5PbcI4DBEWBByyzPTr+vqqrduXcAAAAAAAAAFGhiYWLrB3OPAAZLgAUtdM5Lz3ljitibewcAAAAAAABAOarP/I8Hj/xu7hXA4AmwoIX2z4wfH4rOZRHxrdxbAAAAAAAAAArwje6x4StnZq5YzT0EGDwBFrTUgdnJR1fT6mhEPJx7CwAAAAAAAECDLaWoLtp/67lP5h4C5CHAghZ7aO6W70cVl0bEM7m3AAAAAAAAADTQk91u5/zFiZEHcw8B8hFgQcst7Zn+QqS4NiJS7i0AAAAAAAAADbKaonrt/qlX35N7CJCXAAuIpbnpT0TEe3PvAAAAAAAAAGiKqoq3Lk6M3J57B5CfAAuIiIil2enxKsVf5d4BAAAAAAAA0AAfmt+xdTr3CKAeBFjAT6Vzzn7ZdSlib+4hAAAAAAAAAHWVImZfseWsN+TeAdSHAAt41v6Z8eOdEycuj4jv5N4CAAAAAAAAUEPfPOvMoSv3jp97IvcQoD4EWMDzHLz7g49EWt0WET/OvQUAAAAAAACgRg51V4dG99143uO5hwD1IsACXmBp7pZ/TykujojjubcAAAAAAAAA5FcdraJ7yf7p836YewlQPwIs4KSW56Y/F5FuyL0DAAAAAAAAILNUpe7/mp8Y+1LuIUA9CbCAU1qa3fkXEXFj7h0AAAAAAAAAuVQpvX1+cvTjuXcA9SXAAl7U0uz0OyLib3PvAAAAAAAAAMjgI/OTozfnHgHUmwALOJ3U2dK5LlI4pwkAAAAAAAC0SPUv3S1HXp97BVB/AizgtA7MTB5dOWPlkojqB7m3AAAAAAAAAAzAfTG8csn+8SuO5x4C1J8AC1iThz9z66FuZ3UsIh7LvQUAAAAAAACgX1LE4W6KbQsfuODHubcAzSDAAtbs0B27vpmquCoiTuTeAgAAAAAAANAHxyKqi/ZPbr0/9xCgOQRYwLos75mejai8cwwAAAAAAACUJkVVXb84MfJvuYcAzSLAAtZtaXbqz6uIqdw7AAAAAAAAAHqliupdCztG/jr3DqB5BFjAhhz81Ze9NaL659w7AAAAAAAAADYrVenj8xOvfl/uHUAzCbCAjRkf78bw01dXEV/NPQUAAAAAAABgEz5/7Hh6XUSVcg8BmkmABWzY0qd2P93prl4cEQ/m3gIAAAAAAACwful7Z6x0L7t/19gzuZcAzSXAAjblwTtvWYpO96KIeDL3FgAAAAAAAIB1eLQT3dFv7Bp7OPcQoNkEWMCmLd2x6xudKl0ZEau5twAAAAAAAACswUo34vJ7J87/du4hQPMJsICeOLBn52eqFG/LvQMAAAAAAADgNFIVcf3+ia2fzT0EKIMAC+iZg3PTkxHpg7l3AAAAAAAAAJxSFe+dn9j6l7lnAOUQYAE9tbRl+c0RcXvuHQAAAAAAAAAvVM0s7BgZz70CKIsAC+itmZnV42eddXVEzOeeAgAAAAAAAPAcXx1+8vjrIqqUewhQFgEW0HOHb7vpic6ZnbFIcTD3FgAAAAAAAICI+H7VqS7Yt/vCp3MPAcojwAL64sDtkwc7VefSqM54MPcWAAAAAAAAoL2GhoYeTN2h8+e3j/wo9xagTAIsoG8OzE5+ZXj1v/zPqoobI0JJDgAAAAAAAAzSU1VUO39uuPvLi1Pn3Zd7DFCuKvcAoB3++2s+8gsnzjr+1pTijRHx87n3AADN9nNbXhFn/txLc88AAAB67Jyzfz5+4RX+6wMAm/ZUFdWHO9Xx98/85i8fyj0GKJ8ACxgoIRYA0AsCLAAAKJMACwDYJOEVkIUAC8hCiAUAbIYACwAAyiTAAgA2SHgFZCXAArISYgEAGyHAAgCAMgmwAIB1El4BtSDAAmpBiAUArIcACwAAyiTAAgDWSHgF1IoAC6gVIRYAsBYCLAAAKJMACwA4DeEVUEsCLKCWhFgAwIsRYAEAQJkEWADAKQivgFoTYAG1JsQCAE5GgAUAAGUSYAEAP0N4BTSCAAtoBCEWAPBcAiwAACiTAAsA+AnhFdAoAiygUYRYAECEAAsAAEolwAKA1hNeAY0kwAIaSYgFAO0mwAIAgDIJsACgtYRXQKMJsIBGE2IBQDsJsAAAoEwCLABoHeEVUAQBFlAEIRYAtIsACwAAyiTAAoDWEF4BRRFgAUURYgFAOwiwAACgTAIsACie8AookgALKJIQCwDKJsACAIAyCbAAoFjCK6BoAiygaEIsACiTAAsAAMokwAKA4givgFYQYAGtIMQCgLIIsAAAoEwCLAAohvAKaBUBFtAqQiwAKIMACwAAyiTAAoDGE14BrSTAAlpJiAUAzSbAAgCAMgmwAKCxhFdAqwmwgFYTYgFAMwmwAACgTAIsAGgc4RVACLAAIkKIBQBNI8ACAIAyCbAAoDGEVwDPIcACeA4hFgA0gwALAADKJMACgNoTXgGchAAL4CSEWABQbwIsAAAokwALAGpLeAXwIgRYAC9CiAUA9STAAgCAMgmwAKB2hFcAayDAAlgDIRYA1IsACwAAyiTAAoDaEF4BrIMAC2AdhFgAUA8CLAAAKJMACwCyE14BbIAAC2ADhFgAkJcACwAAyiTAAoBshFcAmyDAAtgEIRYA5CHAAgCAMgmwAGDghFcAPSDAAugBIRYADJYACwAAyiTAAoCBEV4B9JAAC6CHhFgAMBgCLAAAKJMACwD6TngF0AcCLIA+EGIBQH8JsAAAoEwCLADoG+EVQB8JsAD6SIgFAP0hwAIAgDIJsACg54RXAAMgwAIYACEWAPSWAAsAAMokwAKAnhFeAQyQAAtggIRYANAbAiwAACiTAAsANk14BZCBAAsgAyEWAGyOAAsAAMokwAKADRNeAWQkwALISIgFABsjwAIAgDIJsABg3YRXADUgwAKoASEWAKyPAAsAAMokwAKANRNeAdSIAAugRoRYALA2AiwAACiTAAsATkt4BVBDAiyAGhJiAcCLE2ABAECZBFgAcErCK4AaE2AB1JgQCwBOToAFAABlEmABwAsIrwAaQIAF0ABCLAB4PgEWAACUSYAFAM8SXgE0iAALoEGEWADwHwRYAABQJgEWAAivAJpIgAXQQEIsANpOgAUAAGUSYAHQYsIrgAYTYAE0mBALgLYSYAEAQJkEWAC0kPAKoAACLIACCLEAaBsBFgAAlEmABUCLCK8ACiLAAiiIEAuAthBgAQBAmQRYALSA8AqgQAIsgAIJsQAonQALAADKJMACoGDCK4CCCbAACibEAqBUAiwAACiTAAuAAgmvAFpAgAXQAkIsAEojwAIAgDIJsAAoiPAKoEUEWAAtIsQCoBQCLAAAKJMAC4ACCK8AWkiABdBCQiwAmk6ABQAAZRJgAdBgwiuAFhNgAbSYEAuAphJgAQBAmQRYADSQ8AoAARYAQiwAmkeABQAAZRJgAdAgwisAniXAAuBZQiwAmkKABQAAZRJgAdAAwisAXkCABcALCLEAqDsBFgAAlEmABUCNCa8AOCUBFgCnJMQCoK4EWAAAUCYBFgA1JLwC4LQEWACclhALgLoRYAEAQJkEWADUiPAKgDUTYAGwZkIsAOpCgAUAAGUSYAFQA8IrANZNgAXAugmxAMhNgAUAAGUSYAGQkfAKgA0TYAGwYUIsAHIRYAEAQJkEWABkILwCYNMEWABsmhALgEETYAEAQJkEWAAMkPAKgJ4RYAHQM0IsAAZFgAUAAGUSYAEwAMIrAHpOgAVAzwmxAOg3ARYAAJRJgAVAHwmvAOgbARYAfSPEAqBfBFgAAFAmARYAfSC8AqDvBFgA9J0QC4BeE2ABAECZBFgA9JDwCoCBEWABMDBCLAB6RYAFAABlEmAB0APCKwAGToAFwMAJsQDYLAEWAACUSYAFwCYIrwDIRoAFQDZCLAA2SoAFAABlEmABsAHCKwCyE2ABkJ0QC4D1EmABAECZBFgArIPwCoDaEGABUBtCLADWSoAFAABlEmABsAbCKwBqR4AFQO0IsQA4HQEWAACUSYAFwIsQXgFQWwIsAGpLiAXAqQiwAACgTAIsAE5CeAVA7QmwAKg9IRYAP0uABQAAZRJgAfAcwisAGkOABUBjCLEA+CkBFgAAlEmABUAIrwBoIAEWAI0jxAJAgAUAAGUSYAG0mvAKgMYSYAHQWEIsgPYSYAEAQJkEWACtJLwCoPEEWAA0nhALoH0EWAAAUCYBFkCrCK8AKIYAC4BiCLEA2kOABQAAZRJgAbSC8AqA4giwACiOEAugfAIsAAAokwALoGjCKwCKJcACoFhCLIByCbAAAKBMAiyAIgmvACieAAuA4gmxAMojwAIAgDIJsACKIrwCoDUEWAC0hhALoBwCLAAAKJMAC6AIwisAWkeABUDrCLEAmk+ABQAAZRJgATSa8AqA1hJgAdBaQiyA5hJgAQBAmQRYAI0kvAKg9QRYALSeEAugeQRYAABQJgEWQKMIrwDgJwRYAPATQiyA5hBgAQBAmQRYAI0gvAKAnyHAAoCfIcQCqD8BFgAAlEmABVBrwisAOAUBFgCcghALoL4EWAAAUCYBFkAtCa8A4DQEWABwGkIsgPoRYAEAQJkEWAC1IrwCgDUSYAHAGgmxAOpDgAUAAGUSYAHUgvAKANZJgAUA6yTEAshPgAUAAGUSYAFkJbwCgA0SYAHABgmxAPIRYAEAQJkEWABZCK8AYJMEWACwSUIsgMETYAEAQJkEWAADJbwCgB4RYAFAjwixAAZHgAUAAGUSYAEMhPAKAHpMgAUAPSbEAug/ARYAAJRJgAXQV8IrAOgTARYA9IkQC6B/BFgAAFAmARZAXwivAKDPBFgA0GdCLIDeE2ABAECZBFgAPSW8AoABEWABwIAIsQB6R4AFAABlEmAB9ITwCgAGTIAFAAMmxALYPAEWAACUSYAFsCnCKwDIRIAFAJkIsQA2ToAFAABlEmABbIjwCgAyE2ABQGZCLID1E2ABAECZBFgA6yK8AoCaEGABQE0IsQDWToAFAABlEmABrInwCgBqRoAFADUjxAI4PQEWAACUSYAF8KKEVwBQUwIsAKgpIRbAqQmwAACgTAIsgJMSXgFAzQmwAKDmhFgALyTAAgCAMgmwAJ5HeAUADSHAAoCGEGIB/CcBFgAAlEmABRARwisAaBwBFgA0jBALQIAFAAClEmABLSe8AoCGEmABQEMJsYA2E2ABAECZBFhASwmvAKDhBFgA0HBCLKCNBFgAAFAmARbQMsIrACiEAAsACiHEAtpEgAUAAGUSYAEtIbwCgMIIsACgMEIsoA0EWAAAUCYBFlA44RUAFEqABQCFEmIBJRNgAQBAmQRYQKGEVwBQOAEWABROiAWUSIAFAABlEmABhRFeAUBLCLAAoCWEWEBJBFgAAFAmARZQCOEVALSMAAsAWkaIBZRAgAUAAGUSYAENJ7wCgJYSYAFASwmxgCYTYAEAQJkEWEBDCa8AoOUEWADQckIsoIkEWAAAUCYBFtAwwisAICIEWADATwixgCYRYAEAQJkEWEBDCK8AgOcRYAEAzyPEAppAgAUAAGUSYAE1J7wCAE5KgAUAnJQQC6gzARYAAJRJgAXUlPAKAHhRAiwA4EUJsYA6EmABAECZBFhAzQivAIA1EWABAGsixALqRIAFAABlEmABNSG8AgDWRYAFAKyLEAuoAwEWAACUSYAFZCa8AgA2RIAFAGyIEAvISYAFAABlEmABmQivAIBNEWABAJsixAJyEGABAECZBFjAgAmvAICeEGABAD0hxAIGSYAFAABlEmABAyK8AgB6SoAFAPSUEAsYBAEWAACUSYAF9JnwCgDoCwEWANAXQiygnwRYAABQJgEW0CfCKwCgrwRYAEBfCbGAfhBgAQBAmQRYQI8JrwCAgRBgAQADIcQCekmABQAAZRJg/f927h7XkqsKw3DhtsE/ahqwhNqIoAUSMfKInJE59Cicmkl4OCSIlNApoeES0G5ud59zbtWpXbXX/vbzjODL16sFNCK8AgBOJcACAE4lxAJaEGABAEAmARawk/AKAOhCgAUAdCHEAvYQYAEAQCYBFnAn4RUA0JUACwDoSogF3EOABQAAmQRYwEbCKwCgBAEWAFCCEAvYQoAFAACZBFjASsIrAKAUARYAUIoQC1hDgAUAAJkEWMAThFcAQEkCLACgJCEWcIsACwAAMgmwgCuEVwBAaQIsAKA0IRZwiQALAAAyCbCAdwivAIAhCLAAgCEIsYDHBFgAAJBJgAW8JrwCAIYiwAIAhiLEApZFgAUAAKkEWDA94RUAMCQBFgAwJCEWzE2ABQAAmQRYMC3hFQAwNAEWADA0IRbMSYAFAACZBFgwHeEVABBBgAUARBBiwVwEWAAAkEmABdMQXgEAUQRYAEAUIRbMQYAFAACZBFgQT3gFAEQSYAEAkYRYkE2ABQAAmQRYEEt4BQBEE2ABANGEWJBJgAUAAJkEWBBHeAUATEGABQBMQYgFWQRYAACQSYAFMYRXAMBUBFgAwFSEWJBBgAUAAJkEWDA84RUAMCUBFgAwJSEWjE2ABQAAmQRYMCzhFQAwNQEWADA1IRaMSYAFAACZBFgwHOEVAMAiwAIAWJZFiAWjEWABAEAmARYMQ3gFAPCIAAsA4BEhFoxBgAUAAJkEWFCe8AoA4AIBFgDABUIsqE2ABQAAmQRYUJbwCgDgBgEWAMANQiyoSYAFAACZBFhQjvAKAGAFARYAwApCLKhFgAUAAJkEWFCG8AoAYAMBFgDABkIsqEGABQAAmQRY0J3wCgDgDgIsAIA7CLGgLwEWAABkEmBBN8IrAIAdBFgAADsIsaAPARYAAGQSYMHphFcAAA0IsAAAGhBiwbkEWAAAkEmABacRXgEANCTAAgBoSIgF5xBgAQBAJgEWHE54BQBwAAEWAMABhFhwLAEWAABkEmDBYYRXAAAHEmABABxIiAXHEGABAEAmARY0J7wCADiBAAsA4ARCLGhLgAUAAJkEWNCM8AoA4EQCLACAEwmxoA0BFgAAZBJgwW7CKwCADgRYAAAdCLFgHwEWAABkEmDB3YRXAAAdCbAAADoSYsF9BFgAAJBJgAWbCa8AAAoQYAEAFCDEgm0EWAAAkEmABasJrwAAChFgAQAUIsSCdQRYAACQSYAFTxJeAQAUJMACAChIiAW3CbAAACCTAAuuEl4BABQmwAIAKEyIBZcJsAAAIJMAC94jvAIAGIAACwBgAEIseJsACwAAMgmw4A3hFQDAQARYAAADEWLB/wiwAAAgkwALhFcAACMSYAEADEiIxewEWAAAkEmAxcSEVwAAAxNgAQAMTIjFrARYAACQSYDFhIRXAAABBFgAAAGEWMxGgAUAAJkEWExEeAUAEESABQAQRIjFLARYAACQSYDFBIRXAACBBFgAAIGEWKQTYAEAQCYBFsGEVwAAwQRYAADBhFikEmABAEAmARaBhFcAABMQYAEATECIRRoBFgAAZBJgEUR4BQAwEQEWAMBEhFikEGABAEAmARYBhFcAABMSYAEATEiIxegEWAAAkEmAxcCEVwAAExNgAQBMTIjFqARYAACQSYDFgIRXAAAIsAAAEGIxHgEWAABkEmAxEOEVAABvCLAAAHhDiMUoBFgAAJBJgMUAhFcAALxHgAUAwHuEWFQnwAIAgEwCLAoTXgEAcJUACwCAq4RYVCXAAgCATAIsChJeAQDwJAEWAABPEmJRjQALAAAyCbAoRHgFAMBqAiwAAFYTYlGFAAsAADIJsChAeAUAwGYCLAAANhNi0ZsACwAAMgmw6Eh4BQDA3QRYAADcTYhFLwIsAADIJMCiA+EVAAC7CbAAANhNiMXZBFgAAJBJgMWJhFcAADQjwAIAoBkhFmcRYAEAQCYBFicQXgEA0JwACwCA5oRYHE2ABQAAmQRYHEh4BQDAYQRYAAAcRojFUQRYAACQSYDFAYRXAAAcToAFAMDhhFi0JsACAIBMAiwaEl4BAHAaARYAAKcRYtGKAAsAADIJsGhAeAUAwOkEWAAAnE6IxV4CLAAAyCTAYgfhFQAA3QiwAADoRojFvQRYAACQSYDFHYRXAAB0J8ACAKA7IRZbCbAAACCTAIsNhFcAAJQhwAIAoAwhFmsJsAAAIJMAixWEVwAAlCPAAgCgHCEWTxFgAQBAJgEWNwivAAAoS4AFAEBZQiyuEWABAEAmARYXCK8AAChPgAUAQHlCLN4lwAIAgEwCLB4RXgEAMAwBFgAAwxBi8RMBFgAAZBJgsQivAAAYkAALAIDhCLEQYAEAQCYB1tSEVwAADEuABQDAsIRY8xJgAQBAJgHWlIRXAAAMT4AFAMDwhFjzEWABAEAmAdZUhFcAAMQQYAEAEEOINQ8BFgAAZBJgTUF4BQBAHAEWAABxhFj5BFgAAJBJgBVNeAUAQCwBFgAAsYRYuQRYAACQSYAVSXgFAEA8ARYAAPGEWHkEWAAAkEmAFUV4BQDANARYAABMQ4iVQ4AFAACZBFgRhFcAAExHgAUAwHSEWOMTYAEAQCYB1tCEVwAATEuABQDAtIRY4xJgAQBAJgHWkIRXAABMT4AFAMD0hFjjEWABAEAmAdZQhFcAAPCaAAsAAF4TYo1DgAUAAJkEWEMQXgEAwDsEWAAA8A4hVn0CLAAAyCTAKk14BQAAVwiwAADgCiFWXQIsAADIJMAqSXgFAABPEGABAMAThFj1CLAAACCTAKsU4RUAAKwkwAIAgJWEWHUIsAAAIJMAqwThFQAAbCTAAgCAjYRY/QmwAAAgkwCrK+EVAADcSYAFAAB3EmL1I8ACAIBMAqwuhFcAALCTAAsAAHYSYp1PgAUAAJkEWKcSXgEAQCMCLAAAaESIdR4BFgAAZBJgnUJ4BQAAjQmwAACgMSHW8QRYAACQSYB1KOEVAAAcRIAFAAAHEWIdR4AFAACZBFiHEF4BAMDBBFgAAHAwIVZ7AiwAAMgkwGpKeAUAACcRYAEAwEmEWO0IsAAAIJMAqwnhFQAAnEyABQAAJxNi7SfAAgCATAKsXYRXAADQiQALAAA6EWLdT4AFAACZBFh3+dfys+Wvz/798O33X3/5Q+8xAAAwIwEWAAB0JsTaToAFAACZBFib+HgFAABFCLAAAKAIIdZ6AiwAAMgkwFpFeAUAAMUIsAAAoJhXX3338uHHD79ZHh7+sgixLhJgAQBAJgHWTcIrAAAoSoAFAABF+Yh1nQALAAAyCbAuEl4BAEBxAiwAAChOiPU+ARYAAGQSYL1FeAUAAIMQYAEAzAIYuQAAA3ZJREFUwCCEWP8nwAIAgEwCrGVZhFcAADAcARYAAAxGiCXAAgCAVJMHWMIrAAAYlAALAAAGNXOIJcACAIBMkwZYwisAABicAAsAAAY3Y4glwAIAgEyTBVjCKwAACCHAAgCAEDOFWAIsAADINEmAJbwCAIAwAiwAAAgzQ4glwAIAgEzhAZbwCgAAQgmwAAAgVHKIJcACAIBMoQGW8AoAAMIJsAAAIFxiiCXAAgCATGEBlvAKAAAmIcACAIBJJIVYAiwAAMgUEmAJrwAAYDICLAAAmExCiCXAAgCATIMHWMIrAACYlAALAAAmNXKIJcACAIBMgwZYwisAAJicAAsAACY3YoglwAIAgEyDBVjCKwAAYFkWARYAAPDaSCGWAAsAADINEmAJrwAAgLcIsAAAgLeMEGIJsAAAIFPxAEt4BQAAXCTAAgAALqocYgmwAAAgU9EAS3gFAADcJMACAABuqhhiCbAAACBTsQBLeAUAAKwiwAIAAFapFGIJsAAAIFORAEt4BQAAbCLAAgAANqkQYgmwAAAgU+cAS3gFAADcRYAFAADcpWeIJcACAIBMnQIs4RUAALCLAAsAANilR4glwAIAgEwnB1jCKwAAoAkBFgAA0MSZIZYACwAAMp0UYAmvAACApgRYAABAU2eEWAIsAADIdHCAJbwCAAAOIcACAAAOcWSIJcACAIBMBwVYwisAAOBQAiwAAOBQR4RYAiwAAMjUOMASXgEAAKcQYAEAAKdoGWIJsAAAIFOjAEt4BQAAnEqABQAAnKpFiCXAAgCATDsDLOEVAADQhQALAADoYk+IJcACAIBMdwZYwisAAKArARYAANDVPSGWAAsAADJtDLCEVwAAQAkCLAAAoIQtIZYACwAAMq0MsIRXAABAKQIsAACglDUhlgALAAAyPRFgCa8AAICSBFgAAEBJt0IsARYAAGS6EmAJrwAAgNIEWAAAQGmXQqxPfvn5fz765PkHnacBAACNvXjx6cNvP3/+0+1CeAUAAAxBgAUAAAzhcYj12a9f/uPZzz/+c+9NAABAW599+ou//e7lr/4gvAIAAEYiwAIAAIby6qvvXj5/8epPywfPft97CwAA0NZHH3/4zz9+8Zu/f//1lz/03gIAAAAAAAAAAAAAAAAAAAAAAAAAAAAAAAAAAAAAAAAAAAAAAAAAAADAsvwXYzrXMjNN2mAAAAAASUVORK5CYII=;" vertex="1" parent="1">
          <mxGeometry x="930" y="785.45" width="102.85" height="116.09" as="geometry" />
        </mxCell>
        <mxCell id="D9FhCrUlwlGwZ-h1Pyif-16" value="" style="shape=image;verticalLabelPosition=bottom;labelBackgroundColor=#ffffff;verticalAlign=top;aspect=fixed;imageAspect=0;image=data:image/png,iVBORw0KGgoAAAANSUhEUgAAAmAAAAFHCAYAAAAGKvDDAAAgAElEQVR4Ae2dTYs1x5mm+38IRCEwSOCFt9q9ZoQxNLMQphAGMwbRHgTG6G0KjeyNQQtr1AUjMAjc0MU0iFm0cPXMwvTChTfuVW1sb2pp/Bf8D3yG+/jc5aeeNyM/TuWJE5l5LQ4RGR9PfF0ReUfkOSf/7vXXX9+d4nN9fb376U9/WrT98uXL3VdffbX/fPvb3y6mO0XdsDnfmGvsNI6lPh2KL+UjfL4xoi/pSxiAARhoj4G/Y1DaGxTGhDGBARiAARiAgXUzgAA70QkgE2fdE4fxZXxhAAZgAAaewwACDAFWfHz4HLDIy8IEAzAAAzAAA2UGEGAIMAQYDMAADMAADMBAZQYQYJU7nN1AeTdA39A3MAADMAADW2EAAYYAY9cDAzAAAzAAAzBQmYFXBNjl5eXu4eHh8aO/k9iKGqWd7LxgAAZgAAZgAAZqMFAUYDUKpwwghwEYgAEYgAEY2CIDCLDKR45bhIw2s7jCAAzAAAzAwFMGEGAIMB4xwwAMwAAMwAAMVGYAAVa5w9kBPN0B0B/0BwzAAAzAwBYZQIAhwNj1wAAMwAAMwAAMVGYAAVa5w7eo8mkzu1sYgAEYgAEYeMoAAgwBxq4HBmAABmAABmCgMgMIsModzg7g6Q6A/qA/YAAGYAAGtsgAAgwBxq4HBmAABmAABmCgMgMIsModvkWVT5vZ3cIADMAADMDAUwYQYAgwdj0wAAMwAAMwAAOVGUCAVe5wdgBPdwD0B/0BAzAAAzCwRQaKAswv5OZl3EyMLU4M2gz3MAADMAADp2TgFQF2ysKwDcwwAAMwAAMwAAMw8PoOAcYjSJ77wwAMwAAMwAAMVGbgUYC9ePFid3FxwQBUHgB2AewEYQAGYAAGYGB7DCDAEFyIbhiAARiAARiAgcoMIMAqdzi7nO3tchhzxhwGYAAGYCAz0KwAu7293emXmPf396hyRCIMwAAMwAAMwMCqGGhSgOmvLyS+slrkmh0EDMAADMAADMDAGhhoUoDd3NzsdAK2hg6mDSwUMAADMAADMAADmQEEGEe6CF0YgAEYgAEYgIHKDCDAKnd4VsBcsyuCARiAARiAge0x0KQAu7u72+kxJEBuD0jGnDGHARiAARjYAgNNCTD/8vHq6grxxckcDMAADMAADMDAahloSoBZ8XICxu7HLODCAgzAAAzAwBoZaFKA8StIJtsaJxttgmsYgAEYgAEzgADjeHe1x7uGHJcFDwZgAAZgoDUGEGAIMAQYDMAADMAADMBAZQYQYJU7vDUFTn3YFcIADMAADMBAfQaaFGD6FSSvIqoPAxOQPocBGIABGICBOgw0KcA0+P5LCl7GXQcEJhz9DAMwAAMwAAP1GGhWgAFBPQjoa/oaBmAABmAABuoygADjO2B88RIGYAAGYAAGYKAyAwiwyh3ODqPuDoP+pr9hAAZgAAZaZKAZAfbixYvdxcUFChxBCAMwAAMwAAMwsHoGEGBAvnrIW9z5UCd25DAAAzCwbQYQYAgwBBgMwAAMwAAMwEBlBhBglTucHc+2dzyMP+MPAzAAAzAgBhBgSYBd//ZPu5s//mW/E4j+OGG++/Gn+zSf/Op3gzsG2fjoy18/pos2oz/af67/H17+t91//P7fdl/82/Vjuc+1SX4WDBiAARiAARiYjwEEWBJgElVf/OHPe+ES/RG65wiwaDP6o/3n+P/1P77Y+YMAm2+iPGdMyMs4wAAMwAAMZAYQYD0CTCdXFmO548Ze5xOwKLrmsB/r8fGnH+7+5z//dC8eJcIQYEz4yAd+eIABGICBdhhAgCUBNgSnHk/6Ex8tOt87773/GN+Xzum73Ovr6/27MG9ubo5+hIgAa2eSdY0xYYwPDMAADGybAQTYRAHmCaOTsSzALL70iNLp8gmYw/tcBNi2J2UfG8TBBgzAAAysgwEE2IwCTIJMgitOjmMEWMx/rJ8TsHVM0GPHn3yMPwzAAAy0zQACbEYBpu936ROhR4C1PQHiWOFnrGAABmAABmoxgABDgD0RjLXAoxwWORiAARiAgS0zgACbUYB98PmXj/8hJqh0+qUv4ufvig0Bd+rvgNn+7e0t4uvI8R8aQ+K5scAADMAADPQxgACbcAP2/3/5141242NH+R0u4aXrWgLMf8CqP2GNn1/+578+EVqXl5f7X1ne398/Ce8DhTgWEhiAARiAARiYjwEE2AQBtibwJL4QYPNNpDWxQVvgAgZgAAZOzwACbIMC7Orq6tn/M8bkPP3kpI/pYxiAARhYLwMIsI0JsLu7u7340vfAmNjrndiMLWMLAzAAA20zgADbmABjQrY9IRkfxgcGYAAGtsEAAgwBxkkYDMAADMAADMBAZQYQYJU7nJ3NNnY2jDPjDAMwAAMw0McAAgwBxq4HBmAABmAABmCgMgMIsMod3qeGiWO3BAMwAAMwAAPbYAABhgBj1wMDMAADMAADMFCZAQRY5Q5nZ7ONnQ3jzDjDAAzAAAz0MYAAQ4Cx64EBGIABGIABGKjMAAIsdbhfoC3VGv19KnZKnN8TKbfrHZGxzOifUkZf2q9+8oPd73/+4/1Ei37l+eG733qM67OxpLhPvv/uTu0s1XkovpRvbHjJvsbgNz/78Em93v7G1/f9/51vvv0kfGxZc6RTnVQ3f1T/OexuyYb7Tm4fe1vqkzW3VeOc56zmjcK1pi697V3tG2qT+kP5fvGj7x3dfq+Hc8+heN+L/qE2nSIeAZYEmF6e/cUf/ryHJvrn7nyV0SXAYpnRP1f5mhC+8Ue/7I8VYEMLi6B+zsSbq62yM7R4DMU/ty5LE2CxvV4A13ATie0a8mvMPEeG0uZ4sR/767k3oWyf67YeaZXm91oEWKl9fRxqDvjznPuA1x/Z6itvaly870X/VDtzpEeA9QgwCSSLsTk6O9oYI8BOUX4ELt9o1ibA1J6+G+lQfByvY/1TFjAvOHk3fWzZc+RT/0VBMYfN1m3kefGc+sb59hw75G1LeHk81j4/prZPa4Xmj/pHwkn8u69aceOcnHOuH9M+BFgSYH2d+MHnX+706DCm0WNCnVQ5TPHvvPf+4+NLXX/3408f452uJMAc3+fqPY4PDw+7m5ubV+z25RuK0+TxiZBcfaKAcVh2Pck04XJctBEFRkyn8Fi3GCd/FiS2M7QzUnyfeCjFux9cj1yOw+3GusuvPnOc3JhffsfFcOVzu3x873S5f7L9XP7Qte3azf3r/K6Hr8e4qpsXYKW3jdiG2AeqQ0w/pgzx5rrLjbaVP8fn9pXKVz2i3ejPZYypp+sS59CYfKX6i0vV3fGqr9sSOXe86x/b7/SOk5vrl9PE/LLtj23oOrYrzx+Pr8JzWcqnvpUt93EeB9Un2h/jVzmun9zYhmzf9XM9XH+V67S5jaqDbOb2KKxU7lj7Lt92XD+323VyvNxYj5xf184rN+cv9W9un+vvcYo2VX4uR3a7+i3my/7cf2pbtKEyXJbbH9sue102lLar3rn82tcIsBMIMIkuiTUNZukUq2UBFoGWPy8AgjlPtghuaeJ5AsfJINuxvFLeaN92SguH0noSxnzRX4r34lSarKp77A8tDrH+ub+UtqueypfD3a6+/lG+WDfZyHZiO7NfaeOCluN1rTaoDvr0jXMpb+wf97PrrLjYX102+sJyv8me6uk8qm+sc44fU/6YNC5vyFXdhvo72uirv+JkT/VzuxQW+6QvfyzHftnz2Cgs8+QynUZlxTYpXNcaZ+XXdWyvx1+u/S7bbgy33+U5zRQ31i/nc7853PVXO+1XH7geaov7wHnsKp3s+Tq6tiU7DndYn32lKfWf7OS65PbkeLfD9fC1ynG9Sm5X++JYx3xd4cof2xLTj/Urf7Th9sU1JJbjPs7t9fXYcmulQ4CdQIDF73bp9CufmmlwnyPATgWH4Y72I9wO12RTWl9ntyuP0uTJEcO8IChvnFzZ9tjrPHFzvlK8yi61TYtdV928+Hhxi2Upj9oUw+RX+Tl8TP9kO6U65XS+ntq/apvKcP4hV/0T07tPPL6Kk01fD9nL8e7rGN4V5vhjyp/apy4ru+pr1S2HT7mO9Y/zM9axiyWXEfM7zK7qF1kvpVU6j2lXWWpjtGP7dh1vvuW6LKWR3/PK4X32bLfLVT7b6op3XWKc2qY2un6qg+uhMNnM4+i0cqMt+x0vO11hQ/adR26sc163XI7rEcfKNmKYyx3q32zXttS3zqt6uX3yuw5Oq3JVX18f4+b2do2Fwjzm0e/yYp0d1oqLADuBAOt65JgHHAH21+90eKJ7IqufNHE1ofWRP/fdmOuuBSHmK8UrPNYl5vFCHcPkVx5N/K7JX8rTdSPr6oscpjJUXvx48cn1Kl1P6d+uNpXsKlx18c1a117w4+Ks+Fj/aM/tjfGqg9J0xTndUJqx5asc1a/Up111cNmxHRpf1S2WG+NL/i77tqNy5M91jCz15Y9lqo3KF8M8VjFM/ngjjWU5neoU+0B9p7D4cbzCVEeVL7sqU3Fxnrsezq9rlzXk2m4pnWxmex5v953iXQeFxX633a7+c5zcaMvhMazPfl//5bqoHmqTy+jKq/g41i67r39L7dM4qQ6yIb/SuV2ug13Fx3IdPsVV/mgjt1+2Ypjrovopzm319ZSya6RFgCHAHidvBNnwdU0iTVyldZrsduVRmjw5FOYJorhsR9daUOIE7EqTw7QoqA453Nd98X1tUz7Vx3bkxjapT3J8qSy1Kdcx2nIZsX8cH/u+q07OO8Yd6t+p9mVPeVx2rL/Doqt+yH0W47Nf49O3mOb2HFP+1DbnOir/UD1zHl/31T/Oz1jHyFJffpehPunq81JfKa3HNJZle3HOdI1njBfzKseu0su27dumXbe5tD44nd3YLw6LbqyLw90mzy/VL/aF6+D0cofGN9pyvhhWsj/Uf66Lyvcn9o36tdSXrkd0bS/a6Gufx0r1VB6x4fGMduVXXZQuh0+5Vv5ow/WNNuKYu4/dN3KVJ6ZvyY8AmyDA/DjRJ1z68r0eL+Yv4Tu+b6CfcwJ26i/hx3p3TaK8yMf08mvCdC3wnhyasM7TZd9xthUnoMJsR3ljWvtVdt+k64tXWZq0thVdlxttK73r4Xi3TwuDbDk+2or5HJ7zKzz2jxdt21e87Oe+droc7nKiq3roE8Psd31iexXXZ1/1dXudX3WU33ajK9tj6uk80b7Doquy4g1I6aeWrzr15YnlZb/zxjHKaXQt+11lKKxUf9tW/njTiSz15Xc9usp1nMYi8hDLVJpYlvPIntLpOo+P54DjlV9hLsPlOd427ZqhzI/HNedz+tiHtiVX5UbenF7jFf1mXGEqQ220HV1HGw6PbrTl8BhWsj/Uf4ovtU3luL9d5pDrOsl12r72KS4yIL8/zm9XdVWcr6PrepbinTbbzmOhdJE/2VW5zn+s63vs7e3ts2311QEBNkGAqSMtuiy8dD1WgFnAKW/8xPx9g+U4w3GqX0G6HLldk8iTVuDr0zWJtEA53otVzteV13nsdk0m2+mK61s81J6heKVRe1y+3FiOy3Z8jLP9GKfyYhrHRdf9o/wxXP7ct7luWnBiftnw4q78uo6fbD/WLbdNaRUW8w/ZzzZcF9tRebkO2f7QdZ8NL9Auwwv91PJzPzv/UN1cbnZVr5jX8eqfGN5Xf8cpfRx31dXj6DS2P6b9ShvbF+eu4mL9YlkOVxq3T3Zctlyllz3Huz5ud+k62nBalyfXDCh/DJc/10G2oo08to5zPl3ro3wKc5+6nNgeh9l1e2L95ZeNMfadxvlz/7lejrfrNqgeXXVwfF+c29DXPpfvfi9du152ZdP2Yx3NbYyLfrVfH4d5LGxXrtlymhhnv+vrNEPu5eXl/p8G7u/vH8seynNMPAIs3aCO6UTyPL3Jl/rDi4sXg1K654RrQvdNtqH455RN3nEc0E/001IZsOA4V/0lZPL6pusscI6t37nbl+ut9bpLgOV0vlbaLOrcJt1/nG6MK/GFAEMgTYJmDFjnSnNqAeaJVmrfUHwpH+EIBhiAATFw7g2cTnSyAFOdsug4ltdzty+Kra77hU/ASu3r6gv1l/qtlKcr/Orq6iT/tZnL4gQMgTcJzAzQlOuuCTUlP2m5CcIADGyZAW8i/WhN7lziq5V+jW3LjxeHBJjaEPPbP6Vtd3d3e/Glr/pMyXdMWgQYAuzkkB0DJnm40cIADMAADKyZAQQYAmwvwP77f/0vnTsH7yBw//azb/qCvoABGICBpwz8n4/eb/oe8j/e+/vmDhsQYAiwZqD87LPPdn2fNe+EaBs7fRiAARjYFgMIMARYUwLsta+9tuv6SJixOG1rcWK8GW8YgIE1M4AAQ4A1I2wksrrEl8IQYCzEa16IaRt8w8D2GECAIcCaE2C//Pdf7n+F8vDwsP8fFgTY9hYmbkaMOQzAwNoZQIAlAXb92z/t/6VeAx/9awEh/gP/R1/+erL4in0S/XP0j0/AJMD+5X//y5PTME7AWIznYAwbcAQDMNAKAwiwJMD0WiC9p1EDFP2tDNhc9Tj2XZSxT6J/jnohwFgY5+AIG3AEAzCwBAYQYD0CTCdEFmNLGMwpdZxDgM3dPwgwFs0pDJMWXmAABpbMAAIsCbChwXznvfefvEhbj+Gc54PPv9wLNrl+1BcF3FC87PTZV7zsKo0f/+laL/l2HXJ+nVI5LrolAdb1wvCYb4z/2JeFI8BYTMfwRRo4gQEYWAMDCLCJAiwKLgEgAeTvUll4RdGl9BZBQ/Gy12ff5alM2dJ1PIWy+IqCLNZP6f0pCbBo22mnugiwv/Xz1L4jPX0HAzAAA9tgAAEWRMkx0HcJrGjHp14KswArxcdw+6N9hWVB5RMrxUmMZQHXFaa0fQLMgtF1qOVyAraNRacWT5QDTzAAAy0zgACbKMAkTiSC4seCpSSwlFYQDMUrTZ99xctWPOGKcHXlVfp4Iuf0JQHmMtw+n+453yldBBiL5Sn5wjZ8wQAMtMQAAmyCALOA0qM+D2I8oXK84+TGR4Rj40v2Za9PgJVOu2J97O8TYE7jR5qqt8NO6SLAWBxPyRe24QsGYKAlBhBgEwSYBI4EkAfQj//6TsCU3gKmS4DF+CH7KrdPgLk+pRMy11vuGAHmdK5/zN/n5ztgLHJ9fBAHHzAAAzDw+g4BNkGACRgJF4kgfeSX+MoCzPFyo3ixACvFD9lXvPL2CSyLsFiGhJ3ydsUpnevfFe+8yj/2gwAb31dj+5R09CkMwAAMrIsBBNgEYTEEvwVWKd1QfCnfVsJ5BLmuxWUr3NJOuIUBGDiGAQQYAmz0ydYxgE3JgwBjEZvCC2nhBQZgYMkMIMAQYE0KML2Im5dxs7gueXGl7vALAzDQxwACbEYB1tfRxA1PRJ+Avfa11568iFvXiqMPh/uQPqKPYAAGYGAZDCDAEGDNCBsE2DIWDRZ3xgkGYAAGns8AAgwB1pQAkwgrfZjwz5/w9CF9CAMwAANtMIAAOwiwFy9e7C4uLpoRI0yQNiYI48A4wAAMwAAMnIIBBBgCDNHJKSgMwAAMwAAMVGYAAXbocE7A2OGcYoeDTbiCARiAARjoYgAB1qgA87/J668YLi8v2ZlU3pl0TRbCWERhAAZgAAbmYgAB1qAAk+CS8Lq6ukJ4IbxgAAZgAAZgYIUMIMAOg9rSI0gJr/v7eybcCifcXDsn7LALhwEYgIFlM4AAQ4Ah9BB6MAADMAADMFCZAQTYocM5AVv2ToKdIOMHAzAAAzCwJAYQYA0KsJubm93d3R27kcq7kSVNXOrKjQYGYAAGls0AAqwhAeZfPkqAMbGWPbEYP8YPBmAABmCgjwEEWEMCzAPFCRiT1izgwgIMwAAMrJMBBFiDAoxfQa5zsrGIMq4wAAMwAANmAAGGAONx54EBTwpcFkgYgAEYgIFTM4AAQ4AhwBBgMAADMAADMFCZAQTYocP5Gwp2O6fe7WAfxmAABmAABswAAqxBAabB4VVETFJPUlxYgAEYgIH1MYAAa1SA+S8peBn3+iYdCyljCgMwAAMwgABrVIAxOZmcMAADMAADMLBeBhBgCDC+eHlggIVuvQsdY8vYwgAMtMYAAqwRAfby5cvdG2+8gRhCDMEADMAADMDABhhAgB0G+dy/gkSAsTtrbXdGfWASBmAABk7HAAIMAcZOawM7LRbR0y2i9C19CwMwcAwDCDAEGAIMAQYDMAADMAADlRlAgB06nEeQf93BXP/2T7ubP/5lPxGj/xh1v8Y8H335633/fPfjT3fRP1dbP/n+u7vf//zHu+988+1d9I+x//Y3vv6Yd0z6FtO4zeoDfVqsY6yTxqmlero+6sfoj3XGz2kNDLTBAAIMAfbkJvfJr363++IPf96HRf+cE1YC74PPv3xS7pz2T2lL9Vb933nv/X0b7J+rzB+++639DV1iKvrH2K8lwL76yQ92v/jR9046fm77mHafM41FzpQ6SBz95mcfnqT/zID6L/qn1I+0bdycGYf1jwMCDAH25EYQRZdOeCzG5lwM1iLAdAp2SgHmm7tupGP63zdc5RuT/tg0CLC/3Rg8RlP6spYAU510OicxNqV+pP3b+NIX9MUpGUCAIcAmL84SaRIe/kioGVKdDDlcrh5jOi6GR7/sOU3OH+OcJua1P56oOcyu88lVfZTWjw+VxvWP4tN5XJ9o33El9/Lycv8qqbu7u8d2ldIeE+7Hc3YtuKIAc5zcLOBinPyxDhJXumHHR4HyK43icl5dTz3NyXZsP9aj7wRMp2+xHrl9pXjbzOmzoCzld/1yfO5Dp8tu7NNYf/ljnbL9GCebQ/G5XK4RETDQJgMIMATYkxvw0ESVgOk7FYuCS7aiwLFthXUJGosdnSzFtBZIClPZ8Trbz9dZVKl+SmNhF0+xuspXWblNrlvJPaUAy2Ih1kE3at/YfdPWzVp5nE7xUfAoPgooiyOFK49PeGxPYX11cDklV2XH8krpLJZyfG6PRY3TDcWr7Nh+95nbN5Q/x7t/XP4Yt68Psv2p7RtTPmnavBkzLtsbFwQYAuzx5jy0AFigyB1K63iJF4sdh5UEWJfYiWFd5cu27SttlzhUeRZ1qk8WVDne9lRf2esSi25LbVfipyRgLCZ8Iqa6xZt99Md6S5Q5j+zrU4pX+HMFWD7xiWXZXxJgsa5OG8Oivys+94GuY3uH8uf4uQVYtq82xLDo72qfw3C3dzNnzJc35ggwBNiTm23fJPZpUV8aiRcJmviJgkZ5FdclarryKm0UVX0nYFGsxTrG8iS+lC7GR7/qpfQKU3tj2THdOf0SDLoR6xPFwxgBFtO7DbIjwaNrxUuUOK7LVRqd1HTFjQmTfddfbleeLgHm9sW89iv9ULzLUR6l1bXErNs+lN/xzqv8cwow23ebojulfW4n7vJuyIzZtsYMAYYA67wBdi0EFmClEzCLlxj/3BOwXA8JIgkkf6K46zoB86lZPAHrE2AqT2UovWx3CcVcp3NeS0BYDPkG7tMs1Sue+ES/65zz1BBgLluu6t51otclwJReoiS2L9oaE+8y1Reyk8vus+++kuty5xRgY+rfVz/XCXdbN3HGe7njjQBDgD3eTMZMZImT/AjP+SRsfHqkMAu2KJIULhs5LKa3WLJdu7bn6+xabEXRpHJifYdOwGRT7VC62JZcVt/1Kb8DlsuVgBkrwCwgfOIjW8obT8XGCLCSaMp1G3OtumQRpHwlAab6xfrmMobild7CSyJMn2hjKL/q6jwWXxJF0caQ322LQs55hsofiredIff+/n7/QxGxOpSW+OXe4Bm7tscOAYYAm7wA51OoeKIU4yy0stiyUOo6xbLIcpzcaN/CKMZHgZVtxzgtRrqO9koLlOznepfS5vBTCjDd7ONHN2SXb4ElYeAwiYUocJzGNmJ+5dG1BYZtdLmyaRvRflfaGCb7zmd3KF7polg5xkYsQ37XP9p1mj77uf987bxjXYlYt/8U7Ruqx+3t7V6AXV9fP7IylIf4tm/mjM/yxgcBhgBbzALsR5x5oZFYiqdeOX7qtUVc6SRuqj3SL29hXPuYSXg9PDzsEGCwuXbWW24fAgwBthgBppMria04oXxiNqdY0inZsadfsW74ubm1yoD+o04CrNX6US/mzhYYQIAhwBa1CEscxceP8s8lvvz4ND+23MJC8Nw2xu9DxUdr0f/cMlrPH9va5Y+Phs/Vlqurq73w0nfAzlUHykVcwcBfGUCAIcBYiA8MsChwY4ABGIABGKjFAAIMAYYAQ4DBAAzAAAzAQGUGEGCHDn/x4sXu4uLibAC+fPly98Ybb5yt/FqKn3LYXcIADMAADMDA6zsEGAIM0Vd518PCw80HBmAABmAAAYYAQ4AhwGAABmAABmCgMgMIsEOH8wiS3Qg7UhiAARiAARioxQACDAHGrqfyrqfW5KYcbiQwAAMw0C4DCDAE2BMB5v/Z0qSN/rkmcfwPrzGvBJparv+sVf8NFv1T7ZTS6zU9+o8n/adT9Cu9X0vT939P8TU38pfKOTZcdYvvesx2Yp2jP6fjut1Fm7FhbGBgHQwgwBBgT0SA/gFef0iqCR79c094lXEKAebXFel1QtE/V/3ji5SjX/bHCDDXI78E2+HPdYcEWKxz9D+3XPKv44bAODKOMFCPAQQYAqwowCSQLMbmnpQ1BJhfUyQxNlf9o2jxv79LeMn+0gRYrv9cfYSdegs4fU1fw8ByGUCAIcAmixOdjJUeJVr0OL70Wp+SABvKL3s62fLjRZUz9STt8vJy/zoWvQ9vzsUrCrD4KhoLtFhW3wnYb3724f4xp23EfPJbBDo+PsrMJ2BO0/dYNNvnerkLOmPH2MHAchhAgCHAJokQCaDSqZjFk1wvAkrb9WLrLgE2Jr+/l2abzjPllOvUAkyix6JL37OSoHJ/2C0JMIU7r9JKXEWB5e9txTS2KTcKMPllL8bjX87izFgxVjCwbgYQYAiw0TdoiRydOJXEjsSRhZEXDmKfz8cAABabSURBVAskX9vtEmBj8iuNPrYjV3WKoi/G1fRLFEn0xNMmh2XBVBJgub5ZwEnM6QQsp/O1BRjia90Lt8cbl3GGgeUygABDgBVv5nlil8SU00kY5ceBzpNFW0mADeXvKsPln9u12OoSYDFM9SwJsPx4UUIqnqBlgZfbrHh/sujLable7sLN2DF2MLB8BhBgCLDJAiyLKS8EEkf5BMy/RHQauyUBNpR/aQJMwkuCKIuhLgFmARdPuPIJmGzFePenXccPPap0etzlL+KMIWMIA8tkAAGGABstwDTJJZwkgromvMVWFGhdQst28mnXmPxzCLBTfwcsnnbp+1td38PqEmAWazG/BFU8AVM+hXX1v8IswOR32iz+SnkJX+YizrgxbjCwTAYQYAiw4s28NKklqvwrx/wrRIsox0eR5ceRjrMbT7368qs+LQsw1U8CKH6y+Ipx9ncJLMflEzCVYWHlNPFL+gqLJ2SKy2GlcSV8mYs448a4wcAyGUCAIcAmCzAm+zInO+PGuMEADMBAOwwgwBBgCLADAyxM7SxMjAVjAQMwsHYGEGAIMAQYAgwGYAAGYAAGKjOAADt0+IsXL3YXFxdnA/Dly5e7N95442zlr32nQfvYTcMADMAADLTEAAIMAYboq7zraWkBoC7ckGAABmDgPAwgwBBgCDAEGAzAAAzAAAxUZuCJAHvrrbd2b7755lk+egS45fLn6Pf/+//+fafPHLawcZ55QL/T7zAAAzCwDQYQYAfBeW4BOMeEQ4BtY9LOwQo2YAUGYAAGzsvAKwLsXM+Cz/0l+HOXP0e/W4DNYQsb5/lOAP1Ov8MADMDANhhAgB2e+bYiwO7v73cPDw+729vbyc/jEWDbmLQszowzDMAADCyfAQRYYwLMk0oi7Pr6epIIQ4Atf0J6/HEZSxiAARhYNwMIsEYFmE7Abm5uEGCVf5XCgrfuBY/xZXxhAAZaYQABhgCbJPJaAZd6sIjCAAzAAAwsmQEEGAIMAcYpGwzAAAzAAAxUZgABdujwVr6EbzWvx493d3eTJgTfAWM3aH5wYQEGYAAG2mYAAdaoANPEubq6mvSLSARY25ONxZDxgQEYgAEYMAMIsEYFGCdgTFJPUlxYgAEYgIH1MYAAa1SA8SvI9U02FlDGFAZgAAZgwAwgwBYowPT/YF1/1sojSCa2JzYuLMAADMBA2wwgwBYowC4vL/cCTP+aHycYAqztyRbHCj9jBQMwAAPbZgABtkABpkkr8YUA2/bkZfFm/GEABmBguQwgwBoVYHrEqF9Bdk0u/zoy/1M+J2DLnYhd40wY4wkDMAAD62UAAdaYABt6Gbf+G6z0nkgE2HonKoswYwsDMAAD62IAAdaYAHvOBEOArWtyPocF8sICDMAADLTNwCsC7M0339yd46N/on/rrbfOUrbae+7y5+hzC7A5bGHjPPOAfqffYQAGYGAbDCDADoITAbYN4FnYGGcYgAEYgIEWGHgiwC4uLjq/9F3jGPPc72I8d/k1+pgy2j6OZnwYHxiAARjYDgMIsBV9B4yJu52Jy1gz1jAAAzCwbAYQYAiws516sngse/Fg/Bg/GIABGDieAQRYowLMrxvSX07on++B/HjI6Tv6DgZgAAZgoDUGEGANCjC/aqj0R6ytQUR9WNhgAAZgAAZgYBoDCLAGBZiEV37NEGBPA5v+or9gAAZgAAZaZgABhgDj8eaBgZYnKnXjRgIDMAAD62IAAYYAQ4AhwGAABmAABmCgMgMIsEOHt/Q/YHrJtt75yG5nXbsdxpPxhAEYgAEYMAMIsIYEmH/5KAHmAcJlssIADMAADMDA+hhAgDUkwDzBOAFb30Tz2OIytjAAAzAAA2IAAdagAONXkExOFmgYgAEYgIF1M4AAQ4DxuPPAAIvduhc7xpfxhQEYaIkBBBgCDAGGAIMBGIABGICBygwgwA4d3tKvIHkEyS6tpV0adYFHGIABGJifAQRYgwJMoOsdkLyKaH7gWUToUxiAARiAgRYYQIA1KsD8lxS8jJuFooWFgjrAIQzAAAzMywACrFEBBujzgk5/0p8wAAMwAAMtMYAAQ4DxxcsDAy1NTOrCjQIGYAAG1s0AAgwBhgBDgMEADMAADMBAZQYQYIcOP/evIM9dPjutde+0GF/GFwZgAAbaYgABhgBj11N518Mi2NYiyHgwHjAAA+dgAAGGAEOAIcBgAAZgAAZgoDIDCLBDh5/7EeC5yz+H+qdMdp0wAAMwAANbZQABhgB7suu5/u2fdjd//Ms+LPq3OkFyuz/68tf7/vnux5/uoj+nO/b6k++/u/v9z3+8+843395F/1h7yvvDd7/1ZEy78irdb3724WC6rrzPCVO7VLbaFv3PsUlebuAwAANLZAABhgB7chP+5Fe/233xhz/vw6J/Trgl8D74/Msn5c5p/5S2VG/V/5333t+3wf65ypR4kkB5+xtf3wsp+8faV/pTC7CvfvKD3S9+9L2jxk/tch2jf2z7SMeNFgZgYC0MIMAQYE9upFF06YTHYmxO4NciwHQKdkoB5hMiCZWx/W9xMzb9MenmEmAqu0Z9j2kjebjJwwAMnJoBBBgCbPTN3TBKpEl4+COh5jidDDlcrh5jOi6GR7/sOU3OH+OcJua1P56oOcyu88lVfZTWjw+VxvWP4tN5XJ9o33El9/Lycv8uz7u7u8d2ldIeEy7REj8SaraTBY3TOY3Ek8Pkdz67CtMJmh9/Kq38io95bUNufpQZ4+R32S4DlxsbDMAADLy+Q4AhwF65CfdNDAmYvlOxKLhkJwoc21VYl6Cx2NHJUkxrgaQwlR2vs/18nUWV6qc0FnbxFKurfJWV2+S6ldxTCjCJoL7HfxI8fgQpfymtwksCLObrOoXrq0NfXKm/COdmDAMwsEUGEGAIsEexMzQBLFDkDqV1vMSLxY7DSgKsS+zEsK7yZdv2lbZLHKo8izrVJwuqHG97qq/sdYlFt6W2K4GTT5xiHSzAooiK8fb3CbAszGQrnmL1iayh+rl8XG64MAADW2cAAYYAGy2mfFrUN2kkXiRo4icKGuVVXJeo6cqrtFFU9Z2ARbEW6xjLk/hSuhgf/aqX0itM7Y1lx3Tn9EvkSBTp0yWWHNf33bE+AeZHjqU29gkw5emrX8km4dyMYQAGtsYAAgwBVhQjeTJYgJVOwCxeYvxzT8ByHSSIJJD8ieKu6wTMp2bxBKxPgKk8laH0st0lFHOdznmt07D4mFHiK36HqyTCTinAYn/k+sU4/NxwYQAGtswAAgwBNlqAaaJInORHeJ5AEjY+PVKYBVsUSbaRw2J6iyXbtWt7vs6uxVYUTSon1nfoBEw21Q6li23JZfVdn/I7YLlcCakuAaZ0Cpcg6xJhzxFgytv3GDTWUWn1iWFj/Pf39/sfMqgvx6QnDTdyGICBpTGAAEOATb7B5VOoeKIU4+SXAMpiy0Kp6xTLIstxcqN9C6MYHwVWth3jNDl1He2VJqzs53qX0ubwUwowP1602/UI0l/CV738ONBhzhfdKKaUfugRpOwqj23E/A6zm+uX+6p0fXt7uxdg19fXk/ks2SScGzQMwEBLDCDAEGCLucH5EWeeQBJL8dQrx0+9togrncRNtUf66Yu+hNfDw8MOATa97+CNPoOBZTCAAEOALUaA6eRKYisuLj4xm1Ms6ZTs2NOvWDf8xy+C+g81CTD68Pg+pO/oOxhomwEEGAJsUTc5iaP4+FH+ucSXH5/mx5YsYvUWsaurq73w0nfA6Pd6/U5f09cwUJ8BBBgCjBvdgQEWoPoLEH1On8MADGyVAQQYAgwBhgCDARiAARiAgcoMIMAOHf7ixYvdxcXF2QA8d/lb3YHQbnbfMAADMAAD52AAAYYAO5voPAfwlMlCCwMwAAMw0AIDCDAEGAKs8rFzCxOfOnADggEYgIHzMoAAQ4AhwBBgMAADMAADMFCZAQTYocPP/R2sc5fvnZD/5kHX0e/457rxLyTG/CP91PL8X2H6a4ron2qnlF7/Eq9/ef/ON9/e/2O8/UqvV/7E6y4b/md6pTv2X+K77DpMdv2v9w6Lbl/9Yzr8590Z0//0PwysnwEEGALsya5Hf0Cq/8PS5I/+uRcDlXEKAeZ/y9e/2Uf/XPWXuJHIkdiKftkfI8Bcj9K7GB1/rDskwGKdo//Y8si3/psEY8wYw8BpGECAIcCKAkwCyWJs7glYQ4D5X/IlxuaqfxQtOgWzGJP9pQmwXP+5+gg7p1ms6Vf6FQbWxQACDAE2WZzoZKz0KNGix/Glf5UvCbCh/LKnky0/XlQ5U0/STvWy7CjAJMz8UXheOPtOwOKLrmUj57UItP34KFNhincep5HYchjuuhZxxpPxhIFlMoAAQ4BNujFLAJVOxSye5HpBUNqu9yp2CbAx+f29NNt0nimnXKcWYBI9Fl36zpUElfvDbkmAKdx5lVbiKgosf4crprFNuVGAyS97MR7/Mhdqxo1xg4H1MYAAQ4CNvkFL5OjEqSR2JI4sjLxYWCD52m6XABuTX2n0sR25qlMUfTGupl+iSKInnjY5LAumkgDL9c0CTmIunnDl9BZgiK/1LdZ5rLlmjGFg2QwgwBBgT8RM34QuiSnnkTDKjwOdJ4u2kgAbyt9Vhss/t2ux1SXAYpjqWRJg+fGihFQ8QcsCL7dZ8f5k0ZfTcr3sxZvxY/xgYNkMIMAQYJMFWBZTXgQkjvIJmH+J6DR2SwJsKP/SBJiElwRRFkNdAswCLp5w5RMw2Yrx7k+7jh96VOn0uMtewBk/xg8GlssAAgwBNlqAaaJLOEkEdU16i60o0LqElu3k064x+ecQYKf+Dlg87dL3t7q+h9UlwCzWYn4JqngCpnwK6+p/hVmAye+0WfyV8hK+3IWcsWPsYGB5DCDAEGDFm3lpQktU+VeO+VeIFlGOjyLLjyMdZzeeevXlV31aFmCqnwRQ/GTxFePs7xJYjssnYCrDwspp4pf0FRZPyBSXw0rjSvjyFnDGjDGDgeUygABDgE0WYEz45U54xo6xgwEYgIE2GECAIcAQYAcGWJTaWJQYB8YBBmBgCwwgwBBgCDAEGAzAAAzAAAxUZgABdujwc78M+9zlb2G3QRvZVcMADMAADLTCAAIMAcaup/Kup5XJTz24EcEADMDA+RhAgCHAEGAIMBiAARiAARiozAAC7NDhPAI83y6AHRh9DwMwAAMwsDUGEGAIMHY9lXc9W1tkaC83VhiAARh4lQEEGAIMAYYAgwEYgAEYgIHKDCDADh3eyiPI+/v73cPDw+729pbJUHkysEN7dYdGn9AnMAADMHAaBhBgjQkwgy4Rdn19jQhDhMEADMAADMDAChlAgB0GtZUTMAswnYDd3Nww6VY46TzGuKfZVdKv9CsMwMASGECAIcAQeYg8GIABGIABGKjMAALs0OGcgLFjWsKOiTrCKQzAAAysgwEEWKMCTI8f7+7u2JFU3pGwsK1jYWMcGUcYgIHWGUCANSrABM7V1RW/iESAIcJhAAZgAAZWyAAC7DCorT2C5ASM3VvruzfqB6MwAAMwcDwDCLBGBRi/gjweahYE+g4GYAAGYKB1BhBgCDCOtld4tN36wkP9uDnCAAxsnQEEGAIMAYYAgwEYgAEYgIHKDCDADh3e2nfAeATJ7nDru0PazxyAARhYMwMIsEYFmF5FpF9Brhk+2sbiCgMwAAMwsFUGEGCNCTBexs1itNXFiHbDPgzAwJYYQIA1JsC2BB9tZbGFARiAARjYKgMIMAQYjzkPDGx1EaDd3ABhAAZgoD4DCDAEGAIMAQYDMAADMAADlRlAgIUO/+yzz3alD7uD+rsD+pw+hwEYgAEYWCsDCLAkwF772mu7/JEoWysAtIvFDQZgAAZgAAbqM4AAQ4AhLgMDLEL1FyH6nD6HARjYIgMIsHDz1UnXP/2vf9rpP7j8+ceP/3H/WHKLcNBmFkUYgAEYgAEYOA0DCLAkwOLjR4kwBNhpwGNC068wAAMwAANbZgABhgDjEWRgYMuLAW3nZggDMAAD9RhAgIWbrx5BcgJWDz4mOn0NAzAAAzCwVQYQYAgwTsACA1tdCGg3N0EYgAEYqMsAAizcfDkBqwsfk53+hgEYgAEY2CoDCDAEGCdggYGtLgS0m5sgDMAADNRlAAEWbr6cgNWFj8lOf8MADMAADGyVAQQYAowTsMDAVhcC2s1NEAZgAAbqMoAACzdfTsDqwsdkp79hAAZgAAa2ygACDAHGCVhgYKsLAe3mJggDMAADdRlAgIWbLydgdeFjstPfMAADMAADW2UAAYYA4wQsMLDVhYB2cxOEARiAgboMIMDCzVcnYLyMuy6ATHj6GwZgAAZgYIsMIMCSAIuvIrJfwmyLcNBmFkUYgAEYgAEYOA0DCDAEGOIyMMBCc5qFhn6lX2EABmDgKQMIsHDz1UlX6QM4T8GhP+gPGIABGIABGDiegWYEGIN4/CDSd/QdDMAADMAADCyLAQRYOAED3mXBy3gxXjAAAzAAA0tlAAGGAOM7YDAAAzAAAzAAA5UZaEqAXV5e7h4eHvaf6+trYKgMw1J3EdSbHTAMwAAMwMDSGGhKgLnzrq6u9iJMgsxhuEwuGIABGIABGICBtTDQpABT597f3+8kxNbS0bSDRQMGYAAGYAAGYMAMIMB4zIfIhQEYgAEYgAEYqMwAAqxyh1v54rILggEYgAEYgIHtMtCsALu7u9vd3NygyBGIMAADMAADMAADq2OgWQGmXYEEmH4VyS8it7tDYHfI2MMADMAADKyRgWYFGCdgTLg1TjjaBNcwAAMwAANioFkBxq8gAZRFCgZgAAZgAAbWygACjOfqq3uuvtbJSru4EcEADMDAehhAgCHAEGAwAAMwAAMwAAOVGUCAVe5wdi/r2b0wlowlDMAADMDAsQw0KcD8KqJjG0U+JgQMwAAMwAAMwEDLDDQlwHgZN5Ol5clC3eATBmAABmBgLgaaEmBzNQo7TBAYgAEYgAEYgIGWGUCA8R0wvngJAzAAAzAAAzBQmYFHAdaySqRu7GJgAAZgAAZgAAbWxAACrLLiXRM8tIXFEAZgAAZgAAaOYwABhgDj2BkGYAAGYAAGYKAyA68IsNvb2/0LsPUSbH1QtscpW/qNfoMBGIABGIABGCgx8IoAc0L+iwtozAIuLMAADMAADMDAvAwgwCofOQLwvADTn/QnDMAADMDAEhlAgCHAeMwMAzAAAzAAAzBQmQEEWOUOX6JKp87sLmEABmAABmBgXgYQYAgwdj0wAAMwAAMwAAOVGUCAVe5wdhDz7iDoT/oTBmAABmBgiQwgwBBg7HpgAAZgAAZgAAYqM4AAq9zhS1Tp1JndJQzAAAzAAAzMywACDAHGrgcGYAAGYAAGYKAyAwiwyh3ODmLeHQT9SX/CAAzAAAwskQEEGAKMXQ8MwAAMwAAMwEBlBhBglTt8iSqdOrO7hAEYgAEYgIF5GXhFgPEy7nk7GGDpTxiAARiAARiAgczAKwIsJ+AaaGAABmAABmAABmBgXgYQYDyC5Lk/DMAADMAADMBAZQYQYJU7nB3EvDsI+pP+hAEYgAEYWCIDCDAEGLseGIABGIABGICBygwgwCp3+BJVOnVmdwkDMAADMAAD8zKAAEOAseuBARiAARiAARiozAACrHKHs4OYdwdBf9KfMAADMAADS2QAAYYAY9cDAzAAAzAAAzBQmQEEWOUOX6JKp87sLmEABmAABmBgXgYQYAgwdj0wAAMwAAMwAAOVGfj/1kZBlwleIKcAAAAASUVORK5CYII=;" vertex="1" parent="1">
          <mxGeometry x="220" y="680" width="608" height="327" as="geometry" />
        </mxCell>
        <mxCell id="D9FhCrUlwlGwZ-h1Pyif-20" value="" style="shape=flexArrow;endArrow=classic;html=1;width=4;endSize=5.09;" edge="1" parent="1">
          <mxGeometry width="50" height="50" relative="1" as="geometry">
            <mxPoint x="840" y="842.5" as="sourcePoint" />
            <mxPoint x="910" y="842.5" as="targetPoint" />
          </mxGeometry>
        </mxCell>
        <mxCell id="D9FhCrUlwlGwZ-h1Pyif-21" value="" style="shape=flexArrow;endArrow=classic;html=1;width=4;endSize=5.09;" edge="1" parent="1">
          <mxGeometry width="50" height="50" relative="1" as="geometry">
            <mxPoint x="100" y="393" as="sourcePoint" />
            <mxPoint x="170" y="393" as="targetPoint" />
          </mxGeometry>
        </mxCell>
      </root>
    </mxGraphModel>
  </diagram>
</mxfile>
